G04 EAGLE Gerber X2 export*
%TF.Part,Single*%
%TF.FileFunction,Copper,L1,Top,Mixed*%
%TF.FilePolarity,Positive*%
%TF.GenerationSoftware,Autodesk,EAGLE,9.2.1*%
%TF.CreationDate,2018-11-01T02:04:35Z*%
G75*
%MOMM*%
%FSLAX34Y34*%
%LPD*%
%INTop Copper*%
%IPPOS*%
%AMOC8*
5,1,8,0,0,1.08239X$1,22.5*%
G01*
%ADD10R,1.300000X1.500000*%
%ADD11R,2.000000X3.000000*%
%ADD12R,1.500000X1.300000*%
%ADD13R,0.900000X0.700000*%
%ADD14R,5.500000X1.450000*%
%ADD15R,2.700000X1.000000*%
%ADD16R,1.000000X1.000000*%
%ADD17R,0.850000X0.350000*%
%ADD18R,0.350000X0.850000*%
%ADD19R,2.700000X2.700000*%
%ADD20C,0.508000*%
%ADD21R,0.550000X0.250000*%
%ADD22R,1.050000X0.600000*%
%ADD23R,2.300000X0.850000*%
%ADD24R,0.600000X0.300000*%
%ADD25R,0.250000X0.550000*%
%ADD26R,0.200000X0.550000*%
%ADD27R,0.700000X0.900000*%
%ADD28R,0.800000X0.900000*%
%ADD29R,0.250000X0.700000*%
%ADD30R,2.380000X1.650000*%
%ADD31R,0.600000X0.600000*%
%ADD32R,0.980000X3.700000*%
%ADD33R,0.600000X1.050000*%
%ADD34R,0.190000X0.510000*%
%ADD35R,0.250000X0.950000*%
%ADD36R,0.300000X0.950000*%
%ADD37R,0.300000X1.000000*%
%ADD38R,0.400000X0.260000*%
%ADD39R,0.800000X1.300000*%
%ADD40C,0.230000*%
%ADD41R,1.000000X0.800000*%
%ADD42R,0.700000X1.600000*%
%ADD43C,1.524000*%
%ADD44C,1.778000*%
%ADD45R,0.200000X0.700000*%
%ADD46R,0.600000X1.200000*%
%ADD47C,10.160000*%
%ADD48R,5.080000X2.540000*%
%ADD49R,0.350000X0.500000*%
%ADD50R,1.000000X0.550000*%
%ADD51R,0.800000X0.350000*%
%ADD52R,0.550000X1.200000*%
%ADD53R,1.100000X1.000000*%
%ADD54R,0.300000X0.800000*%
%ADD55R,0.700000X0.250000*%
%ADD56R,2.450000X2.450000*%
%ADD57R,0.450000X2.350000*%
%ADD58C,1.350000*%
%ADD59C,1.800000*%
%ADD60R,1.500000X1.550000*%
%ADD61R,1.400000X1.100000*%
%ADD62R,0.450000X0.300000*%
%ADD63C,1.625600*%
%ADD64R,1.050000X0.650000*%
%ADD65C,0.150000*%
%ADD66C,0.500000*%
%ADD67R,2.400000X1.700000*%
%ADD68R,1.900000X1.400000*%
%ADD69R,1.400000X1.800000*%
%ADD70R,1.500000X0.700000*%
%ADD71R,0.600000X1.100000*%
%ADD72R,1.000000X1.400000*%
%ADD73R,1.000000X1.100000*%
%ADD74R,0.850000X0.280000*%
%ADD75R,0.280000X0.850000*%
%ADD76R,2.050000X3.050000*%
%ADD77R,2.050000X2.050000*%
%ADD78R,0.900000X0.800000*%
%ADD79R,1.450000X0.300000*%
%ADD80R,1.524000X1.524000*%
%ADD81R,1.800000X1.700000*%
%ADD82R,1.700000X1.800000*%
%ADD83R,1.000000X4.600000*%
%ADD84R,1.600000X3.400000*%
%ADD85R,1.800000X1.600000*%
%ADD86R,0.600000X0.240000*%
%ADD87R,0.240000X0.600000*%
%ADD88C,0.254000*%
%ADD89C,0.508000*%
%ADD90C,0.609600*%
%ADD91C,0.554000*%
%ADD92C,0.900000*%
%ADD93C,0.406400*%
%ADD94C,0.200000*%
%ADD95C,0.304800*%
%ADD96C,0.152400*%
%ADD97C,0.812800*%

G36*
X237657Y216424D02*
X237657Y216424D01*
X237748Y216431D01*
X237777Y216443D01*
X237809Y216449D01*
X237890Y216491D01*
X237974Y216527D01*
X238006Y216553D01*
X238027Y216564D01*
X238049Y216587D01*
X238105Y216632D01*
X240676Y219203D01*
X247142Y219203D01*
X247162Y219206D01*
X247181Y219204D01*
X247283Y219226D01*
X247385Y219242D01*
X247402Y219252D01*
X247422Y219256D01*
X247511Y219309D01*
X247602Y219358D01*
X247616Y219372D01*
X247633Y219382D01*
X247700Y219461D01*
X247772Y219536D01*
X247780Y219554D01*
X247793Y219569D01*
X247832Y219665D01*
X247875Y219759D01*
X247877Y219779D01*
X247885Y219797D01*
X247903Y219964D01*
X247903Y237167D01*
X248188Y237452D01*
X248242Y237526D01*
X248301Y237596D01*
X248313Y237626D01*
X248332Y237652D01*
X248359Y237739D01*
X248393Y237824D01*
X248397Y237865D01*
X248404Y237887D01*
X248403Y237919D01*
X248411Y237990D01*
X248411Y238445D01*
X251775Y241809D01*
X252230Y241809D01*
X252320Y241824D01*
X252411Y241831D01*
X252440Y241843D01*
X252472Y241849D01*
X252553Y241891D01*
X252637Y241927D01*
X252669Y241953D01*
X252690Y241964D01*
X252712Y241987D01*
X252768Y242032D01*
X253053Y242317D01*
X256547Y242317D01*
X256638Y242331D01*
X256728Y242339D01*
X256758Y242351D01*
X256790Y242356D01*
X256871Y242399D01*
X256955Y242435D01*
X256987Y242461D01*
X257008Y242472D01*
X257030Y242495D01*
X257086Y242540D01*
X257840Y243294D01*
X257885Y243357D01*
X257913Y243386D01*
X257918Y243397D01*
X257953Y243438D01*
X257965Y243468D01*
X257984Y243494D01*
X258011Y243581D01*
X258045Y243666D01*
X258049Y243707D01*
X258056Y243729D01*
X258055Y243761D01*
X258063Y243833D01*
X258063Y253677D01*
X259403Y255017D01*
X267214Y255017D01*
X267234Y255020D01*
X267253Y255018D01*
X267355Y255040D01*
X267457Y255056D01*
X267474Y255066D01*
X267494Y255070D01*
X267583Y255123D01*
X267674Y255172D01*
X267688Y255186D01*
X267705Y255196D01*
X267772Y255275D01*
X267844Y255350D01*
X267852Y255368D01*
X267865Y255383D01*
X267904Y255479D01*
X267947Y255573D01*
X267949Y255593D01*
X267957Y255611D01*
X267975Y255778D01*
X267975Y259332D01*
X268305Y259662D01*
X268317Y259678D01*
X268333Y259690D01*
X268389Y259777D01*
X268449Y259861D01*
X268455Y259880D01*
X268466Y259897D01*
X268491Y259998D01*
X268521Y260097D01*
X268521Y260116D01*
X268526Y260136D01*
X268518Y260239D01*
X268515Y260342D01*
X268508Y260361D01*
X268507Y260381D01*
X268466Y260476D01*
X268431Y260573D01*
X268418Y260589D01*
X268410Y260607D01*
X268305Y260738D01*
X267975Y261068D01*
X267975Y265832D01*
X268305Y266162D01*
X268317Y266178D01*
X268333Y266190D01*
X268389Y266277D01*
X268449Y266361D01*
X268455Y266380D01*
X268466Y266397D01*
X268491Y266498D01*
X268521Y266597D01*
X268521Y266616D01*
X268526Y266636D01*
X268518Y266739D01*
X268515Y266842D01*
X268508Y266861D01*
X268507Y266881D01*
X268466Y266976D01*
X268431Y267073D01*
X268418Y267089D01*
X268410Y267107D01*
X268305Y267238D01*
X267975Y267568D01*
X267975Y272332D01*
X268305Y272662D01*
X268317Y272678D01*
X268333Y272690D01*
X268389Y272777D01*
X268449Y272861D01*
X268455Y272880D01*
X268466Y272897D01*
X268491Y272998D01*
X268521Y273097D01*
X268521Y273116D01*
X268526Y273136D01*
X268518Y273239D01*
X268515Y273342D01*
X268508Y273361D01*
X268507Y273381D01*
X268466Y273476D01*
X268431Y273573D01*
X268418Y273589D01*
X268410Y273607D01*
X268305Y273738D01*
X267975Y274068D01*
X267975Y278832D01*
X268868Y279725D01*
X274320Y279725D01*
X274340Y279728D01*
X274359Y279726D01*
X274461Y279748D01*
X274563Y279764D01*
X274580Y279774D01*
X274600Y279778D01*
X274689Y279831D01*
X274780Y279880D01*
X274794Y279894D01*
X274811Y279904D01*
X274878Y279983D01*
X274950Y280058D01*
X274958Y280076D01*
X274971Y280091D01*
X275010Y280187D01*
X275053Y280281D01*
X275055Y280301D01*
X275063Y280319D01*
X275081Y280486D01*
X275081Y286705D01*
X279715Y291339D01*
X307340Y291339D01*
X307430Y291354D01*
X307521Y291361D01*
X307551Y291373D01*
X307583Y291379D01*
X307663Y291421D01*
X307747Y291457D01*
X307779Y291483D01*
X307800Y291494D01*
X307822Y291517D01*
X307878Y291562D01*
X321848Y305532D01*
X321901Y305606D01*
X321961Y305675D01*
X321973Y305705D01*
X321992Y305731D01*
X322019Y305818D01*
X322053Y305903D01*
X322057Y305944D01*
X322064Y305967D01*
X322063Y305999D01*
X322071Y306070D01*
X322071Y335280D01*
X322057Y335370D01*
X322049Y335461D01*
X322037Y335491D01*
X322032Y335523D01*
X321989Y335603D01*
X321953Y335687D01*
X321927Y335719D01*
X321916Y335740D01*
X321893Y335762D01*
X321848Y335818D01*
X318038Y339628D01*
X317964Y339681D01*
X317895Y339741D01*
X317865Y339753D01*
X317839Y339772D01*
X317752Y339799D01*
X317667Y339833D01*
X317626Y339837D01*
X317603Y339844D01*
X317571Y339843D01*
X317500Y339851D01*
X283210Y339851D01*
X283120Y339837D01*
X283029Y339829D01*
X282999Y339817D01*
X282967Y339812D01*
X282887Y339769D01*
X282803Y339733D01*
X282771Y339707D01*
X282750Y339696D01*
X282728Y339673D01*
X282672Y339628D01*
X278862Y335818D01*
X278809Y335744D01*
X278749Y335675D01*
X278737Y335645D01*
X278718Y335619D01*
X278691Y335532D01*
X278657Y335447D01*
X278653Y335406D01*
X278646Y335383D01*
X278647Y335351D01*
X278639Y335280D01*
X278639Y310195D01*
X260688Y292245D01*
X260676Y292228D01*
X260661Y292216D01*
X260605Y292129D01*
X260545Y292045D01*
X260539Y292026D01*
X260528Y292009D01*
X260503Y291909D01*
X260472Y291810D01*
X260473Y291790D01*
X260468Y291770D01*
X260476Y291667D01*
X260479Y291564D01*
X260485Y291545D01*
X260487Y291525D01*
X260525Y291437D01*
X260525Y281568D01*
X259632Y280675D01*
X254868Y280675D01*
X254538Y281005D01*
X254522Y281017D01*
X254510Y281033D01*
X254423Y281089D01*
X254339Y281149D01*
X254320Y281155D01*
X254303Y281166D01*
X254202Y281191D01*
X254103Y281221D01*
X254084Y281221D01*
X254064Y281226D01*
X253961Y281218D01*
X253858Y281215D01*
X253839Y281208D01*
X253819Y281207D01*
X253724Y281166D01*
X253627Y281131D01*
X253611Y281118D01*
X253593Y281110D01*
X253462Y281005D01*
X253132Y280675D01*
X248368Y280675D01*
X248038Y281005D01*
X248022Y281017D01*
X248010Y281033D01*
X247923Y281089D01*
X247839Y281149D01*
X247820Y281155D01*
X247803Y281166D01*
X247702Y281191D01*
X247603Y281221D01*
X247584Y281221D01*
X247564Y281226D01*
X247461Y281218D01*
X247358Y281215D01*
X247339Y281208D01*
X247319Y281207D01*
X247224Y281166D01*
X247127Y281131D01*
X247111Y281118D01*
X247093Y281110D01*
X246962Y281005D01*
X246632Y280675D01*
X241868Y280675D01*
X241838Y280705D01*
X241780Y280747D01*
X241728Y280797D01*
X241681Y280819D01*
X241639Y280849D01*
X241570Y280870D01*
X241505Y280900D01*
X241453Y280906D01*
X241404Y280921D01*
X241332Y280919D01*
X241261Y280927D01*
X241210Y280916D01*
X241158Y280915D01*
X241090Y280890D01*
X241020Y280875D01*
X240975Y280848D01*
X240927Y280831D01*
X240871Y280786D01*
X240809Y280749D01*
X240775Y280709D01*
X240735Y280677D01*
X240696Y280617D01*
X240649Y280562D01*
X240630Y280514D01*
X240602Y280470D01*
X240584Y280400D01*
X240557Y280334D01*
X240549Y280263D01*
X240541Y280231D01*
X240543Y280208D01*
X240539Y280167D01*
X240539Y245425D01*
X230602Y235488D01*
X230549Y235414D01*
X230489Y235345D01*
X230477Y235315D01*
X230458Y235289D01*
X230431Y235202D01*
X230397Y235117D01*
X230393Y235076D01*
X230386Y235053D01*
X230387Y235021D01*
X230379Y234950D01*
X230379Y218940D01*
X230394Y218850D01*
X230401Y218759D01*
X230413Y218730D01*
X230419Y218698D01*
X230461Y218617D01*
X230497Y218533D01*
X230523Y218501D01*
X230534Y218480D01*
X230557Y218458D01*
X230602Y218402D01*
X232372Y216632D01*
X232446Y216579D01*
X232516Y216519D01*
X232546Y216507D01*
X232572Y216488D01*
X232659Y216461D01*
X232744Y216427D01*
X232785Y216423D01*
X232807Y216416D01*
X232839Y216417D01*
X232910Y216409D01*
X237567Y216409D01*
X237657Y216424D01*
G37*
G36*
X241470Y197374D02*
X241470Y197374D01*
X241561Y197381D01*
X241591Y197393D01*
X241623Y197399D01*
X241703Y197441D01*
X241787Y197477D01*
X241819Y197503D01*
X241840Y197514D01*
X241862Y197537D01*
X241918Y197582D01*
X243512Y199176D01*
X243565Y199250D01*
X243625Y199319D01*
X243637Y199349D01*
X243656Y199375D01*
X243683Y199462D01*
X243717Y199547D01*
X243721Y199588D01*
X243728Y199611D01*
X243727Y199643D01*
X243735Y199714D01*
X243735Y209882D01*
X244628Y210775D01*
X246934Y210775D01*
X247005Y210786D01*
X247076Y210788D01*
X247125Y210806D01*
X247177Y210814D01*
X247240Y210848D01*
X247307Y210873D01*
X247348Y210905D01*
X247394Y210930D01*
X247443Y210981D01*
X247499Y211026D01*
X247528Y211070D01*
X247564Y211108D01*
X247594Y211173D01*
X247632Y211233D01*
X247645Y211284D01*
X247667Y211331D01*
X247675Y211402D01*
X247693Y211472D01*
X247688Y211524D01*
X247694Y211575D01*
X247679Y211646D01*
X247673Y211717D01*
X247653Y211765D01*
X247642Y211816D01*
X247605Y211877D01*
X247577Y211943D01*
X247532Y211999D01*
X247516Y212027D01*
X247498Y212042D01*
X247472Y212074D01*
X245648Y213898D01*
X245574Y213951D01*
X245505Y214011D01*
X245475Y214023D01*
X245449Y214042D01*
X245362Y214069D01*
X245277Y214103D01*
X245236Y214107D01*
X245213Y214114D01*
X245181Y214113D01*
X245110Y214121D01*
X232725Y214121D01*
X217931Y228915D01*
X217931Y233680D01*
X217917Y233770D01*
X217909Y233861D01*
X217897Y233891D01*
X217892Y233923D01*
X217849Y234003D01*
X217813Y234087D01*
X217787Y234119D01*
X217776Y234140D01*
X217753Y234162D01*
X217708Y234218D01*
X212628Y239298D01*
X212554Y239351D01*
X212485Y239411D01*
X212455Y239423D01*
X212429Y239442D01*
X212342Y239469D01*
X212257Y239503D01*
X212216Y239507D01*
X212193Y239514D01*
X212161Y239513D01*
X212090Y239521D01*
X156210Y239521D01*
X156120Y239507D01*
X156029Y239499D01*
X155999Y239487D01*
X155967Y239482D01*
X155887Y239439D01*
X155803Y239403D01*
X155771Y239377D01*
X155750Y239366D01*
X155728Y239343D01*
X155672Y239298D01*
X151862Y235488D01*
X151809Y235414D01*
X151749Y235345D01*
X151737Y235315D01*
X151718Y235289D01*
X151691Y235202D01*
X151657Y235117D01*
X151653Y235076D01*
X151646Y235053D01*
X151647Y235021D01*
X151639Y234950D01*
X151639Y212090D01*
X151654Y212000D01*
X151661Y211909D01*
X151673Y211879D01*
X151679Y211847D01*
X151721Y211767D01*
X151757Y211683D01*
X151783Y211651D01*
X151794Y211630D01*
X151817Y211608D01*
X151862Y211552D01*
X155379Y208035D01*
X155451Y207983D01*
X155519Y207924D01*
X155551Y207911D01*
X155578Y207891D01*
X155664Y207865D01*
X155747Y207831D01*
X155790Y207826D01*
X155814Y207819D01*
X155845Y207820D01*
X155913Y207812D01*
X210467Y207556D01*
X220442Y197582D01*
X220516Y197529D01*
X220585Y197469D01*
X220615Y197457D01*
X220641Y197438D01*
X220728Y197411D01*
X220813Y197377D01*
X220854Y197373D01*
X220877Y197366D01*
X220909Y197367D01*
X220980Y197359D01*
X241380Y197359D01*
X241470Y197374D01*
G37*
G36*
X301055Y342277D02*
X301055Y342277D01*
X301121Y342279D01*
X301164Y342297D01*
X301211Y342305D01*
X301268Y342339D01*
X301328Y342364D01*
X301363Y342395D01*
X301404Y342420D01*
X301446Y342471D01*
X301494Y342515D01*
X301516Y342557D01*
X301545Y342594D01*
X301566Y342656D01*
X301597Y342715D01*
X301605Y342769D01*
X301617Y342806D01*
X301616Y342846D01*
X301624Y342900D01*
X301624Y364490D01*
X301617Y364532D01*
X301619Y364574D01*
X301597Y364641D01*
X301585Y364711D01*
X301563Y364747D01*
X301550Y364788D01*
X301496Y364861D01*
X301470Y364904D01*
X301454Y364917D01*
X301438Y364938D01*
X294004Y372373D01*
X294004Y372631D01*
X293993Y372696D01*
X293991Y372762D01*
X293973Y372805D01*
X293965Y372852D01*
X293931Y372909D01*
X293906Y372969D01*
X293875Y373004D01*
X293850Y373045D01*
X293799Y373087D01*
X293755Y373135D01*
X293713Y373157D01*
X293676Y373186D01*
X293614Y373207D01*
X293555Y373238D01*
X293501Y373246D01*
X293464Y373258D01*
X293424Y373257D01*
X293370Y373265D01*
X292928Y373265D01*
X292035Y374158D01*
X292035Y377922D01*
X292205Y378091D01*
X292243Y378146D01*
X292288Y378193D01*
X292306Y378237D01*
X292333Y378276D01*
X292350Y378339D01*
X292375Y378400D01*
X292377Y378447D01*
X292389Y378493D01*
X292382Y378558D01*
X292385Y378624D01*
X292371Y378669D01*
X292366Y378716D01*
X292337Y378775D01*
X292317Y378838D01*
X292284Y378882D01*
X292267Y378917D01*
X292238Y378944D01*
X292205Y378988D01*
X292035Y379158D01*
X292035Y382922D01*
X292928Y383815D01*
X294870Y383815D01*
X294911Y383822D01*
X294954Y383820D01*
X294999Y383835D01*
X310118Y383835D01*
X310861Y383092D01*
X310896Y383067D01*
X310924Y383036D01*
X310987Y383004D01*
X311045Y382963D01*
X311086Y382953D01*
X311124Y382933D01*
X311214Y382920D01*
X311262Y382908D01*
X311283Y382910D01*
X311309Y382906D01*
X321310Y382906D01*
X321352Y382913D01*
X321394Y382911D01*
X321461Y382933D01*
X321531Y382945D01*
X321567Y382967D01*
X321608Y382980D01*
X321681Y383034D01*
X321724Y383060D01*
X321737Y383076D01*
X321758Y383092D01*
X323028Y384362D01*
X323053Y384396D01*
X323084Y384425D01*
X323116Y384488D01*
X323157Y384546D01*
X323167Y384587D01*
X323187Y384625D01*
X323200Y384714D01*
X323213Y384763D01*
X323210Y384784D01*
X323214Y384810D01*
X323214Y393700D01*
X323207Y393742D01*
X323209Y393784D01*
X323187Y393851D01*
X323175Y393921D01*
X323153Y393957D01*
X323140Y393998D01*
X323086Y394071D01*
X323060Y394114D01*
X323044Y394127D01*
X323028Y394148D01*
X315594Y401583D01*
X315594Y440690D01*
X315583Y440755D01*
X315581Y440821D01*
X315563Y440864D01*
X315555Y440911D01*
X315521Y440968D01*
X315496Y441028D01*
X315465Y441063D01*
X315440Y441104D01*
X315389Y441146D01*
X315345Y441194D01*
X315303Y441216D01*
X315266Y441245D01*
X315204Y441266D01*
X315145Y441297D01*
X315091Y441305D01*
X315054Y441317D01*
X315014Y441316D01*
X314960Y441324D01*
X295910Y441324D01*
X295845Y441313D01*
X295779Y441311D01*
X295736Y441293D01*
X295689Y441285D01*
X295632Y441251D01*
X295572Y441226D01*
X295537Y441195D01*
X295496Y441170D01*
X295455Y441119D01*
X295406Y441075D01*
X295384Y441033D01*
X295355Y440996D01*
X295334Y440934D01*
X295303Y440875D01*
X295295Y440821D01*
X295283Y440784D01*
X295284Y440744D01*
X295276Y440690D01*
X295276Y400313D01*
X293107Y398144D01*
X277123Y398144D01*
X273498Y401768D01*
X273464Y401793D01*
X273435Y401824D01*
X273372Y401856D01*
X273314Y401897D01*
X273273Y401907D01*
X273235Y401927D01*
X273146Y401940D01*
X273097Y401953D01*
X273076Y401950D01*
X273050Y401954D01*
X256540Y401954D01*
X256475Y401943D01*
X256409Y401941D01*
X256366Y401923D01*
X256319Y401915D01*
X256262Y401881D01*
X256202Y401856D01*
X256167Y401825D01*
X256126Y401800D01*
X256085Y401749D01*
X256036Y401705D01*
X256014Y401663D01*
X255985Y401626D01*
X255964Y401564D01*
X255933Y401505D01*
X255925Y401451D01*
X255913Y401414D01*
X255914Y401374D01*
X255906Y401320D01*
X255906Y389890D01*
X255917Y389825D01*
X255919Y389759D01*
X255937Y389716D01*
X255945Y389669D01*
X255979Y389612D01*
X256004Y389552D01*
X256035Y389517D01*
X256060Y389476D01*
X256111Y389435D01*
X256155Y389386D01*
X256197Y389364D01*
X256234Y389335D01*
X256296Y389314D01*
X256355Y389283D01*
X256409Y389275D01*
X256446Y389263D01*
X256486Y389264D01*
X256540Y389256D01*
X286386Y389256D01*
X286386Y388883D01*
X286393Y388841D01*
X286391Y388799D01*
X286413Y388732D01*
X286425Y388662D01*
X286447Y388626D01*
X286460Y388585D01*
X286514Y388513D01*
X286540Y388469D01*
X286556Y388456D01*
X286572Y388435D01*
X287085Y387922D01*
X287085Y384158D01*
X286915Y383988D01*
X286877Y383935D01*
X286832Y383887D01*
X286814Y383843D01*
X286787Y383804D01*
X286770Y383741D01*
X286745Y383680D01*
X286743Y383633D01*
X286731Y383587D01*
X286738Y383522D01*
X286735Y383456D01*
X286749Y383411D01*
X286754Y383364D01*
X286783Y383305D01*
X286803Y383242D01*
X286836Y383198D01*
X286853Y383163D01*
X286882Y383136D01*
X286915Y383091D01*
X287085Y382922D01*
X287085Y379158D01*
X286915Y378988D01*
X286877Y378935D01*
X286832Y378887D01*
X286814Y378843D01*
X286787Y378804D01*
X286770Y378741D01*
X286745Y378680D01*
X286743Y378633D01*
X286731Y378587D01*
X286738Y378522D01*
X286735Y378456D01*
X286749Y378411D01*
X286754Y378364D01*
X286783Y378305D01*
X286803Y378242D01*
X286836Y378198D01*
X286853Y378163D01*
X286882Y378136D01*
X286915Y378091D01*
X287085Y377922D01*
X287085Y374158D01*
X286572Y373645D01*
X286547Y373610D01*
X286516Y373582D01*
X286484Y373519D01*
X286443Y373461D01*
X286433Y373420D01*
X286413Y373382D01*
X286400Y373292D01*
X286388Y373244D01*
X286390Y373223D01*
X286386Y373197D01*
X286386Y372373D01*
X278952Y364938D01*
X278927Y364904D01*
X278896Y364875D01*
X278864Y364812D01*
X278823Y364754D01*
X278813Y364713D01*
X278793Y364675D01*
X278780Y364586D01*
X278774Y364561D01*
X278773Y364558D01*
X278773Y364557D01*
X278768Y364537D01*
X278770Y364516D01*
X278766Y364490D01*
X278766Y342900D01*
X278777Y342835D01*
X278779Y342769D01*
X278797Y342726D01*
X278805Y342679D01*
X278839Y342622D01*
X278864Y342562D01*
X278895Y342527D01*
X278920Y342486D01*
X278971Y342445D01*
X279015Y342396D01*
X279057Y342374D01*
X279094Y342345D01*
X279156Y342324D01*
X279215Y342293D01*
X279269Y342285D01*
X279306Y342273D01*
X279346Y342274D01*
X279400Y342266D01*
X300990Y342266D01*
X301055Y342277D01*
G37*
G36*
X238194Y253242D02*
X238194Y253242D01*
X238213Y253240D01*
X238315Y253262D01*
X238417Y253279D01*
X238434Y253288D01*
X238454Y253292D01*
X238543Y253345D01*
X238634Y253394D01*
X238648Y253408D01*
X238665Y253418D01*
X238732Y253497D01*
X238804Y253572D01*
X238812Y253590D01*
X238825Y253605D01*
X238864Y253701D01*
X238907Y253795D01*
X238909Y253815D01*
X238917Y253833D01*
X238935Y254000D01*
X238935Y257519D01*
X238957Y257572D01*
X238961Y257613D01*
X238968Y257636D01*
X238967Y257668D01*
X238975Y257739D01*
X238975Y264661D01*
X238972Y264679D01*
X238974Y264697D01*
X238959Y264765D01*
X238953Y264842D01*
X238941Y264872D01*
X238936Y264904D01*
X238935Y264904D01*
X238935Y265914D01*
X238932Y265934D01*
X238934Y265953D01*
X238912Y266055D01*
X238896Y266157D01*
X238886Y266174D01*
X238882Y266194D01*
X238829Y266283D01*
X238780Y266374D01*
X238766Y266388D01*
X238756Y266405D01*
X238677Y266472D01*
X238602Y266544D01*
X238584Y266552D01*
X238569Y266565D01*
X238473Y266604D01*
X238379Y266647D01*
X238359Y266649D01*
X238341Y266657D01*
X238174Y266675D01*
X229368Y266675D01*
X228805Y267238D01*
X228731Y267291D01*
X228662Y267351D01*
X228632Y267363D01*
X228606Y267382D01*
X228519Y267409D01*
X228434Y267443D01*
X228393Y267447D01*
X228371Y267454D01*
X228338Y267453D01*
X228267Y267461D01*
X226375Y267461D01*
X215168Y278668D01*
X215094Y278721D01*
X215025Y278781D01*
X214995Y278793D01*
X214969Y278812D01*
X214882Y278839D01*
X214797Y278873D01*
X214756Y278877D01*
X214733Y278884D01*
X214701Y278883D01*
X214630Y278891D01*
X153670Y278891D01*
X153580Y278877D01*
X153489Y278869D01*
X153459Y278857D01*
X153427Y278852D01*
X153347Y278809D01*
X153263Y278773D01*
X153231Y278747D01*
X153210Y278736D01*
X153188Y278713D01*
X153132Y278668D01*
X150592Y276128D01*
X150539Y276054D01*
X150479Y275985D01*
X150467Y275955D01*
X150448Y275929D01*
X150421Y275842D01*
X150387Y275757D01*
X150383Y275716D01*
X150376Y275693D01*
X150377Y275661D01*
X150369Y275590D01*
X150369Y256540D01*
X150384Y256450D01*
X150391Y256359D01*
X150403Y256329D01*
X150409Y256297D01*
X150451Y256217D01*
X150487Y256133D01*
X150513Y256101D01*
X150524Y256080D01*
X150547Y256058D01*
X150592Y256002D01*
X153132Y253462D01*
X153206Y253409D01*
X153275Y253349D01*
X153305Y253337D01*
X153331Y253318D01*
X153418Y253291D01*
X153503Y253257D01*
X153544Y253253D01*
X153567Y253246D01*
X153599Y253247D01*
X153670Y253239D01*
X238174Y253239D01*
X238194Y253242D01*
G37*
G36*
X253811Y400697D02*
X253811Y400697D01*
X253877Y400699D01*
X253920Y400717D01*
X253967Y400725D01*
X254024Y400759D01*
X254084Y400784D01*
X254119Y400815D01*
X254160Y400840D01*
X254202Y400891D01*
X254250Y400935D01*
X254272Y400977D01*
X254301Y401014D01*
X254322Y401076D01*
X254353Y401135D01*
X254361Y401189D01*
X254373Y401226D01*
X254372Y401266D01*
X254380Y401320D01*
X254380Y402215D01*
X255646Y403481D01*
X255683Y403487D01*
X255725Y403485D01*
X255792Y403507D01*
X255862Y403519D01*
X255898Y403541D01*
X255939Y403554D01*
X256007Y403605D01*
X272304Y403605D01*
X272357Y403578D01*
X272415Y403537D01*
X272456Y403527D01*
X272494Y403507D01*
X272583Y403494D01*
X272632Y403481D01*
X272653Y403484D01*
X272679Y403480D01*
X273945Y403480D01*
X276553Y400872D01*
X276588Y400847D01*
X276616Y400816D01*
X276679Y400784D01*
X276737Y400743D01*
X276778Y400733D01*
X276816Y400713D01*
X276906Y400700D01*
X276954Y400688D01*
X276975Y400690D01*
X277001Y400686D01*
X293116Y400686D01*
X293181Y400697D01*
X293247Y400699D01*
X293290Y400717D01*
X293337Y400725D01*
X293394Y400759D01*
X293454Y400784D01*
X293489Y400815D01*
X293530Y400840D01*
X293572Y400891D01*
X293620Y400935D01*
X293642Y400977D01*
X293671Y401014D01*
X293692Y401076D01*
X293723Y401135D01*
X293731Y401189D01*
X293743Y401226D01*
X293742Y401266D01*
X293750Y401320D01*
X293750Y440690D01*
X293739Y440755D01*
X293737Y440821D01*
X293719Y440864D01*
X293711Y440911D01*
X293677Y440968D01*
X293652Y441028D01*
X293621Y441063D01*
X293596Y441104D01*
X293545Y441146D01*
X293501Y441194D01*
X293459Y441216D01*
X293422Y441245D01*
X293360Y441266D01*
X293301Y441297D01*
X293247Y441305D01*
X293210Y441317D01*
X293170Y441316D01*
X293116Y441324D01*
X275590Y441324D01*
X275525Y441313D01*
X275459Y441311D01*
X275416Y441293D01*
X275369Y441285D01*
X275312Y441251D01*
X275252Y441226D01*
X275217Y441195D01*
X275176Y441170D01*
X275135Y441119D01*
X275086Y441075D01*
X275064Y441033D01*
X275035Y440996D01*
X275014Y440934D01*
X274983Y440875D01*
X274975Y440821D01*
X274963Y440784D01*
X274964Y440744D01*
X274963Y440738D01*
X274963Y440737D01*
X274956Y440690D01*
X274956Y432063D01*
X266437Y423544D01*
X228600Y423544D01*
X228558Y423537D01*
X228516Y423539D01*
X228449Y423517D01*
X228379Y423505D01*
X228343Y423483D01*
X228302Y423470D01*
X228229Y423416D01*
X228186Y423390D01*
X228173Y423374D01*
X228152Y423358D01*
X221802Y417008D01*
X221777Y416974D01*
X221746Y416945D01*
X221714Y416882D01*
X221673Y416824D01*
X221663Y416783D01*
X221643Y416745D01*
X221631Y416659D01*
X221623Y416636D01*
X221623Y416628D01*
X221618Y416607D01*
X221620Y416586D01*
X221616Y416560D01*
X221616Y401320D01*
X221627Y401255D01*
X221629Y401189D01*
X221647Y401146D01*
X221655Y401099D01*
X221689Y401042D01*
X221714Y400982D01*
X221745Y400947D01*
X221770Y400906D01*
X221821Y400865D01*
X221865Y400816D01*
X221907Y400794D01*
X221944Y400765D01*
X222006Y400744D01*
X222065Y400713D01*
X222119Y400705D01*
X222156Y400693D01*
X222196Y400694D01*
X222250Y400686D01*
X253746Y400686D01*
X253811Y400697D01*
G37*
G36*
X238342Y281699D02*
X238342Y281699D01*
X238394Y281700D01*
X238462Y281725D01*
X238532Y281740D01*
X238577Y281767D01*
X238625Y281785D01*
X238681Y281829D01*
X238743Y281866D01*
X238777Y281906D01*
X238817Y281938D01*
X238856Y281999D01*
X238903Y282053D01*
X238922Y282101D01*
X238950Y282145D01*
X238968Y282215D01*
X238995Y282281D01*
X239003Y282353D01*
X239011Y282384D01*
X239009Y282407D01*
X239013Y282448D01*
X239013Y282887D01*
X240353Y284227D01*
X252737Y284227D01*
X252828Y284241D01*
X252918Y284249D01*
X252948Y284261D01*
X252980Y284266D01*
X253061Y284309D01*
X253145Y284345D01*
X253177Y284371D01*
X253198Y284382D01*
X253220Y284405D01*
X253276Y284450D01*
X253752Y284926D01*
X253805Y285000D01*
X253865Y285070D01*
X253877Y285100D01*
X253896Y285126D01*
X253923Y285213D01*
X253957Y285298D01*
X253961Y285339D01*
X253968Y285361D01*
X253967Y285393D01*
X253975Y285465D01*
X253975Y291332D01*
X254868Y292225D01*
X255270Y292225D01*
X255290Y292228D01*
X255309Y292226D01*
X255411Y292248D01*
X255513Y292264D01*
X255530Y292274D01*
X255550Y292278D01*
X255639Y292331D01*
X255730Y292380D01*
X255744Y292394D01*
X255761Y292404D01*
X255828Y292483D01*
X255900Y292558D01*
X255908Y292576D01*
X255921Y292591D01*
X255960Y292687D01*
X256003Y292781D01*
X256005Y292801D01*
X256013Y292819D01*
X256031Y292986D01*
X256031Y295595D01*
X265968Y305532D01*
X266014Y305595D01*
X266036Y305619D01*
X266041Y305628D01*
X266081Y305675D01*
X266093Y305705D01*
X266112Y305731D01*
X266139Y305818D01*
X266173Y305903D01*
X266177Y305944D01*
X266184Y305967D01*
X266183Y305999D01*
X266191Y306070D01*
X266191Y335280D01*
X266177Y335370D01*
X266169Y335461D01*
X266157Y335491D01*
X266152Y335523D01*
X266109Y335603D01*
X266073Y335687D01*
X266047Y335719D01*
X266036Y335740D01*
X266013Y335762D01*
X265968Y335818D01*
X259618Y342168D01*
X259544Y342221D01*
X259475Y342281D01*
X259445Y342293D01*
X259419Y342312D01*
X259332Y342339D01*
X259247Y342373D01*
X259206Y342377D01*
X259183Y342384D01*
X259151Y342383D01*
X259080Y342391D01*
X238760Y342391D01*
X238670Y342377D01*
X238579Y342369D01*
X238549Y342357D01*
X238517Y342352D01*
X238437Y342309D01*
X238353Y342273D01*
X238321Y342247D01*
X238300Y342236D01*
X238278Y342213D01*
X238222Y342168D01*
X234412Y338358D01*
X234359Y338284D01*
X234299Y338215D01*
X234287Y338185D01*
X234268Y338159D01*
X234241Y338072D01*
X234207Y337987D01*
X234203Y337946D01*
X234196Y337923D01*
X234197Y337891D01*
X234189Y337820D01*
X234189Y285750D01*
X234204Y285660D01*
X234211Y285569D01*
X234223Y285539D01*
X234229Y285507D01*
X234271Y285427D01*
X234307Y285343D01*
X234333Y285311D01*
X234344Y285290D01*
X234367Y285268D01*
X234412Y285212D01*
X237714Y281910D01*
X237772Y281868D01*
X237824Y281818D01*
X237871Y281797D01*
X237913Y281766D01*
X237982Y281745D01*
X238047Y281715D01*
X238099Y281709D01*
X238149Y281694D01*
X238220Y281696D01*
X238291Y281688D01*
X238342Y281699D01*
G37*
G36*
X613500Y420894D02*
X613500Y420894D01*
X613591Y420901D01*
X613621Y420913D01*
X613653Y420919D01*
X613733Y420961D01*
X613817Y420997D01*
X613849Y421023D01*
X613870Y421034D01*
X613892Y421057D01*
X613948Y421102D01*
X620298Y427452D01*
X620351Y427526D01*
X620411Y427595D01*
X620423Y427625D01*
X620442Y427651D01*
X620469Y427738D01*
X620503Y427823D01*
X620507Y427864D01*
X620514Y427887D01*
X620513Y427919D01*
X620521Y427990D01*
X620521Y436385D01*
X620508Y436468D01*
X620503Y436552D01*
X620488Y436589D01*
X620482Y436627D01*
X620442Y436702D01*
X620410Y436780D01*
X620379Y436821D01*
X620366Y436845D01*
X620345Y436866D01*
X620308Y436913D01*
X614929Y442489D01*
X614851Y442547D01*
X614776Y442611D01*
X614752Y442620D01*
X614732Y442636D01*
X614639Y442666D01*
X614548Y442703D01*
X614516Y442706D01*
X614498Y442712D01*
X614465Y442712D01*
X614381Y442721D01*
X601984Y442721D01*
X589825Y455191D01*
X589753Y455245D01*
X589685Y455305D01*
X589654Y455318D01*
X589627Y455338D01*
X589541Y455365D01*
X589458Y455400D01*
X589416Y455405D01*
X589393Y455413D01*
X589361Y455412D01*
X589292Y455421D01*
X583508Y455512D01*
X583412Y455498D01*
X583315Y455491D01*
X583291Y455480D01*
X583265Y455477D01*
X583178Y455432D01*
X583089Y455394D01*
X583063Y455374D01*
X583046Y455365D01*
X583023Y455341D01*
X582958Y455290D01*
X582074Y454405D01*
X578706Y454405D01*
X577722Y455389D01*
X577653Y455439D01*
X577589Y455496D01*
X577554Y455510D01*
X577523Y455533D01*
X577441Y455558D01*
X577363Y455591D01*
X577313Y455597D01*
X577288Y455605D01*
X577257Y455604D01*
X577196Y455612D01*
X572368Y455688D01*
X572342Y455685D01*
X572317Y455687D01*
X572221Y455667D01*
X572125Y455652D01*
X572102Y455641D01*
X572076Y455635D01*
X571992Y455585D01*
X571905Y455541D01*
X571887Y455522D01*
X571865Y455509D01*
X571802Y455435D01*
X571733Y455365D01*
X571722Y455342D01*
X571705Y455322D01*
X571669Y455232D01*
X571626Y455144D01*
X571623Y455118D01*
X571613Y455094D01*
X571595Y454927D01*
X571595Y453338D01*
X570702Y452445D01*
X562438Y452445D01*
X561545Y453338D01*
X561545Y455110D01*
X561543Y455124D01*
X561545Y455137D01*
X561523Y455245D01*
X561506Y455353D01*
X561499Y455365D01*
X561496Y455379D01*
X561442Y455473D01*
X561390Y455570D01*
X561380Y455580D01*
X561373Y455592D01*
X561292Y455664D01*
X561212Y455739D01*
X561199Y455745D01*
X561189Y455754D01*
X561089Y455797D01*
X560989Y455843D01*
X560975Y455845D01*
X560962Y455850D01*
X560796Y455871D01*
X559368Y455894D01*
X559342Y455890D01*
X559317Y455893D01*
X559221Y455872D01*
X559125Y455858D01*
X559102Y455846D01*
X559076Y455840D01*
X558992Y455790D01*
X558905Y455746D01*
X558887Y455728D01*
X558865Y455714D01*
X558802Y455640D01*
X558733Y455570D01*
X558722Y455547D01*
X558705Y455527D01*
X558669Y455437D01*
X558626Y455349D01*
X558623Y455323D01*
X558613Y455299D01*
X558595Y455132D01*
X558595Y453338D01*
X557702Y452445D01*
X549438Y452445D01*
X548545Y453338D01*
X548545Y455184D01*
X548542Y455204D01*
X548544Y455223D01*
X548522Y455325D01*
X548506Y455427D01*
X548496Y455444D01*
X548492Y455464D01*
X548439Y455553D01*
X548390Y455644D01*
X548376Y455658D01*
X548366Y455675D01*
X548287Y455742D01*
X548212Y455814D01*
X548194Y455822D01*
X548179Y455835D01*
X548083Y455874D01*
X547989Y455917D01*
X547969Y455919D01*
X547951Y455927D01*
X547784Y455945D01*
X544377Y455945D01*
X544287Y455931D01*
X544196Y455923D01*
X544166Y455911D01*
X544134Y455906D01*
X544053Y455863D01*
X543970Y455827D01*
X543937Y455801D01*
X543917Y455790D01*
X543895Y455767D01*
X543839Y455722D01*
X543762Y455645D01*
X538480Y455645D01*
X538460Y455642D01*
X538441Y455644D01*
X538339Y455622D01*
X538237Y455606D01*
X538220Y455596D01*
X538200Y455592D01*
X538111Y455539D01*
X538020Y455490D01*
X538006Y455476D01*
X537989Y455466D01*
X537922Y455387D01*
X537851Y455312D01*
X537842Y455294D01*
X537829Y455279D01*
X537790Y455183D01*
X537747Y455089D01*
X537745Y455069D01*
X537737Y455051D01*
X537719Y454884D01*
X537719Y448785D01*
X537730Y448714D01*
X537732Y448643D01*
X537750Y448594D01*
X537759Y448542D01*
X537792Y448479D01*
X537817Y448411D01*
X537849Y448371D01*
X537874Y448325D01*
X537926Y448275D01*
X537970Y448219D01*
X538014Y448191D01*
X538052Y448155D01*
X538117Y448125D01*
X538177Y448086D01*
X538228Y448074D01*
X538275Y448052D01*
X538346Y448044D01*
X538416Y448026D01*
X538468Y448030D01*
X538519Y448025D01*
X538590Y448040D01*
X538661Y448046D01*
X538709Y448066D01*
X538760Y448077D01*
X538821Y448114D01*
X538887Y448142D01*
X538943Y448187D01*
X538971Y448203D01*
X538986Y448221D01*
X539018Y448247D01*
X539336Y448565D01*
X542704Y448565D01*
X545085Y446184D01*
X545085Y445770D01*
X545088Y445750D01*
X545086Y445731D01*
X545108Y445629D01*
X545124Y445527D01*
X545134Y445510D01*
X545138Y445490D01*
X545191Y445401D01*
X545240Y445310D01*
X545254Y445296D01*
X545264Y445279D01*
X545343Y445212D01*
X545418Y445141D01*
X545436Y445132D01*
X545451Y445119D01*
X545547Y445080D01*
X545641Y445037D01*
X545661Y445035D01*
X545679Y445027D01*
X545846Y445009D01*
X547784Y445009D01*
X547804Y445012D01*
X547823Y445010D01*
X547925Y445032D01*
X548027Y445049D01*
X548044Y445058D01*
X548064Y445062D01*
X548153Y445115D01*
X548244Y445164D01*
X548258Y445178D01*
X548275Y445188D01*
X548342Y445267D01*
X548414Y445342D01*
X548422Y445360D01*
X548435Y445375D01*
X548474Y445471D01*
X548517Y445565D01*
X548519Y445585D01*
X548527Y445603D01*
X548545Y445770D01*
X548545Y448362D01*
X549438Y449255D01*
X557702Y449255D01*
X558595Y448362D01*
X558595Y445770D01*
X558598Y445750D01*
X558596Y445731D01*
X558618Y445629D01*
X558634Y445527D01*
X558644Y445510D01*
X558648Y445490D01*
X558701Y445401D01*
X558750Y445310D01*
X558764Y445296D01*
X558774Y445279D01*
X558853Y445212D01*
X558928Y445141D01*
X558946Y445132D01*
X558961Y445119D01*
X559057Y445080D01*
X559151Y445037D01*
X559171Y445035D01*
X559189Y445027D01*
X559356Y445009D01*
X560784Y445009D01*
X560804Y445012D01*
X560823Y445010D01*
X560925Y445032D01*
X561027Y445049D01*
X561044Y445058D01*
X561064Y445062D01*
X561153Y445115D01*
X561244Y445164D01*
X561258Y445178D01*
X561275Y445188D01*
X561342Y445267D01*
X561414Y445342D01*
X561422Y445360D01*
X561435Y445375D01*
X561474Y445471D01*
X561517Y445565D01*
X561519Y445585D01*
X561527Y445603D01*
X561545Y445770D01*
X561545Y448362D01*
X562438Y449255D01*
X570702Y449255D01*
X571595Y448362D01*
X571595Y446786D01*
X571598Y446766D01*
X571596Y446747D01*
X571618Y446645D01*
X571634Y446543D01*
X571644Y446526D01*
X571648Y446506D01*
X571701Y446417D01*
X571750Y446326D01*
X571764Y446312D01*
X571774Y446295D01*
X571853Y446228D01*
X571928Y446156D01*
X571946Y446148D01*
X571961Y446135D01*
X572057Y446096D01*
X572151Y446053D01*
X572171Y446051D01*
X572189Y446043D01*
X572356Y446025D01*
X576796Y446025D01*
X576886Y446039D01*
X576977Y446047D01*
X577007Y446059D01*
X577038Y446064D01*
X577119Y446107D01*
X577203Y446143D01*
X577235Y446169D01*
X577256Y446180D01*
X577278Y446203D01*
X577334Y446248D01*
X578611Y447525D01*
X582169Y447525D01*
X584685Y445009D01*
X584685Y441451D01*
X582169Y438935D01*
X578611Y438935D01*
X577334Y440212D01*
X577260Y440265D01*
X577191Y440325D01*
X577160Y440337D01*
X577134Y440356D01*
X577047Y440383D01*
X576962Y440417D01*
X576922Y440421D01*
X576899Y440428D01*
X576867Y440427D01*
X576796Y440435D01*
X572356Y440435D01*
X572336Y440432D01*
X572317Y440434D01*
X572215Y440412D01*
X572113Y440396D01*
X572096Y440386D01*
X572076Y440382D01*
X571987Y440329D01*
X571896Y440280D01*
X571882Y440266D01*
X571865Y440256D01*
X571798Y440177D01*
X571726Y440102D01*
X571718Y440084D01*
X571705Y440069D01*
X571666Y439973D01*
X571623Y439879D01*
X571621Y439859D01*
X571613Y439841D01*
X571595Y439674D01*
X571595Y438098D01*
X571550Y438053D01*
X571538Y438037D01*
X571522Y438025D01*
X571466Y437938D01*
X571406Y437854D01*
X571400Y437835D01*
X571389Y437818D01*
X571364Y437717D01*
X571334Y437619D01*
X571334Y437599D01*
X571329Y437579D01*
X571337Y437476D01*
X571340Y437373D01*
X571347Y437354D01*
X571348Y437334D01*
X571389Y437239D01*
X571424Y437142D01*
X571437Y437126D01*
X571445Y437108D01*
X571550Y436977D01*
X571595Y436932D01*
X571595Y435086D01*
X571598Y435066D01*
X571596Y435047D01*
X571618Y434945D01*
X571634Y434843D01*
X571644Y434826D01*
X571648Y434806D01*
X571701Y434717D01*
X571750Y434626D01*
X571764Y434612D01*
X571774Y434595D01*
X571853Y434528D01*
X571928Y434456D01*
X571946Y434448D01*
X571961Y434435D01*
X572057Y434396D01*
X572151Y434353D01*
X572171Y434351D01*
X572189Y434343D01*
X572356Y434325D01*
X576851Y434325D01*
X576941Y434339D01*
X577032Y434347D01*
X577062Y434359D01*
X577094Y434364D01*
X577174Y434407D01*
X577258Y434443D01*
X577290Y434469D01*
X577311Y434480D01*
X577333Y434503D01*
X577389Y434548D01*
X578706Y435865D01*
X582074Y435865D01*
X584455Y433484D01*
X584455Y430116D01*
X582074Y427735D01*
X578706Y427735D01*
X577389Y429052D01*
X577315Y429105D01*
X577246Y429165D01*
X577216Y429177D01*
X577190Y429196D01*
X577103Y429223D01*
X577018Y429257D01*
X576977Y429261D01*
X576954Y429268D01*
X576922Y429267D01*
X576851Y429275D01*
X572356Y429275D01*
X572336Y429272D01*
X572317Y429274D01*
X572215Y429252D01*
X572113Y429236D01*
X572096Y429226D01*
X572076Y429222D01*
X571987Y429169D01*
X571896Y429120D01*
X571882Y429106D01*
X571865Y429096D01*
X571798Y429017D01*
X571726Y428942D01*
X571718Y428924D01*
X571705Y428909D01*
X571666Y428813D01*
X571623Y428719D01*
X571621Y428699D01*
X571613Y428681D01*
X571595Y428514D01*
X571595Y426668D01*
X570702Y425775D01*
X562438Y425775D01*
X561545Y426668D01*
X561545Y429260D01*
X561543Y429277D01*
X561544Y429292D01*
X561544Y429294D01*
X561544Y429299D01*
X561522Y429401D01*
X561506Y429503D01*
X561496Y429520D01*
X561492Y429540D01*
X561439Y429629D01*
X561390Y429720D01*
X561376Y429734D01*
X561366Y429751D01*
X561287Y429818D01*
X561212Y429890D01*
X561194Y429898D01*
X561179Y429911D01*
X561083Y429950D01*
X560989Y429993D01*
X560969Y429995D01*
X560951Y430003D01*
X560784Y430021D01*
X559356Y430021D01*
X559336Y430018D01*
X559317Y430020D01*
X559215Y429998D01*
X559113Y429982D01*
X559096Y429972D01*
X559076Y429968D01*
X558987Y429915D01*
X558896Y429866D01*
X558882Y429852D01*
X558865Y429842D01*
X558798Y429763D01*
X558726Y429688D01*
X558718Y429670D01*
X558705Y429655D01*
X558666Y429559D01*
X558623Y429465D01*
X558621Y429445D01*
X558613Y429427D01*
X558595Y429260D01*
X558595Y426668D01*
X557702Y425775D01*
X549438Y425775D01*
X548545Y426668D01*
X548545Y428514D01*
X548544Y428525D01*
X548544Y428531D01*
X548543Y428538D01*
X548544Y428553D01*
X548522Y428655D01*
X548506Y428757D01*
X548496Y428774D01*
X548492Y428794D01*
X548439Y428883D01*
X548390Y428974D01*
X548376Y428988D01*
X548366Y429005D01*
X548287Y429072D01*
X548212Y429144D01*
X548194Y429152D01*
X548179Y429165D01*
X548083Y429204D01*
X547989Y429247D01*
X547969Y429249D01*
X547951Y429257D01*
X547784Y429275D01*
X544377Y429275D01*
X544287Y429261D01*
X544196Y429253D01*
X544166Y429241D01*
X544134Y429236D01*
X544054Y429193D01*
X543970Y429157D01*
X543937Y429131D01*
X543917Y429120D01*
X543896Y429099D01*
X543894Y429098D01*
X543890Y429093D01*
X543839Y429052D01*
X543762Y428975D01*
X538480Y428975D01*
X538460Y428972D01*
X538441Y428974D01*
X538339Y428952D01*
X538237Y428936D01*
X538220Y428926D01*
X538200Y428922D01*
X538111Y428869D01*
X538020Y428820D01*
X538006Y428806D01*
X537989Y428796D01*
X537922Y428717D01*
X537851Y428642D01*
X537842Y428624D01*
X537829Y428609D01*
X537790Y428513D01*
X537747Y428419D01*
X537745Y428399D01*
X537737Y428381D01*
X537719Y428214D01*
X537719Y421640D01*
X537722Y421620D01*
X537720Y421601D01*
X537742Y421499D01*
X537759Y421397D01*
X537768Y421380D01*
X537772Y421360D01*
X537825Y421271D01*
X537874Y421180D01*
X537888Y421166D01*
X537898Y421149D01*
X537977Y421082D01*
X538052Y421011D01*
X538070Y421002D01*
X538085Y420989D01*
X538181Y420950D01*
X538275Y420907D01*
X538295Y420905D01*
X538313Y420897D01*
X538480Y420879D01*
X613410Y420879D01*
X613500Y420894D01*
G37*
G36*
X59812Y550553D02*
X59812Y550553D01*
X59854Y550551D01*
X59921Y550573D01*
X59991Y550585D01*
X60027Y550607D01*
X60068Y550620D01*
X60141Y550674D01*
X60184Y550700D01*
X60197Y550716D01*
X60218Y550732D01*
X65218Y555732D01*
X65243Y555766D01*
X65274Y555795D01*
X65306Y555858D01*
X65347Y555916D01*
X65357Y555957D01*
X65377Y555995D01*
X65390Y556084D01*
X65403Y556133D01*
X65400Y556154D01*
X65404Y556180D01*
X65404Y568697D01*
X66639Y569933D01*
X66664Y569967D01*
X66695Y569996D01*
X66727Y570059D01*
X66768Y570117D01*
X66778Y570158D01*
X66798Y570196D01*
X66811Y570285D01*
X66824Y570334D01*
X66821Y570355D01*
X66825Y570381D01*
X66825Y573279D01*
X69341Y575795D01*
X72899Y575795D01*
X73832Y574862D01*
X73867Y574837D01*
X73896Y574806D01*
X73959Y574774D01*
X74016Y574733D01*
X74057Y574723D01*
X74095Y574703D01*
X74185Y574690D01*
X74234Y574678D01*
X74254Y574680D01*
X74281Y574676D01*
X76741Y574676D01*
X76806Y574687D01*
X76872Y574689D01*
X76915Y574707D01*
X76962Y574715D01*
X77019Y574749D01*
X77079Y574774D01*
X77114Y574805D01*
X77155Y574830D01*
X77197Y574881D01*
X77245Y574925D01*
X77267Y574967D01*
X77296Y575004D01*
X77317Y575066D01*
X77348Y575125D01*
X77356Y575179D01*
X77368Y575216D01*
X77367Y575256D01*
X77375Y575310D01*
X77375Y576632D01*
X78268Y577525D01*
X86532Y577525D01*
X87425Y576632D01*
X87425Y575310D01*
X87436Y575245D01*
X87438Y575179D01*
X87456Y575136D01*
X87464Y575089D01*
X87498Y575032D01*
X87523Y574972D01*
X87554Y574937D01*
X87579Y574896D01*
X87630Y574855D01*
X87674Y574806D01*
X87716Y574784D01*
X87753Y574755D01*
X87815Y574734D01*
X87874Y574703D01*
X87928Y574695D01*
X87965Y574683D01*
X88005Y574684D01*
X88059Y574676D01*
X89741Y574676D01*
X89806Y574687D01*
X89872Y574689D01*
X89915Y574707D01*
X89962Y574715D01*
X90019Y574749D01*
X90079Y574774D01*
X90114Y574805D01*
X90155Y574830D01*
X90197Y574881D01*
X90245Y574925D01*
X90267Y574967D01*
X90296Y575004D01*
X90317Y575066D01*
X90348Y575125D01*
X90356Y575179D01*
X90368Y575216D01*
X90367Y575256D01*
X90375Y575310D01*
X90375Y576632D01*
X91268Y577525D01*
X99532Y577525D01*
X100425Y576632D01*
X100425Y575310D01*
X100436Y575245D01*
X100438Y575179D01*
X100456Y575136D01*
X100464Y575089D01*
X100498Y575032D01*
X100523Y574972D01*
X100554Y574937D01*
X100579Y574896D01*
X100630Y574855D01*
X100674Y574806D01*
X100716Y574784D01*
X100753Y574755D01*
X100815Y574734D01*
X100874Y574703D01*
X100928Y574695D01*
X100965Y574683D01*
X101005Y574684D01*
X101059Y574676D01*
X110681Y574676D01*
X110746Y574687D01*
X110812Y574689D01*
X110855Y574707D01*
X110902Y574715D01*
X110959Y574749D01*
X111019Y574774D01*
X111054Y574805D01*
X111095Y574830D01*
X111137Y574881D01*
X111185Y574925D01*
X111207Y574967D01*
X111236Y575004D01*
X111257Y575066D01*
X111288Y575125D01*
X111296Y575179D01*
X111308Y575216D01*
X111307Y575256D01*
X111315Y575310D01*
X111315Y578632D01*
X112208Y579525D01*
X112233Y579560D01*
X112264Y579588D01*
X112296Y579651D01*
X112337Y579709D01*
X112347Y579750D01*
X112367Y579788D01*
X112380Y579878D01*
X112393Y579926D01*
X112390Y579947D01*
X112394Y579973D01*
X112394Y582635D01*
X112378Y582722D01*
X112369Y582811D01*
X112359Y582832D01*
X112355Y582855D01*
X112309Y582932D01*
X112270Y583012D01*
X112253Y583028D01*
X112240Y583049D01*
X112171Y583105D01*
X112107Y583166D01*
X112085Y583175D01*
X112066Y583190D01*
X111982Y583219D01*
X111900Y583253D01*
X111876Y583254D01*
X111854Y583262D01*
X111765Y583259D01*
X111676Y583263D01*
X111653Y583256D01*
X111629Y583255D01*
X111547Y583222D01*
X111462Y583195D01*
X111441Y583179D01*
X111422Y583171D01*
X111384Y583137D01*
X111312Y583083D01*
X109634Y581405D01*
X106266Y581405D01*
X104293Y583378D01*
X104258Y583403D01*
X104230Y583434D01*
X104167Y583466D01*
X104109Y583507D01*
X104068Y583517D01*
X104030Y583537D01*
X103940Y583550D01*
X103892Y583563D01*
X103871Y583560D01*
X103845Y583564D01*
X101059Y583564D01*
X100994Y583553D01*
X100928Y583551D01*
X100885Y583533D01*
X100838Y583525D01*
X100781Y583491D01*
X100721Y583466D01*
X100686Y583435D01*
X100645Y583410D01*
X100603Y583359D01*
X100555Y583315D01*
X100533Y583273D01*
X100504Y583236D01*
X100483Y583174D01*
X100452Y583115D01*
X100444Y583061D01*
X100432Y583024D01*
X100433Y582989D01*
X100432Y582986D01*
X100432Y582978D01*
X100425Y582930D01*
X100425Y581608D01*
X99532Y580715D01*
X91268Y580715D01*
X90375Y581608D01*
X90375Y582930D01*
X90364Y582995D01*
X90362Y583061D01*
X90344Y583104D01*
X90336Y583151D01*
X90302Y583208D01*
X90277Y583268D01*
X90246Y583303D01*
X90221Y583344D01*
X90170Y583386D01*
X90126Y583434D01*
X90084Y583456D01*
X90047Y583485D01*
X89985Y583506D01*
X89926Y583537D01*
X89872Y583545D01*
X89835Y583557D01*
X89795Y583556D01*
X89741Y583564D01*
X88059Y583564D01*
X87994Y583553D01*
X87928Y583551D01*
X87885Y583533D01*
X87838Y583525D01*
X87781Y583491D01*
X87721Y583466D01*
X87686Y583435D01*
X87645Y583410D01*
X87603Y583359D01*
X87555Y583315D01*
X87533Y583273D01*
X87504Y583236D01*
X87483Y583174D01*
X87452Y583115D01*
X87444Y583061D01*
X87432Y583024D01*
X87433Y582989D01*
X87432Y582986D01*
X87432Y582978D01*
X87425Y582930D01*
X87425Y581608D01*
X86532Y580715D01*
X78268Y580715D01*
X77375Y581608D01*
X77375Y583311D01*
X77364Y583376D01*
X77362Y583442D01*
X77344Y583485D01*
X77336Y583532D01*
X77302Y583589D01*
X77277Y583649D01*
X77246Y583684D01*
X77221Y583725D01*
X77170Y583767D01*
X77126Y583815D01*
X77084Y583837D01*
X77047Y583866D01*
X76985Y583887D01*
X76926Y583918D01*
X76872Y583926D01*
X76835Y583938D01*
X76795Y583937D01*
X76741Y583945D01*
X74662Y583945D01*
X74620Y583938D01*
X74577Y583940D01*
X74510Y583918D01*
X74441Y583906D01*
X74404Y583884D01*
X74364Y583871D01*
X74291Y583817D01*
X74248Y583791D01*
X74234Y583775D01*
X74213Y583759D01*
X72899Y582445D01*
X69341Y582445D01*
X66825Y584961D01*
X66825Y588519D01*
X69341Y591035D01*
X72899Y591035D01*
X74213Y589721D01*
X74248Y589696D01*
X74277Y589665D01*
X74340Y589633D01*
X74397Y589592D01*
X74438Y589582D01*
X74476Y589562D01*
X74566Y589549D01*
X74615Y589536D01*
X74635Y589539D01*
X74662Y589535D01*
X76741Y589535D01*
X76806Y589546D01*
X76872Y589548D01*
X76915Y589566D01*
X76962Y589574D01*
X77019Y589608D01*
X77079Y589633D01*
X77114Y589664D01*
X77155Y589689D01*
X77197Y589740D01*
X77245Y589784D01*
X77267Y589826D01*
X77296Y589863D01*
X77317Y589925D01*
X77348Y589984D01*
X77356Y590038D01*
X77368Y590075D01*
X77367Y590115D01*
X77375Y590169D01*
X77375Y591872D01*
X77510Y592006D01*
X77548Y592061D01*
X77593Y592108D01*
X77611Y592152D01*
X77638Y592191D01*
X77655Y592254D01*
X77680Y592315D01*
X77682Y592362D01*
X77694Y592408D01*
X77687Y592473D01*
X77690Y592539D01*
X77676Y592584D01*
X77671Y592631D01*
X77642Y592690D01*
X77622Y592753D01*
X77589Y592797D01*
X77572Y592832D01*
X77543Y592859D01*
X77510Y592903D01*
X77375Y593038D01*
X77375Y594741D01*
X77364Y594806D01*
X77362Y594872D01*
X77344Y594915D01*
X77336Y594962D01*
X77302Y595019D01*
X77277Y595079D01*
X77246Y595114D01*
X77221Y595155D01*
X77170Y595197D01*
X77126Y595245D01*
X77084Y595267D01*
X77047Y595296D01*
X76985Y595317D01*
X76926Y595348D01*
X76872Y595356D01*
X76835Y595368D01*
X76795Y595367D01*
X76741Y595375D01*
X74662Y595375D01*
X74620Y595368D01*
X74577Y595370D01*
X74510Y595348D01*
X74441Y595336D01*
X74404Y595314D01*
X74364Y595301D01*
X74291Y595247D01*
X74248Y595221D01*
X74234Y595205D01*
X74213Y595189D01*
X72899Y593875D01*
X69341Y593875D01*
X66825Y596391D01*
X66825Y599949D01*
X69341Y602465D01*
X72899Y602465D01*
X74213Y601151D01*
X74248Y601126D01*
X74277Y601095D01*
X74340Y601063D01*
X74397Y601022D01*
X74438Y601012D01*
X74476Y600992D01*
X74566Y600979D01*
X74615Y600966D01*
X74635Y600969D01*
X74662Y600965D01*
X76741Y600965D01*
X76806Y600976D01*
X76872Y600978D01*
X76915Y600996D01*
X76962Y601004D01*
X77019Y601038D01*
X77079Y601063D01*
X77114Y601094D01*
X77155Y601119D01*
X77197Y601170D01*
X77245Y601214D01*
X77267Y601256D01*
X77296Y601293D01*
X77317Y601355D01*
X77348Y601414D01*
X77356Y601468D01*
X77368Y601505D01*
X77367Y601545D01*
X77375Y601599D01*
X77375Y603302D01*
X78268Y604195D01*
X86532Y604195D01*
X87425Y603302D01*
X87425Y601980D01*
X87436Y601915D01*
X87438Y601849D01*
X87456Y601806D01*
X87464Y601759D01*
X87498Y601702D01*
X87523Y601642D01*
X87554Y601607D01*
X87579Y601566D01*
X87630Y601525D01*
X87674Y601476D01*
X87716Y601454D01*
X87753Y601425D01*
X87815Y601404D01*
X87874Y601373D01*
X87928Y601365D01*
X87965Y601353D01*
X88005Y601354D01*
X88059Y601346D01*
X89741Y601346D01*
X89806Y601357D01*
X89872Y601359D01*
X89915Y601377D01*
X89962Y601385D01*
X90019Y601419D01*
X90079Y601444D01*
X90114Y601475D01*
X90155Y601500D01*
X90197Y601551D01*
X90245Y601595D01*
X90267Y601637D01*
X90296Y601674D01*
X90317Y601736D01*
X90348Y601795D01*
X90356Y601849D01*
X90368Y601886D01*
X90367Y601926D01*
X90375Y601980D01*
X90375Y603302D01*
X91268Y604195D01*
X99532Y604195D01*
X100425Y603302D01*
X100425Y601980D01*
X100436Y601915D01*
X100438Y601849D01*
X100456Y601806D01*
X100464Y601759D01*
X100498Y601702D01*
X100523Y601642D01*
X100554Y601607D01*
X100579Y601566D01*
X100630Y601525D01*
X100674Y601476D01*
X100716Y601454D01*
X100753Y601425D01*
X100815Y601404D01*
X100874Y601373D01*
X100928Y601365D01*
X100965Y601353D01*
X101005Y601354D01*
X101059Y601346D01*
X110681Y601346D01*
X110746Y601357D01*
X110812Y601359D01*
X110855Y601377D01*
X110902Y601385D01*
X110959Y601419D01*
X111019Y601444D01*
X111054Y601475D01*
X111095Y601500D01*
X111137Y601551D01*
X111185Y601595D01*
X111207Y601637D01*
X111236Y601674D01*
X111257Y601736D01*
X111288Y601795D01*
X111296Y601849D01*
X111308Y601886D01*
X111307Y601926D01*
X111315Y601980D01*
X111315Y605302D01*
X112208Y606195D01*
X112233Y606230D01*
X112264Y606258D01*
X112296Y606321D01*
X112337Y606379D01*
X112347Y606420D01*
X112367Y606458D01*
X112380Y606548D01*
X112393Y606596D01*
X112390Y606617D01*
X112394Y606643D01*
X112394Y609600D01*
X112383Y609665D01*
X112381Y609731D01*
X112363Y609774D01*
X112355Y609821D01*
X112321Y609878D01*
X112296Y609938D01*
X112265Y609973D01*
X112240Y610014D01*
X112189Y610056D01*
X112145Y610104D01*
X112103Y610126D01*
X112066Y610155D01*
X112004Y610176D01*
X111945Y610207D01*
X111891Y610215D01*
X111854Y610227D01*
X111814Y610226D01*
X111760Y610234D01*
X73625Y610234D01*
X73583Y610227D01*
X73541Y610229D01*
X73474Y610207D01*
X73404Y610195D01*
X73368Y610173D01*
X73327Y610160D01*
X73255Y610106D01*
X73211Y610080D01*
X73198Y610064D01*
X73177Y610048D01*
X60512Y597383D01*
X60487Y597349D01*
X60456Y597320D01*
X60424Y597257D01*
X60383Y597199D01*
X60373Y597158D01*
X60353Y597120D01*
X60340Y597031D01*
X60328Y596982D01*
X60330Y596961D01*
X60326Y596935D01*
X60326Y578902D01*
X49295Y568324D01*
X33020Y568324D01*
X32978Y568317D01*
X32936Y568319D01*
X32869Y568297D01*
X32799Y568285D01*
X32763Y568263D01*
X32722Y568250D01*
X32649Y568196D01*
X32606Y568170D01*
X32594Y568155D01*
X32586Y568151D01*
X32584Y568147D01*
X32572Y568138D01*
X28762Y564328D01*
X28737Y564294D01*
X28706Y564265D01*
X28674Y564202D01*
X28633Y564144D01*
X28623Y564103D01*
X28603Y564065D01*
X28591Y563984D01*
X28583Y563959D01*
X28583Y563948D01*
X28578Y563927D01*
X28580Y563906D01*
X28576Y563880D01*
X28576Y553640D01*
X28583Y553598D01*
X28581Y553556D01*
X28603Y553489D01*
X28615Y553419D01*
X28637Y553383D01*
X28650Y553342D01*
X28704Y553269D01*
X28730Y553226D01*
X28746Y553213D01*
X28762Y553192D01*
X31222Y550732D01*
X31256Y550707D01*
X31285Y550676D01*
X31348Y550644D01*
X31406Y550603D01*
X31447Y550593D01*
X31485Y550573D01*
X31574Y550560D01*
X31623Y550548D01*
X31644Y550550D01*
X31670Y550546D01*
X59770Y550546D01*
X59812Y550553D01*
G37*
G36*
X287110Y936514D02*
X287110Y936514D01*
X287201Y936521D01*
X287231Y936533D01*
X287263Y936539D01*
X287343Y936581D01*
X287427Y936617D01*
X287459Y936643D01*
X287480Y936654D01*
X287502Y936677D01*
X287558Y936722D01*
X289507Y938670D01*
X289518Y938686D01*
X289534Y938699D01*
X289590Y938786D01*
X289650Y938870D01*
X289656Y938889D01*
X289667Y938906D01*
X289692Y939006D01*
X289723Y939105D01*
X289722Y939125D01*
X289727Y939144D01*
X289719Y939247D01*
X289716Y939351D01*
X289710Y939370D01*
X289708Y939390D01*
X289668Y939485D01*
X289632Y939582D01*
X289619Y939598D01*
X289612Y939616D01*
X289507Y939747D01*
X289455Y939798D01*
X289455Y951562D01*
X290098Y952205D01*
X290151Y952279D01*
X290211Y952348D01*
X290223Y952378D01*
X290242Y952404D01*
X290269Y952491D01*
X290303Y952576D01*
X290307Y952617D01*
X290314Y952639D01*
X290313Y952672D01*
X290321Y952743D01*
X290321Y986790D01*
X290307Y986880D01*
X290299Y986971D01*
X290287Y987001D01*
X290282Y987033D01*
X290239Y987113D01*
X290203Y987197D01*
X290177Y987229D01*
X290166Y987250D01*
X290143Y987272D01*
X290098Y987328D01*
X288828Y988598D01*
X288754Y988651D01*
X288685Y988711D01*
X288655Y988723D01*
X288629Y988742D01*
X288542Y988769D01*
X288457Y988803D01*
X288416Y988807D01*
X288393Y988814D01*
X288361Y988813D01*
X288290Y988821D01*
X270510Y988821D01*
X270420Y988807D01*
X270329Y988799D01*
X270299Y988787D01*
X270267Y988782D01*
X270187Y988739D01*
X270103Y988703D01*
X270071Y988677D01*
X270050Y988666D01*
X270028Y988643D01*
X269972Y988598D01*
X268702Y987328D01*
X268649Y987254D01*
X268589Y987185D01*
X268577Y987155D01*
X268558Y987129D01*
X268531Y987042D01*
X268497Y986957D01*
X268493Y986916D01*
X268486Y986893D01*
X268487Y986861D01*
X268479Y986790D01*
X268479Y939800D01*
X268494Y939710D01*
X268501Y939619D01*
X268513Y939589D01*
X268519Y939557D01*
X268561Y939477D01*
X268597Y939393D01*
X268623Y939361D01*
X268634Y939340D01*
X268657Y939318D01*
X268702Y939262D01*
X271242Y936722D01*
X271316Y936669D01*
X271385Y936609D01*
X271415Y936597D01*
X271441Y936578D01*
X271528Y936551D01*
X271613Y936517D01*
X271654Y936513D01*
X271677Y936506D01*
X271709Y936507D01*
X271780Y936499D01*
X287020Y936499D01*
X287110Y936514D01*
G37*
G36*
X276671Y343547D02*
X276671Y343547D01*
X276737Y343549D01*
X276780Y343567D01*
X276827Y343575D01*
X276884Y343609D01*
X276944Y343634D01*
X276979Y343665D01*
X277020Y343690D01*
X277062Y343741D01*
X277110Y343785D01*
X277132Y343827D01*
X277161Y343864D01*
X277182Y343926D01*
X277213Y343985D01*
X277221Y344039D01*
X277233Y344076D01*
X277232Y344116D01*
X277240Y344170D01*
X277240Y365385D01*
X277548Y365693D01*
X277599Y365766D01*
X277655Y365835D01*
X277663Y365857D01*
X277676Y365877D01*
X277698Y365963D01*
X277727Y366047D01*
X277726Y366071D01*
X277732Y366094D01*
X277723Y366183D01*
X277720Y366272D01*
X277712Y366293D01*
X277709Y366317D01*
X277669Y366397D01*
X277636Y366479D01*
X277620Y366497D01*
X277610Y366518D01*
X277545Y366579D01*
X277485Y366645D01*
X277464Y366656D01*
X277446Y366672D01*
X277364Y366707D01*
X277285Y366748D01*
X277259Y366751D01*
X277240Y366760D01*
X277189Y366762D01*
X277100Y366775D01*
X276446Y366775D01*
X274065Y369156D01*
X274065Y372524D01*
X276446Y374905D01*
X277901Y374905D01*
X277966Y374916D01*
X278032Y374918D01*
X278075Y374936D01*
X278122Y374944D01*
X278179Y374978D01*
X278239Y375003D01*
X278274Y375034D01*
X278315Y375059D01*
X278357Y375110D01*
X278405Y375154D01*
X278427Y375196D01*
X278456Y375233D01*
X278477Y375295D01*
X278508Y375354D01*
X278516Y375408D01*
X278528Y375445D01*
X278527Y375485D01*
X278535Y375539D01*
X278535Y377922D01*
X279428Y378815D01*
X281370Y378815D01*
X281411Y378822D01*
X281454Y378820D01*
X281499Y378835D01*
X284226Y378835D01*
X284291Y378846D01*
X284357Y378848D01*
X284400Y378866D01*
X284447Y378874D01*
X284504Y378908D01*
X284564Y378933D01*
X284599Y378964D01*
X284640Y378989D01*
X284682Y379040D01*
X284730Y379084D01*
X284752Y379126D01*
X284781Y379163D01*
X284802Y379225D01*
X284833Y379284D01*
X284841Y379338D01*
X284853Y379375D01*
X284852Y379415D01*
X284860Y379469D01*
X284860Y382016D01*
X284849Y382081D01*
X284847Y382147D01*
X284829Y382190D01*
X284821Y382237D01*
X284787Y382294D01*
X284762Y382354D01*
X284731Y382389D01*
X284706Y382430D01*
X284655Y382472D01*
X284611Y382520D01*
X284569Y382542D01*
X284532Y382571D01*
X284470Y382592D01*
X284411Y382623D01*
X284357Y382631D01*
X284320Y382643D01*
X284280Y382642D01*
X284226Y382650D01*
X258967Y382650D01*
X258926Y382643D01*
X258883Y382645D01*
X258816Y382623D01*
X258746Y382611D01*
X258710Y382589D01*
X258670Y382576D01*
X258597Y382522D01*
X258553Y382496D01*
X258540Y382480D01*
X258519Y382464D01*
X254822Y378767D01*
X254797Y378732D01*
X254766Y378704D01*
X254734Y378641D01*
X254693Y378583D01*
X254683Y378542D01*
X254663Y378504D01*
X254650Y378414D01*
X254638Y378366D01*
X254640Y378345D01*
X254636Y378319D01*
X254636Y373675D01*
X254643Y373634D01*
X254641Y373591D01*
X254663Y373524D01*
X254675Y373455D01*
X254697Y373418D01*
X254710Y373378D01*
X254764Y373305D01*
X254790Y373261D01*
X254806Y373248D01*
X254822Y373227D01*
X255525Y372524D01*
X255525Y369156D01*
X254822Y368453D01*
X254797Y368418D01*
X254766Y368390D01*
X254734Y368327D01*
X254693Y368269D01*
X254683Y368228D01*
X254663Y368190D01*
X254650Y368100D01*
X254638Y368052D01*
X254640Y368031D01*
X254636Y368005D01*
X254636Y344170D01*
X254647Y344105D01*
X254649Y344039D01*
X254667Y343996D01*
X254675Y343949D01*
X254709Y343892D01*
X254734Y343832D01*
X254765Y343797D01*
X254790Y343756D01*
X254841Y343715D01*
X254885Y343666D01*
X254927Y343644D01*
X254964Y343615D01*
X255026Y343594D01*
X255085Y343563D01*
X255139Y343555D01*
X255176Y343543D01*
X255216Y343544D01*
X255270Y343536D01*
X276606Y343536D01*
X276671Y343547D01*
G37*
G36*
X252772Y379103D02*
X252772Y379103D01*
X252814Y379101D01*
X252881Y379123D01*
X252951Y379135D01*
X252987Y379157D01*
X253028Y379170D01*
X253101Y379224D01*
X253144Y379250D01*
X253157Y379266D01*
X253178Y379282D01*
X254949Y381053D01*
X254974Y381087D01*
X255005Y381116D01*
X255037Y381179D01*
X255078Y381237D01*
X255088Y381278D01*
X255108Y381316D01*
X255121Y381405D01*
X255134Y381454D01*
X255131Y381475D01*
X255135Y381501D01*
X255135Y383712D01*
X256028Y384605D01*
X272292Y384605D01*
X272535Y384362D01*
X272570Y384337D01*
X272598Y384306D01*
X272661Y384274D01*
X272719Y384233D01*
X272760Y384223D01*
X272798Y384203D01*
X272888Y384190D01*
X272936Y384178D01*
X272957Y384180D01*
X272983Y384176D01*
X284226Y384176D01*
X284291Y384187D01*
X284357Y384189D01*
X284400Y384207D01*
X284447Y384215D01*
X284504Y384249D01*
X284564Y384274D01*
X284599Y384305D01*
X284640Y384330D01*
X284682Y384381D01*
X284730Y384425D01*
X284752Y384467D01*
X284781Y384504D01*
X284802Y384566D01*
X284833Y384625D01*
X284841Y384679D01*
X284853Y384716D01*
X284852Y384756D01*
X284860Y384810D01*
X284860Y387096D01*
X284849Y387161D01*
X284847Y387227D01*
X284829Y387270D01*
X284821Y387317D01*
X284787Y387374D01*
X284762Y387434D01*
X284731Y387469D01*
X284706Y387510D01*
X284655Y387552D01*
X284611Y387600D01*
X284569Y387622D01*
X284532Y387651D01*
X284470Y387672D01*
X284411Y387703D01*
X284357Y387711D01*
X284320Y387723D01*
X284280Y387722D01*
X284226Y387730D01*
X272729Y387730D01*
X272687Y387723D01*
X272645Y387725D01*
X272578Y387703D01*
X272508Y387691D01*
X272472Y387669D01*
X272431Y387656D01*
X272359Y387602D01*
X272315Y387576D01*
X272302Y387560D01*
X272295Y387555D01*
X256024Y387555D01*
X256004Y387569D01*
X255976Y387600D01*
X255913Y387632D01*
X255855Y387673D01*
X255814Y387683D01*
X255776Y387703D01*
X255687Y387716D01*
X255650Y387725D01*
X254380Y388995D01*
X254380Y391414D01*
X254373Y391456D01*
X254375Y391498D01*
X254353Y391565D01*
X254341Y391635D01*
X254319Y391671D01*
X254306Y391712D01*
X254252Y391785D01*
X254226Y391828D01*
X254210Y391841D01*
X254195Y391862D01*
X253179Y392878D01*
X253147Y392900D01*
X253130Y392919D01*
X253128Y392920D01*
X253115Y392934D01*
X253052Y392966D01*
X252994Y393007D01*
X252953Y393017D01*
X252915Y393037D01*
X252826Y393050D01*
X252777Y393063D01*
X252756Y393060D01*
X252730Y393064D01*
X222250Y393064D01*
X222185Y393053D01*
X222119Y393051D01*
X222076Y393033D01*
X222029Y393025D01*
X221972Y392991D01*
X221912Y392966D01*
X221877Y392935D01*
X221836Y392910D01*
X221795Y392859D01*
X221746Y392815D01*
X221724Y392773D01*
X221695Y392736D01*
X221674Y392674D01*
X221643Y392615D01*
X221635Y392561D01*
X221623Y392524D01*
X221623Y392510D01*
X221623Y392509D01*
X221624Y392482D01*
X221616Y392430D01*
X221616Y379730D01*
X221627Y379665D01*
X221629Y379599D01*
X221647Y379556D01*
X221655Y379509D01*
X221689Y379452D01*
X221714Y379392D01*
X221745Y379357D01*
X221770Y379316D01*
X221821Y379275D01*
X221865Y379226D01*
X221907Y379204D01*
X221944Y379175D01*
X222006Y379154D01*
X222065Y379123D01*
X222119Y379115D01*
X222156Y379103D01*
X222196Y379104D01*
X222250Y379096D01*
X252730Y379096D01*
X252772Y379103D01*
G37*
G36*
X265520Y216424D02*
X265520Y216424D01*
X265611Y216431D01*
X265641Y216443D01*
X265673Y216449D01*
X265753Y216491D01*
X265837Y216527D01*
X265869Y216553D01*
X265890Y216564D01*
X265912Y216587D01*
X265968Y216632D01*
X267238Y217902D01*
X267291Y217976D01*
X267351Y218045D01*
X267363Y218075D01*
X267382Y218101D01*
X267409Y218188D01*
X267443Y218273D01*
X267447Y218314D01*
X267454Y218337D01*
X267453Y218369D01*
X267461Y218440D01*
X267461Y250874D01*
X267458Y250894D01*
X267460Y250913D01*
X267438Y251015D01*
X267422Y251117D01*
X267412Y251134D01*
X267408Y251154D01*
X267355Y251243D01*
X267306Y251334D01*
X267292Y251348D01*
X267282Y251365D01*
X267203Y251432D01*
X267128Y251504D01*
X267110Y251512D01*
X267095Y251525D01*
X266999Y251564D01*
X266905Y251607D01*
X266885Y251609D01*
X266867Y251617D01*
X266700Y251635D01*
X263181Y251635D01*
X263128Y251657D01*
X263087Y251661D01*
X263064Y251668D01*
X263032Y251667D01*
X262961Y251675D01*
X261286Y251675D01*
X261266Y251672D01*
X261247Y251674D01*
X261145Y251652D01*
X261043Y251636D01*
X261026Y251626D01*
X261006Y251622D01*
X260917Y251569D01*
X260826Y251520D01*
X260812Y251506D01*
X260795Y251496D01*
X260728Y251417D01*
X260656Y251342D01*
X260648Y251324D01*
X260635Y251309D01*
X260596Y251213D01*
X260553Y251119D01*
X260551Y251099D01*
X260543Y251081D01*
X260525Y250914D01*
X260525Y242068D01*
X259632Y241175D01*
X258194Y241175D01*
X258104Y241161D01*
X258013Y241153D01*
X257983Y241141D01*
X257951Y241136D01*
X257871Y241093D01*
X257787Y241057D01*
X257755Y241031D01*
X257734Y241020D01*
X257712Y240997D01*
X257656Y240952D01*
X257495Y240791D01*
X254000Y240791D01*
X253910Y240777D01*
X253819Y240769D01*
X253789Y240757D01*
X253757Y240752D01*
X253677Y240709D01*
X253593Y240673D01*
X253561Y240647D01*
X253540Y240636D01*
X253520Y240615D01*
X253517Y240614D01*
X253513Y240609D01*
X253462Y240568D01*
X249652Y236758D01*
X249599Y236684D01*
X249539Y236615D01*
X249527Y236585D01*
X249508Y236559D01*
X249481Y236472D01*
X249447Y236387D01*
X249443Y236346D01*
X249436Y236323D01*
X249437Y236291D01*
X249429Y236220D01*
X249429Y218440D01*
X249444Y218350D01*
X249451Y218259D01*
X249463Y218229D01*
X249469Y218197D01*
X249511Y218117D01*
X249547Y218033D01*
X249573Y218001D01*
X249584Y217980D01*
X249607Y217958D01*
X249652Y217902D01*
X250922Y216632D01*
X250996Y216579D01*
X251065Y216519D01*
X251095Y216507D01*
X251121Y216488D01*
X251208Y216461D01*
X251293Y216427D01*
X251334Y216423D01*
X251357Y216416D01*
X251389Y216417D01*
X251460Y216409D01*
X265430Y216409D01*
X265520Y216424D01*
G37*
G36*
X141012Y569603D02*
X141012Y569603D01*
X141054Y569601D01*
X141121Y569623D01*
X141191Y569635D01*
X141227Y569657D01*
X141268Y569670D01*
X141341Y569724D01*
X141384Y569750D01*
X141397Y569766D01*
X141418Y569782D01*
X143958Y572322D01*
X143983Y572356D01*
X144014Y572385D01*
X144037Y572429D01*
X144062Y572461D01*
X144069Y572481D01*
X144087Y572506D01*
X144097Y572547D01*
X144117Y572585D01*
X144126Y572650D01*
X144134Y572673D01*
X144134Y572689D01*
X144143Y572723D01*
X144140Y572744D01*
X144144Y572770D01*
X144144Y577929D01*
X144133Y577994D01*
X144131Y578060D01*
X144113Y578103D01*
X144105Y578150D01*
X144071Y578207D01*
X144046Y578267D01*
X144015Y578302D01*
X143990Y578343D01*
X143939Y578385D01*
X143895Y578433D01*
X143853Y578455D01*
X143816Y578484D01*
X143754Y578505D01*
X143695Y578536D01*
X143641Y578544D01*
X143604Y578556D01*
X143564Y578555D01*
X143510Y578563D01*
X143373Y578563D01*
X141223Y580713D01*
X141223Y583016D01*
X141216Y583057D01*
X141218Y583100D01*
X141196Y583167D01*
X141184Y583236D01*
X141162Y583273D01*
X141149Y583313D01*
X141095Y583386D01*
X141069Y583430D01*
X141053Y583443D01*
X141037Y583464D01*
X139853Y584648D01*
X139822Y584670D01*
X139806Y584688D01*
X139803Y584689D01*
X139790Y584704D01*
X139727Y584736D01*
X139669Y584777D01*
X139628Y584787D01*
X139590Y584807D01*
X139500Y584820D01*
X139452Y584833D01*
X139431Y584830D01*
X139405Y584834D01*
X123190Y584834D01*
X123125Y584823D01*
X123059Y584821D01*
X123016Y584803D01*
X122969Y584795D01*
X122912Y584761D01*
X122852Y584736D01*
X122817Y584705D01*
X122776Y584680D01*
X122735Y584629D01*
X122686Y584585D01*
X122664Y584543D01*
X122635Y584506D01*
X122614Y584444D01*
X122583Y584385D01*
X122575Y584331D01*
X122563Y584294D01*
X122563Y584279D01*
X122563Y584277D01*
X122563Y584252D01*
X122556Y584200D01*
X122556Y574959D01*
X122567Y574894D01*
X122569Y574828D01*
X122587Y574785D01*
X122595Y574738D01*
X122629Y574681D01*
X122654Y574621D01*
X122685Y574586D01*
X122710Y574545D01*
X122761Y574503D01*
X122805Y574455D01*
X122847Y574433D01*
X122884Y574404D01*
X122946Y574383D01*
X123005Y574352D01*
X123059Y574344D01*
X123096Y574332D01*
X123136Y574333D01*
X123190Y574325D01*
X128472Y574325D01*
X129365Y573432D01*
X129365Y572311D01*
X129372Y572269D01*
X129370Y572227D01*
X129392Y572160D01*
X129404Y572090D01*
X129426Y572054D01*
X129439Y572013D01*
X129493Y571940D01*
X129519Y571897D01*
X129535Y571884D01*
X129551Y571863D01*
X131632Y569782D01*
X131666Y569757D01*
X131695Y569726D01*
X131758Y569694D01*
X131816Y569653D01*
X131857Y569643D01*
X131895Y569623D01*
X131984Y569610D01*
X132033Y569598D01*
X132054Y569600D01*
X132080Y569596D01*
X140970Y569596D01*
X141012Y569603D01*
G37*
G36*
X141012Y597543D02*
X141012Y597543D01*
X141054Y597541D01*
X141121Y597563D01*
X141191Y597575D01*
X141227Y597597D01*
X141268Y597610D01*
X141341Y597664D01*
X141384Y597690D01*
X141397Y597706D01*
X141418Y597722D01*
X143958Y600262D01*
X143983Y600296D01*
X144014Y600325D01*
X144037Y600369D01*
X144062Y600401D01*
X144069Y600421D01*
X144087Y600446D01*
X144097Y600487D01*
X144117Y600525D01*
X144126Y600590D01*
X144134Y600613D01*
X144134Y600629D01*
X144143Y600663D01*
X144140Y600684D01*
X144144Y600710D01*
X144144Y608330D01*
X144137Y608372D01*
X144139Y608414D01*
X144131Y608438D01*
X144131Y608449D01*
X144117Y608483D01*
X144105Y608551D01*
X144083Y608587D01*
X144070Y608628D01*
X144016Y608701D01*
X143990Y608744D01*
X143974Y608757D01*
X143958Y608778D01*
X141418Y611318D01*
X141387Y611340D01*
X141370Y611359D01*
X141368Y611360D01*
X141355Y611374D01*
X141292Y611406D01*
X141234Y611447D01*
X141193Y611457D01*
X141155Y611477D01*
X141066Y611490D01*
X141017Y611503D01*
X140996Y611500D01*
X140970Y611504D01*
X123190Y611504D01*
X123125Y611493D01*
X123059Y611491D01*
X123016Y611473D01*
X122969Y611465D01*
X122912Y611431D01*
X122852Y611406D01*
X122817Y611375D01*
X122776Y611350D01*
X122735Y611299D01*
X122686Y611255D01*
X122664Y611213D01*
X122635Y611176D01*
X122614Y611114D01*
X122583Y611055D01*
X122575Y611001D01*
X122563Y610964D01*
X122563Y610950D01*
X122563Y610949D01*
X122564Y610922D01*
X122556Y610870D01*
X122556Y601980D01*
X122567Y601915D01*
X122569Y601849D01*
X122587Y601806D01*
X122595Y601759D01*
X122629Y601702D01*
X122654Y601642D01*
X122685Y601607D01*
X122710Y601566D01*
X122761Y601525D01*
X122805Y601476D01*
X122847Y601454D01*
X122884Y601425D01*
X122946Y601404D01*
X123005Y601373D01*
X123059Y601365D01*
X123096Y601353D01*
X123136Y601354D01*
X123190Y601346D01*
X129277Y601346D01*
X132902Y597722D01*
X132936Y597697D01*
X132965Y597666D01*
X133028Y597634D01*
X133086Y597593D01*
X133127Y597583D01*
X133165Y597563D01*
X133254Y597550D01*
X133303Y597538D01*
X133324Y597540D01*
X133350Y597536D01*
X140970Y597536D01*
X141012Y597543D01*
G37*
G36*
X515710Y445024D02*
X515710Y445024D01*
X515801Y445031D01*
X515831Y445043D01*
X515863Y445049D01*
X515943Y445091D01*
X516027Y445127D01*
X516059Y445153D01*
X516080Y445164D01*
X516102Y445187D01*
X516158Y445232D01*
X519745Y448819D01*
X525780Y448819D01*
X525800Y448822D01*
X525819Y448820D01*
X525921Y448842D01*
X526023Y448859D01*
X526040Y448868D01*
X526060Y448872D01*
X526149Y448925D01*
X526240Y448974D01*
X526254Y448988D01*
X526271Y448998D01*
X526338Y449077D01*
X526410Y449152D01*
X526418Y449170D01*
X526431Y449185D01*
X526470Y449281D01*
X526513Y449375D01*
X526515Y449395D01*
X526523Y449413D01*
X526541Y449580D01*
X526541Y454660D01*
X526538Y454680D01*
X526540Y454699D01*
X526518Y454801D01*
X526502Y454903D01*
X526492Y454920D01*
X526488Y454940D01*
X526435Y455029D01*
X526386Y455120D01*
X526372Y455134D01*
X526362Y455151D01*
X526283Y455218D01*
X526208Y455290D01*
X526190Y455298D01*
X526175Y455311D01*
X526079Y455350D01*
X525985Y455393D01*
X525965Y455395D01*
X525947Y455403D01*
X525780Y455421D01*
X519745Y455421D01*
X514888Y460278D01*
X514814Y460331D01*
X514745Y460391D01*
X514715Y460403D01*
X514689Y460422D01*
X514602Y460449D01*
X514517Y460483D01*
X514476Y460487D01*
X514453Y460494D01*
X514421Y460493D01*
X514350Y460501D01*
X506730Y460501D01*
X506640Y460487D01*
X506549Y460479D01*
X506519Y460467D01*
X506487Y460462D01*
X506407Y460419D01*
X506323Y460383D01*
X506291Y460357D01*
X506270Y460346D01*
X506248Y460323D01*
X506192Y460278D01*
X504922Y459008D01*
X504869Y458934D01*
X504809Y458865D01*
X504797Y458835D01*
X504778Y458809D01*
X504751Y458722D01*
X504717Y458637D01*
X504713Y458596D01*
X504706Y458573D01*
X504707Y458541D01*
X504699Y458470D01*
X504699Y447040D01*
X504714Y446950D01*
X504721Y446859D01*
X504733Y446829D01*
X504739Y446797D01*
X504781Y446717D01*
X504817Y446633D01*
X504843Y446601D01*
X504854Y446580D01*
X504877Y446558D01*
X504922Y446502D01*
X506192Y445232D01*
X506266Y445179D01*
X506335Y445119D01*
X506365Y445107D01*
X506391Y445088D01*
X506478Y445061D01*
X506563Y445027D01*
X506604Y445023D01*
X506627Y445016D01*
X506659Y445017D01*
X506730Y445009D01*
X515620Y445009D01*
X515710Y445024D01*
G37*
G36*
X515710Y418354D02*
X515710Y418354D01*
X515801Y418361D01*
X515831Y418373D01*
X515863Y418379D01*
X515943Y418421D01*
X516027Y418457D01*
X516059Y418483D01*
X516080Y418494D01*
X516102Y418517D01*
X516158Y418562D01*
X519745Y422149D01*
X525780Y422149D01*
X525800Y422152D01*
X525819Y422150D01*
X525921Y422172D01*
X526023Y422189D01*
X526040Y422198D01*
X526060Y422202D01*
X526149Y422255D01*
X526240Y422304D01*
X526254Y422318D01*
X526271Y422328D01*
X526338Y422407D01*
X526410Y422482D01*
X526418Y422500D01*
X526431Y422515D01*
X526470Y422611D01*
X526513Y422705D01*
X526515Y422725D01*
X526523Y422743D01*
X526541Y422910D01*
X526541Y427990D01*
X526538Y428010D01*
X526540Y428029D01*
X526518Y428131D01*
X526502Y428233D01*
X526492Y428250D01*
X526488Y428270D01*
X526435Y428359D01*
X526386Y428450D01*
X526372Y428464D01*
X526362Y428481D01*
X526283Y428548D01*
X526208Y428620D01*
X526190Y428628D01*
X526175Y428641D01*
X526079Y428680D01*
X525985Y428723D01*
X525965Y428725D01*
X525947Y428733D01*
X525780Y428751D01*
X519745Y428751D01*
X516158Y432338D01*
X516084Y432391D01*
X516015Y432451D01*
X515985Y432463D01*
X515959Y432482D01*
X515872Y432509D01*
X515787Y432543D01*
X515746Y432547D01*
X515723Y432554D01*
X515691Y432553D01*
X515620Y432561D01*
X506730Y432561D01*
X506640Y432547D01*
X506549Y432539D01*
X506519Y432527D01*
X506487Y432522D01*
X506407Y432479D01*
X506323Y432443D01*
X506291Y432417D01*
X506270Y432406D01*
X506248Y432383D01*
X506192Y432338D01*
X504922Y431068D01*
X504869Y430994D01*
X504809Y430925D01*
X504797Y430895D01*
X504778Y430869D01*
X504751Y430782D01*
X504736Y430744D01*
X504727Y430724D01*
X504726Y430720D01*
X504717Y430697D01*
X504713Y430656D01*
X504706Y430633D01*
X504707Y430601D01*
X504699Y430530D01*
X504699Y420370D01*
X504714Y420280D01*
X504721Y420189D01*
X504733Y420159D01*
X504739Y420127D01*
X504781Y420047D01*
X504817Y419963D01*
X504843Y419931D01*
X504854Y419910D01*
X504877Y419888D01*
X504922Y419832D01*
X506192Y418562D01*
X506266Y418509D01*
X506335Y418449D01*
X506365Y418437D01*
X506391Y418418D01*
X506478Y418391D01*
X506563Y418357D01*
X506604Y418353D01*
X506627Y418346D01*
X506659Y418347D01*
X506730Y418339D01*
X515620Y418339D01*
X515710Y418354D01*
G37*
%LPC*%
G36*
X292928Y388265D02*
X292928Y388265D01*
X292035Y389158D01*
X292035Y392922D01*
X292928Y393815D01*
X299692Y393815D01*
X300585Y392922D01*
X300585Y389158D01*
X299692Y388265D01*
X292928Y388265D01*
G37*
%LPD*%
D10*
X258420Y227330D03*
X239420Y227330D03*
D11*
X249400Y317500D03*
X309400Y317500D03*
D10*
X269900Y355600D03*
X288900Y355600D03*
D12*
X264160Y376580D03*
X264160Y395580D03*
D13*
X349250Y391310D03*
X349250Y378310D03*
D10*
X286410Y431800D03*
X305410Y431800D03*
X286410Y410210D03*
X305410Y410210D03*
D14*
X182880Y227650D03*
X182880Y267650D03*
D15*
X237490Y385510D03*
X237490Y409510D03*
D16*
X293370Y234560D03*
X293370Y217560D03*
X293370Y265040D03*
X293370Y248040D03*
X288680Y281940D03*
X305680Y281940D03*
X241300Y370450D03*
X241300Y353450D03*
X334010Y376310D03*
X334010Y393310D03*
X313690Y393310D03*
X313690Y376310D03*
D17*
X273750Y276450D03*
X273750Y269950D03*
X273750Y263450D03*
X273750Y256950D03*
D18*
X244250Y246950D03*
X250750Y246950D03*
X257250Y246950D03*
X263750Y246950D03*
X263750Y286450D03*
X257250Y286450D03*
X250750Y286450D03*
X244250Y286450D03*
D17*
X234250Y276450D03*
X234250Y269950D03*
X234250Y263450D03*
X234250Y256950D03*
D19*
X254000Y266700D03*
D20*
X254000Y266700D03*
X254000Y277700D03*
X265000Y266700D03*
X265000Y277700D03*
X243000Y277700D03*
X243000Y255700D03*
X243000Y266700D03*
X254000Y255700D03*
X265000Y255700D03*
D21*
X296310Y376040D03*
X296310Y381040D03*
X296310Y386040D03*
X296310Y391040D03*
X282810Y376040D03*
X282810Y381040D03*
X282810Y386040D03*
X282810Y391040D03*
D22*
X484340Y206400D03*
X484340Y215900D03*
X484340Y225400D03*
X511340Y225400D03*
X511340Y215900D03*
X511340Y206400D03*
D23*
X532130Y225650D03*
X532130Y206150D03*
D10*
X480720Y189230D03*
X499720Y189230D03*
D16*
X502530Y243840D03*
X485530Y243840D03*
X534280Y243840D03*
X517280Y243840D03*
D12*
X467360Y224180D03*
X467360Y243180D03*
D24*
X534520Y105410D03*
X547520Y105410D03*
D25*
X536020Y98660D03*
X546020Y98660D03*
X546020Y112160D03*
X536020Y112160D03*
D26*
X541020Y98660D03*
X541020Y112160D03*
D13*
X521970Y114150D03*
X521970Y127150D03*
D27*
X519580Y99060D03*
X506580Y99060D03*
X561490Y138430D03*
X548490Y138430D03*
X561490Y149860D03*
X548490Y149860D03*
D16*
X480450Y152400D03*
X497450Y152400D03*
D28*
X490880Y115730D03*
X509880Y115730D03*
X500380Y136730D03*
X479400Y135730D03*
X460400Y135730D03*
X469900Y114730D03*
D12*
X563880Y83210D03*
X563880Y102210D03*
D27*
X548490Y127000D03*
X561490Y127000D03*
D16*
X528710Y82550D03*
X545710Y82550D03*
D29*
X240210Y69880D03*
X244710Y69880D03*
X253710Y69880D03*
X249210Y69880D03*
X258210Y69880D03*
X262710Y69880D03*
X262710Y41880D03*
X258210Y41880D03*
X249210Y41880D03*
X253710Y41880D03*
X244710Y41880D03*
X240210Y41880D03*
D30*
X251460Y55880D03*
D10*
X240690Y20320D03*
X259690Y20320D03*
D16*
X296790Y63500D03*
X279790Y63500D03*
X296790Y43180D03*
X279790Y43180D03*
X279790Y22860D03*
X296790Y22860D03*
D31*
X262050Y87630D03*
X284050Y87630D03*
D10*
X360070Y86360D03*
X379070Y86360D03*
D32*
X309460Y97790D03*
X333160Y97790D03*
D12*
X408940Y102210D03*
X408940Y83210D03*
D16*
X234070Y92710D03*
X251070Y92710D03*
D33*
X229260Y204000D03*
X238760Y204000D03*
X248260Y204000D03*
X248260Y177000D03*
X238760Y177000D03*
X229260Y177000D03*
X271170Y204000D03*
X280670Y204000D03*
X290170Y204000D03*
X290170Y177000D03*
X280670Y177000D03*
X271170Y177000D03*
D34*
X303360Y193850D03*
X306860Y193850D03*
X310360Y193850D03*
X313860Y193850D03*
X313860Y187150D03*
X310360Y187150D03*
X306860Y187150D03*
X303360Y187150D03*
D35*
X342860Y182980D03*
X337860Y182980D03*
D36*
X347860Y182980D03*
X332860Y182980D03*
D37*
X347860Y195480D03*
D35*
X342860Y195480D03*
X337860Y195480D03*
D36*
X332860Y195480D03*
D38*
X125840Y578000D03*
X125840Y571500D03*
X125840Y565000D03*
X107840Y565000D03*
X107840Y571500D03*
X107840Y578000D03*
D39*
X116840Y571500D03*
D20*
X116840Y571500D03*
D38*
X125840Y604670D03*
X125840Y598170D03*
X125840Y591670D03*
X107840Y591670D03*
X107840Y598170D03*
X107840Y604670D03*
D39*
X116840Y598170D03*
D20*
X116840Y598170D03*
D34*
X149690Y587550D03*
X153190Y587550D03*
X156690Y587550D03*
X160190Y587550D03*
X160190Y580850D03*
X156690Y580850D03*
X153190Y580850D03*
X149690Y580850D03*
D40*
X168180Y582200D03*
X168180Y586200D03*
X172180Y586200D03*
X172180Y582200D03*
D27*
X152250Y604520D03*
X165250Y604520D03*
X82400Y586740D03*
X95400Y586740D03*
X82400Y598170D03*
X95400Y598170D03*
X95400Y571500D03*
X82400Y571500D03*
X95400Y560070D03*
X82400Y560070D03*
D38*
X523130Y451970D03*
X523130Y458470D03*
X523130Y464970D03*
X541130Y464970D03*
X541130Y458470D03*
X541130Y451970D03*
D39*
X532130Y458470D03*
D20*
X532130Y458470D03*
D38*
X523130Y425300D03*
X523130Y431800D03*
X523130Y438300D03*
X541130Y438300D03*
X541130Y431800D03*
X541130Y425300D03*
D39*
X532130Y431800D03*
D20*
X532130Y431800D03*
D34*
X478960Y434800D03*
X475460Y434800D03*
X471960Y434800D03*
X468460Y434800D03*
X468460Y441500D03*
X471960Y441500D03*
X475460Y441500D03*
X478960Y441500D03*
D40*
X460470Y440150D03*
X460470Y436150D03*
X456470Y436150D03*
X456470Y440150D03*
D27*
X469750Y421640D03*
X482750Y421640D03*
X566570Y443230D03*
X553570Y443230D03*
X566570Y431800D03*
X553570Y431800D03*
X553570Y458470D03*
X566570Y458470D03*
X553570Y469900D03*
X566570Y469900D03*
D10*
X555600Y406400D03*
X536600Y406400D03*
X84480Y539750D03*
X103480Y539750D03*
D41*
X119710Y536320D03*
X119710Y517020D03*
X192710Y517020D03*
X192710Y536320D03*
D42*
X133710Y544670D03*
X163710Y544670D03*
X178710Y544670D03*
D27*
X162710Y565150D03*
X149710Y565150D03*
D41*
X540690Y490350D03*
X540690Y509650D03*
X467690Y509650D03*
X467690Y490350D03*
D42*
X526690Y482000D03*
X496690Y482000D03*
X481690Y482000D03*
D27*
X465940Y452120D03*
X478940Y452120D03*
D43*
X38100Y584200D03*
X38100Y558800D03*
X38100Y533400D03*
X38100Y508000D03*
X38100Y482600D03*
X38100Y457200D03*
X38100Y431800D03*
X38100Y406400D03*
X38100Y381000D03*
X38100Y355600D03*
X38100Y330200D03*
X38100Y304800D03*
X38100Y279400D03*
X38100Y254000D03*
X38100Y228600D03*
X38100Y203200D03*
X38100Y177800D03*
X38100Y152400D03*
X609600Y457200D03*
X609600Y431800D03*
X609600Y406400D03*
X609600Y381000D03*
X609600Y177800D03*
X609600Y203200D03*
X609600Y228600D03*
X609600Y254000D03*
X609600Y279400D03*
X609600Y304800D03*
X609600Y330200D03*
X609600Y355600D03*
D44*
X279400Y977900D03*
X304800Y977900D03*
X330200Y977900D03*
X355600Y977900D03*
X381000Y977900D03*
X406400Y977900D03*
X431800Y977900D03*
X457200Y977900D03*
X482600Y977900D03*
X508000Y977900D03*
X533400Y977900D03*
X558800Y977900D03*
X279400Y774700D03*
X304800Y774700D03*
X330200Y774700D03*
X355600Y774700D03*
X381000Y774700D03*
X406400Y774700D03*
X431800Y774700D03*
X457200Y774700D03*
X482600Y774700D03*
X508000Y774700D03*
X533400Y774700D03*
X558800Y774700D03*
X254000Y774700D03*
X228600Y774700D03*
X203200Y774700D03*
X177800Y774700D03*
D45*
X360330Y580970D03*
X356330Y580970D03*
X352330Y580970D03*
X348330Y580970D03*
X348330Y589970D03*
X352330Y589970D03*
X356330Y589970D03*
X360330Y589970D03*
D46*
X577850Y683200D03*
X590550Y683200D03*
X603250Y683200D03*
X615950Y683200D03*
X615950Y739200D03*
X603250Y739200D03*
X590550Y739200D03*
X577850Y739200D03*
D47*
X584200Y571500D03*
D48*
X584200Y495300D03*
X584200Y647700D03*
D13*
X554990Y690730D03*
X554990Y703730D03*
D49*
X533810Y718730D03*
X540310Y718730D03*
X546810Y718730D03*
X553310Y718730D03*
X553310Y739230D03*
X546810Y739230D03*
X540310Y739230D03*
X533810Y739230D03*
D50*
X449110Y215240D03*
X449110Y196240D03*
X422110Y196240D03*
X422110Y205740D03*
X422110Y215240D03*
D27*
X435760Y227330D03*
X422760Y227330D03*
X429110Y184150D03*
X442110Y184150D03*
D51*
X404470Y199240D03*
X404470Y212240D03*
X385470Y212240D03*
X385470Y205740D03*
X385470Y199240D03*
D27*
X401470Y189230D03*
X388470Y189230D03*
D16*
X402200Y227330D03*
X385200Y227330D03*
D52*
X310540Y138130D03*
X320040Y138130D03*
X329540Y138130D03*
X329540Y164130D03*
X320040Y164130D03*
X310540Y164130D03*
D28*
X290170Y157320D03*
X271170Y157320D03*
X280670Y136320D03*
X248260Y157320D03*
X229260Y157320D03*
X238760Y136320D03*
D53*
X346710Y164710D03*
X346710Y147710D03*
D54*
X125850Y769360D03*
X130850Y769360D03*
X135850Y769360D03*
X140850Y769360D03*
X140850Y800360D03*
X135850Y800360D03*
X130850Y800360D03*
X125850Y800360D03*
D27*
X26820Y85090D03*
X13820Y85090D03*
D10*
X29820Y68580D03*
X10820Y68580D03*
D55*
X53340Y121440D03*
X53340Y116440D03*
X53340Y111440D03*
X53340Y106440D03*
X53340Y101440D03*
D29*
X63340Y91440D03*
X68340Y91440D03*
X73340Y91440D03*
X78340Y91440D03*
X83340Y91440D03*
D55*
X93340Y101440D03*
X93340Y106440D03*
X93340Y111440D03*
X93340Y116440D03*
X93340Y121440D03*
D29*
X83340Y131440D03*
X78340Y131440D03*
X73340Y131440D03*
X68340Y131440D03*
X63340Y131440D03*
D56*
X73340Y111440D03*
D27*
X63650Y64770D03*
X50650Y64770D03*
X63650Y76200D03*
X50650Y76200D03*
D13*
X104140Y98910D03*
X104140Y111910D03*
D27*
X13820Y96520D03*
X26820Y96520D03*
X13820Y107950D03*
X26820Y107950D03*
D57*
X44150Y45720D03*
X50650Y45720D03*
X57150Y45720D03*
X63650Y45720D03*
X70150Y45720D03*
D58*
X32150Y40970D03*
X82150Y40970D03*
D59*
X22150Y13970D03*
X92150Y13970D03*
D60*
X47150Y13970D03*
X67150Y13970D03*
X26650Y13970D03*
X87650Y13970D03*
D13*
X121920Y153820D03*
X121920Y140820D03*
X133350Y153820D03*
X133350Y140820D03*
X97790Y158900D03*
X97790Y145900D03*
X110490Y158900D03*
X110490Y145900D03*
D61*
X124220Y209170D03*
X94220Y209170D03*
X94220Y225170D03*
X124220Y225170D03*
D27*
X102720Y241300D03*
X115720Y241300D03*
D62*
X346310Y612220D03*
X346310Y617220D03*
X346310Y622220D03*
X359810Y622220D03*
X359810Y617220D03*
X359810Y612220D03*
D61*
X298690Y589660D03*
X328690Y589660D03*
X328690Y573660D03*
X298690Y573660D03*
D13*
X313690Y619910D03*
X313690Y606910D03*
X325120Y619910D03*
X325120Y606910D03*
X302260Y619910D03*
X302260Y606910D03*
D63*
X63500Y797560D03*
X63500Y772160D03*
X88900Y772160D03*
X88900Y797560D03*
X38100Y797560D03*
X38100Y772160D03*
D64*
X30050Y671150D03*
X71550Y671150D03*
X71550Y649650D03*
X30050Y649650D03*
D13*
X86360Y665330D03*
X86360Y678330D03*
D65*
X294200Y699890D02*
X299700Y699890D01*
X294200Y699890D02*
X294200Y701390D01*
X299700Y701390D01*
X299700Y699890D01*
X299700Y701315D02*
X294200Y701315D01*
X294200Y694890D02*
X299700Y694890D01*
X294200Y694890D02*
X294200Y696390D01*
X299700Y696390D01*
X299700Y694890D01*
X299700Y696315D02*
X294200Y696315D01*
X294200Y689890D02*
X299700Y689890D01*
X294200Y689890D02*
X294200Y691390D01*
X299700Y691390D01*
X299700Y689890D01*
X299700Y691315D02*
X294200Y691315D01*
X294200Y684890D02*
X299700Y684890D01*
X294200Y684890D02*
X294200Y686390D01*
X299700Y686390D01*
X299700Y684890D01*
X299700Y686315D02*
X294200Y686315D01*
X294200Y679890D02*
X299700Y679890D01*
X294200Y679890D02*
X294200Y681390D01*
X299700Y681390D01*
X299700Y679890D01*
X299700Y681315D02*
X294200Y681315D01*
X294200Y674890D02*
X299700Y674890D01*
X294200Y674890D02*
X294200Y676390D01*
X299700Y676390D01*
X299700Y674890D01*
X299700Y676315D02*
X294200Y676315D01*
X294200Y669890D02*
X299700Y669890D01*
X294200Y669890D02*
X294200Y671390D01*
X299700Y671390D01*
X299700Y669890D01*
X299700Y671315D02*
X294200Y671315D01*
X294200Y664890D02*
X299700Y664890D01*
X294200Y664890D02*
X294200Y666390D01*
X299700Y666390D01*
X299700Y664890D01*
X299700Y666315D02*
X294200Y666315D01*
X294200Y659890D02*
X299700Y659890D01*
X294200Y659890D02*
X294200Y661390D01*
X299700Y661390D01*
X299700Y659890D01*
X299700Y661315D02*
X294200Y661315D01*
X294200Y654890D02*
X299700Y654890D01*
X294200Y654890D02*
X294200Y656390D01*
X299700Y656390D01*
X299700Y654890D01*
X299700Y656315D02*
X294200Y656315D01*
X294200Y649890D02*
X299700Y649890D01*
X294200Y649890D02*
X294200Y651390D01*
X299700Y651390D01*
X299700Y649890D01*
X299700Y651315D02*
X294200Y651315D01*
X304450Y639640D02*
X305950Y639640D01*
X304450Y639640D02*
X304450Y645140D01*
X305950Y645140D01*
X305950Y639640D01*
X305950Y641065D02*
X304450Y641065D01*
X304450Y642490D02*
X305950Y642490D01*
X305950Y643915D02*
X304450Y643915D01*
X309450Y639640D02*
X310950Y639640D01*
X309450Y639640D02*
X309450Y645140D01*
X310950Y645140D01*
X310950Y639640D01*
X310950Y641065D02*
X309450Y641065D01*
X309450Y642490D02*
X310950Y642490D01*
X310950Y643915D02*
X309450Y643915D01*
X314450Y639640D02*
X315950Y639640D01*
X314450Y639640D02*
X314450Y645140D01*
X315950Y645140D01*
X315950Y639640D01*
X315950Y641065D02*
X314450Y641065D01*
X314450Y642490D02*
X315950Y642490D01*
X315950Y643915D02*
X314450Y643915D01*
X319450Y639640D02*
X320950Y639640D01*
X319450Y639640D02*
X319450Y645140D01*
X320950Y645140D01*
X320950Y639640D01*
X320950Y641065D02*
X319450Y641065D01*
X319450Y642490D02*
X320950Y642490D01*
X320950Y643915D02*
X319450Y643915D01*
X324450Y639640D02*
X325950Y639640D01*
X324450Y639640D02*
X324450Y645140D01*
X325950Y645140D01*
X325950Y639640D01*
X325950Y641065D02*
X324450Y641065D01*
X324450Y642490D02*
X325950Y642490D01*
X325950Y643915D02*
X324450Y643915D01*
X329450Y639640D02*
X330950Y639640D01*
X329450Y639640D02*
X329450Y645140D01*
X330950Y645140D01*
X330950Y639640D01*
X330950Y641065D02*
X329450Y641065D01*
X329450Y642490D02*
X330950Y642490D01*
X330950Y643915D02*
X329450Y643915D01*
X334450Y639640D02*
X335950Y639640D01*
X334450Y639640D02*
X334450Y645140D01*
X335950Y645140D01*
X335950Y639640D01*
X335950Y641065D02*
X334450Y641065D01*
X334450Y642490D02*
X335950Y642490D01*
X335950Y643915D02*
X334450Y643915D01*
X339450Y639640D02*
X340950Y639640D01*
X339450Y639640D02*
X339450Y645140D01*
X340950Y645140D01*
X340950Y639640D01*
X340950Y641065D02*
X339450Y641065D01*
X339450Y642490D02*
X340950Y642490D01*
X340950Y643915D02*
X339450Y643915D01*
X344450Y639640D02*
X345950Y639640D01*
X344450Y639640D02*
X344450Y645140D01*
X345950Y645140D01*
X345950Y639640D01*
X345950Y641065D02*
X344450Y641065D01*
X344450Y642490D02*
X345950Y642490D01*
X345950Y643915D02*
X344450Y643915D01*
X349450Y639640D02*
X350950Y639640D01*
X349450Y639640D02*
X349450Y645140D01*
X350950Y645140D01*
X350950Y639640D01*
X350950Y641065D02*
X349450Y641065D01*
X349450Y642490D02*
X350950Y642490D01*
X350950Y643915D02*
X349450Y643915D01*
X354450Y639640D02*
X355950Y639640D01*
X354450Y639640D02*
X354450Y645140D01*
X355950Y645140D01*
X355950Y639640D01*
X355950Y641065D02*
X354450Y641065D01*
X354450Y642490D02*
X355950Y642490D01*
X355950Y643915D02*
X354450Y643915D01*
X360700Y649890D02*
X366200Y649890D01*
X360700Y649890D02*
X360700Y651390D01*
X366200Y651390D01*
X366200Y649890D01*
X366200Y651315D02*
X360700Y651315D01*
X360700Y654890D02*
X366200Y654890D01*
X360700Y654890D02*
X360700Y656390D01*
X366200Y656390D01*
X366200Y654890D01*
X366200Y656315D02*
X360700Y656315D01*
X360700Y659890D02*
X366200Y659890D01*
X360700Y659890D02*
X360700Y661390D01*
X366200Y661390D01*
X366200Y659890D01*
X366200Y661315D02*
X360700Y661315D01*
X360700Y664890D02*
X366200Y664890D01*
X360700Y664890D02*
X360700Y666390D01*
X366200Y666390D01*
X366200Y664890D01*
X366200Y666315D02*
X360700Y666315D01*
X360700Y669890D02*
X366200Y669890D01*
X360700Y669890D02*
X360700Y671390D01*
X366200Y671390D01*
X366200Y669890D01*
X366200Y671315D02*
X360700Y671315D01*
X360700Y674890D02*
X366200Y674890D01*
X360700Y674890D02*
X360700Y676390D01*
X366200Y676390D01*
X366200Y674890D01*
X366200Y676315D02*
X360700Y676315D01*
X360700Y679890D02*
X366200Y679890D01*
X360700Y679890D02*
X360700Y681390D01*
X366200Y681390D01*
X366200Y679890D01*
X366200Y681315D02*
X360700Y681315D01*
X360700Y684890D02*
X366200Y684890D01*
X360700Y684890D02*
X360700Y686390D01*
X366200Y686390D01*
X366200Y684890D01*
X366200Y686315D02*
X360700Y686315D01*
X360700Y689890D02*
X366200Y689890D01*
X360700Y689890D02*
X360700Y691390D01*
X366200Y691390D01*
X366200Y689890D01*
X366200Y691315D02*
X360700Y691315D01*
X360700Y694890D02*
X366200Y694890D01*
X360700Y694890D02*
X360700Y696390D01*
X366200Y696390D01*
X366200Y694890D01*
X366200Y696315D02*
X360700Y696315D01*
X360700Y699890D02*
X366200Y699890D01*
X360700Y699890D02*
X360700Y701390D01*
X366200Y701390D01*
X366200Y699890D01*
X366200Y701315D02*
X360700Y701315D01*
X355950Y706140D02*
X354450Y706140D01*
X354450Y711640D01*
X355950Y711640D01*
X355950Y706140D01*
X355950Y707565D02*
X354450Y707565D01*
X354450Y708990D02*
X355950Y708990D01*
X355950Y710415D02*
X354450Y710415D01*
X350950Y706140D02*
X349450Y706140D01*
X349450Y711640D01*
X350950Y711640D01*
X350950Y706140D01*
X350950Y707565D02*
X349450Y707565D01*
X349450Y708990D02*
X350950Y708990D01*
X350950Y710415D02*
X349450Y710415D01*
X345950Y706140D02*
X344450Y706140D01*
X344450Y711640D01*
X345950Y711640D01*
X345950Y706140D01*
X345950Y707565D02*
X344450Y707565D01*
X344450Y708990D02*
X345950Y708990D01*
X345950Y710415D02*
X344450Y710415D01*
X340950Y706140D02*
X339450Y706140D01*
X339450Y711640D01*
X340950Y711640D01*
X340950Y706140D01*
X340950Y707565D02*
X339450Y707565D01*
X339450Y708990D02*
X340950Y708990D01*
X340950Y710415D02*
X339450Y710415D01*
X335950Y706140D02*
X334450Y706140D01*
X334450Y711640D01*
X335950Y711640D01*
X335950Y706140D01*
X335950Y707565D02*
X334450Y707565D01*
X334450Y708990D02*
X335950Y708990D01*
X335950Y710415D02*
X334450Y710415D01*
X330950Y706140D02*
X329450Y706140D01*
X329450Y711640D01*
X330950Y711640D01*
X330950Y706140D01*
X330950Y707565D02*
X329450Y707565D01*
X329450Y708990D02*
X330950Y708990D01*
X330950Y710415D02*
X329450Y710415D01*
X325950Y706140D02*
X324450Y706140D01*
X324450Y711640D01*
X325950Y711640D01*
X325950Y706140D01*
X325950Y707565D02*
X324450Y707565D01*
X324450Y708990D02*
X325950Y708990D01*
X325950Y710415D02*
X324450Y710415D01*
X320950Y706140D02*
X319450Y706140D01*
X319450Y711640D01*
X320950Y711640D01*
X320950Y706140D01*
X320950Y707565D02*
X319450Y707565D01*
X319450Y708990D02*
X320950Y708990D01*
X320950Y710415D02*
X319450Y710415D01*
X315950Y706140D02*
X314450Y706140D01*
X314450Y711640D01*
X315950Y711640D01*
X315950Y706140D01*
X315950Y707565D02*
X314450Y707565D01*
X314450Y708990D02*
X315950Y708990D01*
X315950Y710415D02*
X314450Y710415D01*
X310950Y706140D02*
X309450Y706140D01*
X309450Y711640D01*
X310950Y711640D01*
X310950Y706140D01*
X310950Y707565D02*
X309450Y707565D01*
X309450Y708990D02*
X310950Y708990D01*
X310950Y710415D02*
X309450Y710415D01*
X305950Y706140D02*
X304450Y706140D01*
X304450Y711640D01*
X305950Y711640D01*
X305950Y706140D01*
X305950Y707565D02*
X304450Y707565D01*
X304450Y708990D02*
X305950Y708990D01*
X305950Y710415D02*
X304450Y710415D01*
D66*
X307700Y653140D02*
X352700Y653140D01*
X307700Y653140D02*
X307700Y698140D01*
X352700Y698140D01*
X352700Y653140D01*
X352700Y657890D02*
X307700Y657890D01*
X307700Y662640D02*
X352700Y662640D01*
X352700Y667390D02*
X307700Y667390D01*
X307700Y672140D02*
X352700Y672140D01*
X352700Y676890D02*
X307700Y676890D01*
X307700Y681640D02*
X352700Y681640D01*
X352700Y686390D02*
X307700Y686390D01*
X307700Y691140D02*
X352700Y691140D01*
X352700Y695890D02*
X307700Y695890D01*
D27*
X391310Y675640D03*
X378310Y675640D03*
D13*
X86360Y720240D03*
X86360Y707240D03*
D64*
X71550Y714420D03*
X30050Y714420D03*
X30050Y735920D03*
X71550Y735920D03*
D13*
X276860Y677060D03*
X276860Y664060D03*
D67*
X241300Y649520D03*
X241300Y686520D03*
D13*
X265430Y685950D03*
X265430Y672950D03*
X86360Y145900D03*
X86360Y158900D03*
D68*
X24620Y952310D03*
X15620Y820310D03*
D69*
X155620Y936310D03*
X155620Y876310D03*
D70*
X53620Y943310D03*
X53620Y932310D03*
X49620Y921310D03*
X53620Y910310D03*
X49620Y899310D03*
X53620Y888310D03*
X57620Y877310D03*
X53620Y866310D03*
D13*
X176530Y917090D03*
X176530Y904090D03*
D71*
X285140Y898690D03*
X294640Y898690D03*
X304140Y898690D03*
X304140Y871690D03*
X294640Y871690D03*
X285140Y871690D03*
D72*
X249580Y875460D03*
X268580Y875460D03*
X259080Y897460D03*
D27*
X252580Y855980D03*
X265580Y855980D03*
D73*
X291220Y853440D03*
X308220Y853440D03*
D33*
X274980Y945680D03*
X284480Y945680D03*
X293980Y945680D03*
X293980Y918680D03*
X284480Y918680D03*
X274980Y918680D03*
D74*
X80540Y289760D03*
X80540Y294760D03*
X80540Y299760D03*
X80540Y304760D03*
X80540Y309760D03*
X114840Y309560D03*
X114840Y304560D03*
X114840Y299560D03*
X114840Y294560D03*
X114840Y289560D03*
D75*
X90290Y280010D03*
X105290Y280010D03*
X105290Y324510D03*
X90290Y324510D03*
D76*
X97790Y302260D03*
D74*
X114840Y284560D03*
X114840Y314560D03*
X80540Y284760D03*
X80540Y314760D03*
X114840Y319560D03*
X80540Y319760D03*
D27*
X92560Y515620D03*
X105560Y515620D03*
D74*
X554460Y368100D03*
X554460Y363100D03*
X554460Y358100D03*
X554460Y353100D03*
X554460Y348100D03*
X520160Y348300D03*
X520160Y353300D03*
X520160Y358300D03*
X520160Y363300D03*
X520160Y368300D03*
D75*
X544710Y377850D03*
X529710Y377850D03*
X529710Y333350D03*
X544710Y333350D03*
D76*
X537210Y355600D03*
D74*
X520160Y373300D03*
X520160Y343300D03*
X554460Y373100D03*
X554460Y343100D03*
X520160Y338300D03*
X554460Y338100D03*
D27*
X529740Y321310D03*
X516740Y321310D03*
D74*
X85620Y477680D03*
X85620Y482680D03*
X85620Y487680D03*
X85620Y492680D03*
X85620Y497680D03*
X120120Y497680D03*
X120120Y492680D03*
X120120Y487680D03*
X120120Y482680D03*
X120120Y477680D03*
D75*
X95370Y470430D03*
X110370Y470430D03*
X110370Y504930D03*
X95370Y504930D03*
D77*
X102870Y487680D03*
D52*
X92100Y411180D03*
X101600Y411180D03*
X111100Y411180D03*
X111100Y437180D03*
X101600Y437180D03*
X92100Y437180D03*
D78*
X100170Y344830D03*
X100170Y363830D03*
X79170Y354330D03*
D53*
X128270Y344560D03*
X128270Y361560D03*
D13*
X147320Y416410D03*
X147320Y429410D03*
D12*
X130810Y413410D03*
X130810Y432410D03*
D13*
X80010Y411330D03*
X80010Y424330D03*
X111760Y346560D03*
X111760Y359560D03*
D79*
X363630Y243680D03*
X363630Y233680D03*
X363630Y238680D03*
X363630Y228680D03*
X363630Y223680D03*
X319630Y223680D03*
X319630Y228680D03*
X319630Y233680D03*
X319630Y238680D03*
X319630Y243680D03*
D17*
X601550Y79860D03*
X601550Y86360D03*
X601550Y92860D03*
X579550Y92860D03*
X579550Y86360D03*
X579550Y79860D03*
D28*
X598780Y137000D03*
X579780Y137000D03*
X589280Y116000D03*
D53*
X615950Y135500D03*
X615950Y118500D03*
D27*
X595780Y104140D03*
X582780Y104140D03*
D18*
X377340Y125300D03*
X370840Y125300D03*
X364340Y125300D03*
X364340Y103300D03*
X370840Y103300D03*
X377340Y103300D03*
D13*
X389890Y107800D03*
X389890Y120800D03*
D27*
X348130Y255270D03*
X335130Y255270D03*
D79*
X302670Y477360D03*
X302670Y467360D03*
X302670Y472360D03*
X302670Y462360D03*
X302670Y457360D03*
X258670Y457360D03*
X258670Y462360D03*
X258670Y467360D03*
X258670Y472360D03*
X258670Y477360D03*
D27*
X264010Y492760D03*
X277010Y492760D03*
D16*
X543950Y304800D03*
X560950Y304800D03*
X105020Y381000D03*
X88020Y381000D03*
D78*
X616110Y98400D03*
X616110Y79400D03*
X637110Y88900D03*
D80*
X596900Y38100D03*
D43*
X622300Y38100D03*
D80*
X533400Y38100D03*
D43*
X558800Y38100D03*
D80*
X369570Y36830D03*
D43*
X394970Y36830D03*
D81*
X283390Y115570D03*
X242390Y115570D03*
D82*
X326390Y18870D03*
X326390Y59870D03*
D83*
X479900Y75100D03*
X459900Y75100D03*
D84*
X503900Y23100D03*
X435900Y23100D03*
D85*
X110490Y39340D03*
X110490Y67340D03*
D86*
X260400Y538280D03*
X260400Y533280D03*
X260400Y528280D03*
X260400Y523280D03*
X260400Y518280D03*
X260400Y513280D03*
D87*
X266900Y544780D03*
X271900Y544780D03*
X276900Y544780D03*
X281900Y544780D03*
X286900Y544780D03*
X291900Y544780D03*
X291900Y506780D03*
X286900Y506780D03*
X281900Y506780D03*
X276900Y506780D03*
X271900Y506780D03*
X266900Y506780D03*
D86*
X298400Y513280D03*
X298400Y518280D03*
X298400Y523280D03*
X298400Y528280D03*
X298400Y533280D03*
X298400Y538280D03*
D56*
X279400Y525780D03*
D27*
X109370Y458470D03*
X96370Y458470D03*
X111910Y269240D03*
X98910Y269240D03*
X523090Y388620D03*
X536090Y388620D03*
X596750Y669290D03*
X609750Y669290D03*
X265280Y563880D03*
X278280Y563880D03*
D88*
X364340Y125300D02*
X364340Y119530D01*
X367665Y116205D01*
X370840Y113030D01*
X384660Y113030D01*
X389890Y107800D01*
D89*
X234250Y276450D02*
X234250Y281240D01*
X239460Y286450D02*
X244250Y286450D01*
X239460Y286450D02*
X234250Y281240D01*
X244250Y286450D02*
X250750Y286450D01*
X250750Y316150D02*
X249400Y317500D01*
X250750Y316150D02*
X250750Y286450D01*
D90*
X249400Y317500D02*
X269900Y338000D01*
X269900Y355600D01*
D20*
X304396Y375476D03*
D91*
X259080Y365760D03*
D88*
X259080Y371500D02*
X264160Y376580D01*
X259080Y371500D02*
X259080Y365760D01*
D92*
X135890Y604520D03*
D93*
X130810Y413410D02*
X128580Y411180D01*
X111100Y411180D01*
D92*
X127000Y381000D03*
D90*
X139700Y381000D02*
X167250Y353450D01*
X241300Y353450D01*
X267750Y353450D02*
X269900Y355600D01*
X267750Y353450D02*
X241300Y353450D01*
D93*
X130810Y396240D02*
X127000Y392430D01*
X130810Y396240D02*
X130810Y413410D01*
X127000Y362830D02*
X128270Y361560D01*
X127000Y362830D02*
X127000Y381000D01*
D90*
X139700Y381000D01*
D88*
X258670Y487420D02*
X264010Y492760D01*
X258670Y487420D02*
X258670Y483870D01*
X258670Y477360D01*
D93*
X147320Y416410D02*
X142090Y411180D01*
X128580Y411180D01*
X127000Y392430D02*
X127000Y381000D01*
D88*
X353060Y233680D02*
X363630Y233680D01*
X353060Y233680D02*
X347980Y238760D01*
X347980Y251460D01*
X347980Y255120D01*
X348130Y255270D01*
D91*
X288223Y459807D03*
D88*
X288223Y461928D01*
X293656Y467360D02*
X302670Y467360D01*
X293656Y467360D02*
X288223Y461928D01*
D91*
X347980Y560070D03*
D94*
X360330Y568610D02*
X360330Y580970D01*
X360330Y568610D02*
X351790Y560070D01*
X347980Y560070D01*
D95*
X601550Y104140D02*
X601550Y92860D01*
X601550Y104140D02*
X601550Y111330D01*
X608720Y118500D02*
X615950Y118500D01*
X604520Y114300D02*
X601550Y111330D01*
X601550Y104140D02*
X595780Y104140D01*
D20*
X604520Y114300D03*
D95*
X608720Y118500D01*
D88*
X371851Y233680D02*
X363630Y233680D01*
X558838Y226689D02*
X593249Y192278D01*
X540541Y264898D02*
X403069Y264898D01*
X540541Y264898D02*
X558838Y246601D01*
X558838Y226689D01*
X403069Y264898D02*
X371851Y233680D01*
D91*
X636270Y182880D03*
D88*
X615597Y192278D02*
X593249Y192278D01*
X624995Y182880D02*
X636270Y182880D01*
X624995Y182880D02*
X615597Y192278D01*
D91*
X344170Y16280D03*
D88*
X344170Y31980D01*
D91*
X344170Y31980D03*
X367665Y116205D03*
D92*
X254000Y353060D03*
X355600Y355600D03*
D90*
X368300Y368300D01*
X406400Y368300D01*
D92*
X406400Y368300D03*
X430530Y379730D03*
D90*
X455930Y405130D01*
X501650Y405130D02*
X511810Y415290D01*
X501650Y405130D02*
X455930Y405130D01*
D95*
X347980Y281940D02*
X305680Y281940D01*
D88*
X264160Y483870D02*
X258670Y483870D01*
D20*
X264160Y483870D03*
D90*
X511810Y425450D02*
X511810Y415290D01*
D94*
X511960Y425300D02*
X523130Y425300D01*
X511960Y425300D02*
X511810Y425450D01*
D95*
X355600Y355600D02*
X347980Y347980D01*
X347980Y281940D01*
X347980Y251460D01*
D88*
X304396Y375476D02*
X303832Y376040D01*
X296310Y376040D01*
D90*
X238760Y204000D02*
X229260Y204000D01*
X271170Y204000D02*
X280670Y204000D01*
X238760Y204000D02*
X238760Y210820D01*
X242570Y214630D01*
X257810Y214630D01*
X267970Y214630D01*
X271170Y211430D02*
X271170Y204000D01*
X271170Y211430D02*
X267970Y214630D01*
X257810Y226720D02*
X258420Y227330D01*
X257810Y226720D02*
X257810Y214630D01*
X229260Y204000D02*
X205610Y227650D01*
X182880Y227650D01*
D88*
X284870Y217560D02*
X293370Y217560D01*
X284870Y217560D02*
X280670Y213360D01*
X280670Y204000D01*
D95*
X258420Y227330D02*
X263750Y232660D01*
X263750Y240030D01*
X263750Y246950D01*
D94*
X273750Y269950D02*
X282650Y269950D01*
X283210Y270510D01*
D20*
X283210Y270510D03*
X275590Y240030D03*
D94*
X263750Y240030D01*
D90*
X187080Y263450D02*
X182880Y267650D01*
D93*
X187080Y263450D01*
X234250Y263450D01*
X234250Y256950D01*
D95*
X273750Y256950D02*
X284460Y256950D01*
X293370Y248040D01*
X293370Y234560D01*
X609150Y86360D02*
X616110Y79400D01*
X609150Y86360D02*
X601550Y86360D01*
X594360Y86360D01*
X587860Y92860D02*
X582930Y92860D01*
X579550Y92860D01*
X587860Y92860D02*
X594360Y86360D01*
D93*
X565810Y104140D02*
X563880Y102210D01*
X565810Y104140D02*
X582780Y104140D01*
D95*
X582780Y93010D01*
X582930Y92860D01*
X13820Y71580D02*
X10820Y68580D01*
X13820Y71580D02*
X13820Y85090D01*
X13820Y107950D01*
X13820Y96520D01*
D88*
X63340Y101440D02*
X63340Y91440D01*
X63340Y101440D02*
X73340Y111440D01*
X53340Y111440D01*
X73340Y111440D02*
X93340Y111440D01*
X103670Y111440D02*
X104140Y111910D01*
X103670Y111440D02*
X102870Y111440D01*
X93340Y111440D01*
D89*
X238547Y55966D02*
X251374Y55966D01*
X234876Y76157D02*
X225006Y86027D01*
X234876Y59637D02*
X238547Y55966D01*
X234876Y59637D02*
X234876Y76157D01*
X251374Y55966D02*
X251460Y55880D01*
D88*
X53340Y111440D02*
X39087Y111440D01*
X35283Y115244D01*
X16034Y115244D01*
X13820Y113030D01*
X13820Y107950D01*
D89*
X225006Y110706D02*
X225006Y86027D01*
X225006Y110706D02*
X229870Y115570D01*
X242390Y115570D01*
D88*
X560680Y105410D02*
X563880Y102210D01*
X560680Y105410D02*
X547520Y105410D01*
D93*
X562920Y137000D02*
X561490Y138430D01*
X562920Y137000D02*
X579780Y137000D01*
D92*
X563880Y115570D03*
D90*
X563880Y102210D01*
D93*
X563880Y115570D02*
X561490Y117960D01*
X561490Y127000D01*
X561490Y138430D01*
X511340Y215900D02*
X504190Y215900D01*
X500380Y212090D01*
X500380Y189890D01*
X499720Y189230D01*
D90*
X238760Y184150D02*
X238760Y177000D01*
X238760Y184150D02*
X247650Y193040D01*
X261620Y193040D01*
X273050Y193040D01*
X280670Y185420D01*
X280670Y177000D01*
D92*
X261620Y193040D03*
D90*
X250750Y263450D02*
X254000Y266700D01*
D93*
X257250Y263450D01*
D90*
X309400Y317500D02*
X288900Y338000D01*
X288900Y355600D01*
D89*
X263064Y285764D02*
X263064Y280517D01*
X263064Y285764D02*
X263750Y286450D01*
X273210Y295910D01*
X304800Y295910D02*
X308610Y299720D01*
X308610Y316710D01*
X309400Y317500D01*
X295910Y295910D02*
X273210Y295910D01*
X295910Y295910D02*
X304800Y295910D01*
D90*
X305410Y410210D02*
X305410Y431800D01*
D88*
X82400Y586740D02*
X71120Y586740D01*
D91*
X71120Y586740D03*
D88*
X116840Y598170D02*
X125840Y598170D01*
X125840Y571500D02*
X116840Y571500D01*
D89*
X116840Y598170D01*
D90*
X103480Y536550D02*
X93980Y527050D01*
X103480Y536550D02*
X103480Y539750D01*
X43942Y191008D02*
X26700Y191008D01*
X16510Y201198D01*
X16510Y396240D02*
X16510Y530860D01*
X16510Y396240D02*
X16510Y201198D01*
X50292Y184658D02*
X50292Y164592D01*
X47625Y187325D02*
X43942Y191008D01*
X47625Y187325D02*
X50292Y184658D01*
X50292Y164592D02*
X38100Y152400D01*
D93*
X17780Y394970D02*
X16510Y396240D01*
X121379Y432410D02*
X130810Y432410D01*
X121379Y432410D02*
X113705Y424736D01*
X101600Y424736D02*
X80416Y424736D01*
X101600Y424736D02*
X113705Y424736D01*
X80416Y424736D02*
X80010Y424330D01*
X101600Y424736D02*
X101600Y411180D01*
X100170Y376150D02*
X100170Y363830D01*
X100170Y376150D02*
X105020Y381000D01*
X107490Y363830D02*
X111760Y359560D01*
X107490Y363830D02*
X100170Y363830D01*
D89*
X87930Y63500D02*
X70150Y45720D01*
X87930Y63500D02*
X88900Y63500D01*
D92*
X88900Y63500D03*
D95*
X115752Y92464D02*
X115752Y106626D01*
D88*
X278280Y675640D02*
X276860Y677060D01*
X278280Y675640D02*
X296950Y675640D01*
X275740Y675640D02*
X265430Y685950D01*
X275740Y675640D02*
X278280Y675640D01*
D94*
X271900Y544780D02*
X266900Y544780D01*
X271900Y544780D02*
X271900Y533280D01*
X279400Y525780D01*
D96*
X160190Y575140D02*
X160190Y580850D01*
X162710Y572620D02*
X162710Y571500D01*
X162710Y565150D01*
X162710Y572620D02*
X160190Y575140D01*
D94*
X93980Y527050D02*
X93980Y525770D01*
X99536Y520214D02*
X99536Y510075D01*
X99536Y520214D02*
X93980Y525770D01*
D88*
X258670Y467360D02*
X273050Y467360D01*
X276860Y471170D01*
D95*
X276860Y492610D01*
D88*
X277010Y492760D01*
D96*
X117744Y570596D02*
X116840Y571500D01*
X117744Y570596D02*
X117744Y562753D01*
X143953Y555316D02*
X159076Y555316D01*
X122493Y558004D02*
X117744Y562753D01*
X122493Y558004D02*
X141265Y558004D01*
X143953Y555316D01*
X159076Y555316D02*
X162710Y558950D01*
X162710Y565150D01*
D93*
X144320Y432410D02*
X147320Y429410D01*
X144320Y432410D02*
X130810Y432410D01*
D96*
X313860Y187150D02*
X319230Y187150D01*
X321310Y189230D01*
X321310Y194090D02*
X322700Y195480D01*
X332860Y195480D01*
D95*
X381000Y205740D02*
X385470Y205740D01*
X378422Y208318D02*
X378422Y220552D01*
X378422Y208318D02*
X381000Y205740D01*
X378422Y220552D02*
X385200Y227330D01*
X385470Y205740D02*
X394970Y205740D01*
X412750Y205740D01*
X422110Y205740D01*
X394970Y195730D02*
X388470Y189230D01*
X394970Y195730D02*
X394970Y205740D01*
X417830Y227330D02*
X422760Y227330D01*
X417830Y227330D02*
X412750Y222250D01*
X412750Y205740D01*
X422110Y205740D02*
X433070Y205740D01*
X435610Y203200D01*
X435610Y190650D01*
X442110Y184150D01*
D88*
X320040Y144780D02*
X320040Y138130D01*
X320040Y144780D02*
X316532Y148288D01*
D90*
X254000Y127180D02*
X242390Y115570D01*
X254000Y127180D02*
X254000Y129540D01*
D92*
X254000Y129540D03*
D20*
X321310Y189230D03*
D96*
X321310Y194090D01*
D91*
X500380Y212090D03*
D93*
X467360Y243180D02*
X467360Y251460D01*
X471170Y255270D01*
X522850Y255270D02*
X534280Y243840D01*
X497840Y255270D02*
X471170Y255270D01*
X497840Y255270D02*
X522850Y255270D01*
X422760Y233530D02*
X422760Y227330D01*
X432410Y243180D02*
X467360Y243180D01*
X432410Y243180D02*
X422760Y233530D01*
D91*
X497840Y255270D03*
D93*
X521310Y189230D02*
X532740Y177800D01*
X521310Y189230D02*
X499720Y189230D01*
X532740Y177800D02*
X609600Y177800D01*
D88*
X330200Y233680D02*
X319630Y233680D01*
X335130Y238610D02*
X335130Y243840D01*
X335130Y255270D01*
X335130Y238610D02*
X330200Y233680D01*
X319790Y243840D02*
X319630Y243680D01*
X319790Y243840D02*
X335130Y243840D01*
X335200Y642390D02*
X335200Y670640D01*
X330200Y675640D01*
D94*
X298400Y538280D02*
X291900Y538280D01*
X279400Y525780D01*
X276900Y508000D02*
X276900Y506780D01*
X276900Y508000D02*
X276900Y523280D01*
X279400Y525780D01*
D88*
X97790Y270360D02*
X98910Y269240D01*
X77470Y217170D02*
X47625Y187325D01*
X77470Y217170D02*
X77470Y231140D01*
X97790Y251460D01*
X97790Y270360D01*
D95*
X330200Y675640D02*
X363450Y675640D01*
X330200Y675640D02*
X296950Y675640D01*
X330200Y675640D02*
X330200Y708890D01*
X363450Y675640D02*
X378310Y675640D01*
D94*
X277010Y507890D02*
X277010Y492760D01*
X277010Y507890D02*
X276900Y508000D01*
D95*
X305410Y442620D02*
X305410Y431800D01*
X305410Y442620D02*
X295910Y452120D01*
X280670Y452120D01*
D20*
X280670Y452120D03*
X276860Y471170D03*
D95*
X278280Y491490D02*
X306070Y491490D01*
X278280Y491490D02*
X277010Y492760D01*
D20*
X306070Y491490D03*
D91*
X333707Y625396D03*
D95*
X333707Y627739D01*
X336018Y630050D01*
X336018Y634870D01*
X335200Y635688D01*
X335200Y642390D01*
D20*
X354126Y601726D03*
D94*
X364584Y616036D02*
X363106Y617514D01*
X364584Y616036D02*
X364584Y609675D01*
X363106Y608196D01*
X363106Y617514D02*
X360104Y617514D01*
X360596Y608196D02*
X363106Y608196D01*
X360596Y608196D02*
X354126Y601726D01*
X359810Y617220D02*
X360104Y617514D01*
X348330Y593780D02*
X348330Y589970D01*
X348330Y593780D02*
X342886Y599224D01*
X336026Y599224D01*
D20*
X336026Y599224D03*
D88*
X523130Y431800D02*
X532130Y431800D01*
X532130Y458470D02*
X523130Y458470D01*
D93*
X532130Y458470D02*
X532130Y431800D01*
D94*
X566570Y458470D02*
X580390Y458470D01*
D20*
X580390Y458470D03*
D96*
X468460Y449600D02*
X468460Y441500D01*
X468460Y449600D02*
X465940Y452120D01*
X520700Y431800D02*
X523130Y431800D01*
X520700Y431800D02*
X517398Y435102D01*
X504183Y435102D01*
X492854Y423773D02*
X492854Y414931D01*
X489403Y411480D01*
X492854Y423773D02*
X504183Y435102D01*
X489403Y411480D02*
X457200Y411480D01*
X450850Y417830D01*
X450850Y448310D02*
X454660Y452120D01*
X465940Y452120D01*
X450850Y440690D02*
X450850Y417830D01*
X450850Y440690D02*
X450850Y448310D01*
X451390Y440150D02*
X456470Y440150D01*
X451390Y440150D02*
X450850Y440690D01*
D89*
X536600Y415290D02*
X536600Y406400D01*
X536600Y415290D02*
X532130Y419760D01*
X532130Y431800D01*
D88*
X536600Y406400D02*
X536600Y389130D01*
X536090Y388620D01*
D20*
X544830Y314960D03*
D88*
X544830Y305680D02*
X543950Y304800D01*
X544830Y305680D02*
X544830Y314960D01*
X316532Y148288D02*
X305006Y148288D01*
X298450Y141732D01*
D20*
X298450Y141732D03*
D94*
X540310Y714300D02*
X540310Y718730D01*
X540310Y714300D02*
X537210Y711200D01*
X529590Y711200D01*
X527050Y713740D01*
X527050Y725170D01*
X533810Y731930D02*
X533810Y739230D01*
X533810Y731930D02*
X527050Y725170D01*
D88*
X554990Y703730D02*
X571650Y703730D01*
X596900Y728980D01*
X533810Y739230D02*
X533810Y745900D01*
X543560Y755650D01*
X590861Y755650D02*
X596900Y749611D01*
X590861Y755650D02*
X543560Y755650D01*
X596900Y749611D02*
X596900Y728980D01*
X596900Y749611D02*
X613099Y749611D01*
X615950Y746760D01*
X615950Y739200D01*
X615950Y603250D02*
X584200Y571500D01*
X615950Y603250D02*
X615950Y668020D01*
X615950Y696151D02*
X615950Y739200D01*
X614680Y669290D02*
X615950Y668020D01*
X614680Y669290D02*
X609750Y669290D01*
X609750Y689951D01*
X615950Y696151D01*
D20*
X596900Y749611D03*
D91*
X307340Y226060D03*
D95*
X309332Y228052D02*
X309332Y231443D01*
X309332Y228052D02*
X307340Y226060D01*
X311570Y233680D02*
X319630Y233680D01*
X311570Y233680D02*
X309332Y231443D01*
X389890Y120800D02*
X391811Y118879D01*
X401598Y118879D01*
D91*
X401598Y118879D03*
D96*
X162710Y571500D02*
X162964Y571754D01*
X168369Y571754D01*
X172180Y575565D01*
X172180Y582200D01*
D88*
X71550Y671150D02*
X30050Y671150D01*
D95*
X49620Y921310D02*
X65330Y921310D01*
X72390Y928370D01*
X72390Y947420D01*
X67500Y952310D01*
X24620Y952310D01*
X72390Y928370D02*
X103560Y928370D01*
X155620Y876310D01*
X24620Y853440D02*
X24620Y952310D01*
X24620Y853440D02*
X15620Y844440D01*
X15620Y820310D01*
X284480Y918680D02*
X284480Y925830D01*
X288290Y929640D01*
X304800Y929640D01*
X310188Y924252D02*
X310188Y891848D01*
X310188Y924252D02*
X304800Y929640D01*
X310188Y891848D02*
X300990Y882650D01*
X297180Y882650D01*
X294640Y880110D01*
X294640Y871690D01*
X294640Y856860D02*
X291220Y853440D01*
X294640Y856860D02*
X294640Y871690D01*
X291220Y811920D02*
X254000Y774700D01*
X291220Y811920D02*
X291220Y853440D01*
D88*
X71550Y714420D02*
X30050Y714420D01*
X30050Y723469D01*
X22006Y731513D01*
X30050Y714420D02*
X30050Y671150D01*
X15620Y800990D02*
X15620Y820310D01*
X22006Y772160D02*
X22006Y731513D01*
X22006Y772160D02*
X22006Y794604D01*
X15620Y800990D01*
X22006Y772160D02*
X38100Y772160D01*
X140850Y774566D02*
X140850Y769360D01*
X140850Y774566D02*
X135890Y779526D01*
D20*
X135890Y779526D03*
X57150Y819150D03*
D88*
X55990Y820310D01*
X15620Y820310D01*
D95*
X330200Y713740D02*
X330200Y708890D01*
D91*
X195580Y746760D03*
D95*
X325082Y718858D02*
X330200Y713740D01*
X325082Y718858D02*
X325082Y745120D01*
X243550Y746760D02*
X195580Y746760D01*
X243550Y746760D02*
X250320Y753530D01*
X316672Y753530D02*
X325082Y745120D01*
X316672Y753530D02*
X250320Y753530D01*
X544710Y348100D02*
X544710Y333350D01*
X544710Y348100D02*
X537210Y355600D01*
X544710Y333350D02*
X544710Y315080D01*
X544830Y314960D01*
X98910Y301140D02*
X98910Y269240D01*
X98910Y301140D02*
X97790Y302260D01*
X90290Y309760D02*
X90290Y324510D01*
X90290Y309760D02*
X97790Y302260D01*
X254000Y277700D02*
X254000Y276700D01*
X244250Y232160D02*
X239420Y227330D01*
X244250Y232160D02*
X244250Y246950D01*
D88*
X296790Y22860D02*
X287900Y13970D01*
X273050Y13970D01*
X269240Y17780D01*
X269240Y20320D01*
X269240Y35350D01*
X269240Y20320D02*
X259690Y20320D01*
X96370Y458470D02*
X102870Y464970D01*
X102870Y483870D01*
X102870Y487680D01*
X110370Y491370D02*
X110370Y504930D01*
X110370Y491370D02*
X102870Y483870D01*
D94*
X104681Y504930D02*
X110370Y504930D01*
X104681Y504930D02*
X99536Y510075D01*
D88*
X262710Y41880D02*
X269240Y35350D01*
X260617Y48174D02*
X259166Y48174D01*
X262710Y46081D02*
X262710Y41880D01*
X262710Y46081D02*
X260617Y48174D01*
X259166Y48174D02*
X251460Y55880D01*
X536090Y356720D02*
X536090Y388620D01*
X536090Y356720D02*
X537210Y355600D01*
X566570Y443230D02*
X580390Y443230D01*
D91*
X580390Y443230D03*
D88*
X82400Y571500D02*
X71120Y571500D01*
D91*
X71120Y571500D03*
D95*
X385390Y125300D02*
X389890Y120800D01*
X385390Y125300D02*
X377340Y125300D01*
X370840Y125300D01*
D94*
X329540Y138130D02*
X320040Y138130D01*
D88*
X293370Y265040D02*
X293370Y271780D01*
X297744Y286827D02*
X295910Y288661D01*
X295910Y295910D01*
X297744Y276154D02*
X293370Y271780D01*
X297744Y276154D02*
X297744Y286827D01*
D90*
X28630Y542980D02*
X28630Y543226D01*
D92*
X28630Y543226D03*
D90*
X28630Y542980D02*
X16510Y530860D01*
X31242Y545592D02*
X43150Y545592D01*
X31242Y545592D02*
X28630Y542980D01*
D20*
X289560Y393700D03*
X289560Y383540D03*
X289560Y373380D03*
D94*
X289560Y383540D01*
D95*
X88900Y74930D02*
X88900Y63500D01*
X96798Y82828D02*
X106116Y82828D01*
X115752Y92464D01*
X96798Y82828D02*
X88900Y74930D01*
D97*
X408940Y83210D02*
X408940Y50800D01*
X394970Y36830D01*
D95*
X115752Y106626D02*
X110938Y111440D01*
X102870Y111440D01*
D93*
X101600Y394970D02*
X101600Y411180D01*
X105020Y391550D02*
X105020Y381000D01*
X105020Y391550D02*
X101600Y394970D01*
X17780Y394970D01*
D90*
X61692Y527050D02*
X43150Y545592D01*
X61692Y527050D02*
X93980Y527050D01*
D88*
X288680Y281940D02*
X283190Y276450D01*
X279400Y276450D01*
X273750Y276450D01*
D94*
X279400Y276450D02*
X279400Y283210D01*
D20*
X279400Y283210D03*
X311150Y518160D03*
D94*
X311030Y518280D01*
X298400Y518280D01*
D93*
X313690Y376310D02*
X334010Y376310D01*
X336010Y378310D02*
X349250Y378310D01*
X336010Y378310D02*
X334010Y376310D01*
D88*
X313690Y376310D02*
X308960Y381040D01*
X296310Y381040D01*
D20*
X278130Y370840D03*
X251460Y370840D03*
X306070Y513080D03*
D94*
X305870Y513280D01*
X298400Y513280D01*
D88*
X282810Y376040D02*
X282810Y372980D01*
X280670Y370840D01*
X278130Y370840D01*
X251460Y370840D02*
X241690Y370840D01*
X241300Y370450D01*
D89*
X237490Y409510D02*
X237490Y410210D01*
X286410Y410210D01*
D91*
X330200Y403860D03*
D92*
X135890Y577850D03*
D96*
X138454Y580414D01*
X138454Y588834D01*
X168180Y590010D02*
X168180Y586200D01*
X168180Y590010D02*
X166370Y591820D01*
D20*
X166370Y591820D03*
D96*
X165250Y604520D02*
X173990Y604520D01*
D20*
X173990Y604520D03*
D92*
X150224Y441960D03*
D91*
X125730Y547370D03*
D94*
X131010Y547370D01*
X133710Y544670D01*
X133710Y537570D01*
X123190Y527050D02*
X110490Y527050D01*
X105560Y522120D01*
X105560Y515620D01*
X123190Y527050D02*
X133710Y537570D01*
X109930Y459030D02*
X109370Y458470D01*
X109930Y459030D02*
X110370Y459470D01*
X110370Y470430D01*
D91*
X368300Y571500D03*
D94*
X368300Y585810D01*
X364140Y589970D01*
X360330Y589970D01*
X348330Y580970D02*
X343480Y580970D01*
X342900Y580390D01*
D20*
X342900Y580390D03*
X339074Y614680D03*
D91*
X170180Y393700D03*
D20*
X124460Y279400D03*
D88*
X114840Y272170D02*
X111910Y269240D01*
X114840Y272170D02*
X114840Y279400D01*
X114840Y284560D01*
X114840Y279400D02*
X124460Y279400D01*
D20*
X118110Y458470D03*
D88*
X110490Y458470D01*
X109930Y459030D01*
D90*
X182674Y409510D02*
X237490Y409510D01*
X182674Y409510D02*
X150224Y441960D01*
D88*
X170180Y397016D02*
X170180Y393700D01*
X170180Y397016D02*
X182674Y409510D01*
D92*
X271780Y420370D03*
X355600Y454660D03*
D90*
X368300Y467360D01*
X457200Y467360D01*
X504190Y467360D01*
X510540Y461010D01*
X510540Y452621D01*
D96*
X483870Y434800D02*
X478960Y434800D01*
X483870Y434800D02*
X492719Y434800D01*
X492719Y444960D02*
X499495Y451735D01*
X492719Y444960D02*
X492719Y434800D01*
X499495Y451735D02*
X509655Y451735D01*
X510540Y452621D01*
D94*
X513750Y482000D02*
X526690Y482000D01*
X504190Y472440D02*
X504190Y467360D01*
X504190Y472440D02*
X513750Y482000D01*
D20*
X459740Y430530D03*
X492719Y434800D03*
D94*
X520160Y385690D02*
X520160Y373300D01*
X520160Y385690D02*
X523090Y388620D01*
D88*
X516740Y321310D02*
X511810Y321310D01*
X508000Y325120D01*
D20*
X508000Y325120D03*
X510540Y373380D03*
D88*
X520080Y373380D01*
X520160Y373300D01*
D94*
X533810Y718730D02*
X533810Y723040D01*
X537210Y726440D01*
X543560Y726440D02*
X546810Y723190D01*
X546810Y718730D01*
X553310Y718730D01*
D88*
X590550Y689801D02*
X590550Y683200D01*
X590550Y689801D02*
X588357Y691994D01*
X573693Y691994D01*
X572429Y690730D01*
X554990Y690730D01*
D95*
X457200Y571500D02*
X457200Y467360D01*
X457200Y571500D02*
X554990Y669290D01*
X554990Y690730D01*
D96*
X460470Y431260D02*
X459740Y430530D01*
X460470Y431260D02*
X460470Y436150D01*
X482750Y421640D02*
X483870Y422760D01*
X483870Y434800D01*
D88*
X125850Y800360D02*
X125850Y816490D01*
D91*
X165100Y904240D03*
D95*
X176380Y904240D02*
X176530Y904090D01*
X176380Y904240D02*
X165100Y904240D01*
D94*
X539750Y726440D02*
X543560Y726440D01*
X539750Y726440D02*
X537210Y726440D01*
X540310Y727000D02*
X540310Y739230D01*
X540310Y727000D02*
X539750Y726440D01*
D91*
X66040Y899160D03*
D95*
X65890Y899310D01*
X49620Y899310D01*
D20*
X82512Y868642D03*
D88*
X121920Y829977D02*
X121920Y820420D01*
X121920Y829977D02*
X83256Y868642D01*
X82512Y868642D01*
X121920Y820420D02*
X125850Y816490D01*
X509889Y451970D02*
X523130Y451970D01*
X509889Y451970D02*
X509655Y451735D01*
X135890Y577850D02*
X125990Y577850D01*
X125840Y578000D01*
D90*
X286410Y421640D02*
X286410Y410210D01*
X286410Y421640D02*
X286410Y431800D01*
X285140Y420370D02*
X271780Y420370D01*
X285140Y420370D02*
X286410Y421640D01*
D95*
X336010Y391310D02*
X349250Y391310D01*
X336010Y391310D02*
X334010Y393310D01*
X334010Y400050D02*
X330200Y403860D01*
X334010Y400050D02*
X334010Y393310D01*
D94*
X341614Y617220D02*
X346310Y617220D01*
X341614Y617220D02*
X339074Y614680D01*
D96*
X149690Y590219D02*
X149690Y587550D01*
X149690Y590219D02*
X148113Y591796D01*
X141416Y591796D01*
X138454Y588834D01*
D88*
X548640Y690730D02*
X554990Y690730D01*
X548640Y690730D02*
X546810Y692560D01*
X546810Y718730D01*
D94*
X282810Y386040D02*
X238020Y386040D01*
X237490Y385510D01*
D93*
X467360Y224180D02*
X475640Y215900D01*
X484340Y215900D01*
X485530Y236610D02*
X485530Y243840D01*
X485530Y236610D02*
X482044Y233124D01*
D95*
X449110Y215240D02*
X435610Y215240D01*
X422110Y215240D01*
X435760Y215390D02*
X435760Y227330D01*
X435760Y215390D02*
X435610Y215240D01*
D93*
X449110Y226670D02*
X455564Y233124D01*
X449110Y226670D02*
X449110Y215240D01*
X455564Y233124D02*
X467360Y233124D01*
X482044Y233124D01*
X467360Y233124D02*
X467360Y224180D01*
X502530Y243840D02*
X517280Y243840D01*
D95*
X502530Y243840D02*
X502530Y235830D01*
X492100Y225400D02*
X484340Y225400D01*
X492100Y225400D02*
X502530Y235830D01*
D93*
X503530Y225400D02*
X511340Y225400D01*
X503530Y225400D02*
X494030Y215900D01*
X494030Y208280D01*
X492150Y206400D02*
X484340Y206400D01*
X492150Y206400D02*
X494030Y208280D01*
X511340Y225400D02*
X531880Y225400D01*
X532130Y225650D01*
X484340Y192850D02*
X480720Y189230D01*
X484340Y192850D02*
X484340Y206400D01*
D89*
X253837Y166207D02*
X253675Y166370D01*
D91*
X253837Y166207D03*
X356870Y147320D03*
D95*
X398780Y142240D02*
X416560Y124460D01*
X439420Y124460D01*
X448310Y133350D01*
X448310Y168250D01*
X469290Y189230D02*
X480720Y189230D01*
X469290Y189230D02*
X448310Y168250D01*
X356870Y147320D02*
X356480Y147710D01*
X346710Y147710D01*
X356870Y147320D02*
X361950Y142240D01*
X398780Y142240D01*
D89*
X262283Y166207D02*
X253837Y166207D01*
X262283Y166207D02*
X271170Y157320D01*
D94*
X277970Y157320D01*
X285750Y165100D01*
X309570Y165100D01*
X310540Y164130D01*
D90*
X229260Y166370D02*
X229260Y177000D01*
X229260Y166370D02*
X229260Y157320D01*
D89*
X229423Y166207D02*
X253837Y166207D01*
X229423Y166207D02*
X229260Y166370D01*
D93*
X511590Y206150D02*
X532130Y206150D01*
X511590Y206150D02*
X511340Y206400D01*
D95*
X479630Y124460D02*
X469900Y114730D01*
X479630Y124460D02*
X482600Y124460D01*
X494870Y136730D02*
X500380Y136730D01*
X494870Y136730D02*
X482600Y124460D01*
D88*
X529264Y110666D02*
X534520Y105410D01*
X529264Y131807D02*
X527627Y133444D01*
X516313Y133444D01*
X514676Y131807D01*
X514676Y128746D01*
X511660Y125730D01*
X529264Y131807D02*
X529264Y110666D01*
X490880Y115730D02*
X490880Y122580D01*
X494030Y125730D02*
X511660Y125730D01*
X494030Y125730D02*
X490880Y122580D01*
X536020Y130799D02*
X536020Y112160D01*
X522795Y144024D02*
X487694Y144024D01*
X522795Y144024D02*
X536020Y130799D01*
X487694Y144024D02*
X479400Y135730D01*
X541020Y131546D02*
X541020Y112160D01*
X520166Y152400D02*
X497450Y152400D01*
X520166Y152400D02*
X541020Y131546D01*
X253710Y76026D02*
X253710Y69880D01*
X253710Y76026D02*
X254900Y77216D01*
X309664Y72390D02*
X309664Y57343D01*
X296790Y44469D02*
X296790Y43180D01*
X296790Y44469D02*
X309664Y57343D01*
X379070Y77470D02*
X379070Y86360D01*
X379070Y77470D02*
X373990Y72390D01*
X309664Y72390D01*
D95*
X370840Y94590D02*
X379070Y86360D01*
X370840Y94590D02*
X370840Y103300D01*
D90*
X379348Y86638D02*
X379070Y86360D01*
X401306Y102210D02*
X408940Y102210D01*
X385734Y86638D02*
X379348Y86638D01*
X385734Y86638D02*
X401306Y102210D01*
X408940Y118110D02*
X408940Y121920D01*
X408940Y118110D02*
X408940Y102210D01*
X442780Y118110D02*
X460400Y135730D01*
X442780Y118110D02*
X408940Y118110D01*
X311150Y127000D02*
X297180Y127000D01*
X311150Y127000D02*
X347980Y127000D01*
X356870Y135890D01*
X394970Y135890D01*
X408940Y121920D01*
D88*
X310540Y127610D02*
X310540Y138130D01*
X310540Y127610D02*
X311150Y127000D01*
D95*
X460400Y135730D02*
X460400Y145440D01*
X467360Y152400D01*
X480450Y152400D01*
D90*
X222096Y148248D02*
X186194Y184150D01*
X222096Y148248D02*
X250662Y148248D01*
D92*
X77470Y184150D03*
D90*
X186194Y184150D01*
D92*
X50800Y977900D03*
D90*
X176530Y977900D01*
X235750Y918680D02*
X274980Y918680D01*
X235750Y918680D02*
X176530Y977900D01*
D88*
X292100Y72390D02*
X309664Y72390D01*
X292100Y72390D02*
X287274Y77216D01*
X284480Y77216D01*
X254900Y77216D01*
X284050Y77646D02*
X284050Y87630D01*
X284050Y77646D02*
X284480Y77216D01*
D90*
X280670Y136320D02*
X262590Y136320D01*
X250662Y148248D01*
X287860Y136320D02*
X297180Y127000D01*
X287860Y136320D02*
X280670Y136320D01*
D88*
X548490Y138430D02*
X548490Y149860D01*
X548490Y118440D02*
X546020Y115970D01*
X546020Y112160D01*
X548490Y118440D02*
X548490Y127000D01*
X548490Y138430D01*
D95*
X567030Y86360D02*
X579550Y86360D01*
X567030Y86360D02*
X563880Y83210D01*
D90*
X546370Y83210D01*
X545710Y82550D01*
D88*
X546020Y82860D02*
X546020Y98660D01*
X546020Y82860D02*
X545710Y82550D01*
D97*
X563880Y43180D02*
X558800Y38100D01*
X563880Y43180D02*
X563880Y83210D01*
D90*
X518160Y49196D02*
X492256Y75100D01*
X479900Y75100D01*
X518160Y49196D02*
X518160Y29210D01*
X523240Y24130D01*
X544830Y24130D02*
X558800Y38100D01*
X544830Y24130D02*
X523240Y24130D01*
D88*
X519580Y93830D02*
X519580Y99060D01*
X519580Y93830D02*
X521970Y91440D01*
X528320Y91440D01*
X538480Y91440D01*
X541020Y93980D01*
X541020Y98660D01*
X528710Y91050D02*
X528710Y82550D01*
X528710Y91050D02*
X528320Y91440D01*
X521970Y109220D02*
X521970Y114150D01*
X532530Y98660D02*
X536020Y98660D01*
X532530Y98660D02*
X521970Y109220D01*
D90*
X533400Y50800D02*
X533400Y38100D01*
X533400Y50800D02*
X506580Y77620D01*
X506580Y99060D01*
X506580Y112430D02*
X509880Y115730D01*
X506580Y112430D02*
X506580Y99060D01*
X459900Y100490D02*
X459900Y75100D01*
X459900Y100490D02*
X463550Y104140D01*
X487680Y104140D01*
X492760Y99060D01*
X506580Y99060D01*
D95*
X509880Y115730D02*
X521300Y127150D01*
X521970Y127150D01*
D88*
X459900Y100490D02*
X454980Y105410D01*
X449580Y105410D01*
D91*
X449580Y105410D03*
X419404Y130506D03*
D88*
X345733Y228680D02*
X319630Y228680D01*
X345733Y228680D02*
X357984Y216429D01*
X357984Y200816D01*
X381935Y176865D01*
X381935Y165435D01*
X416864Y130506D01*
X419404Y130506D01*
X561490Y149860D02*
X574040Y149860D01*
D91*
X574040Y149860D03*
X182802Y121920D03*
D88*
X182802Y130888D01*
X175260Y138430D01*
D91*
X175260Y138430D03*
X200412Y479038D03*
D94*
X254654Y533280D02*
X260400Y533280D01*
X254654Y533280D02*
X200412Y479038D01*
D97*
X326390Y59870D02*
X346530Y59870D01*
X369570Y36830D01*
D91*
X246670Y33017D03*
X190500Y122198D03*
D88*
X190500Y132080D01*
X184150Y138430D01*
D91*
X184150Y138430D03*
X203596Y472231D03*
D94*
X209836Y478471D01*
X209836Y482790D01*
X255326Y528280D01*
X260400Y528280D01*
D88*
X249210Y37635D02*
X246670Y35095D01*
X246670Y33017D01*
X249210Y37635D02*
X249210Y41880D01*
D94*
X253710Y41880D02*
X253734Y41856D01*
X253734Y33020D01*
D91*
X253734Y33020D03*
X197564Y122198D03*
D88*
X197564Y133906D01*
X193040Y138430D01*
D91*
X193040Y138430D03*
X207120Y466090D03*
D94*
X255310Y523280D02*
X260400Y523280D01*
X213360Y472330D02*
X207120Y466090D01*
X213360Y481330D02*
X255310Y523280D01*
X213360Y481330D02*
X213360Y472330D01*
D91*
X260798Y33020D03*
X204628Y122198D03*
D88*
X204628Y134711D01*
X201419Y137919D01*
D91*
X201419Y137919D03*
X210644Y459624D03*
D94*
X255294Y518280D02*
X260400Y518280D01*
X218440Y467420D02*
X210644Y459624D01*
X218440Y481426D02*
X255294Y518280D01*
X218440Y481426D02*
X218440Y467420D01*
D88*
X260798Y35095D02*
X260798Y33020D01*
X260798Y35095D02*
X258210Y37683D01*
X258210Y41880D01*
D95*
X279790Y43180D02*
X296790Y60180D01*
X296790Y63500D01*
X279790Y43180D02*
X279790Y22860D01*
D88*
X279790Y63500D02*
X273410Y69880D01*
X262710Y69880D01*
X256970Y92710D02*
X251070Y92710D01*
X244710Y85960D02*
X244710Y69880D01*
X251070Y92320D02*
X251070Y92710D01*
X251070Y92320D02*
X244710Y85960D01*
X256970Y92710D02*
X262050Y87630D01*
X240210Y80220D02*
X234070Y86360D01*
X234070Y92710D01*
X240210Y80220D02*
X240210Y69880D01*
D90*
X264550Y115570D02*
X283390Y115570D01*
X237508Y102498D02*
X234070Y99060D01*
X234070Y92710D01*
X237508Y102498D02*
X257094Y102498D01*
X261042Y106446D01*
X261042Y112062D01*
X264550Y115570D01*
X283390Y115570D02*
X300990Y115570D01*
X308610Y107950D01*
X308610Y98640D01*
X309460Y97790D01*
X348640Y97790D02*
X360070Y86360D01*
X348640Y97790D02*
X333160Y97790D01*
D88*
X249210Y80090D02*
X249210Y69880D01*
X249210Y80090D02*
X250400Y81280D01*
X303403Y76496D02*
X332027Y76496D01*
X333160Y77629D01*
X333160Y97790D01*
X303403Y76496D02*
X289844Y90055D01*
D95*
X360070Y86360D02*
X364340Y90630D01*
X364340Y103300D01*
D88*
X289844Y91787D02*
X288207Y93424D01*
X289844Y91787D02*
X289844Y90055D01*
X278256Y90296D02*
X278256Y91787D01*
X279893Y93424D01*
X288207Y93424D01*
X278256Y90296D02*
X269240Y81280D01*
X250400Y81280D01*
D96*
X290170Y177000D02*
X290170Y188570D01*
X300990Y199390D02*
X304800Y199390D01*
X306860Y197330D01*
X306860Y193850D01*
X300990Y199390D02*
X290170Y188570D01*
D94*
X252730Y184150D02*
X248260Y179680D01*
X248260Y177000D01*
X252730Y184150D02*
X262890Y184150D01*
D20*
X262890Y184150D03*
X312420Y180539D03*
D96*
X310360Y182599D01*
X310360Y187150D01*
D90*
X596900Y38100D02*
X626110Y67310D01*
X271170Y177000D02*
X269714Y175544D01*
X260747Y175544D01*
D92*
X260747Y175544D03*
X554990Y165896D03*
D20*
X416560Y185420D03*
D93*
X421640Y185420D01*
X427840Y185420D01*
X429110Y184150D01*
X422110Y185890D02*
X422110Y196240D01*
X422110Y185890D02*
X421640Y185420D01*
D88*
X363630Y201804D02*
X363630Y223680D01*
X388620Y176814D02*
X388620Y166654D01*
X388620Y176814D02*
X363630Y201804D01*
D91*
X388620Y166654D03*
D90*
X626110Y95250D02*
X626110Y67310D01*
X626110Y95250D02*
X626110Y99060D01*
X625450Y98400D02*
X616110Y98400D01*
X625450Y98400D02*
X626110Y99060D01*
X606264Y165896D02*
X554990Y165896D01*
X626110Y146050D02*
X626110Y99060D01*
X626110Y146050D02*
X606264Y165896D01*
D96*
X342860Y182980D02*
X342666Y182786D01*
X342666Y176453D02*
X338679Y172466D01*
X342666Y176453D02*
X342666Y182786D01*
X303624Y186886D02*
X303360Y187150D01*
X303624Y186886D02*
X303624Y178000D01*
X309158Y172466D01*
X338679Y172466D01*
X313860Y193850D02*
X313860Y198290D01*
X318770Y203200D01*
X335280Y203200D01*
X337860Y200620D02*
X337860Y195480D01*
X337860Y200620D02*
X335280Y203200D01*
X310360Y199870D02*
X310360Y193850D01*
X310360Y199870D02*
X317500Y207010D01*
X340360Y207010D01*
X342860Y204510D01*
X342860Y195480D01*
X332860Y182980D02*
X329704Y182980D01*
X327263Y180539D01*
D20*
X327263Y180539D03*
X342860Y204510D03*
X358138Y633270D03*
D94*
X355200Y636208D01*
X355200Y642390D01*
D96*
X337916Y182924D02*
X337916Y177283D01*
X336147Y175514D01*
X307124Y186886D02*
X306860Y187150D01*
X307124Y186886D02*
X307124Y178811D01*
X310421Y175514D01*
X320040Y175514D01*
X336147Y175514D01*
X337916Y182924D02*
X337860Y182980D01*
X320040Y180539D02*
X320040Y175514D01*
D20*
X320040Y180539D03*
D96*
X347860Y195480D02*
X347860Y210120D01*
X347570Y210410D01*
D20*
X347570Y210410D03*
X350264Y633730D03*
D94*
X350264Y642326D01*
X350200Y642390D01*
D95*
X404470Y217320D02*
X404470Y212240D01*
X404470Y217320D02*
X402200Y219590D01*
X402200Y227330D01*
X402200Y237100D01*
X406400Y241300D01*
D91*
X406400Y241300D03*
X400050Y176530D03*
D95*
X400050Y171450D01*
X419100Y152400D01*
D91*
X419100Y139700D03*
X158750Y120650D03*
D95*
X158750Y137160D01*
X157480Y138430D01*
D91*
X157480Y138430D03*
D95*
X124600Y224790D02*
X124220Y225170D01*
D94*
X300820Y193850D02*
X303360Y193850D01*
X300820Y193850D02*
X298450Y191480D01*
X298450Y175260D01*
D20*
X298450Y175260D03*
X347980Y174004D03*
D94*
X347860Y174124D01*
X347860Y182980D01*
D95*
X419100Y152400D02*
X419100Y139700D01*
D91*
X397510Y546100D03*
D95*
X317500Y546100D01*
X298690Y564910D02*
X298690Y573660D01*
X308610Y554990D02*
X317500Y546100D01*
D91*
X308610Y554990D03*
D95*
X298690Y564910D01*
D91*
X281940Y553506D03*
D88*
X281900Y553466D01*
X281900Y544780D01*
D91*
X330200Y632460D03*
D95*
X330200Y642390D01*
X296950Y680640D02*
X296616Y680974D01*
X286843Y680974D01*
D20*
X286843Y680974D03*
X334866Y718352D03*
D95*
X335200Y718018D01*
X335200Y708890D01*
X363450Y680640D02*
X370760Y680640D01*
X373380Y683260D01*
X389890Y683260D01*
X371000Y670640D02*
X363450Y670640D01*
X371000Y670640D02*
X373548Y668092D01*
X389962Y668092D01*
X398780Y675640D02*
X400050Y674370D01*
X398780Y675640D02*
X391310Y675640D01*
D20*
X400050Y674370D03*
D91*
X208280Y754380D03*
D95*
X322355Y758610D02*
X331978Y748987D01*
X331978Y721240D02*
X334866Y718352D01*
X331978Y721240D02*
X331978Y748987D01*
X322355Y758610D02*
X215900Y758610D01*
X212510Y758610D01*
X208280Y754380D01*
X285140Y871690D02*
X285140Y898690D01*
X268580Y875460D02*
X272350Y871690D01*
X285140Y871690D01*
X268580Y858980D02*
X265580Y855980D01*
X268580Y858980D02*
X268580Y875460D01*
X215900Y781050D02*
X215900Y758610D01*
X215900Y781050D02*
X233680Y798830D01*
X233680Y881380D01*
X238760Y886460D01*
X257580Y886460D01*
X268580Y875460D01*
X86360Y692150D02*
X86360Y678330D01*
X86360Y692150D02*
X86360Y707240D01*
D91*
X86360Y692150D03*
D95*
X389890Y683260D02*
X391310Y681840D01*
X391310Y675640D01*
X391310Y669440D02*
X389962Y668092D01*
X391310Y669440D02*
X391310Y675640D01*
D91*
X109578Y224790D03*
D95*
X124600Y224790D01*
D94*
X281940Y553506D02*
X278280Y557166D01*
X278280Y563880D01*
D96*
X160190Y587550D02*
X160190Y591035D01*
X161516Y592361D01*
X161516Y594360D01*
X164056Y596900D01*
X168910Y596900D01*
X172180Y593630D01*
X172180Y586200D01*
D20*
X143510Y586740D03*
D96*
X144320Y580850D02*
X149690Y580850D01*
X144320Y580850D02*
X143510Y581660D01*
X143510Y586740D01*
X156690Y600080D02*
X152250Y604520D01*
X156690Y600080D02*
X156690Y594360D01*
X156690Y587550D01*
D20*
X156690Y594360D03*
D94*
X363450Y665640D02*
X369005Y665640D01*
X370601Y664044D01*
D20*
X398018Y682981D03*
D94*
X405114Y677738D02*
X405114Y669732D01*
X405114Y677738D02*
X399871Y682981D01*
X405114Y669732D02*
X399426Y664044D01*
X370601Y664044D01*
X398018Y682981D02*
X399871Y682981D01*
D96*
X153190Y580850D02*
X153190Y574040D01*
X153190Y568630D01*
X149710Y565150D01*
D20*
X148590Y574040D03*
D96*
X153190Y574040D01*
X168180Y578390D02*
X168180Y582200D01*
X168180Y578390D02*
X166370Y576580D01*
D20*
X166370Y576580D03*
D94*
X159740Y548640D02*
X163710Y544670D01*
X159740Y548640D02*
X154940Y548640D01*
D91*
X154940Y548640D03*
D96*
X136979Y591670D02*
X125840Y591670D01*
X136979Y591670D02*
X140153Y594844D01*
X153190Y591030D02*
X153190Y587550D01*
X149376Y594844D02*
X140153Y594844D01*
X149376Y594844D02*
X153190Y591030D01*
X138580Y565000D02*
X125840Y565000D01*
X145216Y558364D02*
X154157Y558364D01*
X156690Y560897D01*
X145216Y558364D02*
X138580Y565000D01*
X156690Y560897D02*
X156690Y580850D01*
D94*
X107950Y564890D02*
X107840Y565000D01*
X107950Y564890D02*
X107950Y558800D01*
D20*
X107950Y558800D03*
X107950Y585470D03*
D94*
X107840Y585580D01*
X107840Y591670D01*
D91*
X146050Y548640D03*
X170966Y476608D03*
D94*
X193211Y454330D02*
X215377Y454330D01*
X221964Y460917D01*
X221964Y479774D01*
X193211Y454330D02*
X170966Y476575D01*
X170966Y476608D01*
X255470Y513280D02*
X260400Y513280D01*
X255470Y513280D02*
X221964Y479774D01*
D96*
X111794Y554956D02*
X107950Y558800D01*
X111794Y554956D02*
X139734Y554956D01*
X146050Y548640D01*
D88*
X95400Y586740D02*
X95400Y598170D01*
X107840Y598170D01*
D91*
X71120Y598170D03*
D88*
X82400Y598170D01*
D91*
X71120Y560070D03*
D88*
X82400Y560070D01*
X95400Y571500D02*
X107840Y571500D01*
X95400Y571500D02*
X95400Y560070D01*
D90*
X84480Y539750D02*
X76200Y539750D01*
X71120Y539750D01*
X24501Y558800D02*
X8382Y542681D01*
X8382Y196459D01*
X27041Y177800D01*
X38100Y177800D01*
D88*
X71343Y539750D02*
X76200Y539750D01*
X71343Y539750D02*
X64882Y546212D01*
D91*
X64882Y546212D03*
X78740Y471170D03*
D88*
X79480Y470430D01*
X95370Y470430D01*
D20*
X80010Y269240D03*
D88*
X80540Y269770D02*
X80540Y284760D01*
X80540Y269770D02*
X80010Y269240D01*
D90*
X38100Y558800D02*
X24501Y558800D01*
X38100Y558800D02*
X52070Y558800D01*
X71120Y539750D01*
D96*
X468460Y434800D02*
X468460Y430360D01*
X467360Y429260D01*
X461739Y425704D02*
X457741Y425704D01*
X454914Y428531D01*
X454914Y432529D01*
X465295Y429260D02*
X467360Y429260D01*
X465295Y429260D02*
X461739Y425704D01*
X454914Y432529D02*
X456470Y434085D01*
X456470Y436150D01*
X475460Y441500D02*
X475460Y448640D01*
X478865Y452045D01*
D20*
X458376Y447040D03*
X487680Y452120D03*
D96*
X478940Y452120D01*
X478865Y452045D01*
D20*
X505460Y481330D03*
D94*
X504790Y482000D01*
X496690Y482000D01*
D96*
X460470Y444946D02*
X458376Y447040D01*
X460470Y444946D02*
X460470Y440150D01*
X475694Y416193D02*
X477033Y414854D01*
X488467Y414854D01*
X489806Y416193D01*
X475694Y434566D02*
X475460Y434800D01*
X475694Y434566D02*
X475694Y416193D01*
X489806Y416193D02*
X489806Y425036D01*
X502920Y438150D01*
X522980Y438150D01*
X523130Y438300D01*
D20*
X472440Y459740D03*
D96*
X472224Y441764D02*
X471960Y441500D01*
X472224Y441764D02*
X472224Y456637D01*
X472440Y456853D01*
X472440Y459740D01*
D20*
X513080Y471170D03*
D96*
X519280Y464970D01*
X523130Y464970D01*
D88*
X553570Y443230D02*
X553570Y431800D01*
D94*
X541130Y431800D01*
X566570Y431800D02*
X580390Y431800D01*
D20*
X580390Y431800D03*
D94*
X580390Y469900D02*
X566570Y469900D01*
D20*
X580390Y469900D03*
D88*
X553570Y469900D02*
X553570Y458470D01*
D94*
X541130Y458470D01*
X291900Y562810D02*
X281940Y572770D01*
X266700Y572770D01*
X238760Y572770D01*
X222250Y556260D01*
D91*
X222250Y556260D03*
X215900Y308610D03*
D94*
X156210Y308610D02*
X137160Y289560D01*
X114840Y289560D01*
X156210Y308610D02*
X215900Y308610D01*
X266700Y572770D02*
X266700Y599440D01*
X280670Y613410D01*
X334010Y613410D01*
D20*
X408940Y533400D03*
D94*
X298892Y544338D02*
X298450Y544780D01*
X405058Y537282D02*
X408940Y533400D01*
X405058Y537282D02*
X315610Y537282D01*
X308554Y544338D01*
X298892Y544338D01*
D20*
X499915Y353044D03*
D94*
X519904Y353044D01*
X520160Y353300D01*
X553340Y739200D02*
X553310Y739230D01*
X553340Y739200D02*
X577850Y739200D01*
D20*
X535940Y697230D03*
D94*
X443198Y538922D02*
X440232Y535956D01*
X424196Y535956D02*
X421640Y533400D01*
X408940Y533400D01*
X443198Y604488D02*
X535940Y697230D01*
X440232Y535956D02*
X424196Y535956D01*
X443198Y538922D02*
X443198Y604488D01*
D20*
X553110Y731520D03*
D94*
X553110Y738970D01*
X553340Y739200D01*
X334010Y616778D02*
X334010Y613410D01*
X334010Y616778D02*
X340200Y622968D01*
X340200Y642390D01*
X352330Y595090D02*
X352330Y589970D01*
X336782Y604288D02*
X334010Y607060D01*
X343132Y604288D02*
X352330Y595090D01*
X343132Y604288D02*
X336782Y604288D01*
X334010Y607060D02*
X334010Y613410D01*
X291900Y562810D02*
X291900Y544780D01*
X298450Y544780D01*
X346310Y622220D02*
X346310Y626030D01*
X345200Y627140D01*
X345200Y642390D01*
X250262Y429332D02*
X172785Y429332D01*
X293290Y472360D02*
X302670Y472360D01*
X293290Y472360D02*
X250262Y429332D01*
X302670Y472360D02*
X317580Y472360D01*
X321310Y468630D01*
D91*
X321310Y468630D03*
X363220Y251460D03*
D94*
X359464Y247704D01*
X355335Y247704D01*
X353060Y245430D01*
X353060Y240030D01*
X354410Y238680D01*
X363630Y238680D01*
X356330Y572564D02*
X356330Y580970D01*
X356330Y572564D02*
X355266Y571500D01*
D20*
X355266Y571500D03*
D94*
X172785Y429332D02*
X153133Y448984D01*
X111100Y445110D02*
X111100Y437180D01*
X111100Y445110D02*
X113030Y447040D01*
X145371Y447040D02*
X147315Y448984D01*
X153133Y448984D01*
X145371Y447040D02*
X113030Y447040D01*
X290990Y477360D02*
X302670Y477360D01*
X246486Y432856D02*
X174245Y432856D01*
X246486Y432856D02*
X290990Y477360D01*
X107950Y450850D02*
X101600Y444500D01*
X101600Y437180D01*
X302670Y477360D02*
X321470Y477360D01*
X330200Y468630D01*
D91*
X330200Y468630D03*
X370840Y251460D03*
D94*
X370840Y245110D02*
X369410Y243680D01*
X370840Y245110D02*
X370840Y251460D01*
X369410Y243680D02*
X363630Y243680D01*
X352330Y575850D02*
X352330Y580970D01*
X352330Y575850D02*
X347980Y571500D01*
D20*
X347980Y571500D03*
D94*
X174245Y432856D02*
X154593Y452508D01*
X145855Y452508D01*
X144197Y450850D01*
X107950Y450850D01*
D93*
X579120Y495300D02*
X584200Y495300D01*
D88*
X603250Y703503D02*
X603250Y739200D01*
X603250Y703503D02*
X597456Y697709D01*
X584200Y666750D02*
X584200Y647700D01*
X584200Y666750D02*
X586740Y669290D01*
X596750Y669290D01*
X597456Y669996D01*
X597456Y697709D01*
D93*
X565150Y514350D02*
X584200Y495300D01*
X565150Y514350D02*
X558800Y514350D01*
X523240Y549910D01*
X565150Y628650D02*
X584200Y647700D01*
X565150Y628650D02*
X557530Y628650D01*
X523240Y594360D01*
X523240Y549910D01*
D94*
X315200Y708890D02*
X315200Y741352D01*
X313690Y742862D01*
D20*
X313690Y742862D03*
X603250Y695960D03*
D94*
X603250Y683200D01*
X356330Y596360D02*
X356330Y589970D01*
D20*
X367394Y622300D03*
D94*
X359890Y622300D02*
X359810Y622220D01*
X367394Y618209D02*
X368108Y617495D01*
X367394Y618209D02*
X367394Y622300D01*
X368108Y608138D02*
X356330Y596360D01*
X368108Y608138D02*
X368108Y617495D01*
X367394Y622300D02*
X359890Y622300D01*
D20*
X286836Y560578D03*
D94*
X286836Y544844D02*
X286900Y544780D01*
X286836Y556097D02*
X286836Y560578D01*
X286836Y556097D02*
X287234Y555699D01*
X287234Y551313D01*
X286836Y550915D01*
X286836Y544844D01*
X590550Y739200D02*
X590550Y745490D01*
X585470Y750570D01*
X551180Y750570D01*
X546810Y746200D02*
X546810Y739230D01*
X546810Y746200D02*
X551180Y750570D01*
X404302Y622300D02*
X367394Y622300D01*
X404302Y622300D02*
X422066Y604536D01*
X435626Y604536D01*
D20*
X535940Y704850D03*
X546506Y731926D03*
D94*
X546506Y738926D01*
X546810Y739230D01*
X535940Y704850D02*
X435626Y604536D01*
D95*
X404470Y192230D02*
X401470Y189230D01*
X404470Y192230D02*
X404470Y199240D01*
X401470Y189230D02*
X401470Y184000D01*
X408940Y176530D01*
X448310Y176530D01*
X449580Y177800D01*
X449580Y195770D01*
X449110Y196240D01*
D94*
X319624Y157085D02*
X318146Y155606D01*
X319624Y157085D02*
X319624Y163714D01*
X320040Y164130D01*
X290851Y157320D02*
X290170Y157320D01*
X290851Y157320D02*
X292565Y155606D01*
X318146Y155606D01*
D95*
X44150Y54250D02*
X44150Y45720D01*
X44150Y54250D02*
X29820Y68580D01*
D89*
X44150Y45720D02*
X44150Y27940D01*
X99090Y27940D01*
X110490Y39340D01*
D88*
X109797Y92616D02*
X111434Y94253D01*
X111434Y103567D01*
X98086Y105504D02*
X97150Y106440D01*
X93340Y106440D01*
X109497Y105504D02*
X111434Y103567D01*
X109497Y105504D02*
X98086Y105504D01*
X100485Y92616D02*
X95015Y87146D01*
X89686Y87146D01*
X85090Y82550D01*
X100485Y92616D02*
X109797Y92616D01*
D95*
X29820Y68580D02*
X26820Y71580D01*
X26820Y85090D01*
X35560Y85090D01*
D91*
X35560Y85090D03*
X85090Y82550D03*
D88*
X330120Y164710D02*
X346710Y164710D01*
X330120Y164710D02*
X329540Y164130D01*
D94*
X329124Y163714D02*
X329124Y157085D01*
X329124Y163714D02*
X329540Y164130D01*
X329124Y157085D02*
X324122Y152082D01*
X297002Y152082D02*
X295216Y150296D01*
X260364Y150296D01*
X253340Y157320D01*
X248260Y157320D01*
X297002Y152082D02*
X324122Y152082D01*
D91*
X278130Y725328D03*
D88*
X294083Y700640D02*
X296950Y700640D01*
D91*
X130326Y306070D03*
D94*
X129056Y304800D02*
X115080Y304800D01*
X114840Y304560D01*
X129056Y304800D02*
X130326Y306070D01*
D88*
X294083Y700640D02*
X289560Y705163D01*
X289560Y715010D01*
X279242Y725328D01*
X278130Y725328D01*
X125850Y769360D02*
X125850Y782440D01*
X128270Y784860D01*
X145144Y779597D02*
X145144Y774336D01*
X139881Y784860D02*
X128270Y784860D01*
X139881Y784860D02*
X145144Y779597D01*
X194152Y725328D02*
X278130Y725328D01*
X165100Y754380D02*
X145144Y774336D01*
X165100Y754380D02*
X194152Y725328D01*
D20*
X165100Y754380D03*
D91*
X278130Y709930D03*
D88*
X292589Y690640D02*
X296950Y690640D01*
X292589Y690640D02*
X278130Y705099D01*
D91*
X142240Y317500D03*
D94*
X130810Y317500D01*
X122870Y309560D02*
X114840Y309560D01*
X122870Y309560D02*
X130810Y317500D01*
D88*
X278130Y705099D02*
X278130Y709930D01*
X173990Y709930D01*
X135850Y748070D02*
X135850Y769360D01*
X135890Y748030D02*
X173990Y709930D01*
X135890Y748030D02*
X135850Y748070D01*
D20*
X135890Y748030D03*
D88*
X135850Y795060D02*
X135850Y800360D01*
X305200Y715880D02*
X305200Y708890D01*
X199390Y731520D02*
X135850Y795060D01*
X199390Y731520D02*
X289560Y731520D01*
X305200Y715880D01*
X130850Y800360D02*
X130850Y825500D01*
X130850Y829270D01*
X71810Y888310D02*
X53620Y888310D01*
X71810Y888310D02*
X130850Y829270D01*
D91*
X130850Y825500D03*
D88*
X140850Y812800D02*
X140850Y800360D01*
X140850Y812800D02*
X140850Y840860D01*
X71400Y910310D02*
X53620Y910310D01*
X78105Y903605D02*
X140850Y840860D01*
X78105Y903605D02*
X71400Y910310D01*
D91*
X140850Y812800D03*
D88*
X66300Y877310D02*
X57620Y877310D01*
X66300Y877310D02*
X115316Y828294D01*
X115316Y763524D02*
X119380Y759460D01*
X127000Y759460D01*
X130850Y763310D02*
X130850Y769360D01*
X115316Y763524D02*
X115316Y828294D01*
X130850Y763310D02*
X127000Y759460D01*
D91*
X262131Y642109D03*
X210820Y138430D03*
D88*
X110490Y158900D02*
X110490Y166370D01*
X113792Y169672D01*
X205740Y143510D02*
X210820Y138430D01*
X205740Y143510D02*
X201930Y143510D01*
X175768Y169672D02*
X113792Y169672D01*
X175768Y169672D02*
X201930Y143510D01*
X287260Y660640D02*
X296950Y660640D01*
X281940Y655320D02*
X269240Y655320D01*
X262131Y648211D01*
X262131Y642109D01*
X281940Y655320D02*
X287260Y660640D01*
D20*
X407868Y662178D03*
D94*
X521660Y774700D02*
X533400Y774700D01*
X503272Y786114D02*
X496586Y779428D01*
X503272Y786114D02*
X512728Y786114D01*
X519414Y779428D01*
X519414Y776946D01*
X521660Y774700D01*
X496586Y750896D02*
X407868Y662178D01*
X496586Y750896D02*
X496586Y779428D01*
D91*
X269240Y641350D03*
X220980Y137160D03*
D88*
X210034Y148106D02*
X203435Y148106D01*
X177805Y173736D01*
X102616Y173736D02*
X97790Y168910D01*
X97790Y158900D01*
X102616Y173736D02*
X177805Y173736D01*
X288007Y655640D02*
X296950Y655640D01*
X288007Y655640D02*
X283623Y651256D01*
X272796Y651256D02*
X269240Y647700D01*
X269240Y641350D01*
X272796Y651256D02*
X283623Y651256D01*
X210034Y148106D02*
X220980Y137160D01*
D20*
X407868Y655574D03*
D94*
X409408Y657114D01*
X409966Y657114D01*
X508000Y755148D01*
X508000Y774700D01*
X73340Y139380D02*
X73340Y131440D01*
X79860Y145900D02*
X86360Y145900D01*
X79860Y145900D02*
X73340Y139380D01*
X104290Y139700D02*
X110490Y145900D01*
X78340Y138030D02*
X78340Y131440D01*
X80010Y139700D02*
X104290Y139700D01*
X80010Y139700D02*
X78340Y138030D01*
X53340Y124593D02*
X53340Y121440D01*
X53340Y124593D02*
X49316Y128617D01*
X49316Y133003D01*
X68237Y151924D02*
X95576Y151924D01*
X97790Y149710D02*
X97790Y145900D01*
X97790Y149710D02*
X95576Y151924D01*
X68237Y151924D02*
X49316Y133003D01*
D88*
X50650Y94130D02*
X50650Y76200D01*
X50650Y94130D02*
X36830Y107950D01*
X26820Y107950D01*
X57150Y74930D02*
X57150Y45720D01*
X57150Y74930D02*
X55880Y76200D01*
X50650Y76200D01*
X43180Y88900D02*
X35560Y96520D01*
X26820Y96520D01*
X50650Y64770D02*
X50650Y45720D01*
X50650Y64770D02*
X45720Y64770D01*
X43180Y67310D01*
X43180Y88900D01*
D94*
X63650Y76200D02*
X70880Y76200D01*
X73340Y78660D01*
X73340Y91440D01*
X133350Y135601D02*
X133350Y140820D01*
X133350Y135601D02*
X119670Y121920D01*
X97101Y116440D02*
X93340Y116440D01*
X97101Y116440D02*
X102581Y121920D01*
X119670Y121920D01*
X75880Y64770D02*
X63650Y64770D01*
X75880Y64770D02*
X78340Y67230D01*
X78340Y91440D01*
D88*
X133350Y153820D02*
X133350Y163830D01*
D91*
X133350Y163830D03*
X124460Y198120D03*
D88*
X124460Y208930D01*
X124220Y209170D01*
X121920Y163830D02*
X121920Y153820D01*
D91*
X121920Y163830D03*
X93980Y198120D03*
D88*
X91224Y200876D01*
X86063Y200876D01*
X83820Y203119D01*
X86740Y225170D02*
X94220Y225170D01*
X83820Y222250D02*
X83820Y203119D01*
X83820Y222250D02*
X86740Y225170D01*
X363450Y642850D02*
X363450Y650640D01*
X363450Y642850D02*
X363220Y642620D01*
D91*
X363220Y642620D03*
X244599Y602491D03*
D88*
X220923Y602491D01*
X219638Y601206D01*
D91*
X219638Y601206D03*
X215900Y292100D03*
D88*
X214630Y293370D01*
X115720Y255231D02*
X115720Y241300D01*
X115720Y255231D02*
X123190Y262701D01*
X123190Y265241D01*
X151319Y293370D01*
X214630Y293370D01*
X63340Y131440D02*
X55240Y131440D01*
X54610Y130810D01*
D91*
X54610Y130810D03*
X92710Y92710D03*
D88*
X93340Y93340D01*
X93340Y101440D01*
X91440Y91440D02*
X83340Y91440D01*
X91440Y91440D02*
X92710Y92710D01*
X101610Y101440D02*
X104140Y98910D01*
X101610Y101440D02*
X93340Y101440D01*
X94220Y209170D02*
X101926Y216876D01*
X102377Y216876D01*
X104014Y218513D01*
X104014Y231827D01*
X102720Y233121D01*
X102720Y241300D01*
D94*
X121920Y140820D02*
X110490Y129390D01*
X110490Y128270D01*
D91*
X110490Y128270D03*
X56214Y88900D03*
D94*
X60024Y85090D01*
X66580Y85090D02*
X68340Y86851D01*
X66580Y85090D02*
X60024Y85090D01*
X68340Y86851D02*
X68340Y91440D01*
X353060Y608330D02*
X356950Y612220D01*
D20*
X353060Y608330D03*
D91*
X254000Y596900D03*
D94*
X225322Y596900D01*
X222782Y594360D01*
D91*
X222782Y594360D03*
X215900Y300990D03*
D94*
X105421Y264160D02*
X105410Y264160D01*
X105421Y264160D02*
X107365Y262216D01*
X105410Y264160D02*
X105290Y264280D01*
X105290Y280010D01*
X356950Y612220D02*
X359810Y612220D01*
D20*
X377190Y601980D03*
D94*
X387114Y592056D01*
X399542Y592056D01*
D20*
X399542Y592056D03*
X504190Y347980D03*
D94*
X519840Y347980D01*
X520160Y348300D01*
X117934Y263695D02*
X116456Y262216D01*
X117934Y263695D02*
X117934Y265350D01*
X153574Y300990D01*
X215900Y300990D01*
X116456Y262216D02*
X107365Y262216D01*
X373380Y651510D02*
X369250Y655640D01*
X363450Y655640D01*
X373380Y637540D02*
X363220Y627380D01*
X356870Y627380D01*
X351790Y622300D01*
X373380Y637540D02*
X373380Y651510D01*
X351790Y615381D02*
X348630Y612220D01*
X351790Y615381D02*
X351790Y622300D01*
X348630Y612220D02*
X346310Y612220D01*
D88*
X313690Y606910D02*
X313690Y577850D01*
X317880Y573660D02*
X328690Y573660D01*
X317880Y573660D02*
X313690Y577850D01*
X328690Y596990D02*
X325120Y600560D01*
X325120Y606910D01*
X328690Y596990D02*
X328690Y589660D01*
X302260Y600560D02*
X302260Y606910D01*
X302260Y600560D02*
X298690Y596990D01*
X298690Y589660D01*
X325120Y619910D02*
X323930Y621100D01*
X325200Y622370D01*
X325200Y635329D02*
X325200Y642390D01*
X325200Y635329D02*
X324636Y634765D01*
X324636Y630155D01*
X325200Y629591D01*
X325200Y622370D01*
X315200Y636510D02*
X315200Y642390D01*
X306086Y631206D02*
X302260Y627380D01*
X309896Y631206D02*
X315200Y636510D01*
X309896Y631206D02*
X306086Y631206D01*
X302260Y627380D02*
X302260Y619910D01*
X320200Y635763D02*
X320200Y642390D01*
X313690Y629253D02*
X313690Y619910D01*
X313690Y629253D02*
X320200Y635763D01*
D91*
X278130Y716994D03*
X135890Y311150D03*
D94*
X115000Y299720D02*
X114840Y299560D01*
D88*
X285496Y703480D02*
X285496Y710787D01*
X279289Y716994D01*
X278130Y716994D01*
X293336Y695640D02*
X296950Y695640D01*
X293336Y695640D02*
X285496Y703480D01*
X278130Y716994D02*
X185976Y716994D01*
X143510Y759460D01*
D91*
X143510Y759460D03*
D95*
X88900Y797560D02*
X33020Y853440D01*
X42040Y932310D02*
X53620Y932310D01*
X33020Y923290D02*
X33020Y853440D01*
X33020Y923290D02*
X42040Y932310D01*
D94*
X135890Y311150D02*
X135890Y302260D01*
X133350Y299720D02*
X115000Y299720D01*
X133350Y299720D02*
X135890Y302260D01*
D88*
X289720Y685640D02*
X296950Y685640D01*
X289720Y685640D02*
X284480Y690880D01*
D91*
X284480Y690880D03*
X205740Y153670D03*
D88*
X181610Y177800D01*
X86360Y166370D02*
X86360Y158900D01*
X97790Y177800D02*
X181610Y177800D01*
X97790Y177800D02*
X86360Y166370D01*
X276261Y690880D02*
X284480Y690880D01*
X222479Y692150D02*
X143510Y692150D01*
X222479Y692150D02*
X228143Y697814D01*
X269327Y697814D02*
X276261Y690880D01*
X269327Y697814D02*
X228143Y697814D01*
X50800Y735920D02*
X30050Y735920D01*
X50800Y735920D02*
X71550Y735920D01*
X50800Y784860D02*
X38100Y797560D01*
X50800Y784860D02*
X50800Y735920D01*
X86360Y735920D02*
X99740Y735920D01*
X86360Y735920D02*
X71550Y735920D01*
X99740Y735920D02*
X143510Y692150D01*
X86360Y720240D02*
X86360Y735920D01*
X71550Y649650D02*
X30050Y649650D01*
X71550Y649650D02*
X86360Y649650D01*
X120060Y649650D01*
X149860Y679450D01*
D20*
X149860Y679450D03*
X368300Y749300D03*
D88*
X368300Y733908D01*
X355200Y720808D02*
X355200Y708890D01*
X355200Y720808D02*
X368300Y733908D01*
X86360Y665330D02*
X86360Y649650D01*
D94*
X155620Y936310D02*
X171130Y936310D01*
X176530Y930910D02*
X176530Y917090D01*
X176530Y930910D02*
X171130Y936310D01*
D91*
X252730Y747712D03*
D94*
X254000Y748982D02*
X315113Y748982D01*
X254000Y748982D02*
X252730Y747712D01*
D91*
X212344Y786125D03*
D94*
X227330Y801111D02*
X227330Y891540D01*
X227330Y801111D02*
X212344Y786125D01*
X227330Y891540D02*
X208280Y910590D01*
X189380Y910590D01*
X182880Y917090D01*
X176530Y917090D01*
X315113Y748982D02*
X320200Y743895D01*
X320200Y708890D01*
D88*
X257180Y670640D02*
X241300Y686520D01*
X257180Y670640D02*
X265430Y670640D01*
X296950Y670640D01*
X265430Y670640D02*
X265430Y672950D01*
X276860Y665640D02*
X296950Y665640D01*
X276860Y665640D02*
X257420Y665640D01*
X241300Y649520D01*
D95*
X276860Y664060D02*
X276860Y665640D01*
D93*
X111760Y346560D02*
X101900Y346560D01*
X100170Y344830D01*
X126270Y346560D02*
X128270Y344560D01*
X126270Y346560D02*
X111760Y346560D01*
X100170Y344830D02*
X48870Y344830D01*
X38100Y355600D01*
D91*
X83820Y435586D03*
D93*
X85414Y437180D01*
X92100Y437180D01*
D94*
X200660Y622300D02*
X210820Y632460D01*
X200660Y511810D02*
X182880Y494030D01*
X130600Y494030D01*
X200660Y511810D02*
X200660Y622300D01*
X129250Y492680D02*
X120120Y492680D01*
X129250Y492680D02*
X130600Y494030D01*
D20*
X276860Y641350D03*
D94*
X276860Y646430D01*
X277892Y647462D01*
X288373Y650640D02*
X296950Y650640D01*
X288373Y650640D02*
X285195Y647462D01*
X277892Y647462D01*
X276860Y641350D02*
X267970Y632460D01*
X210820Y632460D01*
D20*
X407868Y641604D03*
X429228Y613876D03*
D94*
X427688Y615416D01*
X409408Y640064D02*
X407868Y641604D01*
X409408Y640064D02*
X409966Y640064D01*
X427688Y622342D01*
X427688Y615416D01*
D20*
X482600Y379730D03*
D94*
X500380Y379730D02*
X518160Y397510D01*
X525780Y397510D01*
X529710Y393580D01*
X529710Y377850D01*
X500380Y379730D02*
X482600Y379730D01*
X305200Y642390D02*
X285520Y642390D01*
X214630Y628650D02*
X204470Y618490D01*
X184340Y490506D02*
X133892Y490506D01*
X184340Y490506D02*
X204470Y510636D01*
X204470Y618490D01*
X271780Y628650D02*
X284480Y641350D01*
X271780Y628650D02*
X214630Y628650D01*
X131066Y487680D02*
X120120Y487680D01*
X131066Y487680D02*
X133892Y490506D01*
D20*
X284480Y641350D03*
X407868Y635000D03*
D94*
X424164Y618704D01*
X424164Y609600D01*
D20*
X424164Y609600D03*
X486410Y368236D03*
D94*
X520096Y368236D01*
X520160Y368300D01*
X284480Y641350D02*
X285520Y642390D01*
D95*
X252580Y855980D02*
X249580Y858980D01*
X249580Y875460D01*
D91*
X438364Y530662D03*
D94*
X422468Y528336D02*
X406842Y528336D01*
X401898Y533280D02*
X298400Y533280D01*
X401898Y533280D02*
X406842Y528336D01*
X422468Y528336D02*
X424794Y530662D01*
X438364Y530662D01*
D91*
X374650Y736600D03*
D94*
X374634Y750128D02*
X370398Y754364D01*
X374634Y736616D02*
X374650Y736600D01*
X374634Y736616D02*
X374634Y750128D01*
X337405Y754364D02*
X329111Y762658D01*
X245722Y762658D02*
X242586Y765794D01*
X245722Y762658D02*
X329111Y762658D01*
X242586Y765794D02*
X242586Y779428D01*
X252730Y789572D01*
X252730Y855830D02*
X252580Y855980D01*
X337405Y754364D02*
X370398Y754364D01*
X252730Y789572D02*
X252730Y855830D01*
D95*
X304140Y857520D02*
X308220Y853440D01*
X304140Y857520D02*
X304140Y871690D01*
X260780Y899160D02*
X259080Y897460D01*
X260780Y899160D02*
X270510Y899160D01*
D91*
X270510Y899160D03*
X312420Y872490D03*
D95*
X311620Y871690D01*
X304140Y871690D01*
D91*
X304370Y909320D03*
D95*
X304370Y898920D01*
X304140Y898690D01*
D88*
X355600Y863600D02*
X355600Y774700D01*
X355600Y863600D02*
X330200Y889000D01*
D91*
X330200Y889000D03*
D95*
X294640Y898690D02*
X294640Y918020D01*
X293980Y918680D01*
D89*
X284480Y945680D02*
X274980Y945680D01*
X586994Y434594D02*
X586994Y416365D01*
X577030Y406400D01*
X555600Y406400D01*
D88*
X613914Y395986D02*
X620014Y402086D01*
X620014Y421386D01*
X609600Y431800D01*
X565156Y373100D02*
X554460Y373100D01*
X588042Y395986D02*
X613914Y395986D01*
X588042Y395986D02*
X565156Y373100D01*
D94*
X310200Y637860D02*
X310200Y642390D01*
X310200Y637860D02*
X307340Y635000D01*
X289464Y635000D01*
X279590Y625126D01*
X227616Y625126D01*
X211518Y609028D02*
X211518Y507717D01*
X211518Y609028D02*
X227616Y625126D01*
X186401Y482600D02*
X140970Y482600D01*
X136050Y477680D01*
X120120Y477680D01*
X186401Y482600D02*
X211518Y507717D01*
D88*
X90290Y280010D02*
X90290Y254120D01*
X39370Y203200D01*
X38100Y203200D01*
X75130Y289760D02*
X80540Y289760D01*
X75130Y289760D02*
X71120Y285750D01*
X71120Y246380D01*
X53340Y228600D01*
X38100Y228600D01*
X76360Y477680D02*
X85620Y477680D01*
X55880Y457200D02*
X38100Y457200D01*
X55880Y457200D02*
X76360Y477680D01*
X85540Y482600D02*
X85620Y482680D01*
X85540Y482600D02*
X38100Y482600D01*
X66040Y487680D02*
X85620Y487680D01*
X45720Y508000D02*
X38100Y508000D01*
X45720Y508000D02*
X66040Y487680D01*
X78820Y492680D02*
X85620Y492680D01*
X78820Y492680D02*
X66040Y505460D01*
X38100Y533400D01*
D94*
X92560Y515620D02*
X95370Y512810D01*
X95370Y504930D01*
X92560Y515620D02*
X83820Y515620D01*
D91*
X83820Y515620D03*
X170966Y468630D03*
D94*
X190016Y449580D01*
X254094Y506780D02*
X266900Y506780D01*
X225488Y478174D02*
X225488Y459457D01*
X225488Y478174D02*
X254094Y506780D01*
X225488Y459457D02*
X215611Y449580D01*
X190016Y449580D01*
D20*
X105410Y335280D03*
D94*
X105410Y324630D01*
X105290Y324510D01*
X554460Y358100D02*
X581700Y358100D01*
X609600Y330200D01*
X602100Y363100D02*
X554460Y363100D01*
X602100Y363100D02*
X609600Y355600D01*
D20*
X357161Y738161D03*
D94*
X350200Y724983D02*
X350200Y708890D01*
X357161Y731944D02*
X357161Y738161D01*
X357161Y731944D02*
X350200Y724983D01*
D20*
X491025Y363172D03*
D94*
X520032Y363172D01*
X520160Y363300D01*
X554460Y368100D02*
X596700Y368100D01*
X609600Y381000D01*
X564540Y377850D02*
X544710Y377850D01*
X564540Y377850D02*
X593090Y406400D01*
X609600Y406400D01*
X572370Y348100D02*
X554460Y348100D01*
X613802Y314944D02*
X619744Y309002D01*
X605398Y264144D02*
X599456Y258202D01*
X599456Y249798D01*
X605398Y264144D02*
X613770Y264144D01*
X609600Y239654D02*
X609600Y228600D01*
X613770Y264144D02*
X619744Y270118D01*
X599456Y249798D02*
X609600Y239654D01*
X619744Y270118D02*
X619744Y309002D01*
X613802Y314944D02*
X605526Y314944D01*
X572370Y348100D01*
X572354Y353100D02*
X554460Y353100D01*
X615072Y318754D02*
X623554Y310272D01*
X609600Y254894D02*
X609600Y254000D01*
X609600Y254894D02*
X623554Y268848D01*
X623554Y310272D01*
X615072Y318754D02*
X606700Y318754D01*
X572354Y353100D01*
X529740Y333320D02*
X529740Y321310D01*
X529740Y333320D02*
X529710Y333350D01*
X529740Y321310D02*
X529740Y315110D01*
X527050Y312420D01*
X348576Y451751D02*
X348576Y460414D01*
X348576Y451751D02*
X487907Y312420D01*
X527050Y312420D01*
X281900Y500420D02*
X281900Y506780D01*
X312420Y496570D02*
X348576Y460414D01*
X312420Y496570D02*
X285750Y496570D01*
X281900Y500420D01*
D88*
X80540Y299760D02*
X68620Y299760D01*
X48260Y279400D02*
X38100Y279400D01*
X48260Y279400D02*
X68620Y299760D01*
X80540Y304760D02*
X38140Y304760D01*
X38100Y304800D01*
X69970Y309760D02*
X80540Y309760D01*
X49530Y330200D02*
X38100Y330200D01*
X49530Y330200D02*
X69970Y309760D01*
X72510Y294760D02*
X80540Y294760D01*
X72510Y294760D02*
X66040Y288290D01*
X66040Y262890D01*
X57150Y254000D01*
X38100Y254000D01*
D93*
X80010Y411180D02*
X92100Y411180D01*
X80010Y411180D02*
X70150Y411180D01*
X49530Y431800D02*
X38100Y431800D01*
X49530Y431800D02*
X70150Y411180D01*
X80010Y411180D02*
X80010Y411330D01*
D94*
X307420Y238680D02*
X319630Y238680D01*
X307420Y238680D02*
X307340Y238760D01*
D20*
X307340Y238760D03*
X316230Y523240D03*
D94*
X298440Y523240D01*
X298400Y523280D01*
D88*
X363630Y228680D02*
X372599Y228680D01*
X538857Y260834D02*
X554774Y244917D01*
X554774Y225006D01*
X404753Y260834D02*
X372599Y228680D01*
X404753Y260834D02*
X538857Y260834D01*
D91*
X636270Y109220D03*
D88*
X613914Y188214D02*
X591566Y188214D01*
X613914Y188214D02*
X636270Y165858D01*
X591566Y188214D02*
X554774Y225006D01*
X636270Y165858D02*
X636270Y109220D01*
D91*
X603250Y71120D03*
D88*
X582930Y71120D01*
X579550Y74500D02*
X579550Y79860D01*
X579550Y74500D02*
X582930Y71120D01*
D91*
X384810Y99060D03*
X388898Y148868D03*
D88*
X352904Y198832D02*
X352904Y215762D01*
X344986Y223680D02*
X319630Y223680D01*
X344986Y223680D02*
X352904Y215762D01*
X352904Y198832D02*
X376683Y175053D01*
X376683Y161083D01*
X388898Y148868D01*
D94*
X380570Y103300D02*
X384810Y99060D01*
X380570Y103300D02*
X377340Y103300D01*
D20*
X589280Y81280D03*
X589280Y127000D03*
D95*
X614450Y137000D02*
X615950Y135500D01*
X614450Y137000D02*
X598780Y137000D01*
X601550Y79860D02*
X590700Y79860D01*
X589280Y81280D01*
X592430Y137000D02*
X598780Y137000D01*
X592430Y137000D02*
X589280Y133850D01*
X589280Y127000D01*
D94*
X267890Y472360D02*
X258670Y472360D01*
X267890Y472360D02*
X270510Y474980D01*
X270510Y499110D01*
X271900Y500500D02*
X271900Y506780D01*
X271900Y500500D02*
X270510Y499110D01*
D88*
X258670Y457360D02*
X245270Y457360D01*
D91*
X166370Y449580D03*
D88*
X178903Y449580D01*
X186761Y441722D01*
X229632Y441722D01*
X245270Y457360D01*
X243916Y462360D02*
X258670Y462360D01*
D91*
X160020Y457200D03*
D88*
X227342Y445786D02*
X243916Y462360D01*
X177030Y457200D02*
X160020Y457200D01*
X188444Y445786D02*
X227342Y445786D01*
X188444Y445786D02*
X177030Y457200D01*
X302670Y457360D02*
X330040Y457360D01*
X508000Y279400D02*
X609600Y279400D01*
X508000Y279400D02*
X330040Y457360D01*
X330787Y462360D02*
X302670Y462360D01*
X330787Y462360D02*
X509604Y283544D01*
X588344Y283544D01*
X609600Y304800D01*
D95*
X88020Y381000D02*
X77470Y381000D01*
D91*
X77470Y381000D03*
X571500Y304800D03*
D88*
X560950Y304800D01*
D90*
X637110Y52910D02*
X622300Y38100D01*
X637110Y52910D02*
X637110Y88900D01*
X326390Y18870D02*
X316886Y18870D01*
X304874Y6858D01*
X240690Y9500D02*
X240690Y20320D01*
X243332Y6858D02*
X304874Y6858D01*
X243332Y6858D02*
X240690Y9500D01*
D95*
X240210Y41880D02*
X244710Y41880D01*
X240690Y41400D02*
X240690Y20320D01*
X240690Y41400D02*
X240210Y41880D01*
D91*
X167640Y138430D03*
X196548Y485164D03*
D94*
X249664Y538280D02*
X260400Y538280D01*
X249664Y538280D02*
X196548Y485164D01*
D97*
X154910Y111760D02*
X110490Y67340D01*
X154910Y111760D02*
X168910Y111760D01*
X209820Y111760D01*
D88*
X168910Y137160D02*
X167640Y138430D01*
X168910Y137160D02*
X168910Y111760D01*
D97*
X209820Y111760D02*
X234380Y136320D01*
X238760Y136320D01*
D96*
X469750Y421640D02*
X471960Y423850D01*
X471960Y434800D01*
D94*
X460860Y417830D02*
X459740Y417830D01*
D20*
X459740Y417830D03*
X485140Y441960D03*
D94*
X433070Y623768D02*
X407598Y649240D01*
X433070Y623768D02*
X433070Y619760D01*
D20*
X433070Y619760D03*
D94*
X464670Y421640D02*
X469750Y421640D01*
X464670Y421640D02*
X460860Y417830D01*
D96*
X484680Y441500D02*
X485140Y441960D01*
X484680Y441500D02*
X478960Y441500D01*
D94*
X369021Y660640D02*
X363450Y660640D01*
X369021Y660640D02*
X369141Y660520D01*
X381640Y649240D02*
X407598Y649240D01*
X370360Y660520D02*
X369141Y660520D01*
X370360Y660520D02*
X381640Y649240D01*
X310200Y708890D02*
X310200Y737550D01*
X307340Y740410D01*
D20*
X307340Y740410D03*
X495300Y358108D03*
D94*
X519968Y358108D01*
X520160Y358300D01*
X369410Y685640D02*
X363450Y685640D01*
X378475Y694705D02*
X401954Y694705D01*
X444500Y737251D01*
X378475Y694705D02*
X369410Y685640D01*
X444500Y737251D02*
X444500Y914400D01*
X508000Y977900D01*
X419100Y914400D02*
X419100Y716835D01*
X419100Y914400D02*
X482600Y977900D01*
X369234Y690640D02*
X363450Y690640D01*
X376823Y698229D02*
X400494Y698229D01*
X419100Y716835D01*
X376823Y698229D02*
X369234Y690640D01*
X369250Y695640D02*
X363450Y695640D01*
X375363Y701753D02*
X399035Y701753D01*
X375363Y701753D02*
X369250Y695640D01*
X399035Y701753D02*
X406400Y709118D01*
X406400Y774700D01*
D20*
X300990Y549402D03*
D94*
X308473Y549402D01*
X317069Y540806D01*
D20*
X274320Y553720D03*
D94*
X276646Y551394D01*
X276646Y551313D01*
X276900Y551059D01*
X276900Y544780D01*
D20*
X395667Y706817D03*
X438134Y541020D03*
D94*
X437920Y540806D01*
X317069Y540806D01*
X363450Y700640D02*
X369627Y706817D01*
X395667Y706817D01*
X265280Y562760D02*
X274320Y553720D01*
X265280Y562760D02*
X265280Y563880D01*
X340200Y708890D02*
X340200Y724122D01*
X339636Y724686D01*
D91*
X339636Y724686D03*
D20*
X127000Y294640D03*
D94*
X126920Y294560D01*
X114840Y294560D01*
X345200Y708890D02*
X345200Y727470D01*
X346710Y728980D01*
D91*
X346710Y728980D03*
D20*
X209764Y615950D03*
D94*
X207994Y614180D01*
X207994Y509177D01*
X185800Y486982D01*
X136462Y486982D01*
X132160Y482680D02*
X120120Y482680D01*
X132160Y482680D02*
X136462Y486982D01*
X385470Y212240D02*
X391310Y212240D01*
X393700Y214630D01*
D20*
X393700Y241300D03*
D94*
X393700Y214630D01*
D20*
X390858Y501142D03*
D94*
X288798Y501142D01*
X286900Y503040D02*
X286900Y506780D01*
X286900Y503040D02*
X288798Y501142D01*
X541130Y444390D02*
X541130Y438300D01*
X541130Y444390D02*
X541020Y444500D01*
D20*
X541020Y444500D03*
X541020Y471170D03*
D94*
X541130Y471060D01*
X541130Y464970D01*
D91*
X440690Y499110D03*
D94*
X318328Y528304D02*
X314132Y528304D01*
X314108Y528280D01*
X298400Y528280D01*
X414988Y524812D02*
X440690Y499110D01*
X414988Y524812D02*
X321820Y524812D01*
X318328Y528304D01*
X282650Y263450D02*
X273750Y263450D01*
X282650Y263450D02*
X283210Y262890D01*
D20*
X283210Y262890D03*
X320265Y517935D03*
D94*
X309110Y506780D01*
X291900Y506780D01*
M02*
