G04 EAGLE Gerber X2 export*
%TF.Part,Single*%
%TF.FileFunction,Copper,L2,Bot,Mixed*%
%TF.FilePolarity,Positive*%
%TF.GenerationSoftware,Autodesk,EAGLE,9.2.1*%
%TF.CreationDate,2018-11-01T02:04:35Z*%
G75*
%MOMM*%
%FSLAX34Y34*%
%LPD*%
%INBottom Copper*%
%IPPOS*%
%AMOC8*
5,1,8,0,0,1.08239X$1,22.5*%
G01*
%ADD10C,0.508000*%
%ADD11R,1.270000X0.635000*%
%ADD12C,1.524000*%
%ADD13C,1.778000*%
%ADD14C,1.350000*%
%ADD15C,1.800000*%
%ADD16C,1.625600*%
%ADD17R,0.635000X1.270000*%
%ADD18R,1.524000X1.524000*%
%ADD19C,0.554000*%
%ADD20C,0.900000*%
%ADD21C,0.609600*%
%ADD22C,0.254000*%
%ADD23C,0.200000*%
%ADD24C,0.508000*%
%ADD25C,0.152400*%
%ADD26C,0.406400*%
%ADD27C,0.304800*%

G36*
X254977Y178328D02*
X254977Y178328D01*
X255094Y178345D01*
X255099Y178348D01*
X255106Y178349D01*
X255208Y178403D01*
X255313Y178456D01*
X255317Y178461D01*
X255323Y178464D01*
X255403Y178548D01*
X255485Y178632D01*
X255489Y178638D01*
X255492Y178642D01*
X255500Y178659D01*
X255566Y178779D01*
X255640Y178957D01*
X257335Y180652D01*
X258619Y181184D01*
X258658Y181208D01*
X258702Y181224D01*
X258762Y181272D01*
X258828Y181313D01*
X258858Y181349D01*
X258894Y181377D01*
X258936Y181443D01*
X258985Y181503D01*
X259002Y181546D01*
X259027Y181584D01*
X259046Y181660D01*
X259073Y181732D01*
X259075Y181778D01*
X259087Y181823D01*
X259081Y181900D01*
X259084Y181978D01*
X259071Y182022D01*
X259067Y182068D01*
X259037Y182140D01*
X259015Y182214D01*
X258989Y182252D01*
X258971Y182294D01*
X258886Y182401D01*
X258875Y182416D01*
X258871Y182419D01*
X258866Y182425D01*
X258825Y182466D01*
X258825Y185834D01*
X261206Y188215D01*
X264574Y188215D01*
X266955Y185834D01*
X266955Y183971D01*
X266969Y183881D01*
X266977Y183790D01*
X266989Y183760D01*
X266994Y183728D01*
X267037Y183648D01*
X267073Y183564D01*
X267099Y183532D01*
X267110Y183511D01*
X267133Y183489D01*
X267178Y183433D01*
X267324Y183286D01*
X267398Y183233D01*
X267467Y183174D01*
X267498Y183162D01*
X267524Y183143D01*
X267611Y183116D01*
X267696Y183082D01*
X267737Y183077D01*
X267759Y183071D01*
X267791Y183071D01*
X267862Y183063D01*
X296855Y183063D01*
X296945Y183078D01*
X297036Y183085D01*
X297066Y183098D01*
X297097Y183103D01*
X297178Y183146D01*
X297262Y183182D01*
X297294Y183207D01*
X297315Y183218D01*
X297337Y183242D01*
X297393Y183286D01*
X297718Y183612D01*
X297771Y183686D01*
X297831Y183755D01*
X297843Y183785D01*
X297862Y183811D01*
X297889Y183898D01*
X297923Y183983D01*
X297927Y184024D01*
X297934Y184047D01*
X297933Y184079D01*
X297941Y184150D01*
X297941Y272671D01*
X297927Y272761D01*
X297919Y272852D01*
X297907Y272882D01*
X297902Y272914D01*
X297859Y272995D01*
X297823Y273079D01*
X297797Y273111D01*
X297786Y273131D01*
X297763Y273154D01*
X297718Y273210D01*
X295530Y275398D01*
X295456Y275451D01*
X295386Y275511D01*
X295356Y275523D01*
X295330Y275542D01*
X295243Y275569D01*
X295158Y275603D01*
X295117Y275607D01*
X295095Y275614D01*
X295063Y275613D01*
X294991Y275621D01*
X285685Y275621D01*
X285614Y275610D01*
X285542Y275608D01*
X285494Y275590D01*
X285442Y275582D01*
X285379Y275548D01*
X285311Y275523D01*
X285271Y275491D01*
X285225Y275466D01*
X285175Y275414D01*
X285119Y275370D01*
X285091Y275326D01*
X285055Y275288D01*
X285025Y275223D01*
X284986Y275163D01*
X284974Y275112D01*
X284952Y275065D01*
X284944Y274994D01*
X284926Y274924D01*
X284930Y274872D01*
X284925Y274821D01*
X284940Y274750D01*
X284946Y274679D01*
X284966Y274631D01*
X284977Y274580D01*
X285014Y274519D01*
X285042Y274453D01*
X285087Y274397D01*
X285103Y274369D01*
X285121Y274354D01*
X285147Y274322D01*
X287275Y272194D01*
X287275Y269873D01*
X287289Y269783D01*
X287297Y269692D01*
X287309Y269662D01*
X287314Y269630D01*
X287357Y269549D01*
X287393Y269465D01*
X287419Y269433D01*
X287430Y269413D01*
X287453Y269390D01*
X287498Y269334D01*
X290799Y266033D01*
X290799Y251668D01*
X279878Y240747D01*
X279825Y240673D01*
X279765Y240604D01*
X279753Y240574D01*
X279734Y240547D01*
X279707Y240460D01*
X279673Y240376D01*
X279669Y240335D01*
X279662Y240312D01*
X279663Y240280D01*
X279655Y240209D01*
X279655Y238346D01*
X277274Y235965D01*
X273906Y235965D01*
X271525Y238346D01*
X271525Y241714D01*
X273906Y244095D01*
X275769Y244095D01*
X275859Y244109D01*
X275950Y244117D01*
X275980Y244129D01*
X276012Y244134D01*
X276092Y244177D01*
X276176Y244213D01*
X276208Y244239D01*
X276229Y244250D01*
X276251Y244273D01*
X276307Y244318D01*
X285526Y253537D01*
X285579Y253611D01*
X285639Y253680D01*
X285651Y253710D01*
X285670Y253737D01*
X285697Y253824D01*
X285731Y253908D01*
X285735Y253949D01*
X285742Y253972D01*
X285741Y254004D01*
X285749Y254075D01*
X285749Y258064D01*
X285746Y258084D01*
X285748Y258103D01*
X285726Y258205D01*
X285710Y258307D01*
X285700Y258324D01*
X285696Y258344D01*
X285643Y258433D01*
X285594Y258524D01*
X285580Y258538D01*
X285570Y258555D01*
X285491Y258622D01*
X285416Y258694D01*
X285398Y258702D01*
X285383Y258715D01*
X285287Y258754D01*
X285193Y258797D01*
X285173Y258799D01*
X285155Y258807D01*
X284988Y258825D01*
X281526Y258825D01*
X279145Y261206D01*
X279145Y263069D01*
X279131Y263159D01*
X279123Y263250D01*
X279111Y263280D01*
X279106Y263312D01*
X279063Y263392D01*
X279027Y263476D01*
X279001Y263508D01*
X278990Y263529D01*
X278967Y263551D01*
X278922Y263607D01*
X267539Y274990D01*
X267539Y279040D01*
X267525Y279130D01*
X267517Y279221D01*
X267505Y279250D01*
X267500Y279282D01*
X267457Y279363D01*
X267421Y279447D01*
X267395Y279479D01*
X267384Y279500D01*
X267361Y279522D01*
X267316Y279578D01*
X239298Y307596D01*
X239240Y307638D01*
X239188Y307687D01*
X239141Y307709D01*
X239099Y307739D01*
X239030Y307760D01*
X238965Y307791D01*
X238913Y307796D01*
X238863Y307812D01*
X238792Y307810D01*
X238721Y307818D01*
X238670Y307807D01*
X238618Y307805D01*
X238550Y307781D01*
X238480Y307766D01*
X238436Y307739D01*
X238387Y307721D01*
X238331Y307676D01*
X238269Y307639D01*
X238235Y307600D01*
X238195Y307567D01*
X238156Y307507D01*
X238109Y307452D01*
X238090Y307404D01*
X238062Y307360D01*
X238044Y307291D01*
X238017Y307224D01*
X238009Y307153D01*
X238001Y307122D01*
X238003Y307098D01*
X237999Y307058D01*
X237999Y295749D01*
X238014Y295659D01*
X238021Y295568D01*
X238033Y295538D01*
X238039Y295506D01*
X238081Y295426D01*
X238117Y295342D01*
X238143Y295310D01*
X238154Y295289D01*
X238177Y295267D01*
X238222Y295211D01*
X240144Y293289D01*
X240144Y182005D01*
X240158Y181915D01*
X240165Y181824D01*
X240178Y181794D01*
X240183Y181762D01*
X240226Y181682D01*
X240262Y181598D01*
X240287Y181566D01*
X240298Y181545D01*
X240322Y181523D01*
X240366Y181467D01*
X243302Y178532D01*
X243376Y178479D01*
X243445Y178419D01*
X243475Y178407D01*
X243501Y178388D01*
X243589Y178361D01*
X243673Y178327D01*
X243714Y178323D01*
X243737Y178316D01*
X243769Y178317D01*
X243840Y178309D01*
X254863Y178309D01*
X254977Y178328D01*
G37*
G36*
X299136Y279297D02*
X299136Y279297D01*
X299240Y279300D01*
X299259Y279307D01*
X299279Y279308D01*
X299373Y279349D01*
X299471Y279384D01*
X299487Y279397D01*
X299505Y279405D01*
X299636Y279509D01*
X319308Y299182D01*
X319361Y299256D01*
X319421Y299325D01*
X319433Y299355D01*
X319452Y299381D01*
X319479Y299468D01*
X319513Y299553D01*
X319517Y299594D01*
X319524Y299617D01*
X319523Y299649D01*
X319531Y299720D01*
X319531Y347726D01*
X319528Y347746D01*
X319530Y347765D01*
X319508Y347867D01*
X319492Y347969D01*
X319482Y347986D01*
X319478Y348006D01*
X319425Y348095D01*
X319376Y348186D01*
X319362Y348200D01*
X319352Y348217D01*
X319273Y348284D01*
X319198Y348356D01*
X319180Y348364D01*
X319165Y348377D01*
X319069Y348416D01*
X318975Y348459D01*
X318955Y348461D01*
X318937Y348469D01*
X318770Y348487D01*
X259080Y348487D01*
X259060Y348484D01*
X259041Y348486D01*
X258939Y348464D01*
X258837Y348448D01*
X258820Y348438D01*
X258800Y348434D01*
X258711Y348381D01*
X258620Y348332D01*
X258606Y348318D01*
X258589Y348308D01*
X258522Y348229D01*
X258451Y348154D01*
X258442Y348136D01*
X258429Y348121D01*
X258390Y348025D01*
X258347Y347931D01*
X258345Y347911D01*
X258337Y347893D01*
X258319Y347726D01*
X258319Y343215D01*
X249144Y334040D01*
X249091Y333966D01*
X249031Y333897D01*
X249019Y333867D01*
X249000Y333841D01*
X248973Y333754D01*
X248939Y333669D01*
X248935Y333628D01*
X248928Y333605D01*
X248929Y333573D01*
X248921Y333502D01*
X248921Y317802D01*
X248935Y317712D01*
X248943Y317621D01*
X248955Y317591D01*
X248960Y317559D01*
X249003Y317478D01*
X249039Y317394D01*
X249065Y317362D01*
X249076Y317342D01*
X249099Y317319D01*
X249144Y317263D01*
X278909Y287498D01*
X278983Y287445D01*
X279053Y287385D01*
X279083Y287373D01*
X279109Y287354D01*
X279196Y287327D01*
X279281Y287293D01*
X279322Y287289D01*
X279344Y287282D01*
X279376Y287283D01*
X279448Y287275D01*
X281084Y287275D01*
X283465Y284894D01*
X283465Y281432D01*
X283468Y281412D01*
X283466Y281393D01*
X283488Y281291D01*
X283504Y281189D01*
X283514Y281172D01*
X283518Y281152D01*
X283571Y281063D01*
X283620Y280972D01*
X283634Y280958D01*
X283644Y280941D01*
X283723Y280874D01*
X283798Y280802D01*
X283816Y280794D01*
X283831Y280781D01*
X283927Y280742D01*
X284021Y280699D01*
X284041Y280697D01*
X284059Y280689D01*
X284226Y280671D01*
X297398Y280671D01*
X298559Y279509D01*
X298576Y279498D01*
X298588Y279482D01*
X298675Y279426D01*
X298759Y279366D01*
X298778Y279360D01*
X298795Y279349D01*
X298896Y279324D01*
X298994Y279294D01*
X299014Y279294D01*
X299034Y279289D01*
X299136Y279297D01*
G37*
G36*
X581830Y419624D02*
X581830Y419624D01*
X581921Y419631D01*
X581951Y419643D01*
X581983Y419649D01*
X582063Y419691D01*
X582147Y419727D01*
X582179Y419753D01*
X582200Y419764D01*
X582222Y419787D01*
X582278Y419832D01*
X587278Y424832D01*
X587331Y424906D01*
X587391Y424975D01*
X587403Y425005D01*
X587422Y425031D01*
X587449Y425118D01*
X587483Y425203D01*
X587487Y425244D01*
X587494Y425267D01*
X587493Y425299D01*
X587501Y425370D01*
X587501Y468710D01*
X587487Y468800D01*
X587479Y468891D01*
X587467Y468921D01*
X587462Y468953D01*
X587419Y469033D01*
X587383Y469117D01*
X587357Y469150D01*
X587346Y469170D01*
X587323Y469192D01*
X587278Y469248D01*
X585754Y470772D01*
X585696Y470814D01*
X585644Y470864D01*
X585597Y470885D01*
X585555Y470916D01*
X585486Y470937D01*
X585421Y470967D01*
X585369Y470973D01*
X585319Y470988D01*
X585248Y470986D01*
X585177Y470994D01*
X585126Y470983D01*
X585074Y470982D01*
X585006Y470957D01*
X584936Y470942D01*
X584891Y470915D01*
X584843Y470897D01*
X584787Y470853D01*
X584725Y470816D01*
X584691Y470776D01*
X584651Y470744D01*
X584612Y470683D01*
X584565Y470629D01*
X584546Y470581D01*
X584518Y470537D01*
X584500Y470467D01*
X584473Y470401D01*
X584465Y470329D01*
X584457Y470298D01*
X584459Y470275D01*
X584455Y470234D01*
X584455Y468216D01*
X582074Y465835D01*
X580211Y465835D01*
X580121Y465821D01*
X580030Y465813D01*
X580000Y465801D01*
X579968Y465796D01*
X579888Y465753D01*
X579804Y465717D01*
X579772Y465691D01*
X579751Y465680D01*
X579729Y465657D01*
X579673Y465612D01*
X579150Y465089D01*
X575620Y465089D01*
X575526Y465074D01*
X575431Y465065D01*
X575405Y465054D01*
X575378Y465050D01*
X575293Y465005D01*
X575206Y464967D01*
X575185Y464948D01*
X575160Y464934D01*
X575095Y464865D01*
X575024Y464801D01*
X575010Y464777D01*
X574991Y464756D01*
X574951Y464670D01*
X574904Y464586D01*
X574899Y464559D01*
X574887Y464533D01*
X574877Y464438D01*
X574859Y464345D01*
X574863Y464317D01*
X574860Y464289D01*
X574880Y464195D01*
X574894Y464101D01*
X574908Y464069D01*
X574912Y464048D01*
X574929Y464020D01*
X574961Y463947D01*
X575138Y463642D01*
X575311Y462995D01*
X575311Y461009D01*
X567182Y461009D01*
X567162Y461006D01*
X567143Y461008D01*
X567041Y460986D01*
X566939Y460969D01*
X566922Y460960D01*
X566902Y460956D01*
X566813Y460903D01*
X566722Y460854D01*
X566708Y460840D01*
X566691Y460830D01*
X566624Y460751D01*
X566553Y460676D01*
X566544Y460658D01*
X566531Y460643D01*
X566492Y460547D01*
X566449Y460453D01*
X566447Y460433D01*
X566439Y460415D01*
X566421Y460248D01*
X566421Y459485D01*
X566419Y459485D01*
X566419Y460248D01*
X566416Y460268D01*
X566418Y460287D01*
X566396Y460389D01*
X566379Y460491D01*
X566370Y460508D01*
X566366Y460528D01*
X566313Y460617D01*
X566264Y460708D01*
X566250Y460722D01*
X566240Y460739D01*
X566161Y460806D01*
X566086Y460877D01*
X566068Y460886D01*
X566053Y460899D01*
X565957Y460938D01*
X565863Y460981D01*
X565843Y460983D01*
X565825Y460991D01*
X565658Y461009D01*
X557529Y461009D01*
X557529Y462995D01*
X557702Y463642D01*
X558037Y464221D01*
X558322Y464506D01*
X558375Y464580D01*
X558435Y464650D01*
X558447Y464680D01*
X558466Y464706D01*
X558492Y464793D01*
X558527Y464878D01*
X558531Y464919D01*
X558538Y464941D01*
X558537Y464973D01*
X558545Y465045D01*
X558545Y471421D01*
X559438Y472314D01*
X573402Y472314D01*
X574295Y471421D01*
X574295Y470900D01*
X574298Y470880D01*
X574296Y470861D01*
X574318Y470759D01*
X574334Y470657D01*
X574344Y470640D01*
X574348Y470620D01*
X574401Y470531D01*
X574450Y470440D01*
X574464Y470426D01*
X574474Y470409D01*
X574553Y470342D01*
X574628Y470270D01*
X574646Y470262D01*
X574661Y470249D01*
X574757Y470210D01*
X574851Y470167D01*
X574871Y470165D01*
X574889Y470157D01*
X575056Y470139D01*
X575564Y470139D01*
X575584Y470142D01*
X575603Y470140D01*
X575705Y470162D01*
X575807Y470178D01*
X575824Y470188D01*
X575844Y470192D01*
X575933Y470245D01*
X576024Y470294D01*
X576038Y470308D01*
X576055Y470318D01*
X576122Y470397D01*
X576194Y470472D01*
X576202Y470490D01*
X576215Y470505D01*
X576254Y470601D01*
X576297Y470695D01*
X576299Y470715D01*
X576307Y470733D01*
X576325Y470900D01*
X576325Y471584D01*
X577913Y473172D01*
X577955Y473230D01*
X578005Y473282D01*
X578027Y473329D01*
X578057Y473371D01*
X578078Y473440D01*
X578108Y473505D01*
X578114Y473557D01*
X578129Y473607D01*
X578127Y473678D01*
X578135Y473749D01*
X578124Y473800D01*
X578123Y473852D01*
X578098Y473920D01*
X578083Y473990D01*
X578056Y474034D01*
X578038Y474083D01*
X577994Y474139D01*
X577957Y474201D01*
X577917Y474235D01*
X577885Y474275D01*
X577824Y474314D01*
X577770Y474361D01*
X577722Y474380D01*
X577678Y474408D01*
X577608Y474426D01*
X577542Y474453D01*
X577470Y474461D01*
X577439Y474469D01*
X577416Y474467D01*
X577375Y474471D01*
X545305Y474471D01*
X545234Y474460D01*
X545163Y474458D01*
X545114Y474440D01*
X545062Y474432D01*
X544999Y474398D01*
X544932Y474373D01*
X544891Y474341D01*
X544845Y474316D01*
X544796Y474265D01*
X544739Y474220D01*
X544711Y474176D01*
X544675Y474138D01*
X544645Y474073D01*
X544606Y474013D01*
X544594Y473962D01*
X544572Y473915D01*
X544564Y473844D01*
X544546Y473774D01*
X544550Y473722D01*
X544545Y473671D01*
X544560Y473600D01*
X544566Y473529D01*
X544586Y473481D01*
X544597Y473430D01*
X544634Y473369D01*
X544662Y473303D01*
X544707Y473247D01*
X544723Y473219D01*
X544741Y473204D01*
X544767Y473172D01*
X545085Y472854D01*
X545085Y469486D01*
X543768Y468169D01*
X543715Y468095D01*
X543655Y468026D01*
X543643Y467996D01*
X543624Y467970D01*
X543597Y467883D01*
X543563Y467798D01*
X543559Y467757D01*
X543552Y467734D01*
X543553Y467702D01*
X543545Y467631D01*
X543545Y448039D01*
X543559Y447949D01*
X543567Y447858D01*
X543579Y447828D01*
X543584Y447796D01*
X543627Y447716D01*
X543663Y447632D01*
X543689Y447600D01*
X543700Y447579D01*
X543723Y447557D01*
X543768Y447501D01*
X545085Y446184D01*
X545085Y442816D01*
X542704Y440435D01*
X539336Y440435D01*
X536955Y442816D01*
X536955Y446184D01*
X538272Y447501D01*
X538325Y447575D01*
X538385Y447644D01*
X538397Y447674D01*
X538416Y447700D01*
X538443Y447787D01*
X538477Y447872D01*
X538481Y447913D01*
X538488Y447936D01*
X538487Y447968D01*
X538495Y448039D01*
X538495Y456733D01*
X538480Y456830D01*
X538470Y456927D01*
X538460Y456950D01*
X538456Y456976D01*
X538410Y457062D01*
X538370Y457151D01*
X538353Y457171D01*
X538340Y457194D01*
X538270Y457261D01*
X538204Y457332D01*
X538181Y457345D01*
X538162Y457363D01*
X538074Y457404D01*
X537988Y457451D01*
X537963Y457456D01*
X537939Y457467D01*
X537842Y457477D01*
X537746Y457495D01*
X537720Y457491D01*
X537695Y457494D01*
X537600Y457473D01*
X537503Y457459D01*
X537480Y457447D01*
X537454Y457441D01*
X537370Y457391D01*
X537284Y457347D01*
X537266Y457329D01*
X537243Y457315D01*
X537180Y457241D01*
X537112Y457172D01*
X537096Y457143D01*
X537083Y457128D01*
X537071Y457098D01*
X537031Y457025D01*
X536632Y456063D01*
X536076Y455231D01*
X535369Y454524D01*
X534537Y453968D01*
X533612Y453585D01*
X532891Y453441D01*
X532891Y458470D01*
X532891Y463499D01*
X533612Y463355D01*
X534537Y462972D01*
X535369Y462416D01*
X536076Y461709D01*
X536632Y460877D01*
X537031Y459915D01*
X537082Y459832D01*
X537128Y459746D01*
X537147Y459728D01*
X537160Y459706D01*
X537235Y459644D01*
X537306Y459577D01*
X537330Y459566D01*
X537350Y459549D01*
X537441Y459514D01*
X537529Y459473D01*
X537555Y459471D01*
X537579Y459461D01*
X537677Y459457D01*
X537773Y459446D01*
X537799Y459452D01*
X537825Y459451D01*
X537919Y459478D01*
X538014Y459499D01*
X538036Y459512D01*
X538061Y459519D01*
X538141Y459575D01*
X538225Y459625D01*
X538242Y459645D01*
X538263Y459660D01*
X538322Y459738D01*
X538385Y459812D01*
X538395Y459836D01*
X538410Y459857D01*
X538440Y459949D01*
X538477Y460040D01*
X538480Y460072D01*
X538486Y460091D01*
X538486Y460124D01*
X538495Y460207D01*
X538495Y467631D01*
X538481Y467721D01*
X538473Y467812D01*
X538461Y467842D01*
X538456Y467874D01*
X538413Y467954D01*
X538377Y468038D01*
X538351Y468070D01*
X538340Y468091D01*
X538317Y468113D01*
X538272Y468169D01*
X536955Y469486D01*
X536955Y471349D01*
X536941Y471439D01*
X536933Y471530D01*
X536921Y471560D01*
X536916Y471592D01*
X536873Y471672D01*
X536837Y471756D01*
X536811Y471788D01*
X536800Y471809D01*
X536777Y471831D01*
X536753Y471862D01*
X536751Y471865D01*
X536749Y471866D01*
X536732Y471887D01*
X534371Y474248D01*
X534297Y474301D01*
X534228Y474361D01*
X534198Y474373D01*
X534171Y474392D01*
X534084Y474419D01*
X534000Y474453D01*
X533959Y474457D01*
X533936Y474464D01*
X533904Y474463D01*
X533833Y474471D01*
X523160Y474471D01*
X523070Y474457D01*
X522979Y474449D01*
X522949Y474437D01*
X522917Y474432D01*
X522837Y474389D01*
X522753Y474353D01*
X522721Y474327D01*
X522700Y474316D01*
X522678Y474293D01*
X522622Y474248D01*
X517622Y469248D01*
X517569Y469174D01*
X517509Y469105D01*
X517497Y469075D01*
X517478Y469049D01*
X517451Y468962D01*
X517417Y468877D01*
X517413Y468836D01*
X517406Y468813D01*
X517407Y468781D01*
X517399Y468710D01*
X517399Y425370D01*
X517414Y425280D01*
X517421Y425189D01*
X517433Y425159D01*
X517439Y425127D01*
X517481Y425047D01*
X517517Y424963D01*
X517543Y424931D01*
X517554Y424910D01*
X517577Y424888D01*
X517622Y424832D01*
X522622Y419832D01*
X522696Y419779D01*
X522765Y419719D01*
X522795Y419707D01*
X522821Y419688D01*
X522908Y419661D01*
X522993Y419627D01*
X523034Y419623D01*
X523057Y419616D01*
X523089Y419617D01*
X523160Y419609D01*
X581740Y419609D01*
X581830Y419624D01*
G37*
G36*
X109387Y547894D02*
X109387Y547894D01*
X109478Y547901D01*
X109507Y547913D01*
X109539Y547919D01*
X109620Y547961D01*
X109704Y547997D01*
X109736Y548023D01*
X109757Y548034D01*
X109779Y548057D01*
X109835Y548102D01*
X115854Y554121D01*
X130078Y568345D01*
X130131Y568419D01*
X130191Y568489D01*
X130203Y568519D01*
X130222Y568545D01*
X130249Y568632D01*
X130283Y568717D01*
X130287Y568758D01*
X130294Y568780D01*
X130293Y568812D01*
X130301Y568883D01*
X130301Y575448D01*
X130291Y575512D01*
X130290Y575578D01*
X130267Y575658D01*
X130262Y575690D01*
X130252Y575708D01*
X130243Y575739D01*
X129865Y576652D01*
X129865Y579048D01*
X130243Y579961D01*
X130258Y580025D01*
X130283Y580086D01*
X130292Y580168D01*
X130299Y580200D01*
X130298Y580220D01*
X130301Y580252D01*
X130301Y602118D01*
X130291Y602182D01*
X130290Y602248D01*
X130267Y602328D01*
X130262Y602360D01*
X130252Y602378D01*
X130243Y602409D01*
X129865Y603322D01*
X129865Y603763D01*
X129851Y603853D01*
X129843Y603944D01*
X129831Y603973D01*
X129826Y604005D01*
X129783Y604086D01*
X129747Y604170D01*
X129721Y604202D01*
X129710Y604223D01*
X129687Y604245D01*
X129642Y604301D01*
X126599Y607344D01*
X126525Y607397D01*
X126455Y607457D01*
X126425Y607469D01*
X126399Y607488D01*
X126312Y607515D01*
X126227Y607549D01*
X126186Y607553D01*
X126164Y607560D01*
X126132Y607559D01*
X126061Y607567D01*
X68580Y607567D01*
X68560Y607564D01*
X68541Y607566D01*
X68439Y607544D01*
X68337Y607528D01*
X68320Y607518D01*
X68300Y607514D01*
X68211Y607461D01*
X68120Y607412D01*
X68106Y607398D01*
X68089Y607388D01*
X68022Y607309D01*
X67951Y607234D01*
X67942Y607216D01*
X67929Y607201D01*
X67890Y607105D01*
X67847Y607011D01*
X67845Y606991D01*
X67837Y606973D01*
X67819Y606806D01*
X67819Y602780D01*
X67830Y602710D01*
X67832Y602638D01*
X67850Y602589D01*
X67859Y602537D01*
X67892Y602474D01*
X67917Y602407D01*
X67949Y602366D01*
X67974Y602320D01*
X68026Y602271D01*
X68070Y602215D01*
X68114Y602187D01*
X68152Y602151D01*
X68217Y602121D01*
X68277Y602082D01*
X68328Y602069D01*
X68375Y602047D01*
X68446Y602039D01*
X68516Y602022D01*
X68568Y602026D01*
X68619Y602020D01*
X68690Y602035D01*
X68761Y602041D01*
X68809Y602061D01*
X68860Y602072D01*
X68921Y602109D01*
X68987Y602137D01*
X69043Y602182D01*
X69071Y602198D01*
X69086Y602216D01*
X69118Y602242D01*
X69341Y602465D01*
X72899Y602465D01*
X74636Y600728D01*
X74652Y600716D01*
X74665Y600700D01*
X74752Y600644D01*
X74836Y600584D01*
X74855Y600578D01*
X74872Y600568D01*
X74972Y600542D01*
X75071Y600512D01*
X75091Y600512D01*
X75110Y600507D01*
X75213Y600516D01*
X75317Y600518D01*
X75335Y600525D01*
X75355Y600527D01*
X75450Y600567D01*
X75496Y600584D01*
X89532Y600584D01*
X90425Y599691D01*
X90425Y593315D01*
X90439Y593225D01*
X90447Y593134D01*
X90459Y593104D01*
X90464Y593072D01*
X90507Y592991D01*
X90543Y592907D01*
X90569Y592875D01*
X90580Y592855D01*
X90603Y592832D01*
X90648Y592776D01*
X90933Y592491D01*
X91268Y591912D01*
X91441Y591265D01*
X91441Y589279D01*
X83312Y589279D01*
X83292Y589276D01*
X83273Y589278D01*
X83171Y589256D01*
X83069Y589239D01*
X83052Y589230D01*
X83032Y589226D01*
X82943Y589173D01*
X82852Y589124D01*
X82838Y589110D01*
X82821Y589100D01*
X82754Y589021D01*
X82683Y588946D01*
X82674Y588928D01*
X82661Y588913D01*
X82622Y588817D01*
X82579Y588723D01*
X82577Y588703D01*
X82569Y588685D01*
X82551Y588518D01*
X82551Y587755D01*
X82549Y587755D01*
X82549Y588518D01*
X82546Y588538D01*
X82548Y588557D01*
X82526Y588659D01*
X82509Y588761D01*
X82500Y588778D01*
X82496Y588798D01*
X82443Y588887D01*
X82394Y588978D01*
X82380Y588992D01*
X82370Y589009D01*
X82291Y589076D01*
X82216Y589147D01*
X82198Y589156D01*
X82183Y589169D01*
X82087Y589208D01*
X81993Y589251D01*
X81973Y589253D01*
X81955Y589261D01*
X81788Y589279D01*
X73659Y589279D01*
X73659Y591265D01*
X73832Y591912D01*
X73853Y591947D01*
X73887Y592037D01*
X73927Y592123D01*
X73930Y592151D01*
X73940Y592177D01*
X73944Y592273D01*
X73954Y592367D01*
X73948Y592395D01*
X73949Y592423D01*
X73922Y592515D01*
X73902Y592608D01*
X73887Y592632D01*
X73879Y592659D01*
X73824Y592737D01*
X73776Y592819D01*
X73754Y592837D01*
X73738Y592860D01*
X73661Y592917D01*
X73589Y592979D01*
X73562Y592989D01*
X73540Y593006D01*
X73449Y593035D01*
X73361Y593071D01*
X73325Y593075D01*
X73306Y593081D01*
X73273Y593081D01*
X73194Y593089D01*
X72248Y593089D01*
X71685Y593652D01*
X71611Y593705D01*
X71542Y593765D01*
X71512Y593777D01*
X71486Y593796D01*
X71399Y593823D01*
X71314Y593857D01*
X71273Y593861D01*
X71251Y593868D01*
X71218Y593867D01*
X71147Y593875D01*
X69341Y593875D01*
X69118Y594098D01*
X69060Y594140D01*
X69008Y594189D01*
X68988Y594199D01*
X68981Y594205D01*
X68956Y594215D01*
X68919Y594242D01*
X68850Y594263D01*
X68785Y594293D01*
X68753Y594296D01*
X68753Y594297D01*
X68733Y594299D01*
X68684Y594314D01*
X68612Y594312D01*
X68586Y594315D01*
X68585Y594315D01*
X68541Y594320D01*
X68490Y594309D01*
X68438Y594308D01*
X68370Y594283D01*
X68300Y594268D01*
X68255Y594241D01*
X68207Y594223D01*
X68151Y594178D01*
X68123Y594162D01*
X68120Y594160D01*
X68119Y594160D01*
X68089Y594142D01*
X68055Y594102D01*
X68015Y594069D01*
X67976Y594009D01*
X67970Y594002D01*
X67951Y593982D01*
X67948Y593977D01*
X67929Y593955D01*
X67910Y593906D01*
X67882Y593863D01*
X67866Y593799D01*
X67847Y593759D01*
X67846Y593747D01*
X67837Y593726D01*
X67829Y593655D01*
X67821Y593624D01*
X67823Y593601D01*
X67819Y593560D01*
X67819Y564680D01*
X67830Y564610D01*
X67832Y564538D01*
X67850Y564489D01*
X67859Y564437D01*
X67892Y564374D01*
X67917Y564307D01*
X67949Y564266D01*
X67974Y564220D01*
X68026Y564171D01*
X68070Y564115D01*
X68114Y564087D01*
X68152Y564051D01*
X68217Y564021D01*
X68277Y563982D01*
X68328Y563969D01*
X68375Y563947D01*
X68446Y563939D01*
X68516Y563922D01*
X68568Y563926D01*
X68619Y563920D01*
X68690Y563935D01*
X68761Y563941D01*
X68809Y563961D01*
X68860Y563972D01*
X68921Y564009D01*
X68987Y564037D01*
X69043Y564082D01*
X69071Y564098D01*
X69086Y564116D01*
X69118Y564142D01*
X69341Y564365D01*
X71147Y564365D01*
X71237Y564379D01*
X71328Y564387D01*
X71358Y564399D01*
X71390Y564404D01*
X71470Y564447D01*
X71554Y564483D01*
X71586Y564509D01*
X71607Y564520D01*
X71629Y564543D01*
X71685Y564588D01*
X72248Y565151D01*
X73194Y565151D01*
X73288Y565166D01*
X73383Y565175D01*
X73409Y565186D01*
X73437Y565190D01*
X73521Y565235D01*
X73608Y565273D01*
X73629Y565292D01*
X73654Y565306D01*
X73719Y565375D01*
X73790Y565439D01*
X73804Y565463D01*
X73823Y565484D01*
X73864Y565571D01*
X73910Y565654D01*
X73915Y565681D01*
X73927Y565707D01*
X73937Y565802D01*
X73955Y565896D01*
X73951Y565923D01*
X73954Y565951D01*
X73934Y566045D01*
X73920Y566139D01*
X73906Y566171D01*
X73902Y566192D01*
X73885Y566220D01*
X73853Y566293D01*
X73832Y566328D01*
X73659Y566975D01*
X73659Y568961D01*
X81788Y568961D01*
X81808Y568964D01*
X81827Y568962D01*
X81929Y568984D01*
X82031Y569001D01*
X82048Y569010D01*
X82068Y569014D01*
X82157Y569067D01*
X82248Y569116D01*
X82262Y569130D01*
X82279Y569140D01*
X82346Y569219D01*
X82417Y569294D01*
X82426Y569312D01*
X82439Y569327D01*
X82478Y569423D01*
X82521Y569517D01*
X82523Y569537D01*
X82531Y569555D01*
X82549Y569722D01*
X82549Y570485D01*
X82551Y570485D01*
X82551Y569722D01*
X82554Y569702D01*
X82552Y569683D01*
X82574Y569581D01*
X82591Y569479D01*
X82600Y569462D01*
X82604Y569442D01*
X82657Y569353D01*
X82706Y569262D01*
X82720Y569248D01*
X82730Y569231D01*
X82809Y569164D01*
X82884Y569093D01*
X82902Y569084D01*
X82917Y569071D01*
X83013Y569032D01*
X83107Y568989D01*
X83127Y568987D01*
X83145Y568979D01*
X83312Y568961D01*
X91441Y568961D01*
X91441Y566975D01*
X91268Y566328D01*
X90933Y565749D01*
X90648Y565464D01*
X90595Y565390D01*
X90535Y565320D01*
X90523Y565290D01*
X90504Y565264D01*
X90477Y565177D01*
X90443Y565092D01*
X90439Y565051D01*
X90432Y565029D01*
X90433Y564997D01*
X90425Y564925D01*
X90425Y558549D01*
X89532Y557656D01*
X75511Y557656D01*
X75494Y557662D01*
X75477Y557672D01*
X75376Y557698D01*
X75278Y557728D01*
X75258Y557728D01*
X75238Y557732D01*
X75135Y557724D01*
X75032Y557722D01*
X75013Y557715D01*
X74993Y557713D01*
X74898Y557673D01*
X74801Y557637D01*
X74785Y557625D01*
X74767Y557617D01*
X74636Y557512D01*
X72899Y555775D01*
X69341Y555775D01*
X69118Y555998D01*
X69060Y556040D01*
X69008Y556089D01*
X68961Y556111D01*
X68919Y556142D01*
X68850Y556163D01*
X68785Y556193D01*
X68733Y556199D01*
X68684Y556214D01*
X68612Y556212D01*
X68541Y556220D01*
X68490Y556209D01*
X68438Y556208D01*
X68370Y556183D01*
X68300Y556168D01*
X68255Y556141D01*
X68207Y556123D01*
X68151Y556078D01*
X68089Y556042D01*
X68055Y556002D01*
X68015Y555969D01*
X67976Y555909D01*
X67929Y555855D01*
X67910Y555806D01*
X67882Y555763D01*
X67864Y555693D01*
X67837Y555626D01*
X67829Y555555D01*
X67821Y555524D01*
X67823Y555501D01*
X67819Y555460D01*
X67819Y549663D01*
X67834Y549573D01*
X67841Y549482D01*
X67853Y549453D01*
X67859Y549421D01*
X67901Y549340D01*
X67937Y549256D01*
X67963Y549224D01*
X67974Y549203D01*
X67997Y549181D01*
X68042Y549125D01*
X69065Y548102D01*
X69139Y548049D01*
X69209Y547989D01*
X69239Y547977D01*
X69265Y547958D01*
X69352Y547931D01*
X69437Y547897D01*
X69478Y547893D01*
X69500Y547886D01*
X69532Y547887D01*
X69603Y547879D01*
X109297Y547879D01*
X109387Y547894D01*
G37*
G36*
X318790Y357636D02*
X318790Y357636D01*
X318809Y357634D01*
X318911Y357656D01*
X319013Y357672D01*
X319030Y357682D01*
X319050Y357686D01*
X319139Y357739D01*
X319230Y357788D01*
X319244Y357802D01*
X319261Y357812D01*
X319328Y357891D01*
X319400Y357966D01*
X319408Y357984D01*
X319421Y357999D01*
X319460Y358095D01*
X319503Y358189D01*
X319505Y358209D01*
X319513Y358227D01*
X319531Y358394D01*
X319531Y415036D01*
X319528Y415056D01*
X319530Y415075D01*
X319508Y415177D01*
X319492Y415279D01*
X319482Y415296D01*
X319478Y415316D01*
X319425Y415405D01*
X319376Y415496D01*
X319362Y415510D01*
X319352Y415527D01*
X319273Y415594D01*
X319198Y415666D01*
X319180Y415674D01*
X319165Y415687D01*
X319069Y415726D01*
X318975Y415769D01*
X318955Y415771D01*
X318937Y415779D01*
X318770Y415797D01*
X276043Y415797D01*
X275953Y415783D01*
X275862Y415775D01*
X275832Y415763D01*
X275800Y415758D01*
X275719Y415715D01*
X275636Y415679D01*
X275603Y415653D01*
X275583Y415642D01*
X275561Y415619D01*
X275505Y415574D01*
X275193Y415262D01*
X272978Y414345D01*
X270582Y414345D01*
X268367Y415262D01*
X266672Y416957D01*
X265755Y419172D01*
X265755Y421568D01*
X266361Y423030D01*
X266383Y423125D01*
X266412Y423218D01*
X266411Y423245D01*
X266417Y423270D01*
X266408Y423367D01*
X266405Y423464D01*
X266396Y423489D01*
X266394Y423515D01*
X266354Y423604D01*
X266321Y423695D01*
X266305Y423716D01*
X266294Y423740D01*
X266228Y423811D01*
X266167Y423887D01*
X266145Y423901D01*
X266128Y423921D01*
X266042Y423968D01*
X265960Y424020D01*
X265935Y424027D01*
X265912Y424039D01*
X265816Y424057D01*
X265722Y424080D01*
X265696Y424078D01*
X265670Y424083D01*
X265573Y424069D01*
X265477Y424061D01*
X265453Y424051D01*
X265427Y424047D01*
X265340Y424003D01*
X265250Y423965D01*
X265225Y423945D01*
X265207Y423936D01*
X265184Y423912D01*
X265119Y423860D01*
X262098Y420838D01*
X262045Y420765D01*
X261985Y420695D01*
X261973Y420665D01*
X261954Y420639D01*
X261927Y420552D01*
X261893Y420467D01*
X261889Y420426D01*
X261882Y420404D01*
X261883Y420371D01*
X261875Y420300D01*
X261875Y381746D01*
X261878Y381726D01*
X261876Y381707D01*
X261898Y381605D01*
X261914Y381503D01*
X261924Y381486D01*
X261928Y381466D01*
X261981Y381377D01*
X262030Y381286D01*
X262044Y381272D01*
X262054Y381255D01*
X262133Y381188D01*
X262208Y381116D01*
X262226Y381108D01*
X262241Y381095D01*
X262337Y381056D01*
X262431Y381013D01*
X262451Y381011D01*
X262469Y381003D01*
X262636Y380985D01*
X302458Y380985D01*
X303679Y379764D01*
X303753Y379711D01*
X303822Y379651D01*
X303852Y379639D01*
X303879Y379620D01*
X303966Y379593D01*
X304050Y379559D01*
X304091Y379555D01*
X304114Y379548D01*
X304146Y379549D01*
X304217Y379541D01*
X306080Y379541D01*
X308461Y377160D01*
X308461Y373792D01*
X306080Y371411D01*
X302712Y371411D01*
X300331Y373792D01*
X300331Y375174D01*
X300328Y375194D01*
X300330Y375213D01*
X300308Y375315D01*
X300292Y375417D01*
X300282Y375434D01*
X300278Y375454D01*
X300225Y375543D01*
X300176Y375634D01*
X300162Y375648D01*
X300152Y375665D01*
X300073Y375732D01*
X299998Y375804D01*
X299980Y375812D01*
X299965Y375825D01*
X299869Y375864D01*
X299775Y375907D01*
X299755Y375909D01*
X299737Y375917D01*
X299570Y375935D01*
X280621Y375935D01*
X280550Y375924D01*
X280478Y375922D01*
X280430Y375904D01*
X280378Y375896D01*
X280315Y375862D01*
X280247Y375837D01*
X280207Y375805D01*
X280161Y375780D01*
X280111Y375728D01*
X280055Y375684D01*
X280027Y375640D01*
X279991Y375602D01*
X279961Y375537D01*
X279922Y375477D01*
X279910Y375426D01*
X279888Y375379D01*
X279880Y375308D01*
X279862Y375238D01*
X279866Y375186D01*
X279861Y375135D01*
X279876Y375064D01*
X279882Y374993D01*
X279902Y374945D01*
X279913Y374894D01*
X279950Y374833D01*
X279978Y374767D01*
X280023Y374711D01*
X280039Y374683D01*
X280057Y374668D01*
X280083Y374636D01*
X282195Y372524D01*
X282195Y369156D01*
X279814Y366775D01*
X277951Y366775D01*
X277861Y366761D01*
X277770Y366753D01*
X277740Y366741D01*
X277708Y366736D01*
X277628Y366693D01*
X277544Y366657D01*
X277512Y366631D01*
X277491Y366620D01*
X277469Y366597D01*
X277413Y366552D01*
X270504Y359643D01*
X269793Y358932D01*
X269751Y358874D01*
X269702Y358822D01*
X269680Y358775D01*
X269649Y358733D01*
X269628Y358664D01*
X269598Y358599D01*
X269592Y358547D01*
X269577Y358497D01*
X269579Y358426D01*
X269571Y358355D01*
X269582Y358304D01*
X269583Y358252D01*
X269608Y358184D01*
X269623Y358114D01*
X269650Y358069D01*
X269668Y358021D01*
X269713Y357965D01*
X269749Y357903D01*
X269789Y357869D01*
X269821Y357829D01*
X269882Y357790D01*
X269936Y357743D01*
X269985Y357724D01*
X270028Y357696D01*
X270098Y357678D01*
X270164Y357651D01*
X270236Y357643D01*
X270267Y357635D01*
X270290Y357637D01*
X270331Y357633D01*
X318770Y357633D01*
X318790Y357636D01*
G37*
G36*
X318790Y424946D02*
X318790Y424946D01*
X318809Y424944D01*
X318911Y424966D01*
X319013Y424982D01*
X319030Y424992D01*
X319050Y424996D01*
X319139Y425049D01*
X319230Y425098D01*
X319244Y425112D01*
X319261Y425122D01*
X319328Y425201D01*
X319400Y425276D01*
X319408Y425294D01*
X319421Y425309D01*
X319460Y425405D01*
X319503Y425499D01*
X319505Y425519D01*
X319513Y425537D01*
X319531Y425704D01*
X319531Y436880D01*
X319517Y436970D01*
X319509Y437061D01*
X319497Y437091D01*
X319492Y437123D01*
X319449Y437203D01*
X319413Y437287D01*
X319387Y437319D01*
X319376Y437340D01*
X319353Y437362D01*
X319308Y437418D01*
X310418Y446308D01*
X310344Y446361D01*
X310275Y446421D01*
X310245Y446433D01*
X310219Y446452D01*
X310132Y446479D01*
X310047Y446513D01*
X310006Y446517D01*
X309983Y446524D01*
X309951Y446523D01*
X309880Y446531D01*
X288106Y446531D01*
X288016Y446517D01*
X287925Y446509D01*
X287895Y446497D01*
X287863Y446492D01*
X287782Y446449D01*
X287698Y446413D01*
X287666Y446387D01*
X287646Y446376D01*
X287623Y446353D01*
X287568Y446308D01*
X268290Y427031D01*
X268233Y426952D01*
X268171Y426877D01*
X268162Y426852D01*
X268146Y426831D01*
X268118Y426738D01*
X268083Y426647D01*
X268082Y426621D01*
X268074Y426596D01*
X268077Y426499D01*
X268072Y426401D01*
X268080Y426376D01*
X268080Y426350D01*
X268114Y426259D01*
X268141Y426165D01*
X268156Y426143D01*
X268165Y426119D01*
X268226Y426043D01*
X268281Y425963D01*
X268302Y425947D01*
X268319Y425927D01*
X268401Y425874D01*
X268479Y425816D01*
X268503Y425808D01*
X268525Y425794D01*
X268620Y425770D01*
X268712Y425740D01*
X268739Y425740D01*
X268764Y425734D01*
X268861Y425741D01*
X268958Y425742D01*
X268990Y425752D01*
X269009Y425753D01*
X269039Y425766D01*
X269120Y425789D01*
X270582Y426395D01*
X272978Y426395D01*
X275193Y425478D01*
X275505Y425166D01*
X275579Y425113D01*
X275648Y425053D01*
X275678Y425041D01*
X275704Y425022D01*
X275791Y424995D01*
X275876Y424961D01*
X275917Y424957D01*
X275939Y424950D01*
X275972Y424951D01*
X276043Y424943D01*
X318770Y424943D01*
X318790Y424946D01*
G37*
%LPC*%
G36*
X578706Y427735D02*
X578706Y427735D01*
X576325Y430116D01*
X576325Y430800D01*
X576322Y430820D01*
X576324Y430839D01*
X576302Y430941D01*
X576286Y431043D01*
X576276Y431060D01*
X576272Y431080D01*
X576219Y431169D01*
X576170Y431260D01*
X576156Y431274D01*
X576146Y431291D01*
X576067Y431358D01*
X575992Y431430D01*
X575974Y431438D01*
X575959Y431451D01*
X575863Y431490D01*
X575769Y431533D01*
X575749Y431535D01*
X575731Y431543D01*
X575564Y431561D01*
X575056Y431561D01*
X575036Y431558D01*
X575017Y431560D01*
X574915Y431538D01*
X574813Y431522D01*
X574796Y431512D01*
X574776Y431508D01*
X574687Y431455D01*
X574596Y431406D01*
X574582Y431392D01*
X574565Y431382D01*
X574498Y431303D01*
X574426Y431228D01*
X574418Y431210D01*
X574405Y431195D01*
X574366Y431099D01*
X574323Y431005D01*
X574321Y430985D01*
X574313Y430967D01*
X574295Y430800D01*
X574295Y430279D01*
X573402Y429386D01*
X559438Y429386D01*
X558545Y430279D01*
X558545Y436655D01*
X558531Y436745D01*
X558523Y436836D01*
X558511Y436866D01*
X558506Y436898D01*
X558463Y436979D01*
X558427Y437063D01*
X558401Y437095D01*
X558390Y437115D01*
X558367Y437138D01*
X558322Y437194D01*
X558037Y437479D01*
X557702Y438058D01*
X557529Y438705D01*
X557529Y440691D01*
X565658Y440691D01*
X565678Y440694D01*
X565697Y440692D01*
X565799Y440714D01*
X565901Y440731D01*
X565918Y440740D01*
X565938Y440744D01*
X566027Y440797D01*
X566118Y440846D01*
X566132Y440860D01*
X566149Y440870D01*
X566216Y440949D01*
X566287Y441024D01*
X566296Y441042D01*
X566309Y441057D01*
X566348Y441153D01*
X566391Y441247D01*
X566393Y441267D01*
X566401Y441285D01*
X566419Y441452D01*
X566419Y442215D01*
X566421Y442215D01*
X566421Y441452D01*
X566424Y441432D01*
X566422Y441413D01*
X566444Y441311D01*
X566461Y441209D01*
X566470Y441192D01*
X566474Y441172D01*
X566527Y441083D01*
X566576Y440992D01*
X566590Y440978D01*
X566600Y440961D01*
X566679Y440894D01*
X566754Y440823D01*
X566772Y440814D01*
X566787Y440801D01*
X566883Y440762D01*
X566977Y440719D01*
X566997Y440717D01*
X567015Y440709D01*
X567182Y440691D01*
X575311Y440691D01*
X575311Y438705D01*
X575138Y438058D01*
X574961Y437753D01*
X574927Y437663D01*
X574887Y437577D01*
X574884Y437549D01*
X574874Y437523D01*
X574871Y437427D01*
X574860Y437333D01*
X574866Y437305D01*
X574865Y437277D01*
X574892Y437185D01*
X574912Y437092D01*
X574927Y437068D01*
X574935Y437041D01*
X574990Y436963D01*
X575039Y436881D01*
X575060Y436863D01*
X575076Y436840D01*
X575153Y436783D01*
X575225Y436721D01*
X575252Y436711D01*
X575274Y436694D01*
X575365Y436665D01*
X575454Y436629D01*
X575489Y436625D01*
X575509Y436619D01*
X575541Y436619D01*
X575620Y436611D01*
X579150Y436611D01*
X579673Y436088D01*
X579747Y436035D01*
X579816Y435975D01*
X579846Y435963D01*
X579873Y435944D01*
X579960Y435917D01*
X580044Y435883D01*
X580085Y435879D01*
X580108Y435872D01*
X580140Y435873D01*
X580211Y435865D01*
X582074Y435865D01*
X584455Y433484D01*
X584455Y430116D01*
X582074Y427735D01*
X578706Y427735D01*
G37*
%LPD*%
%LPC*%
G36*
X106266Y554735D02*
X106266Y554735D01*
X103885Y557116D01*
X103885Y560484D01*
X105202Y561801D01*
X105255Y561873D01*
X105294Y561914D01*
X105298Y561925D01*
X105315Y561944D01*
X105327Y561974D01*
X105346Y562000D01*
X105370Y562079D01*
X105397Y562138D01*
X105399Y562152D01*
X105407Y562172D01*
X105411Y562213D01*
X105418Y562236D01*
X105417Y562268D01*
X105425Y562339D01*
X105425Y581931D01*
X105411Y582021D01*
X105403Y582112D01*
X105391Y582142D01*
X105386Y582174D01*
X105343Y582254D01*
X105307Y582338D01*
X105281Y582370D01*
X105270Y582391D01*
X105247Y582413D01*
X105202Y582469D01*
X103885Y583786D01*
X103885Y587154D01*
X106266Y589535D01*
X109634Y589535D01*
X112015Y587154D01*
X112015Y583786D01*
X110698Y582469D01*
X110645Y582395D01*
X110585Y582326D01*
X110573Y582296D01*
X110554Y582270D01*
X110527Y582183D01*
X110493Y582098D01*
X110489Y582057D01*
X110482Y582034D01*
X110483Y582002D01*
X110475Y581931D01*
X110475Y573237D01*
X110490Y573140D01*
X110500Y573043D01*
X110510Y573020D01*
X110514Y572994D01*
X110560Y572908D01*
X110600Y572819D01*
X110617Y572799D01*
X110630Y572776D01*
X110700Y572709D01*
X110766Y572638D01*
X110789Y572625D01*
X110808Y572607D01*
X110896Y572566D01*
X110982Y572519D01*
X111007Y572514D01*
X111031Y572503D01*
X111128Y572493D01*
X111224Y572475D01*
X111250Y572479D01*
X111275Y572476D01*
X111370Y572497D01*
X111467Y572511D01*
X111490Y572523D01*
X111516Y572529D01*
X111600Y572579D01*
X111686Y572623D01*
X111704Y572641D01*
X111727Y572655D01*
X111790Y572729D01*
X111858Y572798D01*
X111874Y572827D01*
X111887Y572842D01*
X111899Y572872D01*
X111939Y572945D01*
X112338Y573907D01*
X112894Y574739D01*
X113601Y575446D01*
X114433Y576002D01*
X115358Y576385D01*
X116079Y576529D01*
X116079Y571500D01*
X116079Y566471D01*
X115358Y566615D01*
X114433Y566998D01*
X113601Y567554D01*
X112894Y568261D01*
X112338Y569093D01*
X111939Y570055D01*
X111888Y570138D01*
X111842Y570224D01*
X111823Y570242D01*
X111810Y570264D01*
X111735Y570326D01*
X111664Y570393D01*
X111640Y570404D01*
X111620Y570421D01*
X111529Y570456D01*
X111441Y570497D01*
X111415Y570499D01*
X111391Y570509D01*
X111293Y570513D01*
X111197Y570524D01*
X111171Y570518D01*
X111145Y570519D01*
X111051Y570492D01*
X110956Y570471D01*
X110934Y570458D01*
X110909Y570451D01*
X110829Y570395D01*
X110745Y570345D01*
X110728Y570325D01*
X110707Y570310D01*
X110648Y570232D01*
X110585Y570158D01*
X110575Y570134D01*
X110560Y570113D01*
X110530Y570021D01*
X110493Y569930D01*
X110490Y569898D01*
X110484Y569879D01*
X110484Y569846D01*
X110475Y569763D01*
X110475Y562339D01*
X110478Y562321D01*
X110476Y562303D01*
X110491Y562235D01*
X110497Y562158D01*
X110509Y562128D01*
X110514Y562096D01*
X110525Y562076D01*
X110528Y562063D01*
X110560Y562010D01*
X110593Y561932D01*
X110619Y561900D01*
X110630Y561879D01*
X110649Y561861D01*
X110654Y561852D01*
X110663Y561844D01*
X110698Y561801D01*
X112015Y560484D01*
X112015Y557116D01*
X109634Y554735D01*
X106266Y554735D01*
G37*
%LPD*%
G36*
X266485Y363005D02*
X266485Y363005D01*
X266576Y363013D01*
X266606Y363025D01*
X266638Y363030D01*
X266718Y363073D01*
X266802Y363109D01*
X266834Y363135D01*
X266855Y363146D01*
X266877Y363169D01*
X266933Y363214D01*
X273842Y370123D01*
X273895Y370197D01*
X273955Y370266D01*
X273967Y370296D01*
X273986Y370323D01*
X274013Y370410D01*
X274047Y370494D01*
X274051Y370535D01*
X274058Y370558D01*
X274057Y370590D01*
X274065Y370661D01*
X274065Y372524D01*
X276177Y374636D01*
X276219Y374694D01*
X276269Y374746D01*
X276291Y374793D01*
X276321Y374835D01*
X276342Y374904D01*
X276372Y374969D01*
X276378Y375021D01*
X276393Y375071D01*
X276391Y375142D01*
X276399Y375213D01*
X276388Y375264D01*
X276387Y375316D01*
X276362Y375384D01*
X276347Y375454D01*
X276320Y375499D01*
X276302Y375547D01*
X276258Y375603D01*
X276221Y375665D01*
X276181Y375699D01*
X276149Y375739D01*
X276088Y375778D01*
X276034Y375825D01*
X275986Y375844D01*
X275942Y375872D01*
X275872Y375890D01*
X275806Y375917D01*
X275734Y375925D01*
X275703Y375933D01*
X275680Y375931D01*
X275639Y375935D01*
X262636Y375935D01*
X262616Y375932D01*
X262597Y375934D01*
X262495Y375912D01*
X262393Y375896D01*
X262376Y375886D01*
X262356Y375882D01*
X262267Y375829D01*
X262176Y375780D01*
X262162Y375766D01*
X262145Y375756D01*
X262078Y375677D01*
X262006Y375602D01*
X261998Y375584D01*
X261985Y375569D01*
X261946Y375473D01*
X261903Y375379D01*
X261901Y375359D01*
X261893Y375341D01*
X261875Y375174D01*
X261875Y369354D01*
X261876Y369346D01*
X261876Y369343D01*
X261879Y369328D01*
X261889Y369264D01*
X261897Y369173D01*
X261909Y369143D01*
X261914Y369112D01*
X261957Y369031D01*
X261993Y368947D01*
X262019Y368915D01*
X262030Y368894D01*
X262053Y368872D01*
X262098Y368816D01*
X263375Y367539D01*
X263375Y363752D01*
X263378Y363732D01*
X263376Y363713D01*
X263398Y363611D01*
X263414Y363509D01*
X263424Y363492D01*
X263428Y363472D01*
X263481Y363383D01*
X263530Y363292D01*
X263544Y363278D01*
X263554Y363261D01*
X263633Y363194D01*
X263708Y363122D01*
X263726Y363114D01*
X263741Y363101D01*
X263837Y363062D01*
X263931Y363019D01*
X263951Y363017D01*
X263969Y363009D01*
X264136Y362991D01*
X266395Y362991D01*
X266485Y363005D01*
G37*
%LPC*%
G36*
X84073Y572007D02*
X84073Y572007D01*
X84073Y576200D01*
X89234Y576200D01*
X89881Y576027D01*
X90460Y575692D01*
X90933Y575219D01*
X91268Y574640D01*
X91441Y573993D01*
X91441Y572007D01*
X84073Y572007D01*
G37*
%LPD*%
%LPC*%
G36*
X567943Y443737D02*
X567943Y443737D01*
X567943Y447930D01*
X573104Y447930D01*
X573751Y447757D01*
X574330Y447422D01*
X574803Y446949D01*
X575138Y446370D01*
X575311Y445723D01*
X575311Y443737D01*
X567943Y443737D01*
G37*
%LPD*%
%LPC*%
G36*
X73659Y572007D02*
X73659Y572007D01*
X73659Y573993D01*
X73832Y574640D01*
X74167Y575219D01*
X74640Y575692D01*
X75219Y576027D01*
X75866Y576200D01*
X81027Y576200D01*
X81027Y572007D01*
X73659Y572007D01*
G37*
%LPD*%
%LPC*%
G36*
X557529Y443737D02*
X557529Y443737D01*
X557529Y445723D01*
X557702Y446370D01*
X558037Y446949D01*
X558510Y447422D01*
X559089Y447757D01*
X559736Y447930D01*
X564897Y447930D01*
X564897Y443737D01*
X557529Y443737D01*
G37*
%LPD*%
%LPC*%
G36*
X84073Y582040D02*
X84073Y582040D01*
X84073Y586233D01*
X91441Y586233D01*
X91441Y584247D01*
X91268Y583600D01*
X90933Y583021D01*
X90460Y582548D01*
X89881Y582213D01*
X89234Y582040D01*
X84073Y582040D01*
G37*
%LPD*%
%LPC*%
G36*
X567943Y453770D02*
X567943Y453770D01*
X567943Y457963D01*
X575311Y457963D01*
X575311Y455977D01*
X575138Y455330D01*
X574803Y454751D01*
X574330Y454278D01*
X573751Y453943D01*
X573104Y453770D01*
X567943Y453770D01*
G37*
%LPD*%
%LPC*%
G36*
X75866Y582040D02*
X75866Y582040D01*
X75219Y582213D01*
X74640Y582548D01*
X74167Y583021D01*
X73832Y583600D01*
X73659Y584247D01*
X73659Y586233D01*
X81027Y586233D01*
X81027Y582040D01*
X75866Y582040D01*
G37*
%LPD*%
%LPC*%
G36*
X559736Y453770D02*
X559736Y453770D01*
X559089Y453943D01*
X558510Y454278D01*
X558037Y454751D01*
X557702Y455330D01*
X557529Y455977D01*
X557529Y457963D01*
X564897Y457963D01*
X564897Y453770D01*
X559736Y453770D01*
G37*
%LPD*%
G36*
X278474Y271614D02*
X278474Y271614D01*
X278526Y271615D01*
X278594Y271640D01*
X278664Y271655D01*
X278709Y271682D01*
X278757Y271700D01*
X278813Y271745D01*
X278875Y271781D01*
X278909Y271821D01*
X278949Y271853D01*
X278988Y271914D01*
X279035Y271968D01*
X279054Y272017D01*
X279082Y272060D01*
X279100Y272130D01*
X279113Y272161D01*
X281273Y274322D01*
X281315Y274380D01*
X281365Y274432D01*
X281387Y274479D01*
X281417Y274521D01*
X281438Y274590D01*
X281468Y274655D01*
X281474Y274707D01*
X281489Y274757D01*
X281487Y274828D01*
X281495Y274899D01*
X281484Y274950D01*
X281483Y275002D01*
X281458Y275070D01*
X281443Y275140D01*
X281416Y275185D01*
X281398Y275233D01*
X281354Y275289D01*
X281317Y275351D01*
X281277Y275385D01*
X281245Y275425D01*
X281184Y275464D01*
X281130Y275511D01*
X281082Y275530D01*
X281038Y275558D01*
X280968Y275576D01*
X280902Y275603D01*
X280830Y275611D01*
X280799Y275619D01*
X280776Y275617D01*
X280735Y275621D01*
X276257Y275621D01*
X273888Y277990D01*
X273830Y278031D01*
X273778Y278081D01*
X273731Y278103D01*
X273689Y278133D01*
X273620Y278154D01*
X273555Y278184D01*
X273503Y278190D01*
X273453Y278206D01*
X273382Y278204D01*
X273311Y278212D01*
X273260Y278200D01*
X273208Y278199D01*
X273140Y278175D01*
X273070Y278159D01*
X273025Y278133D01*
X272977Y278115D01*
X272921Y278070D01*
X272859Y278033D01*
X272825Y277994D01*
X272785Y277961D01*
X272746Y277901D01*
X272699Y277846D01*
X272680Y277798D01*
X272652Y277754D01*
X272634Y277685D01*
X272607Y277618D01*
X272599Y277547D01*
X272591Y277516D01*
X272593Y277492D01*
X272589Y277451D01*
X272589Y277397D01*
X272603Y277307D01*
X272611Y277216D01*
X272623Y277186D01*
X272628Y277154D01*
X272671Y277074D01*
X272707Y276990D01*
X272733Y276958D01*
X272744Y276937D01*
X272767Y276915D01*
X272812Y276859D01*
X277846Y271825D01*
X277904Y271783D01*
X277956Y271734D01*
X278003Y271712D01*
X278045Y271681D01*
X278114Y271660D01*
X278179Y271630D01*
X278231Y271624D01*
X278281Y271609D01*
X278352Y271611D01*
X278423Y271603D01*
X278474Y271614D01*
G37*
%LPC*%
G36*
X117601Y598931D02*
X117601Y598931D01*
X117601Y603199D01*
X118322Y603055D01*
X119247Y602672D01*
X120079Y602116D01*
X120786Y601409D01*
X121342Y600577D01*
X121725Y599652D01*
X121869Y598931D01*
X117601Y598931D01*
G37*
%LPD*%
%LPC*%
G36*
X117601Y572261D02*
X117601Y572261D01*
X117601Y576529D01*
X118322Y576385D01*
X119247Y576002D01*
X120079Y575446D01*
X120786Y574739D01*
X121342Y573907D01*
X121725Y572982D01*
X121869Y572261D01*
X117601Y572261D01*
G37*
%LPD*%
%LPC*%
G36*
X532891Y432561D02*
X532891Y432561D01*
X532891Y436829D01*
X533612Y436685D01*
X534537Y436302D01*
X535369Y435746D01*
X536076Y435039D01*
X536632Y434207D01*
X537015Y433282D01*
X537159Y432561D01*
X532891Y432561D01*
G37*
%LPD*%
%LPC*%
G36*
X111811Y598931D02*
X111811Y598931D01*
X111955Y599652D01*
X112338Y600577D01*
X112894Y601409D01*
X113601Y602116D01*
X114433Y602672D01*
X115358Y603055D01*
X116079Y603199D01*
X116079Y598931D01*
X111811Y598931D01*
G37*
%LPD*%
%LPC*%
G36*
X117601Y597409D02*
X117601Y597409D01*
X121869Y597409D01*
X121725Y596688D01*
X121342Y595763D01*
X120786Y594931D01*
X120079Y594224D01*
X119247Y593668D01*
X118322Y593285D01*
X117601Y593141D01*
X117601Y597409D01*
G37*
%LPD*%
%LPC*%
G36*
X527101Y459231D02*
X527101Y459231D01*
X527245Y459952D01*
X527628Y460877D01*
X528184Y461709D01*
X528891Y462416D01*
X529723Y462972D01*
X530648Y463355D01*
X531369Y463499D01*
X531369Y459231D01*
X527101Y459231D01*
G37*
%LPD*%
%LPC*%
G36*
X527101Y432561D02*
X527101Y432561D01*
X527245Y433282D01*
X527628Y434207D01*
X528184Y435039D01*
X528891Y435746D01*
X529723Y436302D01*
X530648Y436685D01*
X531369Y436829D01*
X531369Y432561D01*
X527101Y432561D01*
G37*
%LPD*%
%LPC*%
G36*
X532891Y431039D02*
X532891Y431039D01*
X537159Y431039D01*
X537015Y430318D01*
X536632Y429393D01*
X536076Y428561D01*
X535369Y427854D01*
X534537Y427298D01*
X533612Y426915D01*
X532891Y426771D01*
X532891Y431039D01*
G37*
%LPD*%
%LPC*%
G36*
X117601Y570739D02*
X117601Y570739D01*
X121869Y570739D01*
X121725Y570018D01*
X121342Y569093D01*
X121187Y568861D01*
X120786Y568261D01*
X120079Y567554D01*
X119247Y566998D01*
X118322Y566615D01*
X117601Y566471D01*
X117601Y570739D01*
G37*
%LPD*%
%LPC*%
G36*
X115358Y593285D02*
X115358Y593285D01*
X114433Y593668D01*
X113601Y594224D01*
X112894Y594931D01*
X112338Y595763D01*
X111955Y596688D01*
X111811Y597409D01*
X116079Y597409D01*
X116079Y593141D01*
X115358Y593285D01*
G37*
%LPD*%
%LPC*%
G36*
X530648Y453585D02*
X530648Y453585D01*
X529723Y453968D01*
X528891Y454524D01*
X528184Y455231D01*
X527628Y456063D01*
X527245Y456988D01*
X527101Y457709D01*
X531369Y457709D01*
X531369Y453441D01*
X530648Y453585D01*
G37*
%LPD*%
%LPC*%
G36*
X530648Y426915D02*
X530648Y426915D01*
X529723Y427298D01*
X528891Y427854D01*
X528184Y428561D01*
X527628Y429393D01*
X527245Y430318D01*
X527101Y431039D01*
X531369Y431039D01*
X531369Y426771D01*
X530648Y426915D01*
G37*
%LPD*%
D10*
X254000Y266700D03*
X254000Y277700D03*
X265000Y266700D03*
X265000Y277700D03*
X243000Y277700D03*
X243000Y255700D03*
X243000Y266700D03*
X254000Y255700D03*
X265000Y255700D03*
X116840Y571500D03*
X116840Y598170D03*
D11*
X82550Y587756D03*
X82550Y595884D03*
X82550Y570484D03*
X82550Y562356D03*
D10*
X532130Y458470D03*
X532130Y431800D03*
D11*
X566420Y442214D03*
X566420Y434086D03*
X566420Y459486D03*
X566420Y467614D03*
D12*
X38100Y584200D03*
X38100Y558800D03*
X38100Y533400D03*
X38100Y508000D03*
X38100Y482600D03*
X38100Y457200D03*
X38100Y431800D03*
X38100Y406400D03*
X38100Y381000D03*
X38100Y355600D03*
X38100Y330200D03*
X38100Y304800D03*
X38100Y279400D03*
X38100Y254000D03*
X38100Y228600D03*
X38100Y203200D03*
X38100Y177800D03*
X38100Y152400D03*
X609600Y457200D03*
X609600Y431800D03*
X609600Y406400D03*
X609600Y381000D03*
X609600Y177800D03*
X609600Y203200D03*
X609600Y228600D03*
X609600Y254000D03*
X609600Y279400D03*
X609600Y304800D03*
X609600Y330200D03*
X609600Y355600D03*
D13*
X279400Y977900D03*
X304800Y977900D03*
X330200Y977900D03*
X355600Y977900D03*
X381000Y977900D03*
X406400Y977900D03*
X431800Y977900D03*
X457200Y977900D03*
X482600Y977900D03*
X508000Y977900D03*
X533400Y977900D03*
X558800Y977900D03*
X279400Y774700D03*
X304800Y774700D03*
X330200Y774700D03*
X355600Y774700D03*
X381000Y774700D03*
X406400Y774700D03*
X431800Y774700D03*
X457200Y774700D03*
X482600Y774700D03*
X508000Y774700D03*
X533400Y774700D03*
X558800Y774700D03*
X254000Y774700D03*
X228600Y774700D03*
X203200Y774700D03*
X177800Y774700D03*
D14*
X32150Y40970D03*
X82150Y40970D03*
D15*
X22150Y13970D03*
X92150Y13970D03*
D16*
X63500Y797560D03*
X63500Y772160D03*
X88900Y772160D03*
X88900Y797560D03*
X38100Y797560D03*
X38100Y772160D03*
D11*
X378460Y621284D03*
X378460Y613156D03*
D17*
X589534Y304800D03*
X581406Y304800D03*
X59436Y381000D03*
X67564Y381000D03*
D18*
X596900Y38100D03*
D12*
X622300Y38100D03*
D18*
X533400Y38100D03*
D12*
X558800Y38100D03*
D18*
X369570Y36830D03*
D12*
X394970Y36830D03*
D10*
X304396Y375476D03*
D19*
X259080Y365760D03*
D20*
X135890Y604520D03*
D21*
X84326Y368300D02*
X59434Y343408D01*
X33050Y343408D02*
X19558Y356900D01*
X33050Y343408D02*
X59434Y343408D01*
X135890Y604520D02*
X128270Y612140D01*
X114300Y368300D02*
X84326Y368300D01*
X114300Y368300D02*
X127000Y381000D01*
D20*
X127000Y381000D03*
D22*
X259080Y378460D02*
X259080Y365760D01*
D19*
X288223Y459807D03*
D22*
X259080Y421773D02*
X259080Y378460D01*
X296478Y468062D02*
X347980Y519563D01*
X347980Y560070D01*
D19*
X347980Y560070D03*
D10*
X604520Y114300D03*
D19*
X636270Y182880D03*
D22*
X636270Y146050D01*
X604520Y114300D01*
X492389Y16280D02*
X344170Y16280D01*
D19*
X344170Y16280D03*
D22*
X492389Y16280D02*
X524623Y48514D01*
X594614Y104394D02*
X604520Y114300D01*
X594614Y104394D02*
X594614Y70181D01*
X572947Y48514D01*
X524623Y48514D01*
D19*
X344170Y31980D03*
D22*
X344170Y92710D01*
X367665Y116205D01*
D19*
X367665Y116205D03*
D22*
X259080Y421773D02*
X288223Y450917D01*
X288223Y459807D01*
D20*
X254000Y353060D03*
D21*
X353060Y353060D01*
X355600Y355600D01*
D20*
X355600Y355600D03*
X406400Y368300D03*
D21*
X417830Y379730D01*
X430530Y379730D01*
D20*
X430530Y379730D03*
D10*
X264160Y483870D03*
D22*
X280670Y483870D01*
X296478Y468062D01*
X288223Y459807D01*
D21*
X316738Y991362D02*
X84582Y991362D01*
X19558Y926338D01*
X316738Y991362D02*
X330200Y977900D01*
X19558Y612140D02*
X19558Y356900D01*
X19558Y612140D02*
X19558Y926338D01*
X19558Y612140D02*
X128270Y612140D01*
D23*
X301412Y378460D02*
X304396Y375476D01*
X301412Y378460D02*
X259080Y378460D01*
D10*
X283210Y270510D03*
X275590Y240030D03*
D23*
X283210Y270052D02*
X283210Y270510D01*
X283210Y270052D02*
X288274Y264988D01*
X288274Y252714D01*
X275590Y240030D01*
D21*
X254000Y129540D02*
X243840Y129540D01*
X140970Y129540D01*
D20*
X563880Y115570D03*
X261620Y193040D03*
D21*
X261620Y259080D02*
X254000Y266700D01*
X261620Y259080D02*
X261620Y227330D01*
X261620Y193040D01*
D22*
X82550Y570484D02*
X82550Y587756D01*
D19*
X71120Y586740D03*
D22*
X82550Y586740D01*
X82550Y587756D01*
D21*
X118110Y152400D02*
X140970Y129540D01*
X118110Y152400D02*
X38100Y152400D01*
X254000Y129540D02*
X302260Y129540D01*
X596900Y177800D02*
X609600Y177800D01*
D20*
X88900Y63500D03*
D24*
X116840Y63500D02*
X140970Y87630D01*
X116840Y63500D02*
X88900Y63500D01*
X140970Y87630D02*
X140970Y129540D01*
D20*
X254000Y129540D03*
D10*
X321310Y189230D03*
D25*
X317500Y185420D02*
X269240Y185420D01*
X261620Y193040D01*
X317500Y185420D02*
X321310Y189230D01*
D19*
X500380Y212090D03*
D26*
X500380Y252730D01*
X497840Y255270D01*
D19*
X497840Y255270D03*
D21*
X306705Y133985D02*
X302260Y129540D01*
X396240Y138430D02*
X396240Y156210D01*
X394970Y118110D02*
X394970Y36830D01*
X394970Y118110D02*
X394970Y137160D01*
X396240Y156210D02*
X376143Y156210D01*
X359911Y139978D01*
X312698Y139978D02*
X306705Y133985D01*
X312698Y139978D02*
X359911Y139978D01*
X394970Y137160D02*
X396240Y138430D01*
X396240Y156210D02*
X568960Y156210D01*
D10*
X280670Y452120D03*
D27*
X276860Y455930D01*
X276860Y471170D01*
D10*
X276860Y471170D03*
X306070Y491490D03*
D19*
X333707Y625396D03*
D27*
X336026Y599224D02*
X336026Y521446D01*
D10*
X354126Y601726D03*
D23*
X353856Y601996D01*
X349692Y601996D01*
X347980Y603708D01*
X347980Y618490D01*
D10*
X336026Y599224D03*
D21*
X596900Y207742D02*
X596900Y177800D01*
X596900Y207742D02*
X604550Y215392D01*
X613634Y215392D02*
X624840Y226598D01*
X613634Y215392D02*
X604550Y215392D01*
X624840Y226598D02*
X624840Y314960D01*
X624840Y384810D01*
D27*
X336026Y521446D02*
X306070Y491490D01*
D10*
X580390Y458470D03*
D23*
X567436Y458470D01*
X566420Y459486D01*
D10*
X544830Y314960D03*
D22*
X605032Y314960D01*
X605286Y315214D01*
X613914Y315214D01*
X614168Y314960D01*
X624840Y314960D01*
D10*
X298450Y141732D03*
D22*
X306197Y133985D01*
X306705Y133985D01*
D21*
X597408Y401350D02*
X597408Y457200D01*
D10*
X596900Y749611D03*
D19*
X307340Y226060D03*
D21*
X597408Y457200D02*
X597408Y650850D01*
D27*
X307340Y226060D02*
X262890Y226060D01*
X261620Y227330D01*
D19*
X401598Y118879D03*
D27*
X395739Y118879D01*
X394970Y118110D01*
D21*
X460248Y756412D02*
X272288Y756412D01*
X254000Y774700D01*
X538886Y690118D02*
X552348Y703580D01*
X538886Y690118D02*
X526542Y690118D01*
X460248Y756412D01*
X605688Y703580D02*
X612140Y697128D01*
X596900Y703580D02*
X552348Y703580D01*
X596900Y703580D02*
X605688Y703580D01*
X612140Y665582D02*
X597408Y650850D01*
X612140Y665582D02*
X612140Y697128D01*
D22*
X596900Y703580D02*
X596900Y749611D01*
D10*
X135890Y779526D03*
X57150Y819150D03*
D22*
X96980Y779526D02*
X135890Y779526D01*
X74422Y802084D02*
X68024Y808482D01*
X67818Y808482D01*
X57150Y819150D01*
X89868Y786638D02*
X96980Y779526D01*
X89868Y786638D02*
X84376Y786638D01*
X74422Y796592D01*
X74422Y802084D01*
D19*
X195580Y746760D03*
D27*
X168590Y746760D01*
X160208Y738378D01*
X71882Y738378D01*
X38100Y772160D01*
D23*
X566420Y459486D02*
X566420Y442214D01*
X566420Y459486D02*
X557276Y459486D01*
X551180Y453390D01*
D19*
X580390Y443230D03*
D22*
X579374Y442214D01*
X566420Y442214D01*
D19*
X71120Y571500D03*
D22*
X72136Y570484D01*
X82550Y570484D01*
D27*
X332437Y624126D02*
X333707Y625396D01*
X332437Y624126D02*
X332437Y602813D01*
X336026Y599224D01*
D23*
X333707Y625396D02*
X341074Y625396D01*
X347980Y618490D01*
D21*
X261620Y193040D02*
X256540Y193040D01*
X243840Y180340D01*
X243840Y129540D01*
X597408Y401350D02*
X604550Y394208D01*
X615442Y394208D01*
X624840Y384810D01*
X609600Y457200D02*
X597408Y457200D01*
X595630Y457200D02*
X580390Y457200D01*
X68580Y584200D02*
X54610Y584200D01*
X68580Y584200D02*
X71120Y586740D01*
D20*
X28630Y543226D03*
D21*
X32012Y546608D01*
X43150Y546608D01*
X54610Y558068D01*
X54610Y584200D01*
X38100Y584200D01*
D10*
X289560Y393700D03*
X289560Y383540D03*
X289560Y373380D03*
D21*
X596900Y177800D02*
X596900Y158750D01*
X596900Y148590D01*
X563880Y115570D01*
X568960Y156210D02*
X571500Y158750D01*
X596900Y158750D01*
D10*
X279400Y283210D03*
X311150Y518160D03*
D23*
X311134Y518144D01*
X279400Y283437D02*
X279400Y283210D01*
X252746Y510460D02*
X260430Y518144D01*
X311134Y518144D01*
X246396Y316441D02*
X279400Y283437D01*
X246396Y442997D02*
X252746Y449347D01*
X246396Y442997D02*
X246396Y316441D01*
X252746Y449347D02*
X252746Y510460D01*
D10*
X278130Y370840D03*
X251460Y370840D03*
D23*
X251460Y364490D02*
X255484Y360466D01*
X251460Y364490D02*
X251460Y370840D01*
X267756Y360466D02*
X278130Y370840D01*
X267756Y360466D02*
X255484Y360466D01*
X256540Y509270D02*
X260350Y513080D01*
D10*
X306070Y513080D03*
D23*
X260350Y513080D01*
X251460Y443077D02*
X251460Y370840D01*
X251460Y443077D02*
X256540Y448157D01*
X256540Y509270D01*
D19*
X330200Y403860D03*
D20*
X135890Y577850D03*
D10*
X166370Y591820D03*
D25*
X157226Y582676D01*
X146591Y582676D01*
X141765Y577850D01*
X135890Y577850D01*
D10*
X173990Y604520D03*
D25*
X173990Y599440D01*
X166370Y591820D01*
D21*
X135890Y567690D02*
X120650Y552450D01*
D20*
X150224Y441960D03*
D21*
X148192Y443992D02*
X114300Y443992D01*
X135890Y567690D02*
X135890Y577850D01*
D23*
X120650Y552450D02*
X125730Y547370D01*
D19*
X125730Y547370D03*
X368300Y571500D03*
D22*
X352044Y517880D02*
X315746Y481582D01*
X352044Y555244D02*
X358140Y561340D01*
X368300Y571500D01*
X352044Y555244D02*
X352044Y517880D01*
D10*
X342900Y580390D03*
D23*
X353044Y566436D02*
X358140Y561340D01*
X353044Y566436D02*
X345882Y566436D01*
X342900Y569418D01*
X342900Y580390D01*
D10*
X339074Y614680D03*
D19*
X170180Y393700D03*
D10*
X124460Y279400D03*
D22*
X124460Y289637D02*
X121666Y292431D01*
X124460Y289637D02*
X124460Y279400D01*
X121666Y345186D02*
X170180Y393700D01*
X121666Y345186D02*
X121666Y292431D01*
D21*
X150224Y441960D02*
X148192Y443992D01*
D10*
X118110Y458470D03*
D20*
X271780Y420370D03*
D21*
X321310Y420370D02*
X322580Y420370D01*
X321310Y420370D02*
X271780Y420370D01*
D20*
X355600Y454660D03*
D21*
X341630Y440690D02*
X321310Y420370D01*
X341630Y440690D02*
X355600Y454660D01*
D10*
X459740Y430530D03*
X492719Y434800D03*
D25*
X454914Y423639D02*
X454914Y415831D01*
X457741Y413004D01*
X459740Y428465D02*
X459740Y430530D01*
X459740Y428465D02*
X454914Y423639D01*
D10*
X508000Y325120D03*
D22*
X510540Y346787D02*
X510540Y373380D01*
X510540Y346787D02*
X508000Y344247D01*
D10*
X510540Y373380D03*
D22*
X508000Y344247D02*
X508000Y325120D01*
X510540Y416979D02*
X492719Y434800D01*
X510540Y416979D02*
X510540Y373380D01*
D21*
X114300Y443992D02*
X107696Y450596D01*
X87630Y470662D01*
X76478Y494799D02*
X76478Y522471D01*
X87630Y483647D02*
X87630Y470662D01*
X87630Y483647D02*
X76478Y494799D01*
X76478Y522471D02*
X82550Y528543D01*
X96743Y528543D01*
X120650Y552450D01*
D27*
X135890Y577850D02*
X135890Y593846D01*
X143438Y601394D01*
X143438Y607837D01*
D19*
X165100Y904240D03*
X66040Y899160D03*
D10*
X82512Y868642D03*
D22*
X82550Y868680D01*
X322580Y420370D02*
X330200Y412750D01*
X330200Y403860D01*
D27*
X143438Y607837D02*
X26924Y724351D01*
X49784Y835914D02*
X82512Y868642D01*
X49784Y835914D02*
X49784Y793439D01*
X26924Y778764D02*
X26924Y724351D01*
X34544Y786384D02*
X42729Y786384D01*
X49784Y793439D01*
X34544Y786384D02*
X26924Y778764D01*
D22*
X341381Y440690D02*
X341630Y440690D01*
X341381Y440690D02*
X315746Y466325D01*
D27*
X82550Y899160D02*
X66040Y899160D01*
X160020Y899160D02*
X165100Y904240D01*
X160020Y899160D02*
X82550Y899160D01*
D22*
X82550Y868680D01*
D23*
X339074Y614680D02*
X342900Y610854D01*
X342900Y580390D01*
D22*
X118110Y458470D02*
X110236Y450596D01*
X107696Y450596D01*
X315746Y466325D02*
X315746Y481582D01*
D25*
X457741Y413004D02*
X461739Y413004D01*
X483535Y434800D02*
X492719Y434800D01*
X483535Y434800D02*
X461739Y413004D01*
D19*
X253837Y166207D03*
D27*
X272725Y147320D01*
X356870Y147320D01*
D19*
X356870Y147320D03*
D20*
X77470Y184150D03*
D21*
X49500Y165608D02*
X25430Y165608D01*
X68042Y184150D02*
X77470Y184150D01*
X68042Y184150D02*
X49500Y165608D01*
X25430Y165608D02*
X11430Y179608D01*
X11430Y938530D02*
X50800Y977900D01*
D20*
X50800Y977900D03*
D21*
X11430Y938530D02*
X11430Y179608D01*
D19*
X449580Y105410D03*
D22*
X444500Y105410D01*
X419404Y130506D01*
D19*
X419404Y130506D03*
X574040Y149860D03*
X182802Y121920D03*
X175260Y138430D03*
D23*
X148590Y165100D01*
X134620Y289371D02*
X198302Y353053D01*
X198302Y476928D02*
X200412Y479038D01*
D19*
X200412Y479038D03*
D23*
X198302Y476928D02*
X198302Y353053D01*
D22*
X244133Y26416D02*
X402336Y26416D01*
X408940Y33020D01*
X408940Y138430D01*
X416560Y146050D01*
X570230Y146050D02*
X574040Y149860D01*
X570230Y146050D02*
X416560Y146050D01*
D23*
X134620Y208465D02*
X134620Y289371D01*
X134620Y208465D02*
X148590Y194495D01*
X148590Y165100D01*
D22*
X240030Y30519D02*
X244133Y26416D01*
X240030Y30519D02*
X240030Y63500D01*
X182802Y120728D01*
X182802Y121920D01*
D19*
X246670Y33017D03*
D22*
X246670Y63497D01*
X190500Y119667D01*
X190500Y122198D01*
D19*
X190500Y122198D03*
X184150Y138430D03*
D23*
X152400Y170180D01*
X138430Y288197D02*
X201826Y351593D01*
X201826Y470461D02*
X203596Y472231D01*
D19*
X203596Y472231D03*
D23*
X201826Y470461D02*
X201826Y351593D01*
X138430Y288197D02*
X138430Y209638D01*
X152400Y195668D01*
X152400Y170180D01*
D19*
X253734Y33020D03*
D22*
X197564Y119202D02*
X197564Y122198D01*
D19*
X197564Y122198D03*
D22*
X253734Y63032D02*
X253734Y33020D01*
X253734Y63032D02*
X197564Y119202D01*
D19*
X193040Y138430D03*
X207120Y466090D03*
D23*
X156210Y175260D02*
X193040Y138430D01*
X142240Y287023D02*
X205350Y350133D01*
X205350Y464320D02*
X207120Y466090D01*
X205350Y464320D02*
X205350Y350133D01*
X142240Y210812D02*
X156210Y196842D01*
X156210Y175260D01*
X142240Y210812D02*
X142240Y287023D01*
D19*
X260798Y33020D03*
D22*
X204628Y117935D02*
X204628Y122198D01*
D19*
X204628Y122198D03*
D22*
X260798Y61765D02*
X260798Y33020D01*
X260798Y61765D02*
X204628Y117935D01*
D19*
X201419Y137919D03*
X210644Y459624D03*
D23*
X160779Y178559D02*
X201419Y137919D01*
X146809Y286609D02*
X208874Y348673D01*
X208874Y457854D02*
X210644Y459624D01*
X208874Y457854D02*
X208874Y348673D01*
X146809Y211226D02*
X160779Y197256D01*
X160779Y178559D01*
X146809Y211226D02*
X146809Y286609D01*
D10*
X262890Y184150D03*
D23*
X266501Y180539D01*
X312420Y180539D01*
D10*
X312420Y180539D03*
D20*
X260747Y175544D03*
D21*
X269637Y166654D02*
X388620Y166654D01*
X416560Y166654D01*
X554232Y166654D01*
D20*
X554990Y165896D03*
D21*
X269637Y166654D02*
X260747Y175544D01*
D26*
X416560Y166654D02*
X416560Y185420D01*
D10*
X416560Y185420D03*
D21*
X554232Y166654D02*
X554990Y165896D01*
D19*
X388620Y166654D03*
D10*
X327263Y180539D03*
X342860Y204510D03*
D23*
X351372Y204510D01*
X384524Y237662D01*
X384524Y594360D02*
X394970Y604806D01*
X394970Y628650D01*
X387810Y635810D01*
X360678Y635810D01*
D10*
X358138Y633270D03*
D23*
X360678Y635810D01*
X384524Y594360D02*
X384524Y237662D01*
D25*
X329438Y182714D02*
X327263Y180539D01*
X329438Y191088D02*
X342860Y204510D01*
X329438Y191088D02*
X329438Y182714D01*
D10*
X320040Y180539D03*
X347570Y210410D03*
D23*
X381000Y243840D01*
D10*
X350264Y633730D03*
D25*
X326390Y186889D02*
X320040Y180539D01*
X347570Y210410D02*
X347374Y210606D01*
X342131Y210606D01*
X326390Y194865D02*
X326390Y186889D01*
X326390Y194865D02*
X342131Y210606D01*
D23*
X381000Y595820D02*
X391065Y605885D01*
X391065Y626853D02*
X385633Y632286D01*
X391065Y626853D02*
X391065Y605885D01*
X364316Y632286D02*
X360236Y628206D01*
X355788Y628206D01*
X364316Y632286D02*
X385633Y632286D01*
X355788Y628206D02*
X350264Y633730D01*
X381000Y595820D02*
X381000Y243840D01*
D19*
X406400Y241300D03*
X400050Y176530D03*
X419100Y139700D03*
X158750Y120650D03*
D27*
X404125Y22098D02*
X413258Y31231D01*
X404125Y22098D02*
X242344Y22098D01*
X413258Y133858D02*
X419100Y139700D01*
X413258Y133858D02*
X413258Y31231D01*
X165784Y113616D02*
X158750Y120650D01*
D19*
X157480Y138430D03*
D27*
X139168Y156742D01*
D10*
X298450Y175260D03*
X347980Y174004D03*
D23*
X320672Y175260D02*
X298450Y175260D01*
X320672Y175260D02*
X321942Y173990D01*
X347966Y173990D01*
X397510Y173990D02*
X400050Y176530D01*
X397510Y173990D02*
X347994Y173990D01*
X347980Y174004D01*
X347966Y173990D01*
D19*
X397510Y546100D03*
X308610Y554990D03*
D27*
X283424Y554990D01*
X281940Y553506D01*
D19*
X281940Y553506D03*
D27*
X308610Y554990D02*
X327660Y574040D01*
X327660Y629920D01*
D19*
X330200Y632460D03*
D10*
X286843Y680974D03*
D27*
X324221Y718352D01*
X334866Y718352D01*
D10*
X334866Y718352D03*
X400050Y674370D03*
D27*
X396628Y674370D02*
X352646Y718352D01*
X334866Y718352D01*
X396628Y674370D02*
X400050Y674370D01*
X330200Y632460D02*
X327660Y629920D01*
X397510Y546100D02*
X397510Y256540D01*
X406400Y182880D02*
X400050Y176530D01*
X406400Y182880D02*
X406400Y241300D01*
X406400Y247650D02*
X397510Y256540D01*
X406400Y247650D02*
X406400Y241300D01*
X397510Y546100D02*
X397510Y586186D01*
X393954Y589742D01*
X393954Y598065D01*
X413456Y617567D02*
X413456Y668584D01*
X413456Y617567D02*
X393954Y598065D01*
D19*
X208280Y754380D03*
D27*
X173003Y754380D01*
X167415Y759968D01*
X145920Y753642D02*
X107418Y753642D01*
X152246Y759968D02*
X167415Y759968D01*
X152246Y759968D02*
X145920Y753642D01*
X107418Y753642D02*
X88900Y772160D01*
X208280Y754380D02*
X208280Y748030D01*
X152400Y692150D02*
X86360Y692150D01*
D19*
X86360Y692150D03*
D27*
X152400Y692150D02*
X208280Y748030D01*
X139168Y192660D02*
X139168Y156742D01*
X139168Y192660D02*
X109578Y222250D01*
X109578Y224790D01*
D19*
X109578Y224790D03*
D27*
X233680Y30762D02*
X242344Y22098D01*
X233680Y30762D02*
X233680Y63743D01*
X183807Y113616D02*
X165784Y113616D01*
X183807Y113616D02*
X233680Y63743D01*
X400050Y674370D02*
X407670Y674370D01*
X413456Y668584D01*
D10*
X143510Y586740D03*
D25*
X152400Y586740D02*
X156690Y591030D01*
X152400Y586740D02*
X143510Y586740D01*
X156690Y591030D02*
X156690Y594360D01*
D10*
X156690Y594360D03*
D23*
X217384Y734274D02*
X348903Y734274D01*
X217384Y734274D02*
X156690Y673580D01*
X156690Y594360D01*
D10*
X398018Y682981D03*
D23*
X398018Y685159D01*
X348903Y734274D01*
D10*
X148590Y574040D03*
X166370Y576580D03*
D25*
X151130Y576580D01*
X148590Y574040D01*
D19*
X154940Y548640D03*
D23*
X148590Y554990D01*
X148590Y574040D01*
D10*
X107950Y558800D03*
D23*
X107950Y585470D01*
D10*
X107950Y585470D03*
D19*
X146050Y548640D03*
X170966Y476608D03*
D23*
X161900Y532790D02*
X146050Y548640D01*
X161900Y532790D02*
X161900Y521544D01*
X170966Y512478D02*
X170966Y476608D01*
X170966Y512478D02*
X161900Y521544D01*
D19*
X71120Y598170D03*
D22*
X73406Y595884D02*
X82550Y595884D01*
X73406Y595884D02*
X71120Y598170D01*
D19*
X71120Y560070D03*
D22*
X73406Y562356D02*
X82550Y562356D01*
X73406Y562356D02*
X71120Y560070D01*
D19*
X64882Y546212D03*
D22*
X64882Y485028D01*
X78740Y471170D01*
D19*
X78740Y471170D03*
D10*
X80010Y269240D03*
D22*
X80010Y219710D01*
X38100Y177800D01*
D10*
X458376Y447040D03*
D25*
X471076Y447040D02*
X476156Y452120D01*
X471076Y447040D02*
X458376Y447040D01*
X476156Y452120D02*
X487680Y452120D01*
D10*
X487680Y452120D03*
D23*
X458376Y447040D02*
X458376Y465996D01*
X473710Y481330D01*
X505460Y481330D01*
D10*
X505460Y481330D03*
X472440Y459740D03*
D25*
X501650Y459740D01*
X513080Y471170D01*
D10*
X513080Y471170D03*
X580390Y431800D03*
D23*
X578104Y434086D01*
X566420Y434086D01*
D10*
X580390Y469900D03*
D23*
X578104Y467614D01*
X566420Y467614D01*
D19*
X222250Y556260D03*
D23*
X220980Y318770D02*
X215900Y313690D01*
X215900Y308610D01*
D19*
X215900Y308610D03*
D23*
X224790Y553720D02*
X222250Y556260D01*
D10*
X408940Y533400D03*
D23*
X408940Y427667D01*
X483563Y353044D02*
X499915Y353044D01*
D10*
X499915Y353044D03*
D23*
X483563Y353044D02*
X408940Y427667D01*
D10*
X535940Y697230D03*
D23*
X553110Y714400D01*
X553110Y731520D01*
D10*
X553110Y731520D03*
D22*
X553110Y752486D01*
X570484Y769860D01*
X570484Y982740D01*
X563640Y989584D02*
X545084Y989584D01*
X563640Y989584D02*
X570484Y982740D01*
X545084Y989584D02*
X533400Y977900D01*
D23*
X224790Y553720D02*
X224790Y454571D01*
X220980Y450761D01*
X220980Y318770D01*
D19*
X321310Y468630D03*
D23*
X360680Y462280D02*
X363220Y459740D01*
X363220Y251460D01*
D19*
X363220Y251460D03*
D10*
X355266Y571500D03*
D23*
X359757Y576794D02*
X370493Y576794D01*
X373594Y573693D01*
X359757Y576794D02*
X355266Y572303D01*
X355266Y571500D01*
X373594Y573693D02*
X373594Y534064D01*
X321310Y481780D02*
X321310Y468630D01*
X321310Y481780D02*
X373594Y534064D01*
X360680Y462280D02*
X327660Y462280D01*
X321310Y468630D01*
D19*
X330200Y468630D03*
D23*
X360680Y468630D02*
X370840Y458470D01*
X370840Y251460D01*
D19*
X370840Y251460D03*
D10*
X347980Y571500D03*
D23*
X371953Y580318D02*
X377118Y575153D01*
X377118Y532604D01*
X371953Y580318D02*
X356922Y580318D01*
X348104Y571500D02*
X347980Y571500D01*
X348104Y571500D02*
X356922Y580318D01*
X330200Y485686D02*
X330200Y468630D01*
X330200Y485686D02*
X377118Y532604D01*
X360680Y468630D02*
X330200Y468630D01*
D10*
X313690Y742862D03*
X603250Y695960D03*
D23*
X314060Y742862D02*
X313690Y742862D01*
X314060Y742862D02*
X314424Y743225D01*
X441685Y743225D01*
X500364Y684546D01*
X591836Y684546D01*
X603250Y695960D01*
D10*
X367394Y622300D03*
D23*
X368410Y621284D01*
X378460Y621284D01*
X363155Y621158D02*
X350691Y621158D01*
X364298Y622300D02*
X367394Y622300D01*
X364298Y622300D02*
X363155Y621158D01*
X350691Y621158D02*
X334007Y637842D01*
X324341Y637842D01*
X286836Y600337D02*
X286836Y560578D01*
D10*
X286836Y560578D03*
D23*
X286836Y600337D02*
X324341Y637842D01*
D10*
X535940Y704850D03*
D23*
X546506Y715416D01*
X546506Y731926D01*
D10*
X546506Y731926D03*
D22*
X558800Y825500D02*
X558800Y977900D01*
X558800Y825500D02*
X546100Y812800D01*
X546100Y732332D01*
X546506Y731926D01*
D19*
X35560Y85090D03*
D27*
X38100Y82550D01*
X85090Y82550D01*
D19*
X85090Y82550D03*
X278130Y725328D03*
X130326Y306070D03*
D22*
X130072Y306324D02*
X130072Y318948D01*
X130072Y306324D02*
X130326Y306070D01*
X130072Y318948D02*
X176530Y365406D01*
X176530Y516636D01*
X182880Y522986D01*
X182880Y691843D01*
D10*
X165100Y754380D03*
D22*
X153339Y742696D02*
X92964Y742696D01*
X165023Y754380D02*
X165100Y754380D01*
X165023Y754380D02*
X153339Y742696D01*
X92964Y742696D02*
X63500Y772160D01*
X216223Y725186D02*
X278130Y725186D01*
X278130Y725328D01*
X216223Y725186D02*
X182880Y691843D01*
D19*
X278130Y709930D03*
X142240Y317500D03*
D22*
X215900Y709930D02*
X278130Y709930D01*
X215900Y709930D02*
X192254Y686284D01*
X187174Y362434D02*
X142240Y317500D01*
X187174Y362434D02*
X187174Y514096D01*
X192254Y519176D01*
X192254Y686284D01*
D10*
X135890Y748030D03*
D22*
X77978Y783082D02*
X63500Y797560D01*
X77978Y783082D02*
X77978Y767636D01*
X97584Y748030D01*
X135890Y748030D01*
X427990Y803910D02*
X457200Y774700D01*
X427990Y803910D02*
X158790Y803910D01*
X137200Y825500D01*
X130850Y825500D01*
D19*
X130850Y825500D03*
D22*
X407670Y798830D02*
X431800Y774700D01*
X407670Y798830D02*
X154820Y798830D01*
X140850Y812800D01*
D19*
X140850Y812800D03*
X262131Y642109D03*
X210820Y138430D03*
D23*
X210820Y141605D01*
X232984Y163769D01*
X232984Y612962D02*
X262131Y642109D01*
X279659Y659638D01*
D10*
X407868Y662178D03*
D23*
X395528Y659638D02*
X279659Y659638D01*
X398068Y662178D02*
X407868Y662178D01*
X398068Y662178D02*
X395528Y659638D01*
X232984Y291728D02*
X232984Y163769D01*
X232984Y291728D02*
X228191Y296521D01*
X228191Y447659D02*
X232984Y452451D01*
X228191Y447659D02*
X228191Y296521D01*
X232984Y452451D02*
X232984Y612962D01*
D19*
X269240Y641350D03*
X220980Y137160D03*
D23*
X237619Y609729D02*
X269240Y641350D01*
X237619Y161419D02*
X220980Y144780D01*
X220980Y137160D01*
D10*
X407868Y655574D03*
D23*
X384364Y655574D02*
X383936Y656002D01*
X283892Y656002D02*
X269240Y641350D01*
X283892Y656002D02*
X383936Y656002D01*
X384364Y655574D02*
X407868Y655574D01*
X237619Y292243D02*
X237619Y161419D01*
X231715Y445075D02*
X237619Y450979D01*
X231715Y298147D02*
X237619Y292243D01*
X237619Y450979D02*
X237619Y609729D01*
X231715Y445075D02*
X231715Y298147D01*
D19*
X133350Y163830D03*
D22*
X124460Y172720D01*
X124460Y198120D01*
D19*
X124460Y198120D03*
X121920Y163830D03*
D22*
X116840Y186690D02*
X105410Y198120D01*
X93980Y198120D01*
D19*
X93980Y198120D03*
D22*
X116840Y186690D02*
X116840Y168910D01*
X121920Y163830D01*
D19*
X363220Y642620D03*
D22*
X321310Y645160D02*
X283210Y607060D01*
X252730Y607060D01*
X248161Y602491D02*
X244599Y602491D01*
D19*
X244599Y602491D03*
X219638Y601206D03*
D22*
X219638Y599085D01*
X213162Y552496D02*
X217472Y548186D01*
X213162Y592609D02*
X219638Y599085D01*
X213162Y592609D02*
X213162Y552496D01*
D19*
X215900Y292100D03*
D22*
X206812Y319994D02*
X213662Y326844D01*
X206812Y319994D02*
X206812Y301188D01*
X215900Y292100D01*
X248161Y602491D02*
X252730Y607060D01*
X321310Y645160D02*
X360680Y645160D01*
X363220Y642620D01*
X217472Y458583D02*
X213662Y454773D01*
X217472Y458583D02*
X217472Y548186D01*
X213662Y454773D02*
X213662Y326844D01*
D19*
X54610Y130810D03*
D22*
X92710Y92710D01*
D19*
X92710Y92710D03*
X110490Y128270D03*
X56214Y88900D03*
D23*
X90517Y87416D02*
X94903Y87416D01*
X98004Y90517D01*
X90517Y87416D02*
X89033Y88900D01*
X98004Y115784D02*
X110490Y128270D01*
X98004Y115784D02*
X98004Y90517D01*
X89033Y88900D02*
X56214Y88900D01*
D10*
X353060Y608330D03*
D19*
X254000Y596900D03*
X222782Y594360D03*
D23*
X216956Y588933D02*
X216956Y554067D01*
X221266Y549757D01*
X222383Y594360D02*
X222782Y594360D01*
X222383Y594360D02*
X216956Y588933D01*
D19*
X215900Y300990D03*
D23*
X210606Y315883D02*
X217456Y322733D01*
X260366Y603266D02*
X284782Y603266D01*
X322882Y641366D02*
X335466Y641366D01*
X322882Y641366D02*
X284782Y603266D01*
X335466Y641366D02*
X352151Y624682D01*
X260366Y603266D02*
X254000Y596900D01*
X361695Y624682D02*
X365775Y628762D01*
X361695Y624682D02*
X352151Y624682D01*
X384173Y628762D02*
X387541Y625394D01*
X387541Y614871D02*
X386080Y613410D01*
X378714Y613410D01*
X378460Y613156D01*
X384173Y628762D02*
X365775Y628762D01*
X387541Y625394D02*
X387541Y614871D01*
X358140Y613410D02*
X353060Y608330D01*
X358140Y613410D02*
X378714Y613410D01*
X378460Y613156D02*
X378460Y603250D01*
X377190Y601980D01*
D10*
X377190Y601980D03*
X399542Y592056D03*
D23*
X483643Y347980D02*
X504190Y347980D01*
D10*
X504190Y347980D03*
D23*
X483643Y347980D02*
X402590Y429033D01*
X402590Y543693D02*
X402804Y543907D01*
X402804Y588794D01*
X399542Y592056D01*
X402590Y543693D02*
X402590Y429033D01*
X210606Y315883D02*
X210606Y306284D01*
X215900Y300990D01*
X221266Y457012D02*
X221266Y549757D01*
X221266Y457012D02*
X217456Y453202D01*
X217456Y322733D01*
D19*
X278130Y716994D03*
X135890Y311150D03*
D22*
X136676Y311936D02*
X136676Y319805D01*
X136676Y311936D02*
X135890Y311150D01*
X136676Y319805D02*
X181840Y364969D01*
X188190Y522224D02*
X188190Y688819D01*
X188190Y522224D02*
X181840Y515874D01*
X181840Y364969D01*
D19*
X143510Y759460D03*
D22*
X153670Y769620D02*
X153670Y793750D01*
X153670Y769620D02*
X143510Y759460D01*
X153670Y793750D02*
X92710Y793750D01*
X88900Y797560D01*
X216365Y716994D02*
X278130Y716994D01*
X216365Y716994D02*
X188190Y688819D01*
X343916Y769860D02*
X343916Y780034D01*
X330200Y793750D02*
X153670Y793750D01*
X330200Y793750D02*
X343916Y780034D01*
X343916Y769860D02*
X351522Y762254D01*
X470154Y762254D02*
X482600Y774700D01*
X470154Y762254D02*
X351522Y762254D01*
D19*
X284480Y690880D03*
X205740Y153670D03*
D23*
X228477Y176407D01*
D22*
X82550Y958850D02*
X438150Y958850D01*
X457200Y977900D01*
X82550Y958850D02*
X38100Y914400D01*
X38100Y797560D01*
D23*
X219587Y693297D02*
X219587Y628319D01*
X271780Y690880D02*
X284480Y690880D01*
X271780Y690880D02*
X266200Y696460D01*
X222750Y696460D01*
X219587Y693297D01*
X219587Y628319D02*
X228477Y619429D01*
X228477Y291227D02*
X228477Y176407D01*
X224667Y449118D02*
X228477Y452928D01*
X228477Y619429D01*
X224667Y295037D02*
X228477Y291227D01*
X224667Y295037D02*
X224667Y449118D01*
D10*
X149860Y679450D03*
D22*
X209550Y739140D01*
D10*
X368300Y749300D03*
D22*
X302260Y749300D01*
X292100Y739140D01*
X209550Y739140D01*
D19*
X252730Y747712D03*
D23*
X234950Y747712D01*
X216154Y766508D01*
X216154Y782315D02*
X212344Y786125D01*
X216154Y782315D02*
X216154Y766508D01*
D19*
X212344Y786125D03*
X83820Y435586D03*
D26*
X38100Y365195D02*
X38100Y355600D01*
X38100Y365195D02*
X26924Y376371D01*
X26924Y411029D02*
X33471Y417576D01*
X45466Y417576D01*
X26924Y411029D02*
X26924Y376371D01*
X63476Y435586D02*
X83820Y435586D01*
X63476Y435586D02*
X45466Y417576D01*
D10*
X276860Y641350D03*
D23*
X392628Y641604D02*
X407868Y641604D01*
X392628Y641604D02*
X381754Y652478D01*
X287988Y652478D01*
X276860Y641350D01*
D10*
X407868Y641604D03*
X429228Y613876D03*
D23*
X429228Y433102D01*
X482600Y379730D01*
D10*
X482600Y379730D03*
X284480Y641350D03*
X407868Y635000D03*
D23*
X291798Y648954D02*
X284480Y641636D01*
X284480Y641350D01*
D10*
X424164Y609600D03*
D23*
X424164Y430482D01*
X486410Y368236D01*
D10*
X486410Y368236D03*
D23*
X407868Y635000D02*
X393604Y635000D01*
X379650Y648954D02*
X291798Y648954D01*
X379650Y648954D02*
X393604Y635000D01*
D19*
X438364Y530662D03*
X374650Y736600D03*
D23*
X438364Y534088D02*
X438364Y530662D01*
X438364Y534088D02*
X443198Y538922D01*
X443198Y668052D01*
X374650Y736600D01*
D19*
X270510Y899160D03*
D27*
X285750Y899160D01*
X312420Y872490D01*
D19*
X312420Y872490D03*
X304370Y909320D03*
X330200Y889000D03*
D22*
X309880Y909320D01*
X304370Y909320D01*
D21*
X632460Y223442D02*
X616790Y207772D01*
X614172Y207772D01*
X609600Y203200D01*
X632460Y408940D02*
X609600Y431800D01*
X632460Y408940D02*
X632460Y223442D01*
D19*
X83820Y515620D03*
D23*
X123976Y515620D01*
X170966Y468630D01*
D19*
X170966Y468630D03*
D10*
X105410Y335280D03*
D23*
X171664Y467932D02*
X170966Y468630D01*
X171664Y406481D02*
X105410Y340227D01*
X105410Y335280D01*
X171664Y406481D02*
X171664Y467932D01*
D10*
X357161Y738161D03*
D23*
X422910Y672412D01*
X419100Y427990D02*
X483918Y363172D01*
X491025Y363172D01*
D10*
X491025Y363172D03*
D23*
X419100Y611712D02*
X422910Y615522D01*
X422910Y672412D01*
X419100Y611712D02*
X419100Y427990D01*
D10*
X307340Y238760D03*
X316230Y523240D03*
D23*
X316214Y523224D01*
X260527Y523224D02*
X249222Y511920D01*
X260527Y523224D02*
X316214Y523224D01*
X307340Y267158D02*
X307340Y238760D01*
X296352Y278146D02*
X277302Y278146D01*
X242872Y312576D01*
X296352Y278146D02*
X307340Y267158D01*
X242872Y444457D02*
X249222Y450807D01*
X242872Y444457D02*
X242872Y312576D01*
X249222Y450807D02*
X249222Y511920D01*
D19*
X636270Y109220D03*
D22*
X603250Y76200D01*
X603250Y71120D01*
D19*
X603250Y71120D03*
X384810Y99060D03*
D22*
X384810Y144780D01*
X388898Y148868D01*
D19*
X388898Y148868D03*
D10*
X589280Y81280D03*
X589280Y127000D03*
D27*
X589280Y81280D01*
D19*
X166370Y449580D03*
D26*
X59436Y381000D02*
X38100Y381000D01*
D27*
X59690Y388620D02*
X62230Y391160D01*
X59690Y388620D02*
X59690Y381254D01*
X59436Y381000D01*
X62230Y391160D02*
X147320Y391160D01*
X166370Y410210D02*
X166370Y449580D01*
X166370Y410210D02*
X147320Y391160D01*
D19*
X160020Y457200D03*
D27*
X155819Y406400D02*
X38100Y406400D01*
X160020Y410602D02*
X160020Y457200D01*
X160020Y410602D02*
X155819Y406400D01*
D22*
X589534Y304800D02*
X609600Y304800D01*
D19*
X77470Y381000D03*
D27*
X67564Y381000D01*
D22*
X571500Y304800D02*
X581406Y304800D01*
D19*
X571500Y304800D03*
X167640Y138430D03*
D23*
X144780Y161290D01*
X130810Y290544D02*
X194778Y354512D01*
X194778Y483394D02*
X196548Y485164D01*
D19*
X196548Y485164D03*
D23*
X194778Y483394D02*
X194778Y354512D01*
X130810Y206743D02*
X144780Y192773D01*
X144780Y161290D01*
X130810Y206743D02*
X130810Y290544D01*
D10*
X459740Y417830D03*
X485140Y441960D03*
X433070Y619760D03*
D23*
X433070Y617195D01*
X434292Y615973D01*
X434292Y611778D01*
X433070Y610556D01*
X433070Y462280D01*
X453390Y441960D02*
X468630Y441960D01*
X453390Y441960D02*
X433070Y462280D01*
X468630Y426720D02*
X459740Y417830D01*
X468630Y426720D02*
X468630Y441960D01*
X485140Y441960D01*
D10*
X307340Y740410D03*
D23*
X309952Y737798D01*
X350363Y737798D01*
X414004Y611600D02*
X414004Y427720D01*
X419084Y669077D02*
X350363Y737798D01*
X414004Y427720D02*
X483616Y358108D01*
X495300Y358108D01*
D10*
X495300Y358108D03*
D23*
X419084Y616680D02*
X419084Y669077D01*
X419084Y616680D02*
X414004Y611600D01*
D10*
X300990Y549402D03*
X274320Y553720D03*
D23*
X279747Y548212D02*
X284133Y548212D01*
X279747Y548212D02*
X276646Y551313D01*
X276646Y551394D01*
X274320Y553720D01*
X285323Y549402D02*
X300990Y549402D01*
X285323Y549402D02*
X284133Y548212D01*
D10*
X395667Y706817D03*
D23*
X438134Y664350D01*
X438134Y541020D01*
D10*
X438134Y541020D03*
D19*
X339636Y724686D03*
D23*
X196048Y517604D02*
X190968Y512524D01*
X216063Y695990D02*
X220057Y699984D01*
X216063Y695990D02*
X216063Y605118D01*
X190968Y512524D02*
X190968Y356201D01*
X196048Y585103D02*
X216063Y605118D01*
X196048Y585103D02*
X196048Y517604D01*
X288264Y699984D02*
X312966Y724686D01*
X288264Y699984D02*
X220057Y699984D01*
D10*
X127000Y294640D03*
D23*
X312966Y724686D02*
X339636Y724686D01*
X190968Y356201D02*
X129407Y294640D01*
X127000Y294640D01*
D19*
X346710Y728980D03*
D23*
X345440Y730250D01*
X311150Y730250D01*
X209764Y696174D02*
X209764Y615950D01*
D10*
X209764Y615950D03*
D23*
X209764Y696174D02*
X217956Y704366D01*
X285266Y704366D01*
X311150Y730250D01*
D10*
X393700Y241300D03*
X390858Y501142D03*
D23*
X393700Y250815D02*
X393700Y241300D01*
X393700Y250815D02*
X390922Y253593D01*
X390922Y269938D02*
X390858Y270002D01*
X390858Y501142D01*
X390922Y269938D02*
X390922Y253593D01*
D10*
X541020Y444500D03*
D23*
X541020Y471170D01*
D10*
X541020Y471170D03*
D19*
X440690Y499110D03*
D23*
X521500Y490690D02*
X541020Y471170D01*
X476914Y499110D02*
X440690Y499110D01*
X476914Y499110D02*
X485334Y490690D01*
X521500Y490690D01*
D10*
X283210Y262890D03*
D23*
X270064Y276036D01*
X270064Y280401D01*
X239348Y311117D02*
X239348Y445917D01*
X245698Y452267D01*
D10*
X320265Y517935D03*
D23*
X321294Y525338D02*
X318328Y528304D01*
X321294Y525338D02*
X321294Y521142D01*
X260623Y528304D02*
X245698Y513379D01*
X260623Y528304D02*
X318328Y528304D01*
X321294Y521142D02*
X320265Y520113D01*
X320265Y517935D01*
X245698Y513379D02*
X245698Y452267D01*
X239348Y311117D02*
X270064Y280401D01*
M02*
