G04 EAGLE Gerber X2 export*
%TF.Part,Single*%
%TF.FileFunction,Profile,NP*%
%TF.FilePolarity,Positive*%
%TF.GenerationSoftware,Autodesk,EAGLE,9.2.1*%
%TF.CreationDate,2018-11-01T02:04:35Z*%
G75*
%MOMM*%
%FSLAX34Y34*%
%LPD*%
%IN*%
%IPPOS*%
%AMOC8*
5,1,8,0,0,1.08239X$1,22.5*%
G01*
%ADD10C,0.254000*%


D10*
X0Y20000D02*
X76Y18257D01*
X304Y16527D01*
X681Y14824D01*
X1206Y13160D01*
X1874Y11548D01*
X2680Y10000D01*
X3617Y8528D01*
X4679Y7144D01*
X5858Y5858D01*
X7144Y4679D01*
X8528Y3617D01*
X10000Y2680D01*
X11548Y1874D01*
X13160Y1206D01*
X14824Y681D01*
X16527Y304D01*
X18257Y76D01*
X20000Y0D01*
X627500Y0D01*
X629243Y76D01*
X630973Y304D01*
X632676Y681D01*
X634340Y1206D01*
X635952Y1874D01*
X637500Y2680D01*
X638972Y3617D01*
X640356Y4679D01*
X641642Y5858D01*
X642821Y7144D01*
X643883Y8528D01*
X644821Y10000D01*
X645626Y11548D01*
X646294Y13160D01*
X646819Y14824D01*
X647196Y16527D01*
X647424Y18257D01*
X647500Y20000D01*
X647500Y980000D01*
X647424Y981743D01*
X647196Y983473D01*
X646819Y985176D01*
X646294Y986840D01*
X645626Y988452D01*
X644821Y990000D01*
X643883Y991472D01*
X642821Y992856D01*
X641642Y994142D01*
X640356Y995321D01*
X638972Y996383D01*
X637500Y997321D01*
X635952Y998126D01*
X634340Y998794D01*
X632676Y999319D01*
X630973Y999696D01*
X629243Y999924D01*
X627500Y1000000D01*
X20000Y1000000D01*
X18257Y999924D01*
X16527Y999696D01*
X14824Y999319D01*
X13160Y998794D01*
X11548Y998126D01*
X10000Y997321D01*
X8528Y996383D01*
X7144Y995321D01*
X5858Y994142D01*
X4679Y992856D01*
X3617Y991472D01*
X2680Y990000D01*
X1874Y988452D01*
X1206Y986840D01*
X681Y985176D01*
X304Y983473D01*
X76Y981743D01*
X0Y980000D01*
X0Y20000D01*
X145710Y526375D02*
X145633Y525790D01*
X145480Y525220D01*
X145255Y524675D01*
X144960Y524165D01*
X144601Y523697D01*
X144183Y523279D01*
X143715Y522920D01*
X143205Y522625D01*
X142660Y522400D01*
X142090Y522247D01*
X141505Y522170D01*
X140915Y522170D01*
X140330Y522247D01*
X139760Y522400D01*
X139215Y522625D01*
X138705Y522920D01*
X138237Y523279D01*
X137819Y523697D01*
X137460Y524165D01*
X137165Y524675D01*
X136940Y525220D01*
X136787Y525790D01*
X136710Y526375D01*
X136710Y526965D01*
X136787Y527550D01*
X136940Y528120D01*
X137165Y528665D01*
X137460Y529175D01*
X137819Y529643D01*
X138237Y530061D01*
X138705Y530420D01*
X139215Y530715D01*
X139760Y530940D01*
X140330Y531093D01*
X140915Y531170D01*
X141505Y531170D01*
X142090Y531093D01*
X142660Y530940D01*
X143205Y530715D01*
X143715Y530420D01*
X144183Y530061D01*
X144601Y529643D01*
X144960Y529175D01*
X145255Y528665D01*
X145480Y528120D01*
X145633Y527550D01*
X145710Y526965D01*
X145710Y526375D01*
X175710Y526375D02*
X175633Y525790D01*
X175480Y525220D01*
X175255Y524675D01*
X174960Y524165D01*
X174601Y523697D01*
X174183Y523279D01*
X173715Y522920D01*
X173205Y522625D01*
X172660Y522400D01*
X172090Y522247D01*
X171505Y522170D01*
X170915Y522170D01*
X170330Y522247D01*
X169760Y522400D01*
X169215Y522625D01*
X168705Y522920D01*
X168237Y523279D01*
X167819Y523697D01*
X167460Y524165D01*
X167165Y524675D01*
X166940Y525220D01*
X166787Y525790D01*
X166710Y526375D01*
X166710Y526965D01*
X166787Y527550D01*
X166940Y528120D01*
X167165Y528665D01*
X167460Y529175D01*
X167819Y529643D01*
X168237Y530061D01*
X168705Y530420D01*
X169215Y530715D01*
X169760Y530940D01*
X170330Y531093D01*
X170915Y531170D01*
X171505Y531170D01*
X172090Y531093D01*
X172660Y530940D01*
X173205Y530715D01*
X173715Y530420D01*
X174183Y530061D01*
X174601Y529643D01*
X174960Y529175D01*
X175255Y528665D01*
X175480Y528120D01*
X175633Y527550D01*
X175710Y526965D01*
X175710Y526375D01*
X514690Y500295D02*
X514767Y500880D01*
X514920Y501450D01*
X515145Y501995D01*
X515440Y502505D01*
X515799Y502973D01*
X516217Y503391D01*
X516685Y503750D01*
X517195Y504045D01*
X517740Y504270D01*
X518310Y504423D01*
X518895Y504500D01*
X519485Y504500D01*
X520070Y504423D01*
X520640Y504270D01*
X521185Y504045D01*
X521695Y503750D01*
X522163Y503391D01*
X522581Y502973D01*
X522940Y502505D01*
X523235Y501995D01*
X523460Y501450D01*
X523613Y500880D01*
X523690Y500295D01*
X523690Y499705D01*
X523613Y499120D01*
X523460Y498550D01*
X523235Y498005D01*
X522940Y497495D01*
X522581Y497027D01*
X522163Y496609D01*
X521695Y496250D01*
X521185Y495955D01*
X520640Y495730D01*
X520070Y495577D01*
X519485Y495500D01*
X518895Y495500D01*
X518310Y495577D01*
X517740Y495730D01*
X517195Y495955D01*
X516685Y496250D01*
X516217Y496609D01*
X515799Y497027D01*
X515440Y497495D01*
X515145Y498005D01*
X514920Y498550D01*
X514767Y499120D01*
X514690Y499705D01*
X514690Y500295D01*
X484690Y500295D02*
X484767Y500880D01*
X484920Y501450D01*
X485145Y501995D01*
X485440Y502505D01*
X485799Y502973D01*
X486217Y503391D01*
X486685Y503750D01*
X487195Y504045D01*
X487740Y504270D01*
X488310Y504423D01*
X488895Y504500D01*
X489485Y504500D01*
X490070Y504423D01*
X490640Y504270D01*
X491185Y504045D01*
X491695Y503750D01*
X492163Y503391D01*
X492581Y502973D01*
X492940Y502505D01*
X493235Y501995D01*
X493460Y501450D01*
X493613Y500880D01*
X493690Y500295D01*
X493690Y499705D01*
X493613Y499120D01*
X493460Y498550D01*
X493235Y498005D01*
X492940Y497495D01*
X492581Y497027D01*
X492163Y496609D01*
X491695Y496250D01*
X491185Y495955D01*
X490640Y495730D01*
X490070Y495577D01*
X489485Y495500D01*
X488895Y495500D01*
X488310Y495577D01*
X487740Y495730D01*
X487195Y495955D01*
X486685Y496250D01*
X486217Y496609D01*
X485799Y497027D01*
X485440Y497495D01*
X485145Y498005D01*
X484920Y498550D01*
X484767Y499120D01*
X484690Y499705D01*
X484690Y500295D01*
X631625Y868060D02*
X631557Y867023D01*
X631421Y865993D01*
X631219Y864973D01*
X630950Y863969D01*
X630615Y862985D01*
X630218Y862025D01*
X629758Y861093D01*
X629238Y860192D01*
X628661Y859328D01*
X628028Y858504D01*
X627343Y857722D01*
X626608Y856987D01*
X625826Y856302D01*
X625002Y855669D01*
X624138Y855092D01*
X623237Y854572D01*
X622305Y854112D01*
X621345Y853715D01*
X620361Y853380D01*
X619357Y853111D01*
X618337Y852909D01*
X617307Y852773D01*
X616270Y852705D01*
X615230Y852705D01*
X614193Y852773D01*
X613163Y852909D01*
X612143Y853111D01*
X611139Y853380D01*
X610155Y853715D01*
X609195Y854112D01*
X608263Y854572D01*
X607362Y855092D01*
X606498Y855669D01*
X605674Y856302D01*
X604892Y856987D01*
X604157Y857722D01*
X603472Y858504D01*
X602839Y859328D01*
X602262Y860192D01*
X601742Y861093D01*
X601282Y862025D01*
X600885Y862985D01*
X600550Y863969D01*
X600281Y864973D01*
X600079Y865993D01*
X599943Y867023D01*
X599875Y868060D01*
X599875Y869100D01*
X599943Y870137D01*
X600079Y871167D01*
X600281Y872187D01*
X600550Y873191D01*
X600885Y874175D01*
X601282Y875135D01*
X601742Y876067D01*
X602262Y876968D01*
X602839Y877832D01*
X603472Y878656D01*
X604157Y879438D01*
X604892Y880173D01*
X605674Y880858D01*
X606498Y881491D01*
X607362Y882068D01*
X608263Y882588D01*
X609195Y883048D01*
X610155Y883445D01*
X611139Y883780D01*
X612143Y884049D01*
X613163Y884251D01*
X614193Y884387D01*
X615230Y884455D01*
X616270Y884455D01*
X617307Y884387D01*
X618337Y884251D01*
X619357Y884049D01*
X620361Y883780D01*
X621345Y883445D01*
X622305Y883048D01*
X623237Y882588D01*
X624138Y882068D01*
X625002Y881491D01*
X625826Y880858D01*
X626608Y880173D01*
X627343Y879438D01*
X628028Y878656D01*
X628661Y877832D01*
X629238Y876968D01*
X629758Y876067D01*
X630218Y875135D01*
X630615Y874175D01*
X630950Y873191D01*
X631219Y872187D01*
X631421Y871167D01*
X631557Y870137D01*
X631625Y869100D01*
X631625Y868060D01*
X213995Y68060D02*
X213927Y67023D01*
X213791Y65993D01*
X213589Y64973D01*
X213320Y63969D01*
X212985Y62985D01*
X212588Y62025D01*
X212128Y61093D01*
X211608Y60192D01*
X211031Y59328D01*
X210398Y58504D01*
X209713Y57722D01*
X208978Y56987D01*
X208196Y56302D01*
X207372Y55669D01*
X206508Y55092D01*
X205607Y54572D01*
X204675Y54112D01*
X203715Y53715D01*
X202731Y53380D01*
X201727Y53111D01*
X200707Y52909D01*
X199677Y52773D01*
X198640Y52705D01*
X197600Y52705D01*
X196563Y52773D01*
X195533Y52909D01*
X194513Y53111D01*
X193509Y53380D01*
X192525Y53715D01*
X191565Y54112D01*
X190633Y54572D01*
X189732Y55092D01*
X188868Y55669D01*
X188044Y56302D01*
X187262Y56987D01*
X186527Y57722D01*
X185842Y58504D01*
X185209Y59328D01*
X184632Y60192D01*
X184112Y61093D01*
X183652Y62025D01*
X183255Y62985D01*
X182920Y63969D01*
X182651Y64973D01*
X182449Y65993D01*
X182313Y67023D01*
X182245Y68060D01*
X182245Y69100D01*
X182313Y70137D01*
X182449Y71167D01*
X182651Y72187D01*
X182920Y73191D01*
X183255Y74175D01*
X183652Y75135D01*
X184112Y76067D01*
X184632Y76968D01*
X185209Y77832D01*
X185842Y78656D01*
X186527Y79438D01*
X187262Y80173D01*
X188044Y80858D01*
X188868Y81491D01*
X189732Y82068D01*
X190633Y82588D01*
X191565Y83048D01*
X192525Y83445D01*
X193509Y83780D01*
X194513Y84049D01*
X195533Y84251D01*
X196563Y84387D01*
X197600Y84455D01*
X198640Y84455D01*
X199677Y84387D01*
X200707Y84251D01*
X201727Y84049D01*
X202731Y83780D01*
X203715Y83445D01*
X204675Y83048D01*
X205607Y82588D01*
X206508Y82068D01*
X207372Y81491D01*
X208196Y80858D01*
X208978Y80173D01*
X209713Y79438D01*
X210398Y78656D01*
X211031Y77832D01*
X211608Y76968D01*
X212128Y76067D01*
X212588Y75135D01*
X212985Y74175D01*
X213320Y73191D01*
X213589Y72187D01*
X213791Y71167D01*
X213927Y70137D01*
X213995Y69100D01*
X213995Y68060D01*
X213995Y868060D02*
X213927Y867023D01*
X213791Y865993D01*
X213589Y864973D01*
X213320Y863969D01*
X212985Y862985D01*
X212588Y862025D01*
X212128Y861093D01*
X211608Y860192D01*
X211031Y859328D01*
X210398Y858504D01*
X209713Y857722D01*
X208978Y856987D01*
X208196Y856302D01*
X207372Y855669D01*
X206508Y855092D01*
X205607Y854572D01*
X204675Y854112D01*
X203715Y853715D01*
X202731Y853380D01*
X201727Y853111D01*
X200707Y852909D01*
X199677Y852773D01*
X198640Y852705D01*
X197600Y852705D01*
X196563Y852773D01*
X195533Y852909D01*
X194513Y853111D01*
X193509Y853380D01*
X192525Y853715D01*
X191565Y854112D01*
X190633Y854572D01*
X189732Y855092D01*
X188868Y855669D01*
X188044Y856302D01*
X187262Y856987D01*
X186527Y857722D01*
X185842Y858504D01*
X185209Y859328D01*
X184632Y860192D01*
X184112Y861093D01*
X183652Y862025D01*
X183255Y862985D01*
X182920Y863969D01*
X182651Y864973D01*
X182449Y865993D01*
X182313Y867023D01*
X182245Y868060D01*
X182245Y869100D01*
X182313Y870137D01*
X182449Y871167D01*
X182651Y872187D01*
X182920Y873191D01*
X183255Y874175D01*
X183652Y875135D01*
X184112Y876067D01*
X184632Y876968D01*
X185209Y877832D01*
X185842Y878656D01*
X186527Y879438D01*
X187262Y880173D01*
X188044Y880858D01*
X188868Y881491D01*
X189732Y882068D01*
X190633Y882588D01*
X191565Y883048D01*
X192525Y883445D01*
X193509Y883780D01*
X194513Y884049D01*
X195533Y884251D01*
X196563Y884387D01*
X197600Y884455D01*
X198640Y884455D01*
X199677Y884387D01*
X200707Y884251D01*
X201727Y884049D01*
X202731Y883780D01*
X203715Y883445D01*
X204675Y883048D01*
X205607Y882588D01*
X206508Y882068D01*
X207372Y881491D01*
X208196Y880858D01*
X208978Y880173D01*
X209713Y879438D01*
X210398Y878656D01*
X211031Y877832D01*
X211608Y876968D01*
X212128Y876067D01*
X212588Y875135D01*
X212985Y874175D01*
X213320Y873191D01*
X213589Y872187D01*
X213791Y871167D01*
X213927Y870137D01*
X213995Y869100D01*
X213995Y868060D01*
M02*
