G04 EAGLE Gerber X2 export*
%TF.Part,Single*%
%TF.FileFunction,Legend,Top,1*%
%TF.FilePolarity,Positive*%
%TF.GenerationSoftware,Autodesk,EAGLE,9.2.1*%
%TF.CreationDate,2018-11-01T02:04:35Z*%
G75*
%MOMM*%
%FSLAX34Y34*%
%LPD*%
%INSilkscreen Top*%
%IPPOS*%
%AMOC8*
5,1,8,0,0,1.08239X$1,22.5*%
G01*
%ADD10C,0.127000*%
%ADD11C,0.101600*%
%ADD12R,0.750100X1.450100*%
%ADD13R,1.016000X4.318000*%
%ADD14R,1.450100X0.750100*%
%ADD15C,0.152400*%
%ADD16R,0.599900X0.300000*%
%ADD17R,0.863600X0.406400*%
%ADD18R,0.406400X0.863600*%
%ADD19R,0.300000X0.599900*%
%ADD20C,0.203200*%
%ADD21R,1.400000X0.650000*%
%ADD22R,0.500100X0.950000*%
%ADD23R,0.200000X1.400000*%
%ADD24R,0.650000X1.400000*%
%ADD25R,0.508000X0.508000*%
%ADD26C,0.254000*%
%ADD27R,0.508000X1.028700*%
%ADD28R,0.508000X1.016000*%
%ADD29R,0.525000X0.300000*%
%ADD30R,0.508000X0.889000*%
%ADD31R,0.500000X0.650000*%
%ADD32C,0.200000*%
%ADD33R,1.050000X1.050000*%
%ADD34R,0.950000X1.000000*%
%ADD35R,0.250000X0.437500*%
%ADD36R,0.500000X0.250000*%
%ADD37R,0.250000X0.500000*%
%ADD38R,0.500000X0.596600*%
%ADD39R,0.475000X0.596600*%
%ADD40R,0.250000X1.350000*%
%ADD41R,0.300000X2.100000*%
%ADD42R,1.350000X0.250000*%
%ADD43R,2.100000X0.300000*%
%ADD44R,1.700000X0.750100*%

G36*
X567445Y684280D02*
X567445Y684280D01*
X567447Y684282D01*
X567448Y684281D01*
X568119Y684516D01*
X568120Y684517D01*
X568121Y684517D01*
X568723Y684895D01*
X568724Y684897D01*
X568726Y684897D01*
X569228Y685399D01*
X569228Y685401D01*
X569230Y685402D01*
X569608Y686004D01*
X569608Y686005D01*
X569609Y686006D01*
X569844Y686677D01*
X569844Y686679D01*
X569845Y686680D01*
X569924Y687386D01*
X569924Y687387D01*
X569923Y687388D01*
X569924Y687389D01*
X569845Y688095D01*
X569843Y688097D01*
X569844Y688098D01*
X569609Y688769D01*
X569608Y688770D01*
X569608Y688771D01*
X569230Y689373D01*
X569228Y689374D01*
X569228Y689376D01*
X568726Y689878D01*
X568724Y689878D01*
X568723Y689880D01*
X568121Y690258D01*
X568120Y690258D01*
X568119Y690259D01*
X567448Y690494D01*
X567446Y690494D01*
X567445Y690495D01*
X566739Y690574D01*
X566737Y690573D01*
X566736Y690574D01*
X566030Y690495D01*
X566028Y690493D01*
X566027Y690494D01*
X565356Y690259D01*
X565355Y690258D01*
X565354Y690258D01*
X564752Y689880D01*
X564751Y689878D01*
X564749Y689878D01*
X564247Y689376D01*
X564247Y689374D01*
X564245Y689373D01*
X563867Y688771D01*
X563867Y688770D01*
X563866Y688769D01*
X563631Y688098D01*
X563632Y688096D01*
X563630Y688095D01*
X563551Y687389D01*
X563552Y687387D01*
X563551Y687386D01*
X563630Y686680D01*
X563632Y686678D01*
X563631Y686677D01*
X563866Y686006D01*
X563867Y686005D01*
X563867Y686004D01*
X564245Y685402D01*
X564247Y685401D01*
X564247Y685399D01*
X564749Y684897D01*
X564751Y684897D01*
X564752Y684895D01*
X565354Y684517D01*
X565355Y684517D01*
X565356Y684516D01*
X566027Y684281D01*
X566029Y684282D01*
X566030Y684280D01*
X566736Y684201D01*
X566738Y684202D01*
X566739Y684201D01*
X567445Y684280D01*
G37*
D10*
X524584Y521081D02*
X526870Y521081D01*
X526947Y521083D01*
X527024Y521089D01*
X527101Y521099D01*
X527177Y521112D01*
X527252Y521130D01*
X527326Y521151D01*
X527399Y521176D01*
X527471Y521205D01*
X527541Y521237D01*
X527610Y521272D01*
X527676Y521312D01*
X527741Y521354D01*
X527803Y521400D01*
X527863Y521449D01*
X527920Y521500D01*
X527975Y521555D01*
X528026Y521612D01*
X528075Y521672D01*
X528121Y521734D01*
X528163Y521799D01*
X528203Y521865D01*
X528238Y521934D01*
X528270Y522004D01*
X528299Y522076D01*
X528324Y522149D01*
X528345Y522223D01*
X528363Y522298D01*
X528376Y522374D01*
X528386Y522451D01*
X528392Y522528D01*
X528394Y522605D01*
X528394Y523367D01*
X528392Y523444D01*
X528386Y523521D01*
X528376Y523598D01*
X528363Y523674D01*
X528345Y523749D01*
X528324Y523823D01*
X528299Y523896D01*
X528270Y523968D01*
X528238Y524038D01*
X528203Y524107D01*
X528163Y524173D01*
X528121Y524238D01*
X528075Y524300D01*
X528026Y524360D01*
X527975Y524417D01*
X527920Y524472D01*
X527863Y524523D01*
X527803Y524572D01*
X527741Y524618D01*
X527676Y524660D01*
X527610Y524700D01*
X527541Y524735D01*
X527471Y524767D01*
X527399Y524796D01*
X527326Y524821D01*
X527252Y524842D01*
X527177Y524860D01*
X527101Y524873D01*
X527024Y524883D01*
X526947Y524889D01*
X526870Y524891D01*
X524584Y524891D01*
X524584Y527939D01*
X528394Y527939D01*
X531548Y525653D02*
X533072Y521081D01*
X534596Y525653D01*
X470936Y521081D02*
X469031Y521081D01*
X470936Y521081D02*
X471021Y521083D01*
X471107Y521089D01*
X471192Y521098D01*
X471276Y521112D01*
X471360Y521129D01*
X471443Y521150D01*
X471525Y521174D01*
X471605Y521202D01*
X471685Y521234D01*
X471763Y521270D01*
X471839Y521308D01*
X471913Y521351D01*
X471985Y521396D01*
X472056Y521445D01*
X472124Y521497D01*
X472189Y521551D01*
X472252Y521609D01*
X472313Y521670D01*
X472371Y521733D01*
X472425Y521798D01*
X472477Y521866D01*
X472526Y521937D01*
X472571Y522009D01*
X472614Y522083D01*
X472652Y522159D01*
X472688Y522237D01*
X472720Y522317D01*
X472748Y522397D01*
X472772Y522479D01*
X472793Y522562D01*
X472810Y522646D01*
X472824Y522730D01*
X472833Y522815D01*
X472839Y522901D01*
X472841Y522986D01*
X472839Y523071D01*
X472833Y523157D01*
X472824Y523242D01*
X472810Y523326D01*
X472793Y523410D01*
X472772Y523493D01*
X472748Y523575D01*
X472720Y523655D01*
X472688Y523735D01*
X472652Y523813D01*
X472614Y523889D01*
X472571Y523963D01*
X472526Y524035D01*
X472477Y524106D01*
X472425Y524174D01*
X472371Y524239D01*
X472313Y524302D01*
X472252Y524363D01*
X472189Y524421D01*
X472124Y524475D01*
X472056Y524527D01*
X471985Y524576D01*
X471913Y524621D01*
X471839Y524664D01*
X471763Y524702D01*
X471685Y524738D01*
X471605Y524770D01*
X471525Y524798D01*
X471443Y524822D01*
X471360Y524843D01*
X471276Y524860D01*
X471192Y524874D01*
X471107Y524883D01*
X471021Y524889D01*
X470936Y524891D01*
X471317Y527939D02*
X469031Y527939D01*
X471317Y527939D02*
X471394Y527937D01*
X471471Y527931D01*
X471548Y527921D01*
X471624Y527908D01*
X471699Y527890D01*
X471773Y527869D01*
X471846Y527844D01*
X471918Y527815D01*
X471988Y527783D01*
X472057Y527748D01*
X472123Y527708D01*
X472188Y527666D01*
X472250Y527620D01*
X472310Y527571D01*
X472367Y527520D01*
X472422Y527465D01*
X472473Y527408D01*
X472522Y527348D01*
X472568Y527286D01*
X472610Y527221D01*
X472650Y527155D01*
X472685Y527086D01*
X472717Y527016D01*
X472746Y526944D01*
X472771Y526871D01*
X472792Y526797D01*
X472810Y526722D01*
X472823Y526646D01*
X472833Y526569D01*
X472839Y526492D01*
X472841Y526415D01*
X472839Y526338D01*
X472833Y526261D01*
X472823Y526184D01*
X472810Y526108D01*
X472792Y526033D01*
X472771Y525959D01*
X472746Y525886D01*
X472717Y525814D01*
X472685Y525744D01*
X472650Y525675D01*
X472610Y525609D01*
X472568Y525544D01*
X472522Y525482D01*
X472473Y525422D01*
X472422Y525365D01*
X472367Y525310D01*
X472310Y525259D01*
X472250Y525210D01*
X472188Y525164D01*
X472123Y525122D01*
X472057Y525082D01*
X471988Y525047D01*
X471918Y525015D01*
X471846Y524986D01*
X471773Y524961D01*
X471699Y524940D01*
X471624Y524922D01*
X471548Y524909D01*
X471471Y524899D01*
X471394Y524893D01*
X471317Y524891D01*
X469793Y524891D01*
X475996Y525653D02*
X477520Y521081D01*
X479044Y525653D01*
X482199Y521081D02*
X484104Y521081D01*
X484189Y521083D01*
X484275Y521089D01*
X484360Y521098D01*
X484444Y521112D01*
X484528Y521129D01*
X484611Y521150D01*
X484693Y521174D01*
X484773Y521202D01*
X484853Y521234D01*
X484931Y521270D01*
X485007Y521308D01*
X485081Y521351D01*
X485153Y521396D01*
X485224Y521445D01*
X485292Y521497D01*
X485357Y521551D01*
X485420Y521609D01*
X485481Y521670D01*
X485539Y521733D01*
X485593Y521798D01*
X485645Y521866D01*
X485694Y521937D01*
X485739Y522009D01*
X485782Y522083D01*
X485820Y522159D01*
X485856Y522237D01*
X485888Y522317D01*
X485916Y522397D01*
X485940Y522479D01*
X485961Y522562D01*
X485978Y522646D01*
X485992Y522730D01*
X486001Y522815D01*
X486007Y522901D01*
X486009Y522986D01*
X486007Y523071D01*
X486001Y523157D01*
X485992Y523242D01*
X485978Y523326D01*
X485961Y523410D01*
X485940Y523493D01*
X485916Y523575D01*
X485888Y523655D01*
X485856Y523735D01*
X485820Y523813D01*
X485782Y523889D01*
X485739Y523963D01*
X485694Y524035D01*
X485645Y524106D01*
X485593Y524174D01*
X485539Y524239D01*
X485481Y524302D01*
X485420Y524363D01*
X485357Y524421D01*
X485292Y524475D01*
X485224Y524527D01*
X485153Y524576D01*
X485081Y524621D01*
X485007Y524664D01*
X484931Y524702D01*
X484853Y524738D01*
X484773Y524770D01*
X484693Y524798D01*
X484611Y524822D01*
X484528Y524843D01*
X484444Y524860D01*
X484360Y524874D01*
X484275Y524883D01*
X484189Y524889D01*
X484104Y524891D01*
X484485Y527939D02*
X482199Y527939D01*
X484485Y527939D02*
X484562Y527937D01*
X484639Y527931D01*
X484716Y527921D01*
X484792Y527908D01*
X484867Y527890D01*
X484941Y527869D01*
X485014Y527844D01*
X485086Y527815D01*
X485156Y527783D01*
X485225Y527748D01*
X485291Y527708D01*
X485356Y527666D01*
X485418Y527620D01*
X485478Y527571D01*
X485535Y527520D01*
X485590Y527465D01*
X485641Y527408D01*
X485690Y527348D01*
X485736Y527286D01*
X485778Y527221D01*
X485818Y527155D01*
X485853Y527086D01*
X485885Y527016D01*
X485914Y526944D01*
X485939Y526871D01*
X485960Y526797D01*
X485978Y526722D01*
X485991Y526646D01*
X486001Y526569D01*
X486007Y526492D01*
X486009Y526415D01*
X486007Y526338D01*
X486001Y526261D01*
X485991Y526184D01*
X485978Y526108D01*
X485960Y526033D01*
X485939Y525959D01*
X485914Y525886D01*
X485885Y525814D01*
X485853Y525744D01*
X485818Y525675D01*
X485778Y525609D01*
X485736Y525544D01*
X485690Y525482D01*
X485641Y525422D01*
X485590Y525365D01*
X485535Y525310D01*
X485478Y525259D01*
X485418Y525210D01*
X485356Y525164D01*
X485291Y525122D01*
X485225Y525082D01*
X485156Y525047D01*
X485086Y525015D01*
X485014Y524986D01*
X484941Y524961D01*
X484867Y524940D01*
X484792Y524922D01*
X484716Y524909D01*
X484639Y524899D01*
X484562Y524893D01*
X484485Y524891D01*
X482961Y524891D01*
X176296Y498221D02*
X174391Y498221D01*
X176296Y498221D02*
X176381Y498223D01*
X176467Y498229D01*
X176552Y498238D01*
X176636Y498252D01*
X176720Y498269D01*
X176803Y498290D01*
X176885Y498314D01*
X176965Y498342D01*
X177045Y498374D01*
X177123Y498410D01*
X177199Y498448D01*
X177273Y498491D01*
X177345Y498536D01*
X177416Y498585D01*
X177484Y498637D01*
X177549Y498691D01*
X177612Y498749D01*
X177673Y498810D01*
X177731Y498873D01*
X177785Y498938D01*
X177837Y499006D01*
X177886Y499077D01*
X177931Y499149D01*
X177974Y499223D01*
X178012Y499299D01*
X178048Y499377D01*
X178080Y499457D01*
X178108Y499537D01*
X178132Y499619D01*
X178153Y499702D01*
X178170Y499786D01*
X178184Y499870D01*
X178193Y499955D01*
X178199Y500041D01*
X178201Y500126D01*
X178199Y500211D01*
X178193Y500297D01*
X178184Y500382D01*
X178170Y500466D01*
X178153Y500550D01*
X178132Y500633D01*
X178108Y500715D01*
X178080Y500795D01*
X178048Y500875D01*
X178012Y500953D01*
X177974Y501029D01*
X177931Y501103D01*
X177886Y501175D01*
X177837Y501246D01*
X177785Y501314D01*
X177731Y501379D01*
X177673Y501442D01*
X177612Y501503D01*
X177549Y501561D01*
X177484Y501615D01*
X177416Y501667D01*
X177345Y501716D01*
X177273Y501761D01*
X177199Y501804D01*
X177123Y501842D01*
X177045Y501878D01*
X176965Y501910D01*
X176885Y501938D01*
X176803Y501962D01*
X176720Y501983D01*
X176636Y502000D01*
X176552Y502014D01*
X176467Y502023D01*
X176381Y502029D01*
X176296Y502031D01*
X176677Y505079D02*
X174391Y505079D01*
X176677Y505079D02*
X176754Y505077D01*
X176831Y505071D01*
X176908Y505061D01*
X176984Y505048D01*
X177059Y505030D01*
X177133Y505009D01*
X177206Y504984D01*
X177278Y504955D01*
X177348Y504923D01*
X177417Y504888D01*
X177483Y504848D01*
X177548Y504806D01*
X177610Y504760D01*
X177670Y504711D01*
X177727Y504660D01*
X177782Y504605D01*
X177833Y504548D01*
X177882Y504488D01*
X177928Y504426D01*
X177970Y504361D01*
X178010Y504295D01*
X178045Y504226D01*
X178077Y504156D01*
X178106Y504084D01*
X178131Y504011D01*
X178152Y503937D01*
X178170Y503862D01*
X178183Y503786D01*
X178193Y503709D01*
X178199Y503632D01*
X178201Y503555D01*
X178199Y503478D01*
X178193Y503401D01*
X178183Y503324D01*
X178170Y503248D01*
X178152Y503173D01*
X178131Y503099D01*
X178106Y503026D01*
X178077Y502954D01*
X178045Y502884D01*
X178010Y502815D01*
X177970Y502749D01*
X177928Y502684D01*
X177882Y502622D01*
X177833Y502562D01*
X177782Y502505D01*
X177727Y502450D01*
X177670Y502399D01*
X177610Y502350D01*
X177548Y502304D01*
X177483Y502262D01*
X177417Y502222D01*
X177348Y502187D01*
X177278Y502155D01*
X177206Y502126D01*
X177133Y502101D01*
X177059Y502080D01*
X176984Y502062D01*
X176908Y502049D01*
X176831Y502039D01*
X176754Y502033D01*
X176677Y502031D01*
X175153Y502031D01*
X181356Y502793D02*
X182880Y498221D01*
X184404Y502793D01*
X187559Y498221D02*
X189464Y498221D01*
X189549Y498223D01*
X189635Y498229D01*
X189720Y498238D01*
X189804Y498252D01*
X189888Y498269D01*
X189971Y498290D01*
X190053Y498314D01*
X190133Y498342D01*
X190213Y498374D01*
X190291Y498410D01*
X190367Y498448D01*
X190441Y498491D01*
X190513Y498536D01*
X190584Y498585D01*
X190652Y498637D01*
X190717Y498691D01*
X190780Y498749D01*
X190841Y498810D01*
X190899Y498873D01*
X190953Y498938D01*
X191005Y499006D01*
X191054Y499077D01*
X191099Y499149D01*
X191142Y499223D01*
X191180Y499299D01*
X191216Y499377D01*
X191248Y499457D01*
X191276Y499537D01*
X191300Y499619D01*
X191321Y499702D01*
X191338Y499786D01*
X191352Y499870D01*
X191361Y499955D01*
X191367Y500041D01*
X191369Y500126D01*
X191367Y500211D01*
X191361Y500297D01*
X191352Y500382D01*
X191338Y500466D01*
X191321Y500550D01*
X191300Y500633D01*
X191276Y500715D01*
X191248Y500795D01*
X191216Y500875D01*
X191180Y500953D01*
X191142Y501029D01*
X191099Y501103D01*
X191054Y501175D01*
X191005Y501246D01*
X190953Y501314D01*
X190899Y501379D01*
X190841Y501442D01*
X190780Y501503D01*
X190717Y501561D01*
X190652Y501615D01*
X190584Y501667D01*
X190513Y501716D01*
X190441Y501761D01*
X190367Y501804D01*
X190291Y501842D01*
X190213Y501878D01*
X190133Y501910D01*
X190053Y501938D01*
X189971Y501962D01*
X189888Y501983D01*
X189804Y502000D01*
X189720Y502014D01*
X189635Y502023D01*
X189549Y502029D01*
X189464Y502031D01*
X189845Y505079D02*
X187559Y505079D01*
X189845Y505079D02*
X189922Y505077D01*
X189999Y505071D01*
X190076Y505061D01*
X190152Y505048D01*
X190227Y505030D01*
X190301Y505009D01*
X190374Y504984D01*
X190446Y504955D01*
X190516Y504923D01*
X190585Y504888D01*
X190651Y504848D01*
X190716Y504806D01*
X190778Y504760D01*
X190838Y504711D01*
X190895Y504660D01*
X190950Y504605D01*
X191001Y504548D01*
X191050Y504488D01*
X191096Y504426D01*
X191138Y504361D01*
X191178Y504295D01*
X191213Y504226D01*
X191245Y504156D01*
X191274Y504084D01*
X191299Y504011D01*
X191320Y503937D01*
X191338Y503862D01*
X191351Y503786D01*
X191361Y503709D01*
X191367Y503632D01*
X191369Y503555D01*
X191367Y503478D01*
X191361Y503401D01*
X191351Y503324D01*
X191338Y503248D01*
X191320Y503173D01*
X191299Y503099D01*
X191274Y503026D01*
X191245Y502954D01*
X191213Y502884D01*
X191178Y502815D01*
X191138Y502749D01*
X191096Y502684D01*
X191050Y502622D01*
X191001Y502562D01*
X190950Y502505D01*
X190895Y502450D01*
X190838Y502399D01*
X190778Y502350D01*
X190716Y502304D01*
X190651Y502262D01*
X190585Y502222D01*
X190516Y502187D01*
X190446Y502155D01*
X190374Y502126D01*
X190301Y502101D01*
X190227Y502080D01*
X190152Y502062D01*
X190076Y502049D01*
X189999Y502039D01*
X189922Y502033D01*
X189845Y502031D01*
X188321Y502031D01*
X129360Y498221D02*
X127074Y498221D01*
X129360Y498221D02*
X129437Y498223D01*
X129514Y498229D01*
X129591Y498239D01*
X129667Y498252D01*
X129742Y498270D01*
X129816Y498291D01*
X129889Y498316D01*
X129961Y498345D01*
X130031Y498377D01*
X130100Y498412D01*
X130166Y498452D01*
X130231Y498494D01*
X130293Y498540D01*
X130353Y498589D01*
X130410Y498640D01*
X130465Y498695D01*
X130516Y498752D01*
X130565Y498812D01*
X130611Y498874D01*
X130653Y498939D01*
X130693Y499005D01*
X130728Y499074D01*
X130760Y499144D01*
X130789Y499216D01*
X130814Y499289D01*
X130835Y499363D01*
X130853Y499438D01*
X130866Y499514D01*
X130876Y499591D01*
X130882Y499668D01*
X130884Y499745D01*
X130884Y500507D01*
X130882Y500584D01*
X130876Y500661D01*
X130866Y500738D01*
X130853Y500814D01*
X130835Y500889D01*
X130814Y500963D01*
X130789Y501036D01*
X130760Y501108D01*
X130728Y501178D01*
X130693Y501247D01*
X130653Y501313D01*
X130611Y501378D01*
X130565Y501440D01*
X130516Y501500D01*
X130465Y501557D01*
X130410Y501612D01*
X130353Y501663D01*
X130293Y501712D01*
X130231Y501758D01*
X130166Y501800D01*
X130100Y501840D01*
X130031Y501875D01*
X129961Y501907D01*
X129889Y501936D01*
X129816Y501961D01*
X129742Y501982D01*
X129667Y502000D01*
X129591Y502013D01*
X129514Y502023D01*
X129437Y502029D01*
X129360Y502031D01*
X127074Y502031D01*
X127074Y505079D01*
X130884Y505079D01*
X134038Y502793D02*
X135562Y498221D01*
X137086Y502793D01*
D11*
X245110Y220730D02*
X252730Y220730D01*
X252480Y233930D02*
X245110Y233930D01*
D12*
X256092Y227319D03*
X241614Y227319D03*
D10*
X242900Y296000D02*
X242900Y339000D01*
X242900Y296000D02*
X315900Y296000D01*
X315900Y339000D01*
X242900Y339000D01*
D13*
X261620Y317500D03*
D11*
X275590Y362200D02*
X283210Y362200D01*
X283210Y349000D02*
X275840Y349000D01*
D12*
X272229Y355612D03*
X286707Y355612D03*
D11*
X257560Y382270D02*
X257560Y389890D01*
X270760Y389890D02*
X270760Y382520D01*
D14*
X264149Y378909D03*
X264149Y393387D03*
D15*
X351490Y387260D02*
X351490Y382360D01*
X347010Y382360D02*
X347010Y387260D01*
D16*
X349202Y388850D03*
X349202Y380722D03*
D11*
X299720Y438400D02*
X292100Y438400D01*
X292350Y425200D02*
X299720Y425200D01*
D12*
X288739Y431812D03*
X303217Y431812D03*
D11*
X299720Y416810D02*
X292100Y416810D01*
X292350Y403610D02*
X299720Y403610D01*
D12*
X288739Y410222D03*
X303217Y410222D03*
D10*
X226880Y206150D02*
X138880Y206150D01*
X226880Y206150D02*
X226880Y289150D01*
X138880Y289150D01*
X138880Y206150D01*
X222490Y382510D02*
X252490Y382510D01*
X252490Y412510D01*
X222490Y412510D01*
X222490Y382510D01*
D15*
X289810Y230380D02*
X289810Y221740D01*
X296930Y221740D02*
X296930Y230380D01*
D17*
X293370Y219710D03*
X293370Y232410D03*
D15*
X289810Y252220D02*
X289810Y260860D01*
X296930Y260860D02*
X296930Y252220D01*
D17*
X293370Y250190D03*
X293370Y262890D03*
D15*
X292860Y278380D02*
X301500Y278380D01*
X301500Y285500D02*
X292860Y285500D01*
D18*
X303530Y281940D03*
X290830Y281940D03*
D15*
X237740Y357630D02*
X237740Y366270D01*
X244860Y366270D02*
X244860Y357630D01*
D17*
X241300Y355600D03*
X241300Y368300D03*
D15*
X337570Y380490D02*
X337570Y389130D01*
X330450Y389130D02*
X330450Y380490D01*
D17*
X334010Y391160D03*
X334010Y378460D03*
D15*
X310130Y380490D02*
X310130Y389130D01*
X317250Y389130D02*
X317250Y380490D01*
D17*
X313690Y378460D03*
X313690Y391160D03*
D10*
X274000Y286700D02*
X274000Y246700D01*
X234000Y246700D01*
X234000Y286700D01*
X274000Y286700D01*
X229344Y289560D02*
X229346Y289644D01*
X229352Y289728D01*
X229362Y289812D01*
X229375Y289895D01*
X229393Y289977D01*
X229415Y290059D01*
X229440Y290139D01*
X229469Y290218D01*
X229502Y290296D01*
X229538Y290372D01*
X229578Y290446D01*
X229621Y290518D01*
X229667Y290588D01*
X229717Y290656D01*
X229770Y290722D01*
X229826Y290785D01*
X229885Y290845D01*
X229947Y290902D01*
X230011Y290957D01*
X230078Y291008D01*
X230147Y291056D01*
X230218Y291101D01*
X230291Y291143D01*
X230366Y291181D01*
X230443Y291215D01*
X230521Y291246D01*
X230601Y291273D01*
X230682Y291297D01*
X230764Y291316D01*
X230847Y291332D01*
X230930Y291344D01*
X231014Y291352D01*
X231098Y291356D01*
X231182Y291356D01*
X231266Y291352D01*
X231350Y291344D01*
X231433Y291332D01*
X231516Y291316D01*
X231598Y291297D01*
X231679Y291273D01*
X231759Y291246D01*
X231837Y291215D01*
X231914Y291181D01*
X231989Y291143D01*
X232062Y291101D01*
X232133Y291056D01*
X232202Y291008D01*
X232269Y290957D01*
X232333Y290902D01*
X232395Y290845D01*
X232454Y290785D01*
X232510Y290722D01*
X232563Y290656D01*
X232613Y290588D01*
X232659Y290518D01*
X232702Y290446D01*
X232742Y290372D01*
X232778Y290296D01*
X232811Y290218D01*
X232840Y290139D01*
X232865Y290059D01*
X232887Y289977D01*
X232905Y289895D01*
X232918Y289812D01*
X232928Y289728D01*
X232934Y289644D01*
X232936Y289560D01*
X232934Y289476D01*
X232928Y289392D01*
X232918Y289308D01*
X232905Y289225D01*
X232887Y289143D01*
X232865Y289061D01*
X232840Y288981D01*
X232811Y288902D01*
X232778Y288824D01*
X232742Y288748D01*
X232702Y288674D01*
X232659Y288602D01*
X232613Y288532D01*
X232563Y288464D01*
X232510Y288398D01*
X232454Y288335D01*
X232395Y288275D01*
X232333Y288218D01*
X232269Y288163D01*
X232202Y288112D01*
X232133Y288064D01*
X232062Y288019D01*
X231989Y287977D01*
X231914Y287939D01*
X231837Y287905D01*
X231759Y287874D01*
X231679Y287847D01*
X231598Y287823D01*
X231516Y287804D01*
X231433Y287788D01*
X231350Y287776D01*
X231266Y287768D01*
X231182Y287764D01*
X231098Y287764D01*
X231014Y287768D01*
X230930Y287776D01*
X230847Y287788D01*
X230764Y287804D01*
X230682Y287823D01*
X230601Y287847D01*
X230521Y287874D01*
X230443Y287905D01*
X230366Y287939D01*
X230291Y287977D01*
X230218Y288019D01*
X230147Y288064D01*
X230078Y288112D01*
X230011Y288163D01*
X229947Y288218D01*
X229885Y288275D01*
X229826Y288335D01*
X229770Y288398D01*
X229717Y288464D01*
X229667Y288532D01*
X229621Y288602D01*
X229578Y288674D01*
X229538Y288748D01*
X229502Y288824D01*
X229469Y288902D01*
X229440Y288981D01*
X229415Y289061D01*
X229393Y289143D01*
X229375Y289225D01*
X229362Y289308D01*
X229352Y289392D01*
X229346Y289476D01*
X229344Y289560D01*
X282060Y373540D02*
X282060Y393540D01*
X297060Y393540D01*
X297060Y373540D01*
X282060Y373540D01*
X298450Y370840D02*
X298452Y370911D01*
X298458Y370982D01*
X298468Y371053D01*
X298482Y371123D01*
X298500Y371192D01*
X298521Y371259D01*
X298547Y371326D01*
X298576Y371391D01*
X298608Y371454D01*
X298645Y371516D01*
X298684Y371575D01*
X298727Y371632D01*
X298773Y371686D01*
X298822Y371738D01*
X298874Y371787D01*
X298928Y371833D01*
X298985Y371876D01*
X299044Y371915D01*
X299106Y371952D01*
X299169Y371984D01*
X299234Y372013D01*
X299301Y372039D01*
X299368Y372060D01*
X299437Y372078D01*
X299507Y372092D01*
X299578Y372102D01*
X299649Y372108D01*
X299720Y372110D01*
X299791Y372108D01*
X299862Y372102D01*
X299933Y372092D01*
X300003Y372078D01*
X300072Y372060D01*
X300139Y372039D01*
X300206Y372013D01*
X300271Y371984D01*
X300334Y371952D01*
X300396Y371915D01*
X300455Y371876D01*
X300512Y371833D01*
X300566Y371787D01*
X300618Y371738D01*
X300667Y371686D01*
X300713Y371632D01*
X300756Y371575D01*
X300795Y371516D01*
X300832Y371454D01*
X300864Y371391D01*
X300893Y371326D01*
X300919Y371259D01*
X300940Y371192D01*
X300958Y371123D01*
X300972Y371053D01*
X300982Y370982D01*
X300988Y370911D01*
X300990Y370840D01*
X300988Y370769D01*
X300982Y370698D01*
X300972Y370627D01*
X300958Y370557D01*
X300940Y370488D01*
X300919Y370421D01*
X300893Y370354D01*
X300864Y370289D01*
X300832Y370226D01*
X300795Y370164D01*
X300756Y370105D01*
X300713Y370048D01*
X300667Y369994D01*
X300618Y369942D01*
X300566Y369893D01*
X300512Y369847D01*
X300455Y369804D01*
X300396Y369765D01*
X300334Y369728D01*
X300271Y369696D01*
X300206Y369667D01*
X300139Y369641D01*
X300072Y369620D01*
X300003Y369602D01*
X299933Y369588D01*
X299862Y369578D01*
X299791Y369572D01*
X299720Y369570D01*
X299649Y369572D01*
X299578Y369578D01*
X299507Y369588D01*
X299437Y369602D01*
X299368Y369620D01*
X299301Y369641D01*
X299234Y369667D01*
X299169Y369696D01*
X299106Y369728D01*
X299044Y369765D01*
X298985Y369804D01*
X298928Y369847D01*
X298874Y369893D01*
X298822Y369942D01*
X298773Y369994D01*
X298727Y370048D01*
X298684Y370105D01*
X298645Y370164D01*
X298608Y370226D01*
X298576Y370289D01*
X298547Y370354D01*
X298521Y370421D01*
X298500Y370488D01*
X298482Y370557D01*
X298468Y370627D01*
X298458Y370698D01*
X298452Y370769D01*
X298450Y370840D01*
X489840Y230900D02*
X489840Y200900D01*
X489840Y230900D02*
X505840Y230900D01*
X505840Y200900D01*
X489840Y200900D01*
X506730Y198120D02*
X506732Y198191D01*
X506738Y198262D01*
X506748Y198333D01*
X506762Y198403D01*
X506780Y198472D01*
X506801Y198539D01*
X506827Y198606D01*
X506856Y198671D01*
X506888Y198734D01*
X506925Y198796D01*
X506964Y198855D01*
X507007Y198912D01*
X507053Y198966D01*
X507102Y199018D01*
X507154Y199067D01*
X507208Y199113D01*
X507265Y199156D01*
X507324Y199195D01*
X507386Y199232D01*
X507449Y199264D01*
X507514Y199293D01*
X507581Y199319D01*
X507648Y199340D01*
X507717Y199358D01*
X507787Y199372D01*
X507858Y199382D01*
X507929Y199388D01*
X508000Y199390D01*
X508071Y199388D01*
X508142Y199382D01*
X508213Y199372D01*
X508283Y199358D01*
X508352Y199340D01*
X508419Y199319D01*
X508486Y199293D01*
X508551Y199264D01*
X508614Y199232D01*
X508676Y199195D01*
X508735Y199156D01*
X508792Y199113D01*
X508846Y199067D01*
X508898Y199018D01*
X508947Y198966D01*
X508993Y198912D01*
X509036Y198855D01*
X509075Y198796D01*
X509112Y198734D01*
X509144Y198671D01*
X509173Y198606D01*
X509199Y198539D01*
X509220Y198472D01*
X509238Y198403D01*
X509252Y198333D01*
X509262Y198262D01*
X509268Y198191D01*
X509270Y198120D01*
X509268Y198049D01*
X509262Y197978D01*
X509252Y197907D01*
X509238Y197837D01*
X509220Y197768D01*
X509199Y197701D01*
X509173Y197634D01*
X509144Y197569D01*
X509112Y197506D01*
X509075Y197444D01*
X509036Y197385D01*
X508993Y197328D01*
X508947Y197274D01*
X508898Y197222D01*
X508846Y197173D01*
X508792Y197127D01*
X508735Y197084D01*
X508676Y197045D01*
X508614Y197008D01*
X508551Y196976D01*
X508486Y196947D01*
X508419Y196921D01*
X508352Y196900D01*
X508283Y196882D01*
X508213Y196868D01*
X508142Y196858D01*
X508071Y196852D01*
X508000Y196850D01*
X507929Y196852D01*
X507858Y196858D01*
X507787Y196868D01*
X507717Y196882D01*
X507648Y196900D01*
X507581Y196921D01*
X507514Y196947D01*
X507449Y196976D01*
X507386Y197008D01*
X507324Y197045D01*
X507265Y197084D01*
X507208Y197127D01*
X507154Y197173D01*
X507102Y197222D01*
X507053Y197274D01*
X507007Y197328D01*
X506964Y197385D01*
X506925Y197444D01*
X506888Y197506D01*
X506856Y197569D01*
X506827Y197634D01*
X506801Y197701D01*
X506780Y197768D01*
X506762Y197837D01*
X506748Y197907D01*
X506738Y197978D01*
X506732Y198049D01*
X506730Y198120D01*
X542130Y203400D02*
X542130Y228400D01*
X542130Y203400D02*
X522130Y203400D01*
X522130Y228400D01*
X542130Y228400D01*
D11*
X494030Y195830D02*
X486410Y195830D01*
X486660Y182630D02*
X494030Y182630D01*
D12*
X483049Y189242D03*
X497527Y189242D03*
D15*
X498350Y247400D02*
X489710Y247400D01*
X489710Y240280D02*
X498350Y240280D01*
D18*
X487680Y243840D03*
X500380Y243840D03*
D15*
X521460Y247400D02*
X530100Y247400D01*
X530100Y240280D02*
X521460Y240280D01*
D18*
X519430Y243840D03*
X532130Y243840D03*
D11*
X460760Y237490D02*
X460760Y229870D01*
X473960Y230120D02*
X473960Y237490D01*
D14*
X467349Y226509D03*
X467349Y240987D03*
D10*
X533520Y97910D02*
X548520Y97910D01*
X548520Y112910D01*
X533520Y112910D01*
X533520Y97910D01*
X528320Y99060D02*
X528322Y99131D01*
X528328Y99202D01*
X528338Y99273D01*
X528352Y99343D01*
X528370Y99412D01*
X528391Y99479D01*
X528417Y99546D01*
X528446Y99611D01*
X528478Y99674D01*
X528515Y99736D01*
X528554Y99795D01*
X528597Y99852D01*
X528643Y99906D01*
X528692Y99958D01*
X528744Y100007D01*
X528798Y100053D01*
X528855Y100096D01*
X528914Y100135D01*
X528976Y100172D01*
X529039Y100204D01*
X529104Y100233D01*
X529171Y100259D01*
X529238Y100280D01*
X529307Y100298D01*
X529377Y100312D01*
X529448Y100322D01*
X529519Y100328D01*
X529590Y100330D01*
X529661Y100328D01*
X529732Y100322D01*
X529803Y100312D01*
X529873Y100298D01*
X529942Y100280D01*
X530009Y100259D01*
X530076Y100233D01*
X530141Y100204D01*
X530204Y100172D01*
X530266Y100135D01*
X530325Y100096D01*
X530382Y100053D01*
X530436Y100007D01*
X530488Y99958D01*
X530537Y99906D01*
X530583Y99852D01*
X530626Y99795D01*
X530665Y99736D01*
X530702Y99674D01*
X530734Y99611D01*
X530763Y99546D01*
X530789Y99479D01*
X530810Y99412D01*
X530828Y99343D01*
X530842Y99273D01*
X530852Y99202D01*
X530858Y99131D01*
X530860Y99060D01*
X530858Y98989D01*
X530852Y98918D01*
X530842Y98847D01*
X530828Y98777D01*
X530810Y98708D01*
X530789Y98641D01*
X530763Y98574D01*
X530734Y98509D01*
X530702Y98446D01*
X530665Y98384D01*
X530626Y98325D01*
X530583Y98268D01*
X530537Y98214D01*
X530488Y98162D01*
X530436Y98113D01*
X530382Y98067D01*
X530325Y98024D01*
X530266Y97985D01*
X530204Y97948D01*
X530141Y97916D01*
X530076Y97887D01*
X530009Y97861D01*
X529942Y97840D01*
X529873Y97822D01*
X529803Y97808D01*
X529732Y97798D01*
X529661Y97792D01*
X529590Y97790D01*
X529519Y97792D01*
X529448Y97798D01*
X529377Y97808D01*
X529307Y97822D01*
X529238Y97840D01*
X529171Y97861D01*
X529104Y97887D01*
X529039Y97916D01*
X528976Y97948D01*
X528914Y97985D01*
X528855Y98024D01*
X528798Y98067D01*
X528744Y98113D01*
X528692Y98162D01*
X528643Y98214D01*
X528597Y98268D01*
X528554Y98325D01*
X528515Y98384D01*
X528478Y98446D01*
X528446Y98509D01*
X528417Y98574D01*
X528391Y98641D01*
X528370Y98708D01*
X528352Y98777D01*
X528338Y98847D01*
X528328Y98918D01*
X528322Y98989D01*
X528320Y99060D01*
D15*
X519730Y118200D02*
X519730Y123100D01*
X524210Y123100D02*
X524210Y118200D01*
D16*
X522019Y116610D03*
X522019Y124738D03*
D15*
X515530Y96820D02*
X510630Y96820D01*
X510630Y101300D02*
X515530Y101300D01*
D19*
X517120Y99109D03*
X508992Y99109D03*
D15*
X552540Y136190D02*
X557440Y136190D01*
X557440Y140670D02*
X552540Y140670D01*
D19*
X559030Y138479D03*
X550902Y138479D03*
D15*
X552540Y147620D02*
X557440Y147620D01*
X557440Y152100D02*
X552540Y152100D01*
D19*
X559030Y149909D03*
X550902Y149909D03*
D15*
X493270Y148840D02*
X484630Y148840D01*
X484630Y155960D02*
X493270Y155960D01*
D18*
X495300Y152400D03*
X482600Y152400D03*
D15*
X514604Y132334D02*
X514604Y119126D01*
X486156Y119126D01*
X486156Y132334D01*
X514604Y132334D01*
D20*
X492380Y132730D02*
X486380Y132730D01*
X486380Y124730D01*
X508380Y132730D02*
X514380Y132730D01*
X514380Y124730D01*
D15*
X455676Y119126D02*
X455676Y132334D01*
X484124Y132334D01*
X484124Y119126D01*
X455676Y119126D01*
D20*
X477900Y118730D02*
X483900Y118730D01*
X483900Y126730D01*
X461900Y118730D02*
X455900Y118730D01*
X455900Y126730D01*
D15*
X557530Y96810D02*
X557530Y88610D01*
X570230Y88610D02*
X570230Y96810D01*
D21*
X563865Y100024D03*
X563865Y85292D03*
D15*
X557440Y129240D02*
X552540Y129240D01*
X552540Y124760D02*
X557440Y124760D01*
D19*
X550950Y126952D03*
X559078Y126952D03*
D11*
X540770Y86870D02*
X533650Y86870D01*
X533650Y78360D02*
X540770Y78360D01*
D22*
X531329Y82601D03*
X543013Y82601D03*
D10*
X266460Y70880D02*
X236460Y70880D01*
X266460Y70880D02*
X266460Y40880D01*
X236460Y40880D01*
X236460Y70880D01*
X231140Y41910D02*
X231142Y41981D01*
X231148Y42052D01*
X231158Y42123D01*
X231172Y42193D01*
X231190Y42262D01*
X231211Y42329D01*
X231237Y42396D01*
X231266Y42461D01*
X231298Y42524D01*
X231335Y42586D01*
X231374Y42645D01*
X231417Y42702D01*
X231463Y42756D01*
X231512Y42808D01*
X231564Y42857D01*
X231618Y42903D01*
X231675Y42946D01*
X231734Y42985D01*
X231796Y43022D01*
X231859Y43054D01*
X231924Y43083D01*
X231991Y43109D01*
X232058Y43130D01*
X232127Y43148D01*
X232197Y43162D01*
X232268Y43172D01*
X232339Y43178D01*
X232410Y43180D01*
X232481Y43178D01*
X232552Y43172D01*
X232623Y43162D01*
X232693Y43148D01*
X232762Y43130D01*
X232829Y43109D01*
X232896Y43083D01*
X232961Y43054D01*
X233024Y43022D01*
X233086Y42985D01*
X233145Y42946D01*
X233202Y42903D01*
X233256Y42857D01*
X233308Y42808D01*
X233357Y42756D01*
X233403Y42702D01*
X233446Y42645D01*
X233485Y42586D01*
X233522Y42524D01*
X233554Y42461D01*
X233583Y42396D01*
X233609Y42329D01*
X233630Y42262D01*
X233648Y42193D01*
X233662Y42123D01*
X233672Y42052D01*
X233678Y41981D01*
X233680Y41910D01*
X233678Y41839D01*
X233672Y41768D01*
X233662Y41697D01*
X233648Y41627D01*
X233630Y41558D01*
X233609Y41491D01*
X233583Y41424D01*
X233554Y41359D01*
X233522Y41296D01*
X233485Y41234D01*
X233446Y41175D01*
X233403Y41118D01*
X233357Y41064D01*
X233308Y41012D01*
X233256Y40963D01*
X233202Y40917D01*
X233145Y40874D01*
X233086Y40835D01*
X233024Y40798D01*
X232961Y40766D01*
X232896Y40737D01*
X232829Y40711D01*
X232762Y40690D01*
X232693Y40672D01*
X232623Y40658D01*
X232552Y40648D01*
X232481Y40642D01*
X232410Y40640D01*
X232339Y40642D01*
X232268Y40648D01*
X232197Y40658D01*
X232127Y40672D01*
X232058Y40690D01*
X231991Y40711D01*
X231924Y40737D01*
X231859Y40766D01*
X231796Y40798D01*
X231734Y40835D01*
X231675Y40874D01*
X231618Y40917D01*
X231564Y40963D01*
X231512Y41012D01*
X231463Y41064D01*
X231417Y41118D01*
X231374Y41175D01*
X231335Y41234D01*
X231298Y41296D01*
X231266Y41359D01*
X231237Y41424D01*
X231211Y41491D01*
X231190Y41558D01*
X231172Y41627D01*
X231158Y41697D01*
X231148Y41768D01*
X231142Y41839D01*
X231140Y41910D01*
D11*
X246380Y26920D02*
X254000Y26920D01*
X254000Y13720D02*
X246630Y13720D01*
D12*
X243019Y20332D03*
X257497Y20332D03*
D15*
X283970Y67060D02*
X292610Y67060D01*
X292610Y59940D02*
X283970Y59940D01*
D18*
X281940Y63500D03*
X294640Y63500D03*
D15*
X292610Y46740D02*
X283970Y46740D01*
X283970Y39620D02*
X292610Y39620D01*
D18*
X281940Y43180D03*
X294640Y43180D03*
D15*
X292610Y19300D02*
X283970Y19300D01*
X283970Y26420D02*
X292610Y26420D01*
D18*
X294640Y22860D03*
X281940Y22860D03*
D15*
X283050Y94630D02*
X263050Y94630D01*
X283050Y94630D02*
X283050Y80630D01*
X263050Y80630D01*
X263050Y94630D01*
X268050Y87630D02*
X274050Y91630D01*
X274050Y83630D01*
X268050Y87630D01*
D23*
X267050Y87630D03*
D15*
X365470Y92710D02*
X373670Y92710D01*
X373670Y80010D02*
X365470Y80010D01*
D24*
X376884Y86375D03*
X362152Y86375D03*
D10*
X295910Y72390D02*
X295910Y123190D01*
X295910Y72390D02*
X346710Y72390D01*
X346710Y123190D01*
X295910Y123190D01*
D11*
X415540Y96520D02*
X415540Y88900D01*
X402340Y88900D02*
X402340Y96270D01*
D14*
X408952Y99882D03*
X408952Y85404D03*
D11*
X246130Y97030D02*
X239010Y97030D01*
X239010Y88520D02*
X246130Y88520D01*
D22*
X236689Y92761D03*
X248373Y92761D03*
D10*
X253760Y198500D02*
X223760Y198500D01*
X253760Y198500D02*
X253760Y182500D01*
X223760Y182500D01*
X223760Y198500D01*
X219710Y180340D02*
X219712Y180411D01*
X219718Y180482D01*
X219728Y180553D01*
X219742Y180623D01*
X219760Y180692D01*
X219781Y180759D01*
X219807Y180826D01*
X219836Y180891D01*
X219868Y180954D01*
X219905Y181016D01*
X219944Y181075D01*
X219987Y181132D01*
X220033Y181186D01*
X220082Y181238D01*
X220134Y181287D01*
X220188Y181333D01*
X220245Y181376D01*
X220304Y181415D01*
X220366Y181452D01*
X220429Y181484D01*
X220494Y181513D01*
X220561Y181539D01*
X220628Y181560D01*
X220697Y181578D01*
X220767Y181592D01*
X220838Y181602D01*
X220909Y181608D01*
X220980Y181610D01*
X221051Y181608D01*
X221122Y181602D01*
X221193Y181592D01*
X221263Y181578D01*
X221332Y181560D01*
X221399Y181539D01*
X221466Y181513D01*
X221531Y181484D01*
X221594Y181452D01*
X221656Y181415D01*
X221715Y181376D01*
X221772Y181333D01*
X221826Y181287D01*
X221878Y181238D01*
X221927Y181186D01*
X221973Y181132D01*
X222016Y181075D01*
X222055Y181016D01*
X222092Y180954D01*
X222124Y180891D01*
X222153Y180826D01*
X222179Y180759D01*
X222200Y180692D01*
X222218Y180623D01*
X222232Y180553D01*
X222242Y180482D01*
X222248Y180411D01*
X222250Y180340D01*
X222248Y180269D01*
X222242Y180198D01*
X222232Y180127D01*
X222218Y180057D01*
X222200Y179988D01*
X222179Y179921D01*
X222153Y179854D01*
X222124Y179789D01*
X222092Y179726D01*
X222055Y179664D01*
X222016Y179605D01*
X221973Y179548D01*
X221927Y179494D01*
X221878Y179442D01*
X221826Y179393D01*
X221772Y179347D01*
X221715Y179304D01*
X221656Y179265D01*
X221594Y179228D01*
X221531Y179196D01*
X221466Y179167D01*
X221399Y179141D01*
X221332Y179120D01*
X221263Y179102D01*
X221193Y179088D01*
X221122Y179078D01*
X221051Y179072D01*
X220980Y179070D01*
X220909Y179072D01*
X220838Y179078D01*
X220767Y179088D01*
X220697Y179102D01*
X220628Y179120D01*
X220561Y179141D01*
X220494Y179167D01*
X220429Y179196D01*
X220366Y179228D01*
X220304Y179265D01*
X220245Y179304D01*
X220188Y179347D01*
X220134Y179393D01*
X220082Y179442D01*
X220033Y179494D01*
X219987Y179548D01*
X219944Y179605D01*
X219905Y179664D01*
X219868Y179726D01*
X219836Y179789D01*
X219807Y179854D01*
X219781Y179921D01*
X219760Y179988D01*
X219742Y180057D01*
X219728Y180127D01*
X219718Y180198D01*
X219712Y180269D01*
X219710Y180340D01*
X265670Y198500D02*
X295670Y198500D01*
X295670Y182500D01*
X265670Y182500D01*
X265670Y198500D01*
X261620Y180340D02*
X261622Y180411D01*
X261628Y180482D01*
X261638Y180553D01*
X261652Y180623D01*
X261670Y180692D01*
X261691Y180759D01*
X261717Y180826D01*
X261746Y180891D01*
X261778Y180954D01*
X261815Y181016D01*
X261854Y181075D01*
X261897Y181132D01*
X261943Y181186D01*
X261992Y181238D01*
X262044Y181287D01*
X262098Y181333D01*
X262155Y181376D01*
X262214Y181415D01*
X262276Y181452D01*
X262339Y181484D01*
X262404Y181513D01*
X262471Y181539D01*
X262538Y181560D01*
X262607Y181578D01*
X262677Y181592D01*
X262748Y181602D01*
X262819Y181608D01*
X262890Y181610D01*
X262961Y181608D01*
X263032Y181602D01*
X263103Y181592D01*
X263173Y181578D01*
X263242Y181560D01*
X263309Y181539D01*
X263376Y181513D01*
X263441Y181484D01*
X263504Y181452D01*
X263566Y181415D01*
X263625Y181376D01*
X263682Y181333D01*
X263736Y181287D01*
X263788Y181238D01*
X263837Y181186D01*
X263883Y181132D01*
X263926Y181075D01*
X263965Y181016D01*
X264002Y180954D01*
X264034Y180891D01*
X264063Y180826D01*
X264089Y180759D01*
X264110Y180692D01*
X264128Y180623D01*
X264142Y180553D01*
X264152Y180482D01*
X264158Y180411D01*
X264160Y180340D01*
X264158Y180269D01*
X264152Y180198D01*
X264142Y180127D01*
X264128Y180057D01*
X264110Y179988D01*
X264089Y179921D01*
X264063Y179854D01*
X264034Y179789D01*
X264002Y179726D01*
X263965Y179664D01*
X263926Y179605D01*
X263883Y179548D01*
X263837Y179494D01*
X263788Y179442D01*
X263736Y179393D01*
X263682Y179347D01*
X263625Y179304D01*
X263566Y179265D01*
X263504Y179228D01*
X263441Y179196D01*
X263376Y179167D01*
X263309Y179141D01*
X263242Y179120D01*
X263173Y179102D01*
X263103Y179088D01*
X263032Y179078D01*
X262961Y179072D01*
X262890Y179070D01*
X262819Y179072D01*
X262748Y179078D01*
X262677Y179088D01*
X262607Y179102D01*
X262538Y179120D01*
X262471Y179141D01*
X262404Y179167D01*
X262339Y179196D01*
X262276Y179228D01*
X262214Y179265D01*
X262155Y179304D01*
X262098Y179347D01*
X262044Y179393D01*
X261992Y179442D01*
X261943Y179494D01*
X261897Y179548D01*
X261854Y179605D01*
X261815Y179664D01*
X261778Y179726D01*
X261746Y179789D01*
X261717Y179854D01*
X261691Y179921D01*
X261670Y179988D01*
X261652Y180057D01*
X261638Y180127D01*
X261628Y180198D01*
X261622Y180269D01*
X261620Y180340D01*
X301360Y185250D02*
X301360Y195750D01*
X301360Y185250D02*
X315860Y185250D01*
X315860Y195750D01*
X301360Y195750D01*
X297180Y182880D02*
X297182Y182951D01*
X297188Y183022D01*
X297198Y183093D01*
X297212Y183163D01*
X297230Y183232D01*
X297251Y183299D01*
X297277Y183366D01*
X297306Y183431D01*
X297338Y183494D01*
X297375Y183556D01*
X297414Y183615D01*
X297457Y183672D01*
X297503Y183726D01*
X297552Y183778D01*
X297604Y183827D01*
X297658Y183873D01*
X297715Y183916D01*
X297774Y183955D01*
X297836Y183992D01*
X297899Y184024D01*
X297964Y184053D01*
X298031Y184079D01*
X298098Y184100D01*
X298167Y184118D01*
X298237Y184132D01*
X298308Y184142D01*
X298379Y184148D01*
X298450Y184150D01*
X298521Y184148D01*
X298592Y184142D01*
X298663Y184132D01*
X298733Y184118D01*
X298802Y184100D01*
X298869Y184079D01*
X298936Y184053D01*
X299001Y184024D01*
X299064Y183992D01*
X299126Y183955D01*
X299185Y183916D01*
X299242Y183873D01*
X299296Y183827D01*
X299348Y183778D01*
X299397Y183726D01*
X299443Y183672D01*
X299486Y183615D01*
X299525Y183556D01*
X299562Y183494D01*
X299594Y183431D01*
X299623Y183366D01*
X299649Y183299D01*
X299670Y183232D01*
X299688Y183163D01*
X299702Y183093D01*
X299712Y183022D01*
X299718Y182951D01*
X299720Y182880D01*
X299718Y182809D01*
X299712Y182738D01*
X299702Y182667D01*
X299688Y182597D01*
X299670Y182528D01*
X299649Y182461D01*
X299623Y182394D01*
X299594Y182329D01*
X299562Y182266D01*
X299525Y182204D01*
X299486Y182145D01*
X299443Y182088D01*
X299397Y182034D01*
X299348Y181982D01*
X299296Y181933D01*
X299242Y181887D01*
X299185Y181844D01*
X299126Y181805D01*
X299064Y181768D01*
X299001Y181736D01*
X298936Y181707D01*
X298869Y181681D01*
X298802Y181660D01*
X298733Y181642D01*
X298663Y181628D01*
X298592Y181618D01*
X298521Y181612D01*
X298450Y181610D01*
X298379Y181612D01*
X298308Y181618D01*
X298237Y181628D01*
X298167Y181642D01*
X298098Y181660D01*
X298031Y181681D01*
X297964Y181707D01*
X297899Y181736D01*
X297836Y181768D01*
X297774Y181805D01*
X297715Y181844D01*
X297658Y181887D01*
X297604Y181933D01*
X297552Y181982D01*
X297503Y182034D01*
X297457Y182088D01*
X297414Y182145D01*
X297375Y182204D01*
X297338Y182266D01*
X297306Y182329D01*
X297277Y182394D01*
X297251Y182461D01*
X297230Y182528D01*
X297212Y182597D01*
X297198Y182667D01*
X297188Y182738D01*
X297182Y182809D01*
X297180Y182880D01*
X330360Y184230D02*
X350360Y184230D01*
X330360Y184230D02*
X330360Y194230D01*
X350360Y194230D01*
X350360Y184230D01*
X351790Y196850D02*
X351792Y196921D01*
X351798Y196992D01*
X351808Y197063D01*
X351822Y197133D01*
X351840Y197202D01*
X351861Y197269D01*
X351887Y197336D01*
X351916Y197401D01*
X351948Y197464D01*
X351985Y197526D01*
X352024Y197585D01*
X352067Y197642D01*
X352113Y197696D01*
X352162Y197748D01*
X352214Y197797D01*
X352268Y197843D01*
X352325Y197886D01*
X352384Y197925D01*
X352446Y197962D01*
X352509Y197994D01*
X352574Y198023D01*
X352641Y198049D01*
X352708Y198070D01*
X352777Y198088D01*
X352847Y198102D01*
X352918Y198112D01*
X352989Y198118D01*
X353060Y198120D01*
X353131Y198118D01*
X353202Y198112D01*
X353273Y198102D01*
X353343Y198088D01*
X353412Y198070D01*
X353479Y198049D01*
X353546Y198023D01*
X353611Y197994D01*
X353674Y197962D01*
X353736Y197925D01*
X353795Y197886D01*
X353852Y197843D01*
X353906Y197797D01*
X353958Y197748D01*
X354007Y197696D01*
X354053Y197642D01*
X354096Y197585D01*
X354135Y197526D01*
X354172Y197464D01*
X354204Y197401D01*
X354233Y197336D01*
X354259Y197269D01*
X354280Y197202D01*
X354298Y197133D01*
X354312Y197063D01*
X354322Y196992D01*
X354328Y196921D01*
X354330Y196850D01*
X354328Y196779D01*
X354322Y196708D01*
X354312Y196637D01*
X354298Y196567D01*
X354280Y196498D01*
X354259Y196431D01*
X354233Y196364D01*
X354204Y196299D01*
X354172Y196236D01*
X354135Y196174D01*
X354096Y196115D01*
X354053Y196058D01*
X354007Y196004D01*
X353958Y195952D01*
X353906Y195903D01*
X353852Y195857D01*
X353795Y195814D01*
X353736Y195775D01*
X353674Y195738D01*
X353611Y195706D01*
X353546Y195677D01*
X353479Y195651D01*
X353412Y195630D01*
X353343Y195612D01*
X353273Y195598D01*
X353202Y195588D01*
X353131Y195582D01*
X353060Y195580D01*
X352989Y195582D01*
X352918Y195588D01*
X352847Y195598D01*
X352777Y195612D01*
X352708Y195630D01*
X352641Y195651D01*
X352574Y195677D01*
X352509Y195706D01*
X352446Y195738D01*
X352384Y195775D01*
X352325Y195814D01*
X352268Y195857D01*
X352214Y195903D01*
X352162Y195952D01*
X352113Y196004D01*
X352067Y196058D01*
X352024Y196115D01*
X351985Y196174D01*
X351948Y196236D01*
X351916Y196299D01*
X351887Y196364D01*
X351861Y196431D01*
X351840Y196498D01*
X351822Y196567D01*
X351808Y196637D01*
X351798Y196708D01*
X351792Y196779D01*
X351790Y196850D01*
X126840Y581500D02*
X106840Y581500D01*
X106840Y561500D01*
X126840Y561500D01*
X126840Y581500D01*
X106680Y585470D02*
X106682Y585541D01*
X106688Y585612D01*
X106698Y585683D01*
X106712Y585753D01*
X106730Y585822D01*
X106751Y585889D01*
X106777Y585956D01*
X106806Y586021D01*
X106838Y586084D01*
X106875Y586146D01*
X106914Y586205D01*
X106957Y586262D01*
X107003Y586316D01*
X107052Y586368D01*
X107104Y586417D01*
X107158Y586463D01*
X107215Y586506D01*
X107274Y586545D01*
X107336Y586582D01*
X107399Y586614D01*
X107464Y586643D01*
X107531Y586669D01*
X107598Y586690D01*
X107667Y586708D01*
X107737Y586722D01*
X107808Y586732D01*
X107879Y586738D01*
X107950Y586740D01*
X108021Y586738D01*
X108092Y586732D01*
X108163Y586722D01*
X108233Y586708D01*
X108302Y586690D01*
X108369Y586669D01*
X108436Y586643D01*
X108501Y586614D01*
X108564Y586582D01*
X108626Y586545D01*
X108685Y586506D01*
X108742Y586463D01*
X108796Y586417D01*
X108848Y586368D01*
X108897Y586316D01*
X108943Y586262D01*
X108986Y586205D01*
X109025Y586146D01*
X109062Y586084D01*
X109094Y586021D01*
X109123Y585956D01*
X109149Y585889D01*
X109170Y585822D01*
X109188Y585753D01*
X109202Y585683D01*
X109212Y585612D01*
X109218Y585541D01*
X109220Y585470D01*
X109218Y585399D01*
X109212Y585328D01*
X109202Y585257D01*
X109188Y585187D01*
X109170Y585118D01*
X109149Y585051D01*
X109123Y584984D01*
X109094Y584919D01*
X109062Y584856D01*
X109025Y584794D01*
X108986Y584735D01*
X108943Y584678D01*
X108897Y584624D01*
X108848Y584572D01*
X108796Y584523D01*
X108742Y584477D01*
X108685Y584434D01*
X108626Y584395D01*
X108564Y584358D01*
X108501Y584326D01*
X108436Y584297D01*
X108369Y584271D01*
X108302Y584250D01*
X108233Y584232D01*
X108163Y584218D01*
X108092Y584208D01*
X108021Y584202D01*
X107950Y584200D01*
X107879Y584202D01*
X107808Y584208D01*
X107737Y584218D01*
X107667Y584232D01*
X107598Y584250D01*
X107531Y584271D01*
X107464Y584297D01*
X107399Y584326D01*
X107336Y584358D01*
X107274Y584395D01*
X107215Y584434D01*
X107158Y584477D01*
X107104Y584523D01*
X107052Y584572D01*
X107003Y584624D01*
X106957Y584678D01*
X106914Y584735D01*
X106875Y584794D01*
X106838Y584856D01*
X106806Y584919D01*
X106777Y584984D01*
X106751Y585051D01*
X106730Y585118D01*
X106712Y585187D01*
X106698Y585257D01*
X106688Y585328D01*
X106682Y585399D01*
X106680Y585470D01*
X106840Y608170D02*
X126840Y608170D01*
X106840Y608170D02*
X106840Y588170D01*
X126840Y588170D01*
X126840Y608170D01*
X106680Y612140D02*
X106682Y612211D01*
X106688Y612282D01*
X106698Y612353D01*
X106712Y612423D01*
X106730Y612492D01*
X106751Y612559D01*
X106777Y612626D01*
X106806Y612691D01*
X106838Y612754D01*
X106875Y612816D01*
X106914Y612875D01*
X106957Y612932D01*
X107003Y612986D01*
X107052Y613038D01*
X107104Y613087D01*
X107158Y613133D01*
X107215Y613176D01*
X107274Y613215D01*
X107336Y613252D01*
X107399Y613284D01*
X107464Y613313D01*
X107531Y613339D01*
X107598Y613360D01*
X107667Y613378D01*
X107737Y613392D01*
X107808Y613402D01*
X107879Y613408D01*
X107950Y613410D01*
X108021Y613408D01*
X108092Y613402D01*
X108163Y613392D01*
X108233Y613378D01*
X108302Y613360D01*
X108369Y613339D01*
X108436Y613313D01*
X108501Y613284D01*
X108564Y613252D01*
X108626Y613215D01*
X108685Y613176D01*
X108742Y613133D01*
X108796Y613087D01*
X108848Y613038D01*
X108897Y612986D01*
X108943Y612932D01*
X108986Y612875D01*
X109025Y612816D01*
X109062Y612754D01*
X109094Y612691D01*
X109123Y612626D01*
X109149Y612559D01*
X109170Y612492D01*
X109188Y612423D01*
X109202Y612353D01*
X109212Y612282D01*
X109218Y612211D01*
X109220Y612140D01*
X109218Y612069D01*
X109212Y611998D01*
X109202Y611927D01*
X109188Y611857D01*
X109170Y611788D01*
X109149Y611721D01*
X109123Y611654D01*
X109094Y611589D01*
X109062Y611526D01*
X109025Y611464D01*
X108986Y611405D01*
X108943Y611348D01*
X108897Y611294D01*
X108848Y611242D01*
X108796Y611193D01*
X108742Y611147D01*
X108685Y611104D01*
X108626Y611065D01*
X108564Y611028D01*
X108501Y610996D01*
X108436Y610967D01*
X108369Y610941D01*
X108302Y610920D01*
X108233Y610902D01*
X108163Y610888D01*
X108092Y610878D01*
X108021Y610872D01*
X107950Y610870D01*
X107879Y610872D01*
X107808Y610878D01*
X107737Y610888D01*
X107667Y610902D01*
X107598Y610920D01*
X107531Y610941D01*
X107464Y610967D01*
X107399Y610996D01*
X107336Y611028D01*
X107274Y611065D01*
X107215Y611104D01*
X107158Y611147D01*
X107104Y611193D01*
X107052Y611242D01*
X107003Y611294D01*
X106957Y611348D01*
X106914Y611405D01*
X106875Y611464D01*
X106838Y611526D01*
X106806Y611589D01*
X106777Y611654D01*
X106751Y611721D01*
X106730Y611788D01*
X106712Y611857D01*
X106698Y611927D01*
X106688Y611998D01*
X106682Y612069D01*
X106680Y612140D01*
X147690Y589450D02*
X147690Y578950D01*
X162190Y578950D01*
X162190Y589450D01*
X147690Y589450D01*
X143510Y576580D02*
X143512Y576651D01*
X143518Y576722D01*
X143528Y576793D01*
X143542Y576863D01*
X143560Y576932D01*
X143581Y576999D01*
X143607Y577066D01*
X143636Y577131D01*
X143668Y577194D01*
X143705Y577256D01*
X143744Y577315D01*
X143787Y577372D01*
X143833Y577426D01*
X143882Y577478D01*
X143934Y577527D01*
X143988Y577573D01*
X144045Y577616D01*
X144104Y577655D01*
X144166Y577692D01*
X144229Y577724D01*
X144294Y577753D01*
X144361Y577779D01*
X144428Y577800D01*
X144497Y577818D01*
X144567Y577832D01*
X144638Y577842D01*
X144709Y577848D01*
X144780Y577850D01*
X144851Y577848D01*
X144922Y577842D01*
X144993Y577832D01*
X145063Y577818D01*
X145132Y577800D01*
X145199Y577779D01*
X145266Y577753D01*
X145331Y577724D01*
X145394Y577692D01*
X145456Y577655D01*
X145515Y577616D01*
X145572Y577573D01*
X145626Y577527D01*
X145678Y577478D01*
X145727Y577426D01*
X145773Y577372D01*
X145816Y577315D01*
X145855Y577256D01*
X145892Y577194D01*
X145924Y577131D01*
X145953Y577066D01*
X145979Y576999D01*
X146000Y576932D01*
X146018Y576863D01*
X146032Y576793D01*
X146042Y576722D01*
X146048Y576651D01*
X146050Y576580D01*
X146048Y576509D01*
X146042Y576438D01*
X146032Y576367D01*
X146018Y576297D01*
X146000Y576228D01*
X145979Y576161D01*
X145953Y576094D01*
X145924Y576029D01*
X145892Y575966D01*
X145855Y575904D01*
X145816Y575845D01*
X145773Y575788D01*
X145727Y575734D01*
X145678Y575682D01*
X145626Y575633D01*
X145572Y575587D01*
X145515Y575544D01*
X145456Y575505D01*
X145394Y575468D01*
X145331Y575436D01*
X145266Y575407D01*
X145199Y575381D01*
X145132Y575360D01*
X145063Y575342D01*
X144993Y575328D01*
X144922Y575318D01*
X144851Y575312D01*
X144780Y575310D01*
X144709Y575312D01*
X144638Y575318D01*
X144567Y575328D01*
X144497Y575342D01*
X144428Y575360D01*
X144361Y575381D01*
X144294Y575407D01*
X144229Y575436D01*
X144166Y575468D01*
X144104Y575505D01*
X144045Y575544D01*
X143988Y575587D01*
X143934Y575633D01*
X143882Y575682D01*
X143833Y575734D01*
X143787Y575788D01*
X143744Y575845D01*
X143705Y575904D01*
X143668Y575966D01*
X143636Y576029D01*
X143607Y576094D01*
X143581Y576161D01*
X143560Y576228D01*
X143542Y576297D01*
X143528Y576367D01*
X143518Y576438D01*
X143512Y576509D01*
X143510Y576580D01*
X166180Y580200D02*
X174180Y580200D01*
X174180Y588200D01*
X166180Y588200D01*
X166180Y580200D01*
X163830Y579120D02*
X163832Y579191D01*
X163838Y579262D01*
X163848Y579333D01*
X163862Y579403D01*
X163880Y579472D01*
X163901Y579539D01*
X163927Y579606D01*
X163956Y579671D01*
X163988Y579734D01*
X164025Y579796D01*
X164064Y579855D01*
X164107Y579912D01*
X164153Y579966D01*
X164202Y580018D01*
X164254Y580067D01*
X164308Y580113D01*
X164365Y580156D01*
X164424Y580195D01*
X164486Y580232D01*
X164549Y580264D01*
X164614Y580293D01*
X164681Y580319D01*
X164748Y580340D01*
X164817Y580358D01*
X164887Y580372D01*
X164958Y580382D01*
X165029Y580388D01*
X165100Y580390D01*
X165171Y580388D01*
X165242Y580382D01*
X165313Y580372D01*
X165383Y580358D01*
X165452Y580340D01*
X165519Y580319D01*
X165586Y580293D01*
X165651Y580264D01*
X165714Y580232D01*
X165776Y580195D01*
X165835Y580156D01*
X165892Y580113D01*
X165946Y580067D01*
X165998Y580018D01*
X166047Y579966D01*
X166093Y579912D01*
X166136Y579855D01*
X166175Y579796D01*
X166212Y579734D01*
X166244Y579671D01*
X166273Y579606D01*
X166299Y579539D01*
X166320Y579472D01*
X166338Y579403D01*
X166352Y579333D01*
X166362Y579262D01*
X166368Y579191D01*
X166370Y579120D01*
X166368Y579049D01*
X166362Y578978D01*
X166352Y578907D01*
X166338Y578837D01*
X166320Y578768D01*
X166299Y578701D01*
X166273Y578634D01*
X166244Y578569D01*
X166212Y578506D01*
X166175Y578444D01*
X166136Y578385D01*
X166093Y578328D01*
X166047Y578274D01*
X165998Y578222D01*
X165946Y578173D01*
X165892Y578127D01*
X165835Y578084D01*
X165776Y578045D01*
X165714Y578008D01*
X165651Y577976D01*
X165586Y577947D01*
X165519Y577921D01*
X165452Y577900D01*
X165383Y577882D01*
X165313Y577868D01*
X165242Y577858D01*
X165171Y577852D01*
X165100Y577850D01*
X165029Y577852D01*
X164958Y577858D01*
X164887Y577868D01*
X164817Y577882D01*
X164748Y577900D01*
X164681Y577921D01*
X164614Y577947D01*
X164549Y577976D01*
X164486Y578008D01*
X164424Y578045D01*
X164365Y578084D01*
X164308Y578127D01*
X164254Y578173D01*
X164202Y578222D01*
X164153Y578274D01*
X164107Y578328D01*
X164064Y578385D01*
X164025Y578444D01*
X163988Y578506D01*
X163956Y578569D01*
X163927Y578634D01*
X163901Y578701D01*
X163880Y578768D01*
X163862Y578837D01*
X163848Y578907D01*
X163838Y578978D01*
X163832Y579049D01*
X163830Y579120D01*
D15*
X161200Y606760D02*
X156300Y606760D01*
X156300Y602280D02*
X161200Y602280D01*
D19*
X154710Y604472D03*
X162838Y604472D03*
D15*
X91350Y588980D02*
X86450Y588980D01*
X86450Y584500D02*
X91350Y584500D01*
D19*
X84860Y586692D03*
X92988Y586692D03*
D15*
X91350Y600410D02*
X86450Y600410D01*
X86450Y595930D02*
X91350Y595930D01*
D19*
X84860Y598122D03*
X92988Y598122D03*
D15*
X91350Y569260D02*
X86450Y569260D01*
X86450Y573740D02*
X91350Y573740D01*
D19*
X92940Y571549D03*
X84812Y571549D03*
D15*
X86450Y557830D02*
X91350Y557830D01*
X91350Y562310D02*
X86450Y562310D01*
D19*
X92940Y560119D03*
X84812Y560119D03*
D10*
X522130Y448470D02*
X542130Y448470D01*
X542130Y468470D01*
X522130Y468470D01*
X522130Y448470D01*
X539750Y444500D02*
X539752Y444571D01*
X539758Y444642D01*
X539768Y444713D01*
X539782Y444783D01*
X539800Y444852D01*
X539821Y444919D01*
X539847Y444986D01*
X539876Y445051D01*
X539908Y445114D01*
X539945Y445176D01*
X539984Y445235D01*
X540027Y445292D01*
X540073Y445346D01*
X540122Y445398D01*
X540174Y445447D01*
X540228Y445493D01*
X540285Y445536D01*
X540344Y445575D01*
X540406Y445612D01*
X540469Y445644D01*
X540534Y445673D01*
X540601Y445699D01*
X540668Y445720D01*
X540737Y445738D01*
X540807Y445752D01*
X540878Y445762D01*
X540949Y445768D01*
X541020Y445770D01*
X541091Y445768D01*
X541162Y445762D01*
X541233Y445752D01*
X541303Y445738D01*
X541372Y445720D01*
X541439Y445699D01*
X541506Y445673D01*
X541571Y445644D01*
X541634Y445612D01*
X541696Y445575D01*
X541755Y445536D01*
X541812Y445493D01*
X541866Y445447D01*
X541918Y445398D01*
X541967Y445346D01*
X542013Y445292D01*
X542056Y445235D01*
X542095Y445176D01*
X542132Y445114D01*
X542164Y445051D01*
X542193Y444986D01*
X542219Y444919D01*
X542240Y444852D01*
X542258Y444783D01*
X542272Y444713D01*
X542282Y444642D01*
X542288Y444571D01*
X542290Y444500D01*
X542288Y444429D01*
X542282Y444358D01*
X542272Y444287D01*
X542258Y444217D01*
X542240Y444148D01*
X542219Y444081D01*
X542193Y444014D01*
X542164Y443949D01*
X542132Y443886D01*
X542095Y443824D01*
X542056Y443765D01*
X542013Y443708D01*
X541967Y443654D01*
X541918Y443602D01*
X541866Y443553D01*
X541812Y443507D01*
X541755Y443464D01*
X541696Y443425D01*
X541634Y443388D01*
X541571Y443356D01*
X541506Y443327D01*
X541439Y443301D01*
X541372Y443280D01*
X541303Y443262D01*
X541233Y443248D01*
X541162Y443238D01*
X541091Y443232D01*
X541020Y443230D01*
X540949Y443232D01*
X540878Y443238D01*
X540807Y443248D01*
X540737Y443262D01*
X540668Y443280D01*
X540601Y443301D01*
X540534Y443327D01*
X540469Y443356D01*
X540406Y443388D01*
X540344Y443425D01*
X540285Y443464D01*
X540228Y443507D01*
X540174Y443553D01*
X540122Y443602D01*
X540073Y443654D01*
X540027Y443708D01*
X539984Y443765D01*
X539945Y443824D01*
X539908Y443886D01*
X539876Y443949D01*
X539847Y444014D01*
X539821Y444081D01*
X539800Y444148D01*
X539782Y444217D01*
X539768Y444287D01*
X539758Y444358D01*
X539752Y444429D01*
X539750Y444500D01*
X542130Y421800D02*
X522130Y421800D01*
X542130Y421800D02*
X542130Y441800D01*
X522130Y441800D01*
X522130Y421800D01*
X539750Y417830D02*
X539752Y417901D01*
X539758Y417972D01*
X539768Y418043D01*
X539782Y418113D01*
X539800Y418182D01*
X539821Y418249D01*
X539847Y418316D01*
X539876Y418381D01*
X539908Y418444D01*
X539945Y418506D01*
X539984Y418565D01*
X540027Y418622D01*
X540073Y418676D01*
X540122Y418728D01*
X540174Y418777D01*
X540228Y418823D01*
X540285Y418866D01*
X540344Y418905D01*
X540406Y418942D01*
X540469Y418974D01*
X540534Y419003D01*
X540601Y419029D01*
X540668Y419050D01*
X540737Y419068D01*
X540807Y419082D01*
X540878Y419092D01*
X540949Y419098D01*
X541020Y419100D01*
X541091Y419098D01*
X541162Y419092D01*
X541233Y419082D01*
X541303Y419068D01*
X541372Y419050D01*
X541439Y419029D01*
X541506Y419003D01*
X541571Y418974D01*
X541634Y418942D01*
X541696Y418905D01*
X541755Y418866D01*
X541812Y418823D01*
X541866Y418777D01*
X541918Y418728D01*
X541967Y418676D01*
X542013Y418622D01*
X542056Y418565D01*
X542095Y418506D01*
X542132Y418444D01*
X542164Y418381D01*
X542193Y418316D01*
X542219Y418249D01*
X542240Y418182D01*
X542258Y418113D01*
X542272Y418043D01*
X542282Y417972D01*
X542288Y417901D01*
X542290Y417830D01*
X542288Y417759D01*
X542282Y417688D01*
X542272Y417617D01*
X542258Y417547D01*
X542240Y417478D01*
X542219Y417411D01*
X542193Y417344D01*
X542164Y417279D01*
X542132Y417216D01*
X542095Y417154D01*
X542056Y417095D01*
X542013Y417038D01*
X541967Y416984D01*
X541918Y416932D01*
X541866Y416883D01*
X541812Y416837D01*
X541755Y416794D01*
X541696Y416755D01*
X541634Y416718D01*
X541571Y416686D01*
X541506Y416657D01*
X541439Y416631D01*
X541372Y416610D01*
X541303Y416592D01*
X541233Y416578D01*
X541162Y416568D01*
X541091Y416562D01*
X541020Y416560D01*
X540949Y416562D01*
X540878Y416568D01*
X540807Y416578D01*
X540737Y416592D01*
X540668Y416610D01*
X540601Y416631D01*
X540534Y416657D01*
X540469Y416686D01*
X540406Y416718D01*
X540344Y416755D01*
X540285Y416794D01*
X540228Y416837D01*
X540174Y416883D01*
X540122Y416932D01*
X540073Y416984D01*
X540027Y417038D01*
X539984Y417095D01*
X539945Y417154D01*
X539908Y417216D01*
X539876Y417279D01*
X539847Y417344D01*
X539821Y417411D01*
X539800Y417478D01*
X539782Y417547D01*
X539768Y417617D01*
X539758Y417688D01*
X539752Y417759D01*
X539750Y417830D01*
X480960Y432900D02*
X480960Y443400D01*
X466460Y443400D01*
X466460Y432900D01*
X480960Y432900D01*
X482600Y445770D02*
X482602Y445841D01*
X482608Y445912D01*
X482618Y445983D01*
X482632Y446053D01*
X482650Y446122D01*
X482671Y446189D01*
X482697Y446256D01*
X482726Y446321D01*
X482758Y446384D01*
X482795Y446446D01*
X482834Y446505D01*
X482877Y446562D01*
X482923Y446616D01*
X482972Y446668D01*
X483024Y446717D01*
X483078Y446763D01*
X483135Y446806D01*
X483194Y446845D01*
X483256Y446882D01*
X483319Y446914D01*
X483384Y446943D01*
X483451Y446969D01*
X483518Y446990D01*
X483587Y447008D01*
X483657Y447022D01*
X483728Y447032D01*
X483799Y447038D01*
X483870Y447040D01*
X483941Y447038D01*
X484012Y447032D01*
X484083Y447022D01*
X484153Y447008D01*
X484222Y446990D01*
X484289Y446969D01*
X484356Y446943D01*
X484421Y446914D01*
X484484Y446882D01*
X484546Y446845D01*
X484605Y446806D01*
X484662Y446763D01*
X484716Y446717D01*
X484768Y446668D01*
X484817Y446616D01*
X484863Y446562D01*
X484906Y446505D01*
X484945Y446446D01*
X484982Y446384D01*
X485014Y446321D01*
X485043Y446256D01*
X485069Y446189D01*
X485090Y446122D01*
X485108Y446053D01*
X485122Y445983D01*
X485132Y445912D01*
X485138Y445841D01*
X485140Y445770D01*
X485138Y445699D01*
X485132Y445628D01*
X485122Y445557D01*
X485108Y445487D01*
X485090Y445418D01*
X485069Y445351D01*
X485043Y445284D01*
X485014Y445219D01*
X484982Y445156D01*
X484945Y445094D01*
X484906Y445035D01*
X484863Y444978D01*
X484817Y444924D01*
X484768Y444872D01*
X484716Y444823D01*
X484662Y444777D01*
X484605Y444734D01*
X484546Y444695D01*
X484484Y444658D01*
X484421Y444626D01*
X484356Y444597D01*
X484289Y444571D01*
X484222Y444550D01*
X484153Y444532D01*
X484083Y444518D01*
X484012Y444508D01*
X483941Y444502D01*
X483870Y444500D01*
X483799Y444502D01*
X483728Y444508D01*
X483657Y444518D01*
X483587Y444532D01*
X483518Y444550D01*
X483451Y444571D01*
X483384Y444597D01*
X483319Y444626D01*
X483256Y444658D01*
X483194Y444695D01*
X483135Y444734D01*
X483078Y444777D01*
X483024Y444823D01*
X482972Y444872D01*
X482923Y444924D01*
X482877Y444978D01*
X482834Y445035D01*
X482795Y445094D01*
X482758Y445156D01*
X482726Y445219D01*
X482697Y445284D01*
X482671Y445351D01*
X482650Y445418D01*
X482632Y445487D01*
X482618Y445557D01*
X482608Y445628D01*
X482602Y445699D01*
X482600Y445770D01*
X462470Y442150D02*
X454470Y442150D01*
X454470Y434150D01*
X462470Y434150D01*
X462470Y442150D01*
X462280Y443230D02*
X462282Y443301D01*
X462288Y443372D01*
X462298Y443443D01*
X462312Y443513D01*
X462330Y443582D01*
X462351Y443649D01*
X462377Y443716D01*
X462406Y443781D01*
X462438Y443844D01*
X462475Y443906D01*
X462514Y443965D01*
X462557Y444022D01*
X462603Y444076D01*
X462652Y444128D01*
X462704Y444177D01*
X462758Y444223D01*
X462815Y444266D01*
X462874Y444305D01*
X462936Y444342D01*
X462999Y444374D01*
X463064Y444403D01*
X463131Y444429D01*
X463198Y444450D01*
X463267Y444468D01*
X463337Y444482D01*
X463408Y444492D01*
X463479Y444498D01*
X463550Y444500D01*
X463621Y444498D01*
X463692Y444492D01*
X463763Y444482D01*
X463833Y444468D01*
X463902Y444450D01*
X463969Y444429D01*
X464036Y444403D01*
X464101Y444374D01*
X464164Y444342D01*
X464226Y444305D01*
X464285Y444266D01*
X464342Y444223D01*
X464396Y444177D01*
X464448Y444128D01*
X464497Y444076D01*
X464543Y444022D01*
X464586Y443965D01*
X464625Y443906D01*
X464662Y443844D01*
X464694Y443781D01*
X464723Y443716D01*
X464749Y443649D01*
X464770Y443582D01*
X464788Y443513D01*
X464802Y443443D01*
X464812Y443372D01*
X464818Y443301D01*
X464820Y443230D01*
X464818Y443159D01*
X464812Y443088D01*
X464802Y443017D01*
X464788Y442947D01*
X464770Y442878D01*
X464749Y442811D01*
X464723Y442744D01*
X464694Y442679D01*
X464662Y442616D01*
X464625Y442554D01*
X464586Y442495D01*
X464543Y442438D01*
X464497Y442384D01*
X464448Y442332D01*
X464396Y442283D01*
X464342Y442237D01*
X464285Y442194D01*
X464226Y442155D01*
X464164Y442118D01*
X464101Y442086D01*
X464036Y442057D01*
X463969Y442031D01*
X463902Y442010D01*
X463833Y441992D01*
X463763Y441978D01*
X463692Y441968D01*
X463621Y441962D01*
X463550Y441960D01*
X463479Y441962D01*
X463408Y441968D01*
X463337Y441978D01*
X463267Y441992D01*
X463198Y442010D01*
X463131Y442031D01*
X463064Y442057D01*
X462999Y442086D01*
X462936Y442118D01*
X462874Y442155D01*
X462815Y442194D01*
X462758Y442237D01*
X462704Y442283D01*
X462652Y442332D01*
X462603Y442384D01*
X462557Y442438D01*
X462514Y442495D01*
X462475Y442554D01*
X462438Y442616D01*
X462406Y442679D01*
X462377Y442744D01*
X462351Y442811D01*
X462330Y442878D01*
X462312Y442947D01*
X462298Y443017D01*
X462288Y443088D01*
X462282Y443159D01*
X462280Y443230D01*
D15*
X473800Y423880D02*
X478700Y423880D01*
X478700Y419400D02*
X473800Y419400D01*
D19*
X472210Y421592D03*
X480338Y421592D03*
D15*
X557620Y440990D02*
X562520Y440990D01*
X562520Y445470D02*
X557620Y445470D01*
D19*
X564110Y443279D03*
X555982Y443279D03*
D15*
X557620Y429560D02*
X562520Y429560D01*
X562520Y434040D02*
X557620Y434040D01*
D19*
X564110Y431849D03*
X555982Y431849D03*
D15*
X557620Y460710D02*
X562520Y460710D01*
X562520Y456230D02*
X557620Y456230D01*
D19*
X556030Y458422D03*
X564158Y458422D03*
D15*
X562520Y472140D02*
X557620Y472140D01*
X557620Y467660D02*
X562520Y467660D01*
D19*
X556030Y469852D03*
X564158Y469852D03*
D11*
X549910Y399800D02*
X542290Y399800D01*
X542290Y413000D02*
X549660Y413000D01*
D12*
X553272Y406389D03*
X538794Y406389D03*
D11*
X97790Y546350D02*
X90170Y546350D01*
X90420Y533150D02*
X97790Y533150D01*
D12*
X86809Y539762D03*
X101287Y539762D03*
D10*
X122710Y539670D02*
X122710Y513670D01*
X189710Y513670D01*
X189710Y539670D01*
X122710Y539670D01*
X140970Y512700D02*
X140970Y497460D01*
X171450Y497460D01*
X171450Y512700D01*
D15*
X158660Y562910D02*
X153760Y562910D01*
X153760Y567390D02*
X158660Y567390D01*
D19*
X160250Y565199D03*
X152122Y565199D03*
D10*
X537690Y513000D02*
X537690Y487000D01*
X537690Y513000D02*
X470690Y513000D01*
X470690Y487000D01*
X537690Y487000D01*
X519430Y513970D02*
X519430Y529210D01*
X488950Y529210D01*
X488950Y513970D01*
D15*
X474890Y454360D02*
X469990Y454360D01*
X469990Y449880D02*
X474890Y449880D01*
D19*
X468400Y452072D03*
X476528Y452072D03*
D25*
X38100Y431800D03*
X38100Y457200D03*
X38100Y482600D03*
X38100Y508000D03*
X38100Y533400D03*
X38100Y558800D03*
D26*
X71100Y599200D02*
X71100Y391400D01*
X63500Y391400D01*
X6100Y391400D01*
X6100Y599200D01*
X63500Y599200D01*
X71100Y599200D01*
X63500Y599200D02*
X63500Y391400D01*
D25*
X38100Y584200D03*
X38100Y406400D03*
X38100Y203200D03*
X38100Y228600D03*
X38100Y254000D03*
X38100Y279400D03*
X38100Y304800D03*
X38100Y330200D03*
D26*
X71100Y396000D02*
X71100Y137400D01*
X63500Y137400D01*
X6100Y137400D01*
X6100Y396000D01*
X63500Y396000D01*
X71100Y396000D01*
X63500Y396000D02*
X63500Y137400D01*
D25*
X38100Y355600D03*
X38100Y381000D03*
X38100Y177800D03*
X38100Y152400D03*
X609600Y381000D03*
X609600Y406400D03*
X609600Y431800D03*
X609600Y457200D03*
D26*
X641600Y472200D02*
X641600Y366000D01*
X584200Y366000D01*
X576600Y366000D01*
X576600Y472200D01*
X584200Y472200D01*
X641600Y472200D01*
X584200Y472200D02*
X584200Y366000D01*
D25*
X609600Y330200D03*
X609600Y304800D03*
X609600Y279400D03*
X609600Y254000D03*
X609600Y228600D03*
X609600Y203200D03*
D26*
X576600Y162800D02*
X576600Y370600D01*
X584200Y370600D01*
X641600Y370600D01*
X641600Y162800D01*
X584200Y162800D01*
X576600Y162800D01*
X584200Y162800D02*
X584200Y370600D01*
D25*
X609600Y177800D03*
X609600Y355600D03*
D10*
X622280Y792000D02*
X622280Y960600D01*
X622271Y961325D01*
X622245Y962049D01*
X622201Y962773D01*
X622140Y963495D01*
X622061Y964216D01*
X621965Y964935D01*
X621852Y965651D01*
X621721Y966364D01*
X621573Y967074D01*
X621408Y967779D01*
X621226Y968481D01*
X621027Y969178D01*
X620812Y969871D01*
X620579Y970557D01*
X620330Y971238D01*
X620065Y971913D01*
X619784Y972581D01*
X619486Y973242D01*
X619173Y973896D01*
X618844Y974542D01*
X618499Y975180D01*
X618139Y975809D01*
X617764Y976429D01*
X617374Y977040D01*
X616970Y977642D01*
X616551Y978234D01*
X616117Y978815D01*
X615670Y979386D01*
X615209Y979945D01*
X614735Y980494D01*
X614248Y981030D01*
X613748Y981555D01*
X613235Y982068D01*
X612710Y982568D01*
X612174Y983055D01*
X611625Y983529D01*
X611066Y983990D01*
X610495Y984437D01*
X609914Y984871D01*
X609322Y985290D01*
X608720Y985694D01*
X608109Y986084D01*
X607489Y986459D01*
X606860Y986819D01*
X606222Y987164D01*
X605576Y987493D01*
X604922Y987806D01*
X604261Y988104D01*
X603593Y988385D01*
X602918Y988650D01*
X602237Y988899D01*
X601551Y989132D01*
X600858Y989347D01*
X600161Y989546D01*
X599459Y989728D01*
X598754Y989893D01*
X598044Y990041D01*
X597331Y990172D01*
X596615Y990285D01*
X595896Y990381D01*
X595175Y990460D01*
X594453Y990521D01*
X593729Y990565D01*
X593005Y990591D01*
X592280Y990600D01*
X144300Y990600D01*
X143575Y990591D01*
X142851Y990565D01*
X142127Y990521D01*
X141405Y990460D01*
X140684Y990381D01*
X139965Y990285D01*
X139249Y990172D01*
X138536Y990041D01*
X137826Y989893D01*
X137121Y989728D01*
X136419Y989546D01*
X135722Y989347D01*
X135029Y989132D01*
X134343Y988899D01*
X133662Y988650D01*
X132987Y988385D01*
X132319Y988104D01*
X131658Y987806D01*
X131004Y987493D01*
X130358Y987164D01*
X129720Y986819D01*
X129091Y986459D01*
X128471Y986084D01*
X127860Y985694D01*
X127258Y985290D01*
X126666Y984871D01*
X126085Y984437D01*
X125514Y983990D01*
X124955Y983529D01*
X124406Y983055D01*
X123870Y982568D01*
X123345Y982068D01*
X122832Y981555D01*
X122332Y981030D01*
X121845Y980494D01*
X121371Y979945D01*
X120910Y979386D01*
X120463Y978815D01*
X120029Y978234D01*
X119610Y977642D01*
X119206Y977040D01*
X118816Y976429D01*
X118441Y975809D01*
X118081Y975180D01*
X117736Y974542D01*
X117407Y973896D01*
X117094Y973242D01*
X116796Y972581D01*
X116515Y971913D01*
X116250Y971238D01*
X116001Y970557D01*
X115768Y969871D01*
X115553Y969178D01*
X115354Y968481D01*
X115172Y967779D01*
X115007Y967074D01*
X114859Y966364D01*
X114728Y965651D01*
X114615Y964935D01*
X114519Y964216D01*
X114440Y963495D01*
X114379Y962773D01*
X114335Y962049D01*
X114309Y961325D01*
X114300Y960600D01*
X114300Y792000D01*
X114309Y791275D01*
X114335Y790551D01*
X114379Y789827D01*
X114440Y789105D01*
X114519Y788384D01*
X114615Y787665D01*
X114728Y786949D01*
X114859Y786236D01*
X115007Y785526D01*
X115172Y784821D01*
X115354Y784119D01*
X115553Y783422D01*
X115768Y782729D01*
X116001Y782043D01*
X116250Y781362D01*
X116515Y780687D01*
X116796Y780019D01*
X117094Y779358D01*
X117407Y778704D01*
X117736Y778058D01*
X118081Y777420D01*
X118441Y776791D01*
X118816Y776171D01*
X119206Y775560D01*
X119610Y774958D01*
X120029Y774366D01*
X120463Y773785D01*
X120910Y773214D01*
X121371Y772655D01*
X121845Y772106D01*
X122332Y771570D01*
X122832Y771045D01*
X123345Y770532D01*
X123870Y770032D01*
X124406Y769545D01*
X124955Y769071D01*
X125514Y768610D01*
X126085Y768163D01*
X126666Y767729D01*
X127258Y767310D01*
X127860Y766906D01*
X128471Y766516D01*
X129091Y766141D01*
X129720Y765781D01*
X130358Y765436D01*
X131004Y765107D01*
X131658Y764794D01*
X132319Y764496D01*
X132987Y764215D01*
X133662Y763950D01*
X134343Y763701D01*
X135029Y763468D01*
X135722Y763253D01*
X136419Y763054D01*
X137121Y762872D01*
X137826Y762707D01*
X138536Y762559D01*
X139249Y762428D01*
X139965Y762315D01*
X140684Y762219D01*
X141405Y762140D01*
X142127Y762079D01*
X142851Y762035D01*
X143575Y762009D01*
X144300Y762000D01*
X592280Y762000D01*
X593005Y762009D01*
X593729Y762035D01*
X594453Y762079D01*
X595175Y762140D01*
X595896Y762219D01*
X596615Y762315D01*
X597331Y762428D01*
X598044Y762559D01*
X598754Y762707D01*
X599459Y762872D01*
X600161Y763054D01*
X600858Y763253D01*
X601551Y763468D01*
X602237Y763701D01*
X602918Y763950D01*
X603593Y764215D01*
X604261Y764496D01*
X604922Y764794D01*
X605576Y765107D01*
X606222Y765436D01*
X606860Y765781D01*
X607489Y766141D01*
X608109Y766516D01*
X608720Y766906D01*
X609322Y767310D01*
X609914Y767729D01*
X610495Y768163D01*
X611066Y768610D01*
X611625Y769071D01*
X612174Y769545D01*
X612710Y770032D01*
X613235Y770532D01*
X613748Y771045D01*
X614248Y771570D01*
X614735Y772106D01*
X615209Y772655D01*
X615670Y773214D01*
X616117Y773785D01*
X616551Y774366D01*
X616970Y774958D01*
X617374Y775560D01*
X617764Y776171D01*
X618139Y776791D01*
X618499Y777420D01*
X618844Y778058D01*
X619173Y778704D01*
X619486Y779358D01*
X619784Y780019D01*
X620065Y780687D01*
X620330Y781362D01*
X620579Y782043D01*
X620812Y782729D01*
X621027Y783422D01*
X621226Y784119D01*
X621408Y784821D01*
X621573Y785526D01*
X621721Y786236D01*
X621852Y786949D01*
X621965Y787665D01*
X622061Y788384D01*
X622140Y789105D01*
X622201Y789827D01*
X622245Y790551D01*
X622271Y791275D01*
X622280Y792000D01*
X362830Y579470D02*
X345830Y579470D01*
X345830Y591470D01*
X362830Y591470D01*
X362830Y579470D01*
X364490Y594360D02*
X364492Y594431D01*
X364498Y594502D01*
X364508Y594573D01*
X364522Y594643D01*
X364540Y594712D01*
X364561Y594779D01*
X364587Y594846D01*
X364616Y594911D01*
X364648Y594974D01*
X364685Y595036D01*
X364724Y595095D01*
X364767Y595152D01*
X364813Y595206D01*
X364862Y595258D01*
X364914Y595307D01*
X364968Y595353D01*
X365025Y595396D01*
X365084Y595435D01*
X365146Y595472D01*
X365209Y595504D01*
X365274Y595533D01*
X365341Y595559D01*
X365408Y595580D01*
X365477Y595598D01*
X365547Y595612D01*
X365618Y595622D01*
X365689Y595628D01*
X365760Y595630D01*
X365831Y595628D01*
X365902Y595622D01*
X365973Y595612D01*
X366043Y595598D01*
X366112Y595580D01*
X366179Y595559D01*
X366246Y595533D01*
X366311Y595504D01*
X366374Y595472D01*
X366436Y595435D01*
X366495Y595396D01*
X366552Y595353D01*
X366606Y595307D01*
X366658Y595258D01*
X366707Y595206D01*
X366753Y595152D01*
X366796Y595095D01*
X366835Y595036D01*
X366872Y594974D01*
X366904Y594911D01*
X366933Y594846D01*
X366959Y594779D01*
X366980Y594712D01*
X366998Y594643D01*
X367012Y594573D01*
X367022Y594502D01*
X367028Y594431D01*
X367030Y594360D01*
X367028Y594289D01*
X367022Y594218D01*
X367012Y594147D01*
X366998Y594077D01*
X366980Y594008D01*
X366959Y593941D01*
X366933Y593874D01*
X366904Y593809D01*
X366872Y593746D01*
X366835Y593684D01*
X366796Y593625D01*
X366753Y593568D01*
X366707Y593514D01*
X366658Y593462D01*
X366606Y593413D01*
X366552Y593367D01*
X366495Y593324D01*
X366436Y593285D01*
X366374Y593248D01*
X366311Y593216D01*
X366246Y593187D01*
X366179Y593161D01*
X366112Y593140D01*
X366043Y593122D01*
X365973Y593108D01*
X365902Y593098D01*
X365831Y593092D01*
X365760Y593090D01*
X365689Y593092D01*
X365618Y593098D01*
X365547Y593108D01*
X365477Y593122D01*
X365408Y593140D01*
X365341Y593161D01*
X365274Y593187D01*
X365209Y593216D01*
X365146Y593248D01*
X365084Y593285D01*
X365025Y593324D01*
X364968Y593367D01*
X364914Y593413D01*
X364862Y593462D01*
X364813Y593514D01*
X364767Y593568D01*
X364724Y593625D01*
X364685Y593684D01*
X364648Y593746D01*
X364616Y593809D01*
X364587Y593874D01*
X364561Y593941D01*
X364540Y594008D01*
X364522Y594077D01*
X364508Y594147D01*
X364498Y594218D01*
X364492Y594289D01*
X364490Y594360D01*
D20*
X573532Y730663D02*
X620268Y730663D01*
X624078Y695547D02*
X624094Y695434D01*
X624105Y695320D01*
X624112Y695206D01*
X624116Y695092D01*
X624115Y694977D01*
X624111Y694863D01*
X624103Y694749D01*
X624091Y694635D01*
X624075Y694522D01*
X624055Y694410D01*
X624031Y694298D01*
X624004Y694187D01*
X623972Y694077D01*
X623937Y693968D01*
X623899Y693860D01*
X623856Y693754D01*
X623810Y693650D01*
X623761Y693546D01*
X623708Y693445D01*
X623652Y693346D01*
X623592Y693248D01*
X623529Y693153D01*
X623462Y693060D01*
X623393Y692969D01*
X623321Y692881D01*
X623245Y692795D01*
X623167Y692711D01*
X623086Y692631D01*
X623002Y692553D01*
X622915Y692478D01*
X622826Y692407D01*
X622735Y692338D01*
X622641Y692272D01*
X622546Y692210D01*
X622448Y692151D01*
X622348Y692095D01*
X622246Y692043D01*
X622143Y691994D01*
X622038Y691949D01*
X621931Y691908D01*
X621823Y691870D01*
X621714Y691835D01*
X621604Y691805D01*
X621493Y691778D01*
X621381Y691756D01*
X621268Y691737D01*
X573532Y730663D02*
X573402Y730646D01*
X573273Y730625D01*
X573144Y730600D01*
X573016Y730572D01*
X572889Y730539D01*
X572763Y730503D01*
X572638Y730462D01*
X572515Y730418D01*
X572393Y730371D01*
X572272Y730319D01*
X572153Y730265D01*
X572036Y730206D01*
X571921Y730144D01*
X571807Y730079D01*
X571695Y730010D01*
X571586Y729937D01*
X571479Y729862D01*
X571374Y729783D01*
X571272Y729701D01*
X571172Y729616D01*
X571075Y729529D01*
X570980Y729438D01*
X570888Y729344D01*
X570799Y729248D01*
X570713Y729149D01*
X570631Y729048D01*
X570551Y728944D01*
X570474Y728837D01*
X570401Y728729D01*
X570331Y728618D01*
X570264Y728505D01*
X570201Y728390D01*
X570141Y728274D01*
X570085Y728155D01*
X570032Y728035D01*
X569983Y727914D01*
X569938Y727791D01*
X569896Y727666D01*
X569858Y727541D01*
X569825Y727414D01*
X569794Y727287D01*
X569768Y727158D01*
X569746Y727029D01*
X569727Y726899D01*
X569713Y726769D01*
X569702Y726638D01*
X569696Y726507D01*
X569693Y726376D01*
X569694Y726245D01*
X569700Y726114D01*
X569709Y725984D01*
X569722Y725853D01*
X620268Y730663D02*
X620390Y730661D01*
X620512Y730655D01*
X620634Y730645D01*
X620755Y730632D01*
X620876Y730614D01*
X620996Y730593D01*
X621116Y730568D01*
X621235Y730539D01*
X621352Y730506D01*
X621469Y730469D01*
X621584Y730429D01*
X621698Y730385D01*
X621810Y730337D01*
X621921Y730286D01*
X622030Y730231D01*
X622138Y730173D01*
X622243Y730111D01*
X622347Y730046D01*
X622448Y729978D01*
X622547Y729907D01*
X622644Y729832D01*
X622738Y729754D01*
X622830Y729674D01*
X622919Y729590D01*
X623005Y729504D01*
X623089Y729415D01*
X623169Y729323D01*
X623247Y729229D01*
X623322Y729132D01*
X623393Y729033D01*
X623461Y728932D01*
X623526Y728828D01*
X623588Y728723D01*
X623646Y728615D01*
X623701Y728506D01*
X623752Y728395D01*
X623800Y728283D01*
X623844Y728169D01*
X623884Y728054D01*
X623921Y727937D01*
X623954Y727820D01*
X623983Y727701D01*
X624008Y727581D01*
X624029Y727461D01*
X624047Y727340D01*
X624060Y727219D01*
X624070Y727097D01*
X624076Y726975D01*
X624078Y726853D01*
X573533Y691737D02*
X573419Y691722D01*
X573305Y691710D01*
X573191Y691703D01*
X573077Y691699D01*
X572963Y691700D01*
X572848Y691704D01*
X572734Y691712D01*
X572621Y691724D01*
X572508Y691740D01*
X572395Y691760D01*
X572283Y691784D01*
X572172Y691811D01*
X572062Y691842D01*
X571953Y691877D01*
X571846Y691916D01*
X571739Y691958D01*
X571635Y692004D01*
X571532Y692054D01*
X571430Y692107D01*
X571331Y692163D01*
X571233Y692223D01*
X571138Y692286D01*
X571045Y692352D01*
X570954Y692422D01*
X570866Y692494D01*
X570780Y692570D01*
X570697Y692648D01*
X570616Y692729D01*
X570538Y692813D01*
X570464Y692899D01*
X570392Y692988D01*
X570323Y693080D01*
X570257Y693173D01*
X570195Y693269D01*
X570136Y693367D01*
X570080Y693467D01*
X570028Y693569D01*
X569980Y693672D01*
X569934Y693777D01*
X569893Y693884D01*
X569855Y693992D01*
X569821Y694101D01*
X569791Y694211D01*
X569764Y694322D01*
X569741Y694434D01*
X569722Y694547D01*
X573532Y691737D02*
X621268Y691737D01*
X624078Y695547D02*
X624078Y726853D01*
X570230Y717296D02*
X570388Y717294D01*
X570547Y717288D01*
X570705Y717278D01*
X570862Y717264D01*
X571020Y717247D01*
X571176Y717225D01*
X571333Y717200D01*
X571488Y717170D01*
X571643Y717137D01*
X571797Y717100D01*
X571950Y717059D01*
X572102Y717014D01*
X572252Y716965D01*
X572402Y716913D01*
X572550Y716857D01*
X572697Y716797D01*
X572842Y716734D01*
X572985Y716667D01*
X573127Y716597D01*
X573267Y716523D01*
X573405Y716445D01*
X573541Y716364D01*
X573675Y716280D01*
X573807Y716193D01*
X573937Y716102D01*
X574064Y716008D01*
X574189Y715911D01*
X574312Y715810D01*
X574432Y715707D01*
X574549Y715601D01*
X574664Y715492D01*
X574776Y715380D01*
X574885Y715265D01*
X574991Y715148D01*
X575094Y715028D01*
X575195Y714905D01*
X575292Y714780D01*
X575386Y714653D01*
X575477Y714523D01*
X575564Y714391D01*
X575648Y714257D01*
X575729Y714121D01*
X575807Y713983D01*
X575881Y713843D01*
X575951Y713701D01*
X576018Y713558D01*
X576081Y713413D01*
X576141Y713266D01*
X576197Y713118D01*
X576249Y712968D01*
X576298Y712818D01*
X576343Y712666D01*
X576384Y712513D01*
X576421Y712359D01*
X576454Y712204D01*
X576484Y712049D01*
X576509Y711892D01*
X576531Y711736D01*
X576548Y711578D01*
X576562Y711421D01*
X576572Y711263D01*
X576578Y711104D01*
X576580Y710946D01*
X576578Y710788D01*
X576572Y710629D01*
X576562Y710471D01*
X576548Y710314D01*
X576531Y710156D01*
X576509Y710000D01*
X576484Y709843D01*
X576454Y709688D01*
X576421Y709533D01*
X576384Y709379D01*
X576343Y709226D01*
X576298Y709074D01*
X576249Y708924D01*
X576197Y708774D01*
X576141Y708626D01*
X576081Y708479D01*
X576018Y708334D01*
X575951Y708191D01*
X575881Y708049D01*
X575807Y707909D01*
X575729Y707771D01*
X575648Y707635D01*
X575564Y707501D01*
X575477Y707369D01*
X575386Y707239D01*
X575292Y707112D01*
X575195Y706987D01*
X575094Y706864D01*
X574991Y706744D01*
X574885Y706627D01*
X574776Y706512D01*
X574664Y706400D01*
X574549Y706291D01*
X574432Y706185D01*
X574312Y706082D01*
X574189Y705981D01*
X574064Y705884D01*
X573937Y705790D01*
X573807Y705699D01*
X573675Y705612D01*
X573541Y705528D01*
X573405Y705447D01*
X573267Y705369D01*
X573127Y705295D01*
X572985Y705225D01*
X572842Y705158D01*
X572697Y705095D01*
X572550Y705035D01*
X572402Y704979D01*
X572252Y704927D01*
X572102Y704878D01*
X571950Y704833D01*
X571797Y704792D01*
X571643Y704755D01*
X571488Y704722D01*
X571333Y704692D01*
X571176Y704667D01*
X571020Y704645D01*
X570862Y704628D01*
X570705Y704614D01*
X570547Y704604D01*
X570388Y704598D01*
X570230Y704596D01*
X569722Y717296D02*
X569722Y725726D01*
X569722Y704596D02*
X569722Y694547D01*
D27*
X577850Y683324D03*
X590550Y683324D03*
X603250Y683324D03*
X615950Y683324D03*
D28*
X590550Y739140D03*
X603250Y739140D03*
X615950Y739140D03*
X577850Y739140D03*
D15*
X552750Y699680D02*
X552750Y694780D01*
X557230Y694780D02*
X557230Y699680D01*
D16*
X555039Y693190D03*
X555039Y701318D03*
D10*
X556060Y716480D02*
X531060Y716480D01*
X556060Y716480D02*
X556060Y741480D01*
X531060Y741480D01*
X531060Y716480D01*
X525254Y739140D02*
X525256Y739224D01*
X525262Y739308D01*
X525272Y739392D01*
X525285Y739475D01*
X525303Y739557D01*
X525325Y739639D01*
X525350Y739719D01*
X525379Y739798D01*
X525412Y739876D01*
X525448Y739952D01*
X525488Y740026D01*
X525531Y740098D01*
X525577Y740168D01*
X525627Y740236D01*
X525680Y740302D01*
X525736Y740365D01*
X525795Y740425D01*
X525857Y740482D01*
X525921Y740537D01*
X525988Y740588D01*
X526057Y740636D01*
X526128Y740681D01*
X526201Y740723D01*
X526276Y740761D01*
X526353Y740795D01*
X526431Y740826D01*
X526511Y740853D01*
X526592Y740877D01*
X526674Y740896D01*
X526757Y740912D01*
X526840Y740924D01*
X526924Y740932D01*
X527008Y740936D01*
X527092Y740936D01*
X527176Y740932D01*
X527260Y740924D01*
X527343Y740912D01*
X527426Y740896D01*
X527508Y740877D01*
X527589Y740853D01*
X527669Y740826D01*
X527747Y740795D01*
X527824Y740761D01*
X527899Y740723D01*
X527972Y740681D01*
X528043Y740636D01*
X528112Y740588D01*
X528179Y740537D01*
X528243Y740482D01*
X528305Y740425D01*
X528364Y740365D01*
X528420Y740302D01*
X528473Y740236D01*
X528523Y740168D01*
X528569Y740098D01*
X528612Y740026D01*
X528652Y739952D01*
X528688Y739876D01*
X528721Y739798D01*
X528750Y739719D01*
X528775Y739639D01*
X528797Y739557D01*
X528815Y739475D01*
X528828Y739392D01*
X528838Y739308D01*
X528844Y739224D01*
X528846Y739140D01*
X528844Y739056D01*
X528838Y738972D01*
X528828Y738888D01*
X528815Y738805D01*
X528797Y738723D01*
X528775Y738641D01*
X528750Y738561D01*
X528721Y738482D01*
X528688Y738404D01*
X528652Y738328D01*
X528612Y738254D01*
X528569Y738182D01*
X528523Y738112D01*
X528473Y738044D01*
X528420Y737978D01*
X528364Y737915D01*
X528305Y737855D01*
X528243Y737798D01*
X528179Y737743D01*
X528112Y737692D01*
X528043Y737644D01*
X527972Y737599D01*
X527899Y737557D01*
X527824Y737519D01*
X527747Y737485D01*
X527669Y737454D01*
X527589Y737427D01*
X527508Y737403D01*
X527426Y737384D01*
X527343Y737368D01*
X527260Y737356D01*
X527176Y737348D01*
X527092Y737344D01*
X527008Y737344D01*
X526924Y737348D01*
X526840Y737356D01*
X526757Y737368D01*
X526674Y737384D01*
X526592Y737403D01*
X526511Y737427D01*
X526431Y737454D01*
X526353Y737485D01*
X526276Y737519D01*
X526201Y737557D01*
X526128Y737599D01*
X526057Y737644D01*
X525988Y737692D01*
X525921Y737743D01*
X525857Y737798D01*
X525795Y737855D01*
X525736Y737915D01*
X525680Y737978D01*
X525627Y738044D01*
X525577Y738112D01*
X525531Y738182D01*
X525488Y738254D01*
X525448Y738328D01*
X525412Y738404D01*
X525379Y738482D01*
X525350Y738561D01*
X525325Y738641D01*
X525303Y738723D01*
X525285Y738805D01*
X525272Y738888D01*
X525262Y738972D01*
X525256Y739056D01*
X525254Y739140D01*
X443110Y220740D02*
X443110Y190740D01*
X428110Y190740D01*
X428110Y220740D01*
X443110Y220740D01*
X430530Y217170D02*
X430532Y217241D01*
X430538Y217312D01*
X430548Y217383D01*
X430562Y217453D01*
X430580Y217522D01*
X430601Y217589D01*
X430627Y217656D01*
X430656Y217721D01*
X430688Y217784D01*
X430725Y217846D01*
X430764Y217905D01*
X430807Y217962D01*
X430853Y218016D01*
X430902Y218068D01*
X430954Y218117D01*
X431008Y218163D01*
X431065Y218206D01*
X431124Y218245D01*
X431186Y218282D01*
X431249Y218314D01*
X431314Y218343D01*
X431381Y218369D01*
X431448Y218390D01*
X431517Y218408D01*
X431587Y218422D01*
X431658Y218432D01*
X431729Y218438D01*
X431800Y218440D01*
X431871Y218438D01*
X431942Y218432D01*
X432013Y218422D01*
X432083Y218408D01*
X432152Y218390D01*
X432219Y218369D01*
X432286Y218343D01*
X432351Y218314D01*
X432414Y218282D01*
X432476Y218245D01*
X432535Y218206D01*
X432592Y218163D01*
X432646Y218117D01*
X432698Y218068D01*
X432747Y218016D01*
X432793Y217962D01*
X432836Y217905D01*
X432875Y217846D01*
X432912Y217784D01*
X432944Y217721D01*
X432973Y217656D01*
X432999Y217589D01*
X433020Y217522D01*
X433038Y217453D01*
X433052Y217383D01*
X433062Y217312D01*
X433068Y217241D01*
X433070Y217170D01*
X433068Y217099D01*
X433062Y217028D01*
X433052Y216957D01*
X433038Y216887D01*
X433020Y216818D01*
X432999Y216751D01*
X432973Y216684D01*
X432944Y216619D01*
X432912Y216556D01*
X432875Y216494D01*
X432836Y216435D01*
X432793Y216378D01*
X432747Y216324D01*
X432698Y216272D01*
X432646Y216223D01*
X432592Y216177D01*
X432535Y216134D01*
X432476Y216095D01*
X432414Y216058D01*
X432351Y216026D01*
X432286Y215997D01*
X432219Y215971D01*
X432152Y215950D01*
X432083Y215932D01*
X432013Y215918D01*
X431942Y215908D01*
X431871Y215902D01*
X431800Y215900D01*
X431729Y215902D01*
X431658Y215908D01*
X431587Y215918D01*
X431517Y215932D01*
X431448Y215950D01*
X431381Y215971D01*
X431314Y215997D01*
X431249Y216026D01*
X431186Y216058D01*
X431124Y216095D01*
X431065Y216134D01*
X431008Y216177D01*
X430954Y216223D01*
X430902Y216272D01*
X430853Y216324D01*
X430807Y216378D01*
X430764Y216435D01*
X430725Y216494D01*
X430688Y216556D01*
X430656Y216619D01*
X430627Y216684D01*
X430601Y216751D01*
X430580Y216818D01*
X430562Y216887D01*
X430548Y216957D01*
X430538Y217028D01*
X430532Y217099D01*
X430530Y217170D01*
D15*
X431710Y225090D02*
X426810Y225090D01*
X426810Y229570D02*
X431710Y229570D01*
D19*
X433300Y227379D03*
X425172Y227379D03*
D15*
X433160Y186390D02*
X438060Y186390D01*
X438060Y181910D02*
X433160Y181910D01*
D19*
X431570Y184102D03*
X439698Y184102D03*
D20*
X388970Y195990D02*
X388970Y215490D01*
X400970Y215490D01*
X400970Y195990D01*
X388970Y195990D01*
D29*
X404345Y199240D03*
X404345Y212240D03*
X385595Y212240D03*
X385595Y205740D03*
X385595Y199240D03*
D30*
X392430Y211455D03*
D15*
X392520Y186990D02*
X397420Y186990D01*
X397420Y191470D02*
X392520Y191470D01*
D19*
X399010Y189279D03*
X390882Y189279D03*
D11*
X390140Y223010D02*
X397260Y223010D01*
X397260Y231520D02*
X390140Y231520D01*
D22*
X399582Y227279D03*
X387898Y227279D03*
D15*
X334260Y159230D02*
X334260Y143030D01*
X305820Y143030D01*
X305820Y159230D01*
X334260Y159230D01*
X315760Y143030D02*
X314820Y143030D01*
X324320Y143030D02*
X325260Y143030D01*
X306760Y143030D02*
X305820Y143030D01*
X333320Y143030D02*
X334260Y143030D01*
X334260Y159230D02*
X333320Y159230D01*
X306760Y159230D02*
X305820Y159230D01*
X324320Y159230D02*
X325260Y159230D01*
X315760Y159230D02*
X314820Y159230D01*
X309040Y146630D02*
X309042Y146693D01*
X309048Y146755D01*
X309058Y146817D01*
X309071Y146879D01*
X309089Y146939D01*
X309110Y146998D01*
X309135Y147056D01*
X309164Y147112D01*
X309196Y147166D01*
X309231Y147218D01*
X309269Y147267D01*
X309311Y147315D01*
X309355Y147359D01*
X309403Y147401D01*
X309452Y147439D01*
X309504Y147474D01*
X309558Y147506D01*
X309614Y147535D01*
X309672Y147560D01*
X309731Y147581D01*
X309791Y147599D01*
X309853Y147612D01*
X309915Y147622D01*
X309977Y147628D01*
X310040Y147630D01*
X310103Y147628D01*
X310165Y147622D01*
X310227Y147612D01*
X310289Y147599D01*
X310349Y147581D01*
X310408Y147560D01*
X310466Y147535D01*
X310522Y147506D01*
X310576Y147474D01*
X310628Y147439D01*
X310677Y147401D01*
X310725Y147359D01*
X310769Y147315D01*
X310811Y147267D01*
X310849Y147218D01*
X310884Y147166D01*
X310916Y147112D01*
X310945Y147056D01*
X310970Y146998D01*
X310991Y146939D01*
X311009Y146879D01*
X311022Y146817D01*
X311032Y146755D01*
X311038Y146693D01*
X311040Y146630D01*
X311038Y146567D01*
X311032Y146505D01*
X311022Y146443D01*
X311009Y146381D01*
X310991Y146321D01*
X310970Y146262D01*
X310945Y146204D01*
X310916Y146148D01*
X310884Y146094D01*
X310849Y146042D01*
X310811Y145993D01*
X310769Y145945D01*
X310725Y145901D01*
X310677Y145859D01*
X310628Y145821D01*
X310576Y145786D01*
X310522Y145754D01*
X310466Y145725D01*
X310408Y145700D01*
X310349Y145679D01*
X310289Y145661D01*
X310227Y145648D01*
X310165Y145638D01*
X310103Y145632D01*
X310040Y145630D01*
X309977Y145632D01*
X309915Y145638D01*
X309853Y145648D01*
X309791Y145661D01*
X309731Y145679D01*
X309672Y145700D01*
X309614Y145725D01*
X309558Y145754D01*
X309504Y145786D01*
X309452Y145821D01*
X309403Y145859D01*
X309355Y145901D01*
X309311Y145945D01*
X309269Y145993D01*
X309231Y146042D01*
X309196Y146094D01*
X309164Y146148D01*
X309135Y146204D01*
X309110Y146262D01*
X309089Y146321D01*
X309071Y146381D01*
X309058Y146443D01*
X309048Y146505D01*
X309042Y146567D01*
X309040Y146630D01*
D31*
X310540Y139380D03*
X320040Y139380D03*
X329540Y139380D03*
X329540Y162880D03*
X320040Y162880D03*
X310540Y162880D03*
D15*
X266446Y153924D02*
X266446Y140716D01*
X266446Y153924D02*
X294894Y153924D01*
X294894Y140716D01*
X266446Y140716D01*
D20*
X288670Y140320D02*
X294670Y140320D01*
X294670Y148320D01*
X272670Y140320D02*
X266670Y140320D01*
X266670Y148320D01*
D15*
X224536Y153924D02*
X224536Y140716D01*
X224536Y153924D02*
X252984Y153924D01*
X252984Y140716D01*
X224536Y140716D01*
D20*
X246760Y140320D02*
X252760Y140320D01*
X252760Y148320D01*
X230760Y140320D02*
X224760Y140320D01*
X224760Y148320D01*
D15*
X343150Y151890D02*
X343150Y160530D01*
X350270Y160530D02*
X350270Y151890D01*
D17*
X346710Y149860D03*
X346710Y162560D03*
D32*
X142850Y795735D02*
X123850Y795735D01*
X142850Y795735D02*
X142850Y773860D01*
X123850Y773860D01*
X123850Y795735D01*
D33*
X128100Y779610D03*
D34*
X128600Y779860D03*
D35*
X125850Y798673D03*
X130850Y798673D03*
X135850Y798673D03*
X140850Y798673D03*
X140850Y771048D03*
X135850Y771048D03*
X130850Y771048D03*
X125850Y771048D03*
D32*
X123850Y775860D02*
X123850Y793735D01*
X142850Y793735D02*
X142850Y775860D01*
D15*
X22770Y82850D02*
X17870Y82850D01*
X17870Y87330D02*
X22770Y87330D01*
D19*
X24360Y85139D03*
X16232Y85139D03*
D11*
X16510Y61980D02*
X24130Y61980D01*
X23880Y75180D02*
X16510Y75180D01*
D12*
X27492Y68569D03*
X13014Y68569D03*
D10*
X53340Y91440D02*
X53340Y96440D01*
X53340Y91440D02*
X58340Y91440D01*
X53340Y126440D02*
X53340Y131440D01*
X58340Y131440D01*
X88340Y131440D02*
X93340Y131440D01*
X93340Y126440D01*
X93340Y96440D02*
X93340Y91440D01*
X88340Y91440D01*
X48260Y134620D02*
X48262Y134691D01*
X48268Y134762D01*
X48278Y134833D01*
X48292Y134903D01*
X48310Y134972D01*
X48331Y135039D01*
X48357Y135106D01*
X48386Y135171D01*
X48418Y135234D01*
X48455Y135296D01*
X48494Y135355D01*
X48537Y135412D01*
X48583Y135466D01*
X48632Y135518D01*
X48684Y135567D01*
X48738Y135613D01*
X48795Y135656D01*
X48854Y135695D01*
X48916Y135732D01*
X48979Y135764D01*
X49044Y135793D01*
X49111Y135819D01*
X49178Y135840D01*
X49247Y135858D01*
X49317Y135872D01*
X49388Y135882D01*
X49459Y135888D01*
X49530Y135890D01*
X49601Y135888D01*
X49672Y135882D01*
X49743Y135872D01*
X49813Y135858D01*
X49882Y135840D01*
X49949Y135819D01*
X50016Y135793D01*
X50081Y135764D01*
X50144Y135732D01*
X50206Y135695D01*
X50265Y135656D01*
X50322Y135613D01*
X50376Y135567D01*
X50428Y135518D01*
X50477Y135466D01*
X50523Y135412D01*
X50566Y135355D01*
X50605Y135296D01*
X50642Y135234D01*
X50674Y135171D01*
X50703Y135106D01*
X50729Y135039D01*
X50750Y134972D01*
X50768Y134903D01*
X50782Y134833D01*
X50792Y134762D01*
X50798Y134691D01*
X50800Y134620D01*
X50798Y134549D01*
X50792Y134478D01*
X50782Y134407D01*
X50768Y134337D01*
X50750Y134268D01*
X50729Y134201D01*
X50703Y134134D01*
X50674Y134069D01*
X50642Y134006D01*
X50605Y133944D01*
X50566Y133885D01*
X50523Y133828D01*
X50477Y133774D01*
X50428Y133722D01*
X50376Y133673D01*
X50322Y133627D01*
X50265Y133584D01*
X50206Y133545D01*
X50144Y133508D01*
X50081Y133476D01*
X50016Y133447D01*
X49949Y133421D01*
X49882Y133400D01*
X49813Y133382D01*
X49743Y133368D01*
X49672Y133358D01*
X49601Y133352D01*
X49530Y133350D01*
X49459Y133352D01*
X49388Y133358D01*
X49317Y133368D01*
X49247Y133382D01*
X49178Y133400D01*
X49111Y133421D01*
X49044Y133447D01*
X48979Y133476D01*
X48916Y133508D01*
X48854Y133545D01*
X48795Y133584D01*
X48738Y133627D01*
X48684Y133673D01*
X48632Y133722D01*
X48583Y133774D01*
X48537Y133828D01*
X48494Y133885D01*
X48455Y133944D01*
X48418Y134006D01*
X48386Y134069D01*
X48357Y134134D01*
X48331Y134201D01*
X48310Y134268D01*
X48292Y134337D01*
X48278Y134407D01*
X48268Y134478D01*
X48262Y134549D01*
X48260Y134620D01*
D15*
X54700Y62530D02*
X59600Y62530D01*
X59600Y67010D02*
X54700Y67010D01*
D19*
X61190Y64819D03*
X53062Y64819D03*
D15*
X54700Y73960D02*
X59600Y73960D01*
X59600Y78440D02*
X54700Y78440D01*
D19*
X61190Y76249D03*
X53062Y76249D03*
D15*
X101900Y102960D02*
X101900Y107860D01*
X106380Y107860D02*
X106380Y102960D01*
D16*
X104189Y101370D03*
X104189Y109498D03*
D15*
X22770Y98760D02*
X17870Y98760D01*
X17870Y94280D02*
X22770Y94280D01*
D19*
X16280Y96472D03*
X24408Y96472D03*
D15*
X22770Y110190D02*
X17870Y110190D01*
X17870Y105710D02*
X22770Y105710D01*
D19*
X16280Y107902D03*
X24408Y107902D03*
D10*
X22150Y42470D02*
X92150Y42470D01*
X22150Y41470D02*
X22150Y26470D01*
X22150Y1470D02*
X22150Y-7030D01*
X22150Y-7530D01*
X92150Y26470D02*
X92150Y41470D01*
X102150Y-530D02*
X4650Y-530D01*
X17150Y-12030D02*
X17290Y-12028D01*
X17430Y-12022D01*
X17570Y-12012D01*
X17710Y-11999D01*
X17849Y-11981D01*
X17988Y-11959D01*
X18125Y-11934D01*
X18263Y-11905D01*
X18399Y-11872D01*
X18534Y-11835D01*
X18668Y-11794D01*
X18801Y-11749D01*
X18933Y-11701D01*
X19063Y-11649D01*
X19192Y-11594D01*
X19319Y-11535D01*
X19445Y-11472D01*
X19569Y-11406D01*
X19690Y-11337D01*
X19810Y-11264D01*
X19928Y-11187D01*
X20043Y-11108D01*
X20157Y-11025D01*
X20267Y-10939D01*
X20376Y-10850D01*
X20482Y-10758D01*
X20585Y-10663D01*
X20686Y-10566D01*
X20783Y-10465D01*
X20878Y-10362D01*
X20970Y-10256D01*
X21059Y-10147D01*
X21145Y-10037D01*
X21228Y-9923D01*
X21307Y-9808D01*
X21384Y-9690D01*
X21457Y-9570D01*
X21526Y-9449D01*
X21592Y-9325D01*
X21655Y-9199D01*
X21714Y-9072D01*
X21769Y-8943D01*
X21821Y-8813D01*
X21869Y-8681D01*
X21914Y-8548D01*
X21955Y-8414D01*
X21992Y-8279D01*
X22025Y-8143D01*
X22054Y-8005D01*
X22079Y-7868D01*
X22101Y-7729D01*
X22119Y-7590D01*
X22132Y-7450D01*
X22142Y-7310D01*
X22148Y-7170D01*
X22150Y-7030D01*
X17150Y-12030D02*
X18150Y-15030D01*
X18343Y-15028D01*
X18537Y-15021D01*
X18729Y-15009D01*
X18922Y-14993D01*
X19114Y-14972D01*
X19306Y-14946D01*
X19497Y-14916D01*
X19687Y-14881D01*
X19876Y-14842D01*
X20065Y-14798D01*
X20252Y-14749D01*
X20438Y-14696D01*
X20622Y-14638D01*
X20805Y-14576D01*
X20987Y-14510D01*
X21167Y-14439D01*
X21345Y-14364D01*
X21521Y-14285D01*
X21696Y-14201D01*
X21868Y-14114D01*
X22038Y-14022D01*
X22206Y-13926D01*
X22371Y-13826D01*
X22534Y-13722D01*
X22695Y-13614D01*
X22852Y-13502D01*
X23007Y-13387D01*
X23159Y-13267D01*
X23309Y-13145D01*
X23455Y-13018D01*
X23598Y-12888D01*
X23738Y-12755D01*
X23875Y-12618D01*
X24008Y-12478D01*
X24138Y-12335D01*
X24265Y-12189D01*
X24387Y-12039D01*
X24507Y-11887D01*
X24622Y-11732D01*
X24734Y-11575D01*
X24842Y-11414D01*
X24946Y-11251D01*
X25046Y-11086D01*
X25142Y-10918D01*
X25234Y-10748D01*
X25321Y-10576D01*
X25405Y-10401D01*
X25484Y-10225D01*
X25559Y-10047D01*
X25630Y-9867D01*
X25696Y-9685D01*
X25758Y-9502D01*
X25816Y-9318D01*
X25869Y-9132D01*
X25918Y-8945D01*
X25962Y-8756D01*
X26001Y-8567D01*
X26036Y-8377D01*
X26066Y-8186D01*
X26092Y-7994D01*
X26113Y-7802D01*
X26129Y-7609D01*
X26141Y-7417D01*
X26148Y-7223D01*
X26150Y-7030D01*
X26150Y-4030D01*
X29150Y-4030D01*
X29152Y-4156D01*
X29158Y-4281D01*
X29168Y-4406D01*
X29182Y-4531D01*
X29199Y-4656D01*
X29221Y-4780D01*
X29246Y-4903D01*
X29276Y-5025D01*
X29309Y-5146D01*
X29346Y-5266D01*
X29386Y-5385D01*
X29431Y-5502D01*
X29479Y-5619D01*
X29531Y-5733D01*
X29586Y-5846D01*
X29645Y-5957D01*
X29707Y-6066D01*
X29773Y-6173D01*
X29842Y-6278D01*
X29914Y-6381D01*
X29989Y-6482D01*
X30068Y-6580D01*
X30150Y-6675D01*
X30234Y-6768D01*
X30322Y-6858D01*
X30412Y-6946D01*
X30505Y-7030D01*
X30600Y-7112D01*
X30698Y-7191D01*
X30799Y-7266D01*
X30902Y-7338D01*
X31007Y-7407D01*
X31114Y-7473D01*
X31223Y-7535D01*
X31334Y-7594D01*
X31447Y-7649D01*
X31561Y-7701D01*
X31678Y-7749D01*
X31795Y-7794D01*
X31914Y-7834D01*
X32034Y-7871D01*
X32155Y-7904D01*
X32277Y-7934D01*
X32400Y-7959D01*
X32524Y-7981D01*
X32649Y-7998D01*
X32774Y-8012D01*
X32899Y-8022D01*
X33024Y-8028D01*
X33150Y-8030D01*
X92150Y-7030D02*
X92150Y1470D01*
X92150Y-7030D02*
X92150Y-7530D01*
X92150Y-7030D02*
X92152Y-7170D01*
X92158Y-7310D01*
X92168Y-7450D01*
X92181Y-7590D01*
X92199Y-7729D01*
X92221Y-7868D01*
X92246Y-8005D01*
X92275Y-8143D01*
X92308Y-8279D01*
X92345Y-8414D01*
X92386Y-8548D01*
X92431Y-8681D01*
X92479Y-8813D01*
X92531Y-8943D01*
X92586Y-9072D01*
X92645Y-9199D01*
X92708Y-9325D01*
X92774Y-9449D01*
X92843Y-9570D01*
X92916Y-9690D01*
X92993Y-9808D01*
X93072Y-9923D01*
X93155Y-10037D01*
X93241Y-10147D01*
X93330Y-10256D01*
X93422Y-10362D01*
X93517Y-10465D01*
X93614Y-10566D01*
X93715Y-10663D01*
X93818Y-10758D01*
X93924Y-10850D01*
X94033Y-10939D01*
X94143Y-11025D01*
X94257Y-11108D01*
X94372Y-11187D01*
X94490Y-11264D01*
X94610Y-11337D01*
X94731Y-11406D01*
X94855Y-11472D01*
X94981Y-11535D01*
X95108Y-11594D01*
X95237Y-11649D01*
X95367Y-11701D01*
X95499Y-11749D01*
X95632Y-11794D01*
X95766Y-11835D01*
X95901Y-11872D01*
X96037Y-11905D01*
X96175Y-11934D01*
X96312Y-11959D01*
X96451Y-11981D01*
X96590Y-11999D01*
X96730Y-12012D01*
X96870Y-12022D01*
X97010Y-12028D01*
X97150Y-12030D01*
X96150Y-15030D01*
X95957Y-15028D01*
X95763Y-15021D01*
X95571Y-15009D01*
X95378Y-14993D01*
X95186Y-14972D01*
X94994Y-14946D01*
X94803Y-14916D01*
X94613Y-14881D01*
X94424Y-14842D01*
X94235Y-14798D01*
X94048Y-14749D01*
X93862Y-14696D01*
X93678Y-14638D01*
X93495Y-14576D01*
X93313Y-14510D01*
X93133Y-14439D01*
X92955Y-14364D01*
X92779Y-14285D01*
X92604Y-14201D01*
X92432Y-14114D01*
X92262Y-14022D01*
X92094Y-13926D01*
X91929Y-13826D01*
X91766Y-13722D01*
X91605Y-13614D01*
X91448Y-13502D01*
X91293Y-13387D01*
X91141Y-13267D01*
X90991Y-13145D01*
X90845Y-13018D01*
X90702Y-12888D01*
X90562Y-12755D01*
X90425Y-12618D01*
X90292Y-12478D01*
X90162Y-12335D01*
X90035Y-12189D01*
X89913Y-12039D01*
X89793Y-11887D01*
X89678Y-11732D01*
X89566Y-11575D01*
X89458Y-11414D01*
X89354Y-11251D01*
X89254Y-11086D01*
X89158Y-10918D01*
X89066Y-10748D01*
X88979Y-10576D01*
X88895Y-10401D01*
X88816Y-10225D01*
X88741Y-10047D01*
X88670Y-9867D01*
X88604Y-9685D01*
X88542Y-9502D01*
X88484Y-9318D01*
X88431Y-9132D01*
X88382Y-8945D01*
X88338Y-8756D01*
X88299Y-8567D01*
X88264Y-8377D01*
X88234Y-8186D01*
X88208Y-7994D01*
X88187Y-7802D01*
X88171Y-7609D01*
X88159Y-7417D01*
X88152Y-7223D01*
X88150Y-7030D01*
X88150Y-4030D01*
X85150Y-4030D01*
X85148Y-4156D01*
X85142Y-4281D01*
X85132Y-4406D01*
X85118Y-4531D01*
X85101Y-4656D01*
X85079Y-4780D01*
X85054Y-4903D01*
X85024Y-5025D01*
X84991Y-5146D01*
X84954Y-5266D01*
X84914Y-5385D01*
X84869Y-5502D01*
X84821Y-5619D01*
X84769Y-5733D01*
X84714Y-5846D01*
X84655Y-5957D01*
X84593Y-6066D01*
X84527Y-6173D01*
X84458Y-6278D01*
X84386Y-6381D01*
X84311Y-6482D01*
X84232Y-6580D01*
X84150Y-6675D01*
X84066Y-6768D01*
X83978Y-6858D01*
X83888Y-6946D01*
X83795Y-7030D01*
X83700Y-7112D01*
X83602Y-7191D01*
X83501Y-7266D01*
X83398Y-7338D01*
X83293Y-7407D01*
X83186Y-7473D01*
X83077Y-7535D01*
X82966Y-7594D01*
X82853Y-7649D01*
X82739Y-7701D01*
X82622Y-7749D01*
X82505Y-7794D01*
X82386Y-7834D01*
X82266Y-7871D01*
X82145Y-7904D01*
X82023Y-7934D01*
X81900Y-7959D01*
X81776Y-7981D01*
X81651Y-7998D01*
X81526Y-8012D01*
X81401Y-8022D01*
X81276Y-8028D01*
X81150Y-8030D01*
X33150Y-8030D01*
D15*
X124160Y144870D02*
X124160Y149770D01*
X119680Y149770D02*
X119680Y144870D01*
D16*
X121872Y151360D03*
X121872Y143232D03*
D15*
X135590Y144870D02*
X135590Y149770D01*
X131110Y149770D02*
X131110Y144870D01*
D16*
X133302Y151360D03*
X133302Y143232D03*
D15*
X100030Y149950D02*
X100030Y154850D01*
X95550Y154850D02*
X95550Y149950D01*
D16*
X97742Y156440D03*
X97742Y148312D03*
D15*
X112730Y149950D02*
X112730Y154850D01*
X108250Y154850D02*
X108250Y149950D01*
D16*
X110442Y156440D03*
X110442Y148312D03*
D10*
X125220Y203170D02*
X125220Y212090D01*
X125220Y231170D01*
X93220Y231170D01*
X93220Y203170D01*
X125220Y203170D01*
X116840Y203200D02*
X125220Y212090D01*
D11*
X99854Y200660D02*
X99854Y196991D01*
X99856Y196917D01*
X99862Y196844D01*
X99871Y196770D01*
X99885Y196698D01*
X99902Y196626D01*
X99923Y196555D01*
X99948Y196485D01*
X99976Y196417D01*
X100008Y196350D01*
X100043Y196286D01*
X100082Y196223D01*
X100123Y196162D01*
X100168Y196103D01*
X100216Y196047D01*
X100267Y195993D01*
X100321Y195942D01*
X100377Y195894D01*
X100436Y195849D01*
X100497Y195808D01*
X100560Y195769D01*
X100624Y195734D01*
X100691Y195702D01*
X100759Y195674D01*
X100829Y195649D01*
X100900Y195628D01*
X100972Y195611D01*
X101044Y195597D01*
X101118Y195588D01*
X101191Y195582D01*
X101265Y195580D01*
X101339Y195582D01*
X101412Y195588D01*
X101486Y195597D01*
X101558Y195611D01*
X101630Y195628D01*
X101701Y195649D01*
X101771Y195674D01*
X101839Y195702D01*
X101906Y195734D01*
X101971Y195769D01*
X102033Y195808D01*
X102094Y195849D01*
X102153Y195894D01*
X102209Y195942D01*
X102263Y195993D01*
X102314Y196047D01*
X102362Y196103D01*
X102407Y196162D01*
X102448Y196223D01*
X102487Y196286D01*
X102522Y196350D01*
X102554Y196417D01*
X102582Y196485D01*
X102607Y196555D01*
X102628Y196626D01*
X102645Y196698D01*
X102659Y196770D01*
X102668Y196844D01*
X102674Y196917D01*
X102676Y196991D01*
X102676Y200660D01*
X106568Y200660D02*
X106568Y195580D01*
X106568Y198120D02*
X105863Y198543D01*
X105862Y198543D02*
X105815Y198574D01*
X105769Y198608D01*
X105726Y198645D01*
X105686Y198684D01*
X105648Y198727D01*
X105613Y198771D01*
X105582Y198818D01*
X105553Y198867D01*
X105528Y198918D01*
X105506Y198971D01*
X105488Y199024D01*
X105474Y199079D01*
X105463Y199135D01*
X105456Y199191D01*
X105453Y199248D01*
X105454Y199304D01*
X105458Y199361D01*
X105467Y199417D01*
X105479Y199472D01*
X105494Y199527D01*
X105514Y199580D01*
X105536Y199632D01*
X105563Y199682D01*
X105592Y199730D01*
X105625Y199777D01*
X105661Y199820D01*
X105700Y199862D01*
X105741Y199901D01*
X105785Y199936D01*
X105831Y199969D01*
X105879Y199999D01*
X105930Y200025D01*
X105981Y200048D01*
X106035Y200067D01*
X106089Y200083D01*
X106145Y200095D01*
X106145Y200096D02*
X106234Y200110D01*
X106323Y200121D01*
X106412Y200128D01*
X106501Y200132D01*
X106591Y200132D01*
X106680Y200128D01*
X106770Y200121D01*
X106859Y200110D01*
X106947Y200096D01*
X107035Y200078D01*
X107122Y200057D01*
X107208Y200032D01*
X107293Y200004D01*
X107377Y199972D01*
X107459Y199937D01*
X107540Y199899D01*
X107620Y199858D01*
X107697Y199813D01*
X106568Y198120D02*
X107274Y197697D01*
X107321Y197666D01*
X107367Y197632D01*
X107410Y197595D01*
X107450Y197556D01*
X107488Y197513D01*
X107523Y197469D01*
X107554Y197422D01*
X107583Y197373D01*
X107608Y197322D01*
X107630Y197269D01*
X107648Y197216D01*
X107662Y197161D01*
X107673Y197105D01*
X107680Y197049D01*
X107683Y196992D01*
X107682Y196936D01*
X107678Y196879D01*
X107669Y196823D01*
X107657Y196768D01*
X107642Y196713D01*
X107622Y196660D01*
X107600Y196608D01*
X107573Y196558D01*
X107544Y196510D01*
X107511Y196463D01*
X107475Y196420D01*
X107436Y196378D01*
X107395Y196339D01*
X107351Y196304D01*
X107305Y196271D01*
X107257Y196241D01*
X107206Y196215D01*
X107155Y196192D01*
X107101Y196173D01*
X107047Y196157D01*
X106992Y196145D01*
X106992Y196144D02*
X106903Y196130D01*
X106815Y196119D01*
X106725Y196112D01*
X106636Y196108D01*
X106546Y196108D01*
X106457Y196112D01*
X106367Y196119D01*
X106278Y196130D01*
X106190Y196144D01*
X106102Y196162D01*
X106015Y196183D01*
X105929Y196208D01*
X105844Y196236D01*
X105760Y196268D01*
X105678Y196303D01*
X105597Y196341D01*
X105517Y196382D01*
X105440Y196427D01*
X110278Y199531D02*
X111689Y200660D01*
X111689Y195580D01*
X110278Y195580D02*
X113100Y195580D01*
X115764Y198402D02*
X117457Y198402D01*
X117523Y198400D01*
X117588Y198394D01*
X117653Y198385D01*
X117717Y198372D01*
X117781Y198355D01*
X117843Y198334D01*
X117904Y198310D01*
X117964Y198282D01*
X118022Y198251D01*
X118077Y198216D01*
X118131Y198179D01*
X118183Y198138D01*
X118232Y198094D01*
X118278Y198048D01*
X118322Y197999D01*
X118363Y197947D01*
X118400Y197893D01*
X118435Y197838D01*
X118466Y197780D01*
X118494Y197720D01*
X118518Y197659D01*
X118539Y197597D01*
X118556Y197533D01*
X118569Y197469D01*
X118578Y197404D01*
X118584Y197339D01*
X118586Y197273D01*
X118586Y196991D01*
X118584Y196917D01*
X118578Y196844D01*
X118569Y196770D01*
X118555Y196698D01*
X118538Y196626D01*
X118517Y196555D01*
X118492Y196485D01*
X118464Y196417D01*
X118432Y196350D01*
X118397Y196286D01*
X118358Y196223D01*
X118317Y196162D01*
X118272Y196103D01*
X118224Y196047D01*
X118173Y195993D01*
X118119Y195942D01*
X118063Y195894D01*
X118004Y195849D01*
X117943Y195808D01*
X117881Y195769D01*
X117816Y195734D01*
X117749Y195702D01*
X117681Y195674D01*
X117611Y195649D01*
X117540Y195628D01*
X117468Y195611D01*
X117396Y195597D01*
X117322Y195588D01*
X117249Y195582D01*
X117175Y195580D01*
X117101Y195582D01*
X117028Y195588D01*
X116954Y195597D01*
X116882Y195611D01*
X116810Y195628D01*
X116739Y195649D01*
X116669Y195674D01*
X116601Y195702D01*
X116534Y195734D01*
X116470Y195769D01*
X116407Y195808D01*
X116346Y195849D01*
X116287Y195894D01*
X116231Y195942D01*
X116177Y195993D01*
X116126Y196047D01*
X116078Y196103D01*
X116033Y196162D01*
X115992Y196223D01*
X115953Y196286D01*
X115918Y196350D01*
X115886Y196417D01*
X115858Y196485D01*
X115833Y196555D01*
X115812Y196626D01*
X115795Y196698D01*
X115781Y196770D01*
X115772Y196844D01*
X115766Y196917D01*
X115764Y196991D01*
X115764Y198402D01*
X115766Y198495D01*
X115772Y198588D01*
X115781Y198681D01*
X115795Y198774D01*
X115812Y198865D01*
X115833Y198956D01*
X115858Y199046D01*
X115886Y199135D01*
X115918Y199223D01*
X115954Y199309D01*
X115993Y199394D01*
X116036Y199477D01*
X116082Y199558D01*
X116132Y199637D01*
X116184Y199714D01*
X116240Y199789D01*
X116299Y199861D01*
X116361Y199931D01*
X116425Y199999D01*
X116493Y200063D01*
X116563Y200125D01*
X116635Y200184D01*
X116710Y200240D01*
X116787Y200292D01*
X116866Y200342D01*
X116947Y200388D01*
X117030Y200431D01*
X117115Y200470D01*
X117201Y200506D01*
X117289Y200538D01*
X117378Y200566D01*
X117468Y200591D01*
X117559Y200612D01*
X117650Y200629D01*
X117743Y200643D01*
X117836Y200652D01*
X117929Y200658D01*
X118022Y200660D01*
D15*
X111670Y243540D02*
X106770Y243540D01*
X106770Y239060D02*
X111670Y239060D01*
D19*
X105180Y241252D03*
X113308Y241252D03*
D10*
X346560Y608720D02*
X346560Y625720D01*
X359560Y625720D01*
X359560Y608720D01*
X346560Y608720D01*
X360680Y605790D02*
X360682Y605861D01*
X360688Y605932D01*
X360698Y606003D01*
X360712Y606073D01*
X360730Y606142D01*
X360751Y606209D01*
X360777Y606276D01*
X360806Y606341D01*
X360838Y606404D01*
X360875Y606466D01*
X360914Y606525D01*
X360957Y606582D01*
X361003Y606636D01*
X361052Y606688D01*
X361104Y606737D01*
X361158Y606783D01*
X361215Y606826D01*
X361274Y606865D01*
X361336Y606902D01*
X361399Y606934D01*
X361464Y606963D01*
X361531Y606989D01*
X361598Y607010D01*
X361667Y607028D01*
X361737Y607042D01*
X361808Y607052D01*
X361879Y607058D01*
X361950Y607060D01*
X362021Y607058D01*
X362092Y607052D01*
X362163Y607042D01*
X362233Y607028D01*
X362302Y607010D01*
X362369Y606989D01*
X362436Y606963D01*
X362501Y606934D01*
X362564Y606902D01*
X362626Y606865D01*
X362685Y606826D01*
X362742Y606783D01*
X362796Y606737D01*
X362848Y606688D01*
X362897Y606636D01*
X362943Y606582D01*
X362986Y606525D01*
X363025Y606466D01*
X363062Y606404D01*
X363094Y606341D01*
X363123Y606276D01*
X363149Y606209D01*
X363170Y606142D01*
X363188Y606073D01*
X363202Y606003D01*
X363212Y605932D01*
X363218Y605861D01*
X363220Y605790D01*
X363218Y605719D01*
X363212Y605648D01*
X363202Y605577D01*
X363188Y605507D01*
X363170Y605438D01*
X363149Y605371D01*
X363123Y605304D01*
X363094Y605239D01*
X363062Y605176D01*
X363025Y605114D01*
X362986Y605055D01*
X362943Y604998D01*
X362897Y604944D01*
X362848Y604892D01*
X362796Y604843D01*
X362742Y604797D01*
X362685Y604754D01*
X362626Y604715D01*
X362564Y604678D01*
X362501Y604646D01*
X362436Y604617D01*
X362369Y604591D01*
X362302Y604570D01*
X362233Y604552D01*
X362163Y604538D01*
X362092Y604528D01*
X362021Y604522D01*
X361950Y604520D01*
X361879Y604522D01*
X361808Y604528D01*
X361737Y604538D01*
X361667Y604552D01*
X361598Y604570D01*
X361531Y604591D01*
X361464Y604617D01*
X361399Y604646D01*
X361336Y604678D01*
X361274Y604715D01*
X361215Y604754D01*
X361158Y604797D01*
X361104Y604843D01*
X361052Y604892D01*
X361003Y604944D01*
X360957Y604998D01*
X360914Y605055D01*
X360875Y605114D01*
X360838Y605176D01*
X360806Y605239D01*
X360777Y605304D01*
X360751Y605371D01*
X360730Y605438D01*
X360712Y605507D01*
X360698Y605577D01*
X360688Y605648D01*
X360682Y605719D01*
X360680Y605790D01*
D11*
X343694Y630061D02*
X343694Y633730D01*
X343694Y630061D02*
X343696Y629987D01*
X343702Y629914D01*
X343711Y629840D01*
X343725Y629768D01*
X343742Y629696D01*
X343763Y629625D01*
X343788Y629555D01*
X343816Y629487D01*
X343848Y629420D01*
X343883Y629356D01*
X343922Y629293D01*
X343963Y629232D01*
X344008Y629173D01*
X344056Y629117D01*
X344107Y629063D01*
X344161Y629012D01*
X344217Y628964D01*
X344276Y628919D01*
X344337Y628878D01*
X344400Y628839D01*
X344464Y628804D01*
X344531Y628772D01*
X344599Y628744D01*
X344669Y628719D01*
X344740Y628698D01*
X344812Y628681D01*
X344884Y628667D01*
X344958Y628658D01*
X345031Y628652D01*
X345105Y628650D01*
X345179Y628652D01*
X345252Y628658D01*
X345326Y628667D01*
X345398Y628681D01*
X345470Y628698D01*
X345541Y628719D01*
X345611Y628744D01*
X345679Y628772D01*
X345746Y628804D01*
X345811Y628839D01*
X345873Y628878D01*
X345934Y628919D01*
X345993Y628964D01*
X346049Y629012D01*
X346103Y629063D01*
X346154Y629117D01*
X346202Y629173D01*
X346247Y629232D01*
X346288Y629293D01*
X346327Y629356D01*
X346362Y629420D01*
X346394Y629487D01*
X346422Y629555D01*
X346447Y629625D01*
X346468Y629696D01*
X346485Y629768D01*
X346499Y629840D01*
X346508Y629914D01*
X346514Y629987D01*
X346516Y630061D01*
X346516Y633730D01*
X350408Y633730D02*
X350408Y628650D01*
X350408Y631190D02*
X349703Y631613D01*
X349702Y631613D02*
X349655Y631644D01*
X349609Y631678D01*
X349566Y631715D01*
X349526Y631754D01*
X349488Y631797D01*
X349453Y631841D01*
X349422Y631888D01*
X349393Y631937D01*
X349368Y631988D01*
X349346Y632041D01*
X349328Y632094D01*
X349314Y632149D01*
X349303Y632205D01*
X349296Y632261D01*
X349293Y632318D01*
X349294Y632374D01*
X349298Y632431D01*
X349307Y632487D01*
X349319Y632542D01*
X349334Y632597D01*
X349354Y632650D01*
X349376Y632702D01*
X349403Y632752D01*
X349432Y632800D01*
X349465Y632847D01*
X349501Y632890D01*
X349540Y632932D01*
X349581Y632971D01*
X349625Y633006D01*
X349671Y633039D01*
X349719Y633069D01*
X349770Y633095D01*
X349821Y633118D01*
X349875Y633137D01*
X349929Y633153D01*
X349985Y633165D01*
X349985Y633166D02*
X350074Y633180D01*
X350163Y633191D01*
X350252Y633198D01*
X350341Y633202D01*
X350431Y633202D01*
X350520Y633198D01*
X350610Y633191D01*
X350699Y633180D01*
X350787Y633166D01*
X350875Y633148D01*
X350962Y633127D01*
X351048Y633102D01*
X351133Y633074D01*
X351217Y633042D01*
X351299Y633007D01*
X351380Y632969D01*
X351460Y632928D01*
X351537Y632883D01*
X350408Y631190D02*
X351114Y630767D01*
X351161Y630736D01*
X351207Y630702D01*
X351250Y630665D01*
X351290Y630626D01*
X351328Y630583D01*
X351363Y630539D01*
X351394Y630492D01*
X351423Y630443D01*
X351448Y630392D01*
X351470Y630339D01*
X351488Y630286D01*
X351502Y630231D01*
X351513Y630175D01*
X351520Y630119D01*
X351523Y630062D01*
X351522Y630006D01*
X351518Y629949D01*
X351509Y629893D01*
X351497Y629838D01*
X351482Y629783D01*
X351462Y629730D01*
X351440Y629678D01*
X351413Y629628D01*
X351384Y629580D01*
X351351Y629533D01*
X351315Y629490D01*
X351276Y629448D01*
X351235Y629409D01*
X351191Y629374D01*
X351145Y629341D01*
X351097Y629311D01*
X351046Y629285D01*
X350995Y629262D01*
X350941Y629243D01*
X350887Y629227D01*
X350832Y629215D01*
X350832Y629214D02*
X350743Y629200D01*
X350655Y629189D01*
X350565Y629182D01*
X350476Y629178D01*
X350386Y629178D01*
X350297Y629182D01*
X350207Y629189D01*
X350118Y629200D01*
X350030Y629214D01*
X349942Y629232D01*
X349855Y629253D01*
X349769Y629278D01*
X349684Y629306D01*
X349600Y629338D01*
X349518Y629373D01*
X349437Y629411D01*
X349357Y629452D01*
X349280Y629497D01*
X354118Y632601D02*
X355529Y633730D01*
X355529Y628650D01*
X354118Y628650D02*
X356940Y628650D01*
X359604Y628650D02*
X361015Y628650D01*
X361089Y628652D01*
X361162Y628658D01*
X361236Y628667D01*
X361308Y628681D01*
X361380Y628698D01*
X361451Y628719D01*
X361521Y628744D01*
X361589Y628772D01*
X361656Y628804D01*
X361721Y628839D01*
X361783Y628878D01*
X361844Y628919D01*
X361903Y628964D01*
X361959Y629012D01*
X362013Y629063D01*
X362064Y629117D01*
X362112Y629173D01*
X362157Y629232D01*
X362198Y629293D01*
X362237Y629356D01*
X362272Y629420D01*
X362304Y629487D01*
X362332Y629555D01*
X362357Y629625D01*
X362378Y629696D01*
X362395Y629768D01*
X362409Y629840D01*
X362418Y629914D01*
X362424Y629987D01*
X362426Y630061D01*
X362424Y630135D01*
X362418Y630208D01*
X362409Y630282D01*
X362395Y630354D01*
X362378Y630426D01*
X362357Y630497D01*
X362332Y630567D01*
X362304Y630635D01*
X362272Y630702D01*
X362237Y630767D01*
X362198Y630829D01*
X362157Y630890D01*
X362112Y630949D01*
X362064Y631005D01*
X362013Y631059D01*
X361959Y631110D01*
X361903Y631158D01*
X361844Y631203D01*
X361783Y631244D01*
X361721Y631283D01*
X361656Y631318D01*
X361589Y631350D01*
X361521Y631378D01*
X361451Y631403D01*
X361380Y631424D01*
X361308Y631441D01*
X361236Y631455D01*
X361162Y631464D01*
X361089Y631470D01*
X361015Y631472D01*
X361297Y633730D02*
X359604Y633730D01*
X361297Y633730D02*
X361363Y633728D01*
X361428Y633722D01*
X361493Y633713D01*
X361557Y633700D01*
X361621Y633683D01*
X361683Y633662D01*
X361744Y633638D01*
X361804Y633610D01*
X361862Y633579D01*
X361917Y633544D01*
X361971Y633507D01*
X362023Y633466D01*
X362072Y633422D01*
X362118Y633376D01*
X362162Y633327D01*
X362203Y633275D01*
X362240Y633221D01*
X362275Y633166D01*
X362306Y633108D01*
X362334Y633048D01*
X362358Y632987D01*
X362379Y632925D01*
X362396Y632861D01*
X362409Y632797D01*
X362418Y632732D01*
X362424Y632667D01*
X362426Y632601D01*
X362424Y632535D01*
X362418Y632470D01*
X362409Y632405D01*
X362396Y632341D01*
X362379Y632277D01*
X362358Y632215D01*
X362334Y632154D01*
X362306Y632094D01*
X362275Y632037D01*
X362240Y631981D01*
X362203Y631927D01*
X362162Y631875D01*
X362118Y631826D01*
X362072Y631780D01*
X362023Y631736D01*
X361971Y631695D01*
X361917Y631658D01*
X361862Y631623D01*
X361804Y631592D01*
X361744Y631564D01*
X361683Y631540D01*
X361621Y631519D01*
X361557Y631502D01*
X361493Y631489D01*
X361428Y631480D01*
X361363Y631474D01*
X361297Y631472D01*
X360169Y631472D01*
D10*
X297690Y595660D02*
X297690Y586740D01*
X297690Y567660D01*
X329690Y567660D01*
X329690Y595660D01*
X297690Y595660D01*
X306070Y595630D02*
X297690Y586740D01*
D11*
X304324Y599581D02*
X304324Y603250D01*
X304324Y599581D02*
X304326Y599507D01*
X304332Y599434D01*
X304341Y599360D01*
X304355Y599288D01*
X304372Y599216D01*
X304393Y599145D01*
X304418Y599075D01*
X304446Y599007D01*
X304478Y598940D01*
X304513Y598876D01*
X304552Y598813D01*
X304593Y598752D01*
X304638Y598693D01*
X304686Y598637D01*
X304737Y598583D01*
X304791Y598532D01*
X304847Y598484D01*
X304906Y598439D01*
X304967Y598398D01*
X305030Y598359D01*
X305094Y598324D01*
X305161Y598292D01*
X305229Y598264D01*
X305299Y598239D01*
X305370Y598218D01*
X305442Y598201D01*
X305514Y598187D01*
X305588Y598178D01*
X305661Y598172D01*
X305735Y598170D01*
X305809Y598172D01*
X305882Y598178D01*
X305956Y598187D01*
X306028Y598201D01*
X306100Y598218D01*
X306171Y598239D01*
X306241Y598264D01*
X306309Y598292D01*
X306376Y598324D01*
X306441Y598359D01*
X306503Y598398D01*
X306564Y598439D01*
X306623Y598484D01*
X306679Y598532D01*
X306733Y598583D01*
X306784Y598637D01*
X306832Y598693D01*
X306877Y598752D01*
X306918Y598813D01*
X306957Y598876D01*
X306992Y598940D01*
X307024Y599007D01*
X307052Y599075D01*
X307077Y599145D01*
X307098Y599216D01*
X307115Y599288D01*
X307129Y599360D01*
X307138Y599434D01*
X307144Y599507D01*
X307146Y599581D01*
X307146Y603250D01*
X311038Y603250D02*
X311038Y598170D01*
X311038Y600710D02*
X310333Y601133D01*
X310332Y601133D02*
X310285Y601164D01*
X310239Y601198D01*
X310196Y601235D01*
X310156Y601274D01*
X310118Y601317D01*
X310083Y601361D01*
X310052Y601408D01*
X310023Y601457D01*
X309998Y601508D01*
X309976Y601561D01*
X309958Y601614D01*
X309944Y601669D01*
X309933Y601725D01*
X309926Y601781D01*
X309923Y601838D01*
X309924Y601894D01*
X309928Y601951D01*
X309937Y602007D01*
X309949Y602062D01*
X309964Y602117D01*
X309984Y602170D01*
X310006Y602222D01*
X310033Y602272D01*
X310062Y602320D01*
X310095Y602367D01*
X310131Y602410D01*
X310170Y602452D01*
X310211Y602491D01*
X310255Y602526D01*
X310301Y602559D01*
X310349Y602589D01*
X310400Y602615D01*
X310451Y602638D01*
X310505Y602657D01*
X310559Y602673D01*
X310615Y602685D01*
X310615Y602686D02*
X310704Y602700D01*
X310793Y602711D01*
X310882Y602718D01*
X310971Y602722D01*
X311061Y602722D01*
X311150Y602718D01*
X311240Y602711D01*
X311329Y602700D01*
X311417Y602686D01*
X311505Y602668D01*
X311592Y602647D01*
X311678Y602622D01*
X311763Y602594D01*
X311847Y602562D01*
X311929Y602527D01*
X312010Y602489D01*
X312090Y602448D01*
X312167Y602403D01*
X311038Y600710D02*
X311744Y600287D01*
X311791Y600256D01*
X311837Y600222D01*
X311880Y600185D01*
X311920Y600146D01*
X311958Y600103D01*
X311993Y600059D01*
X312024Y600012D01*
X312053Y599963D01*
X312078Y599912D01*
X312100Y599859D01*
X312118Y599806D01*
X312132Y599751D01*
X312143Y599695D01*
X312150Y599639D01*
X312153Y599582D01*
X312152Y599526D01*
X312148Y599469D01*
X312139Y599413D01*
X312127Y599358D01*
X312112Y599303D01*
X312092Y599250D01*
X312070Y599198D01*
X312043Y599148D01*
X312014Y599100D01*
X311981Y599053D01*
X311945Y599010D01*
X311906Y598968D01*
X311865Y598929D01*
X311821Y598894D01*
X311775Y598861D01*
X311727Y598831D01*
X311676Y598805D01*
X311625Y598782D01*
X311571Y598763D01*
X311517Y598747D01*
X311462Y598735D01*
X311462Y598734D02*
X311373Y598720D01*
X311285Y598709D01*
X311195Y598702D01*
X311106Y598698D01*
X311016Y598698D01*
X310927Y598702D01*
X310837Y598709D01*
X310748Y598720D01*
X310660Y598734D01*
X310572Y598752D01*
X310485Y598773D01*
X310399Y598798D01*
X310314Y598826D01*
X310230Y598858D01*
X310148Y598893D01*
X310067Y598931D01*
X309987Y598972D01*
X309910Y599017D01*
X314748Y602121D02*
X316159Y603250D01*
X316159Y598170D01*
X314748Y598170D02*
X317570Y598170D01*
X320234Y598170D02*
X321927Y598170D01*
X321993Y598172D01*
X322058Y598178D01*
X322123Y598187D01*
X322187Y598200D01*
X322251Y598217D01*
X322313Y598238D01*
X322374Y598262D01*
X322434Y598290D01*
X322491Y598321D01*
X322547Y598356D01*
X322601Y598393D01*
X322653Y598434D01*
X322702Y598478D01*
X322748Y598524D01*
X322792Y598573D01*
X322833Y598625D01*
X322870Y598679D01*
X322905Y598734D01*
X322936Y598792D01*
X322964Y598852D01*
X322988Y598913D01*
X323009Y598975D01*
X323026Y599039D01*
X323039Y599103D01*
X323048Y599168D01*
X323054Y599233D01*
X323056Y599299D01*
X323056Y599863D01*
X323054Y599929D01*
X323048Y599994D01*
X323039Y600059D01*
X323026Y600123D01*
X323009Y600187D01*
X322988Y600249D01*
X322964Y600310D01*
X322936Y600370D01*
X322905Y600428D01*
X322870Y600483D01*
X322833Y600537D01*
X322792Y600589D01*
X322748Y600638D01*
X322702Y600684D01*
X322653Y600728D01*
X322601Y600769D01*
X322547Y600806D01*
X322492Y600841D01*
X322434Y600872D01*
X322374Y600900D01*
X322313Y600924D01*
X322251Y600945D01*
X322187Y600962D01*
X322123Y600975D01*
X322058Y600984D01*
X321993Y600990D01*
X321927Y600992D01*
X320234Y600992D01*
X320234Y603250D01*
X323056Y603250D01*
D15*
X315930Y610960D02*
X315930Y615860D01*
X311450Y615860D02*
X311450Y610960D01*
D16*
X313642Y617450D03*
X313642Y609322D03*
D15*
X327360Y610960D02*
X327360Y615860D01*
X322880Y615860D02*
X322880Y610960D01*
D16*
X325072Y617450D03*
X325072Y609322D03*
D15*
X304500Y610960D02*
X304500Y615860D01*
X300020Y615860D02*
X300020Y610960D01*
D16*
X302212Y617450D03*
X302212Y609322D03*
D10*
X101600Y802640D02*
X93980Y810260D01*
X101600Y802640D02*
X101600Y767080D01*
X93980Y759460D01*
X81280Y759460D01*
X76200Y764540D01*
X71120Y759460D01*
X55880Y759460D01*
X50800Y764540D01*
X45720Y759460D01*
X33020Y759460D01*
X25400Y767080D01*
X25400Y802640D01*
X33020Y810260D01*
X45720Y810260D01*
X50800Y805180D01*
X55880Y810260D01*
X71120Y810260D01*
X76200Y805180D01*
X81280Y810260D01*
X93980Y810260D01*
D15*
X99822Y812744D02*
X101290Y810909D01*
X99822Y812744D02*
X106426Y812744D01*
X106426Y814578D02*
X106426Y810909D01*
D10*
X27800Y676400D02*
X27800Y644400D01*
X73800Y644400D01*
X73800Y676400D01*
X27800Y676400D01*
D11*
X20179Y653777D02*
X16510Y653777D01*
X20179Y653777D02*
X20253Y653779D01*
X20326Y653785D01*
X20400Y653794D01*
X20472Y653808D01*
X20544Y653825D01*
X20615Y653846D01*
X20685Y653871D01*
X20753Y653899D01*
X20820Y653931D01*
X20885Y653966D01*
X20947Y654005D01*
X21008Y654046D01*
X21067Y654091D01*
X21123Y654139D01*
X21177Y654190D01*
X21228Y654244D01*
X21276Y654300D01*
X21321Y654359D01*
X21362Y654420D01*
X21401Y654483D01*
X21436Y654547D01*
X21468Y654614D01*
X21496Y654682D01*
X21521Y654752D01*
X21542Y654823D01*
X21559Y654895D01*
X21573Y654967D01*
X21582Y655041D01*
X21588Y655114D01*
X21590Y655188D01*
X21588Y655262D01*
X21582Y655335D01*
X21573Y655409D01*
X21559Y655481D01*
X21542Y655553D01*
X21521Y655624D01*
X21496Y655694D01*
X21468Y655762D01*
X21436Y655829D01*
X21401Y655894D01*
X21362Y655956D01*
X21321Y656017D01*
X21276Y656076D01*
X21228Y656132D01*
X21177Y656186D01*
X21123Y656237D01*
X21067Y656285D01*
X21008Y656330D01*
X20947Y656371D01*
X20884Y656410D01*
X20820Y656445D01*
X20753Y656477D01*
X20685Y656505D01*
X20615Y656530D01*
X20544Y656551D01*
X20472Y656568D01*
X20400Y656582D01*
X20326Y656591D01*
X20253Y656597D01*
X20179Y656599D01*
X16510Y656599D01*
X16510Y660491D02*
X21590Y660491D01*
X19050Y660491D02*
X18627Y659786D01*
X18596Y659739D01*
X18562Y659693D01*
X18525Y659650D01*
X18486Y659610D01*
X18443Y659572D01*
X18399Y659537D01*
X18352Y659506D01*
X18303Y659477D01*
X18252Y659452D01*
X18199Y659430D01*
X18146Y659412D01*
X18091Y659398D01*
X18035Y659387D01*
X17979Y659380D01*
X17922Y659377D01*
X17866Y659378D01*
X17809Y659382D01*
X17753Y659391D01*
X17698Y659403D01*
X17643Y659418D01*
X17590Y659438D01*
X17538Y659460D01*
X17488Y659487D01*
X17440Y659516D01*
X17393Y659549D01*
X17350Y659585D01*
X17308Y659624D01*
X17269Y659665D01*
X17234Y659709D01*
X17201Y659755D01*
X17171Y659803D01*
X17145Y659854D01*
X17122Y659905D01*
X17103Y659959D01*
X17087Y660013D01*
X17075Y660069D01*
X17074Y660068D02*
X17060Y660157D01*
X17049Y660246D01*
X17042Y660335D01*
X17038Y660424D01*
X17038Y660514D01*
X17042Y660603D01*
X17049Y660693D01*
X17060Y660782D01*
X17074Y660870D01*
X17092Y660958D01*
X17113Y661045D01*
X17138Y661131D01*
X17166Y661216D01*
X17198Y661300D01*
X17233Y661382D01*
X17271Y661463D01*
X17312Y661543D01*
X17357Y661620D01*
X19050Y660491D02*
X19473Y661197D01*
X19504Y661244D01*
X19538Y661290D01*
X19575Y661333D01*
X19614Y661373D01*
X19657Y661411D01*
X19701Y661446D01*
X19748Y661477D01*
X19797Y661506D01*
X19848Y661531D01*
X19901Y661553D01*
X19954Y661571D01*
X20009Y661585D01*
X20065Y661596D01*
X20121Y661603D01*
X20178Y661606D01*
X20234Y661605D01*
X20291Y661601D01*
X20347Y661592D01*
X20402Y661580D01*
X20457Y661565D01*
X20510Y661545D01*
X20562Y661523D01*
X20612Y661496D01*
X20660Y661467D01*
X20707Y661434D01*
X20750Y661398D01*
X20792Y661359D01*
X20831Y661318D01*
X20866Y661274D01*
X20899Y661228D01*
X20929Y661180D01*
X20955Y661129D01*
X20978Y661078D01*
X20997Y661024D01*
X21013Y660970D01*
X21025Y660915D01*
X21026Y660915D02*
X21040Y660826D01*
X21051Y660738D01*
X21058Y660648D01*
X21062Y660559D01*
X21062Y660469D01*
X21058Y660380D01*
X21051Y660290D01*
X21040Y660201D01*
X21026Y660113D01*
X21008Y660025D01*
X20987Y659938D01*
X20962Y659852D01*
X20934Y659767D01*
X20902Y659683D01*
X20867Y659601D01*
X20829Y659520D01*
X20788Y659440D01*
X20743Y659363D01*
X21590Y664201D02*
X21590Y665894D01*
X21588Y665960D01*
X21582Y666025D01*
X21573Y666090D01*
X21560Y666154D01*
X21543Y666218D01*
X21522Y666280D01*
X21498Y666341D01*
X21470Y666401D01*
X21439Y666459D01*
X21404Y666514D01*
X21367Y666568D01*
X21326Y666620D01*
X21282Y666669D01*
X21236Y666715D01*
X21187Y666759D01*
X21135Y666800D01*
X21081Y666837D01*
X21026Y666872D01*
X20968Y666903D01*
X20908Y666931D01*
X20847Y666955D01*
X20785Y666976D01*
X20721Y666993D01*
X20657Y667006D01*
X20592Y667015D01*
X20527Y667021D01*
X20461Y667023D01*
X19897Y667023D01*
X19831Y667021D01*
X19766Y667015D01*
X19701Y667006D01*
X19637Y666993D01*
X19573Y666976D01*
X19511Y666955D01*
X19450Y666931D01*
X19390Y666903D01*
X19333Y666872D01*
X19277Y666837D01*
X19223Y666800D01*
X19171Y666759D01*
X19122Y666715D01*
X19076Y666669D01*
X19032Y666620D01*
X18991Y666568D01*
X18954Y666514D01*
X18919Y666459D01*
X18888Y666401D01*
X18860Y666341D01*
X18836Y666280D01*
X18815Y666218D01*
X18798Y666154D01*
X18785Y666090D01*
X18776Y666025D01*
X18770Y665960D01*
X18768Y665894D01*
X18768Y664201D01*
X16510Y664201D01*
X16510Y667023D01*
D15*
X84120Y669380D02*
X84120Y674280D01*
X88600Y674280D02*
X88600Y669380D01*
D16*
X86409Y667790D03*
X86409Y675918D03*
D26*
X296200Y703640D02*
X296200Y709640D01*
X302200Y709640D01*
X358200Y709640D01*
X364200Y709640D01*
X364200Y703640D01*
X364200Y647640D01*
X364200Y641640D01*
X358200Y641640D01*
X302200Y641640D01*
X296200Y641640D01*
X296200Y647640D01*
X296200Y703640D01*
X306119Y698140D02*
X306121Y698219D01*
X306127Y698299D01*
X306137Y698378D01*
X306151Y698456D01*
X306169Y698533D01*
X306190Y698610D01*
X306216Y698685D01*
X306245Y698759D01*
X306278Y698831D01*
X306315Y698902D01*
X306355Y698970D01*
X306398Y699037D01*
X306445Y699101D01*
X306495Y699163D01*
X306548Y699222D01*
X306603Y699279D01*
X306662Y699332D01*
X306723Y699383D01*
X306787Y699431D01*
X306853Y699475D01*
X306921Y699516D01*
X306991Y699553D01*
X307063Y699587D01*
X307137Y699617D01*
X307211Y699644D01*
X307288Y699666D01*
X307365Y699685D01*
X307443Y699700D01*
X307522Y699711D01*
X307601Y699718D01*
X307680Y699721D01*
X307760Y699720D01*
X307839Y699715D01*
X307918Y699706D01*
X307996Y699693D01*
X308074Y699676D01*
X308151Y699655D01*
X308226Y699631D01*
X308300Y699603D01*
X308373Y699571D01*
X308444Y699535D01*
X308513Y699496D01*
X308580Y699453D01*
X308645Y699407D01*
X308708Y699358D01*
X308768Y699306D01*
X308825Y699251D01*
X308879Y699193D01*
X308931Y699132D01*
X308979Y699069D01*
X309024Y699004D01*
X309066Y698936D01*
X309104Y698867D01*
X309139Y698795D01*
X309170Y698722D01*
X309197Y698647D01*
X309221Y698572D01*
X309241Y698495D01*
X309257Y698417D01*
X309269Y698338D01*
X309277Y698259D01*
X309281Y698180D01*
X309281Y698100D01*
X309277Y698021D01*
X309269Y697942D01*
X309257Y697863D01*
X309241Y697785D01*
X309221Y697708D01*
X309197Y697633D01*
X309170Y697558D01*
X309139Y697485D01*
X309104Y697413D01*
X309066Y697344D01*
X309024Y697276D01*
X308979Y697211D01*
X308931Y697148D01*
X308879Y697087D01*
X308825Y697029D01*
X308768Y696974D01*
X308708Y696922D01*
X308645Y696873D01*
X308580Y696827D01*
X308513Y696784D01*
X308444Y696745D01*
X308373Y696709D01*
X308300Y696677D01*
X308226Y696649D01*
X308151Y696625D01*
X308074Y696604D01*
X307996Y696587D01*
X307918Y696574D01*
X307839Y696565D01*
X307760Y696560D01*
X307680Y696559D01*
X307601Y696562D01*
X307522Y696569D01*
X307443Y696580D01*
X307365Y696595D01*
X307288Y696614D01*
X307211Y696636D01*
X307137Y696663D01*
X307063Y696693D01*
X306991Y696727D01*
X306921Y696764D01*
X306853Y696805D01*
X306787Y696849D01*
X306723Y696897D01*
X306662Y696948D01*
X306603Y697001D01*
X306548Y697058D01*
X306495Y697117D01*
X306445Y697179D01*
X306398Y697243D01*
X306355Y697310D01*
X306315Y697378D01*
X306278Y697449D01*
X306245Y697521D01*
X306216Y697595D01*
X306190Y697670D01*
X306169Y697747D01*
X306151Y697824D01*
X306137Y697902D01*
X306127Y697981D01*
X306121Y698061D01*
X306119Y698140D01*
D36*
X297700Y700640D03*
X297700Y695640D03*
X297700Y690640D03*
X297700Y685640D03*
X297700Y680640D03*
X297700Y675640D03*
X297700Y670640D03*
X297700Y665640D03*
X297700Y660640D03*
X297700Y655640D03*
X297700Y650640D03*
D37*
X305200Y643140D03*
X310200Y643140D03*
X315200Y643140D03*
X320200Y643140D03*
X325200Y643140D03*
X330200Y643140D03*
X335200Y643140D03*
X340200Y643140D03*
X345200Y643140D03*
X350200Y643140D03*
X355200Y643140D03*
D36*
X362700Y650640D03*
X362700Y655640D03*
X362700Y660640D03*
X362700Y665640D03*
X362700Y670640D03*
X362700Y675640D03*
X362700Y680640D03*
X362700Y685640D03*
X362700Y690640D03*
X362700Y695640D03*
X362700Y700640D03*
D37*
X355200Y708140D03*
X350200Y708140D03*
X345200Y708140D03*
X340200Y708140D03*
X335200Y708140D03*
X330200Y708140D03*
X325200Y708140D03*
X320200Y708140D03*
X315200Y708140D03*
X310200Y708140D03*
X305200Y708140D03*
D15*
X382360Y673400D02*
X387260Y673400D01*
X387260Y677880D02*
X382360Y677880D01*
D19*
X388850Y675689D03*
X380722Y675689D03*
D15*
X88600Y711290D02*
X88600Y716190D01*
X84120Y716190D02*
X84120Y711290D01*
D16*
X86312Y717780D03*
X86312Y709652D03*
D10*
X73800Y709170D02*
X73800Y741170D01*
X27800Y741170D01*
X27800Y709170D01*
X73800Y709170D01*
D11*
X80010Y718547D02*
X83679Y718547D01*
X83753Y718549D01*
X83826Y718555D01*
X83900Y718564D01*
X83972Y718578D01*
X84044Y718595D01*
X84115Y718616D01*
X84185Y718641D01*
X84253Y718669D01*
X84320Y718701D01*
X84385Y718736D01*
X84447Y718775D01*
X84508Y718816D01*
X84567Y718861D01*
X84623Y718909D01*
X84677Y718960D01*
X84728Y719014D01*
X84776Y719070D01*
X84821Y719129D01*
X84862Y719190D01*
X84901Y719253D01*
X84936Y719317D01*
X84968Y719384D01*
X84996Y719452D01*
X85021Y719522D01*
X85042Y719593D01*
X85059Y719665D01*
X85073Y719737D01*
X85082Y719811D01*
X85088Y719884D01*
X85090Y719958D01*
X85088Y720032D01*
X85082Y720105D01*
X85073Y720179D01*
X85059Y720251D01*
X85042Y720323D01*
X85021Y720394D01*
X84996Y720464D01*
X84968Y720532D01*
X84936Y720599D01*
X84901Y720664D01*
X84862Y720726D01*
X84821Y720787D01*
X84776Y720846D01*
X84728Y720902D01*
X84677Y720956D01*
X84623Y721007D01*
X84567Y721055D01*
X84508Y721100D01*
X84447Y721141D01*
X84384Y721180D01*
X84320Y721215D01*
X84253Y721247D01*
X84185Y721275D01*
X84115Y721300D01*
X84044Y721321D01*
X83972Y721338D01*
X83900Y721352D01*
X83826Y721361D01*
X83753Y721367D01*
X83679Y721369D01*
X80010Y721369D01*
X80010Y725261D02*
X85090Y725261D01*
X82550Y725261D02*
X82127Y724556D01*
X82096Y724509D01*
X82062Y724463D01*
X82025Y724420D01*
X81986Y724380D01*
X81943Y724342D01*
X81899Y724307D01*
X81852Y724276D01*
X81803Y724247D01*
X81752Y724222D01*
X81699Y724200D01*
X81646Y724182D01*
X81591Y724168D01*
X81535Y724157D01*
X81479Y724150D01*
X81422Y724147D01*
X81366Y724148D01*
X81309Y724152D01*
X81253Y724161D01*
X81198Y724173D01*
X81143Y724188D01*
X81090Y724208D01*
X81038Y724230D01*
X80988Y724257D01*
X80940Y724286D01*
X80893Y724319D01*
X80850Y724355D01*
X80808Y724394D01*
X80769Y724435D01*
X80734Y724479D01*
X80701Y724525D01*
X80671Y724573D01*
X80645Y724624D01*
X80622Y724675D01*
X80603Y724729D01*
X80587Y724783D01*
X80575Y724839D01*
X80574Y724838D02*
X80560Y724927D01*
X80549Y725016D01*
X80542Y725105D01*
X80538Y725194D01*
X80538Y725284D01*
X80542Y725373D01*
X80549Y725463D01*
X80560Y725552D01*
X80574Y725640D01*
X80592Y725728D01*
X80613Y725815D01*
X80638Y725901D01*
X80666Y725986D01*
X80698Y726070D01*
X80733Y726152D01*
X80771Y726233D01*
X80812Y726313D01*
X80857Y726390D01*
X82550Y725261D02*
X82973Y725967D01*
X83004Y726014D01*
X83038Y726060D01*
X83075Y726103D01*
X83114Y726143D01*
X83157Y726181D01*
X83201Y726216D01*
X83248Y726247D01*
X83297Y726276D01*
X83348Y726301D01*
X83401Y726323D01*
X83454Y726341D01*
X83509Y726355D01*
X83565Y726366D01*
X83621Y726373D01*
X83678Y726376D01*
X83734Y726375D01*
X83791Y726371D01*
X83847Y726362D01*
X83902Y726350D01*
X83957Y726335D01*
X84010Y726315D01*
X84062Y726293D01*
X84112Y726266D01*
X84160Y726237D01*
X84207Y726204D01*
X84250Y726168D01*
X84292Y726129D01*
X84331Y726088D01*
X84366Y726044D01*
X84399Y725998D01*
X84429Y725950D01*
X84455Y725899D01*
X84478Y725848D01*
X84497Y725794D01*
X84513Y725740D01*
X84525Y725685D01*
X84526Y725685D02*
X84540Y725596D01*
X84551Y725508D01*
X84558Y725418D01*
X84562Y725329D01*
X84562Y725239D01*
X84558Y725150D01*
X84551Y725060D01*
X84540Y724971D01*
X84526Y724883D01*
X84508Y724795D01*
X84487Y724708D01*
X84462Y724622D01*
X84434Y724537D01*
X84402Y724453D01*
X84367Y724371D01*
X84329Y724290D01*
X84288Y724210D01*
X84243Y724133D01*
X82832Y730100D02*
X82832Y731793D01*
X82832Y730100D02*
X82830Y730034D01*
X82824Y729969D01*
X82815Y729904D01*
X82802Y729840D01*
X82785Y729776D01*
X82764Y729714D01*
X82740Y729653D01*
X82712Y729593D01*
X82681Y729536D01*
X82646Y729480D01*
X82609Y729426D01*
X82568Y729374D01*
X82524Y729325D01*
X82478Y729279D01*
X82429Y729235D01*
X82377Y729194D01*
X82323Y729157D01*
X82268Y729122D01*
X82210Y729091D01*
X82150Y729063D01*
X82089Y729039D01*
X82027Y729018D01*
X81963Y729001D01*
X81899Y728988D01*
X81834Y728979D01*
X81769Y728973D01*
X81703Y728971D01*
X81421Y728971D01*
X81347Y728973D01*
X81274Y728979D01*
X81200Y728988D01*
X81128Y729002D01*
X81056Y729019D01*
X80985Y729040D01*
X80915Y729065D01*
X80847Y729093D01*
X80780Y729125D01*
X80716Y729160D01*
X80653Y729199D01*
X80592Y729240D01*
X80533Y729285D01*
X80477Y729333D01*
X80423Y729384D01*
X80372Y729438D01*
X80324Y729494D01*
X80279Y729553D01*
X80238Y729614D01*
X80199Y729677D01*
X80164Y729741D01*
X80132Y729808D01*
X80104Y729876D01*
X80079Y729946D01*
X80058Y730017D01*
X80041Y730089D01*
X80027Y730161D01*
X80018Y730235D01*
X80012Y730308D01*
X80010Y730382D01*
X80012Y730456D01*
X80018Y730529D01*
X80027Y730603D01*
X80041Y730675D01*
X80058Y730747D01*
X80079Y730818D01*
X80104Y730888D01*
X80132Y730956D01*
X80164Y731023D01*
X80199Y731088D01*
X80238Y731150D01*
X80279Y731211D01*
X80324Y731270D01*
X80372Y731326D01*
X80423Y731380D01*
X80477Y731431D01*
X80533Y731479D01*
X80592Y731524D01*
X80653Y731565D01*
X80716Y731604D01*
X80780Y731639D01*
X80847Y731671D01*
X80915Y731699D01*
X80985Y731724D01*
X81056Y731745D01*
X81128Y731762D01*
X81200Y731776D01*
X81274Y731785D01*
X81347Y731791D01*
X81421Y731793D01*
X82832Y731793D01*
X82925Y731791D01*
X83018Y731785D01*
X83111Y731776D01*
X83204Y731762D01*
X83295Y731745D01*
X83386Y731724D01*
X83476Y731699D01*
X83565Y731671D01*
X83653Y731639D01*
X83739Y731603D01*
X83824Y731564D01*
X83907Y731521D01*
X83988Y731475D01*
X84067Y731425D01*
X84144Y731373D01*
X84219Y731317D01*
X84291Y731258D01*
X84361Y731196D01*
X84429Y731132D01*
X84493Y731064D01*
X84555Y730994D01*
X84614Y730922D01*
X84670Y730847D01*
X84722Y730770D01*
X84772Y730691D01*
X84818Y730610D01*
X84861Y730527D01*
X84900Y730442D01*
X84936Y730356D01*
X84968Y730268D01*
X84996Y730179D01*
X85021Y730089D01*
X85042Y729998D01*
X85059Y729907D01*
X85073Y729814D01*
X85082Y729721D01*
X85088Y729628D01*
X85090Y729535D01*
D15*
X279100Y673010D02*
X279100Y668110D01*
X274620Y668110D02*
X274620Y673010D01*
D16*
X276812Y674600D03*
X276812Y666472D03*
D10*
X257300Y643020D02*
X225300Y643020D01*
X225300Y693020D02*
X257300Y693020D01*
X225300Y693020D02*
X225300Y643020D01*
X257300Y643020D02*
X257300Y693020D01*
D11*
X220839Y661397D02*
X217170Y661397D01*
X220839Y661397D02*
X220913Y661399D01*
X220986Y661405D01*
X221060Y661414D01*
X221132Y661428D01*
X221204Y661445D01*
X221275Y661466D01*
X221345Y661491D01*
X221413Y661519D01*
X221480Y661551D01*
X221545Y661586D01*
X221607Y661625D01*
X221668Y661666D01*
X221727Y661711D01*
X221783Y661759D01*
X221837Y661810D01*
X221888Y661864D01*
X221936Y661920D01*
X221981Y661979D01*
X222022Y662040D01*
X222061Y662103D01*
X222096Y662167D01*
X222128Y662234D01*
X222156Y662302D01*
X222181Y662372D01*
X222202Y662443D01*
X222219Y662515D01*
X222233Y662587D01*
X222242Y662661D01*
X222248Y662734D01*
X222250Y662808D01*
X222248Y662882D01*
X222242Y662955D01*
X222233Y663029D01*
X222219Y663101D01*
X222202Y663173D01*
X222181Y663244D01*
X222156Y663314D01*
X222128Y663382D01*
X222096Y663449D01*
X222061Y663514D01*
X222022Y663576D01*
X221981Y663637D01*
X221936Y663696D01*
X221888Y663752D01*
X221837Y663806D01*
X221783Y663857D01*
X221727Y663905D01*
X221668Y663950D01*
X221607Y663991D01*
X221544Y664030D01*
X221480Y664065D01*
X221413Y664097D01*
X221345Y664125D01*
X221275Y664150D01*
X221204Y664171D01*
X221132Y664188D01*
X221060Y664202D01*
X220986Y664211D01*
X220913Y664217D01*
X220839Y664219D01*
X217170Y664219D01*
X217170Y668111D02*
X222250Y668111D01*
X219710Y668111D02*
X219287Y667406D01*
X219256Y667359D01*
X219222Y667313D01*
X219185Y667270D01*
X219146Y667230D01*
X219103Y667192D01*
X219059Y667157D01*
X219012Y667126D01*
X218963Y667097D01*
X218912Y667072D01*
X218859Y667050D01*
X218806Y667032D01*
X218751Y667018D01*
X218695Y667007D01*
X218639Y667000D01*
X218582Y666997D01*
X218526Y666998D01*
X218469Y667002D01*
X218413Y667011D01*
X218358Y667023D01*
X218303Y667038D01*
X218250Y667058D01*
X218198Y667080D01*
X218148Y667107D01*
X218100Y667136D01*
X218053Y667169D01*
X218010Y667205D01*
X217968Y667244D01*
X217929Y667285D01*
X217894Y667329D01*
X217861Y667375D01*
X217831Y667423D01*
X217805Y667474D01*
X217782Y667525D01*
X217763Y667579D01*
X217747Y667633D01*
X217735Y667689D01*
X217734Y667688D02*
X217720Y667777D01*
X217709Y667866D01*
X217702Y667955D01*
X217698Y668044D01*
X217698Y668134D01*
X217702Y668223D01*
X217709Y668313D01*
X217720Y668402D01*
X217734Y668490D01*
X217752Y668578D01*
X217773Y668665D01*
X217798Y668751D01*
X217826Y668836D01*
X217858Y668920D01*
X217893Y669002D01*
X217931Y669083D01*
X217972Y669163D01*
X218017Y669240D01*
X219710Y668111D02*
X220133Y668817D01*
X220164Y668864D01*
X220198Y668910D01*
X220235Y668953D01*
X220274Y668993D01*
X220317Y669031D01*
X220361Y669066D01*
X220408Y669097D01*
X220457Y669126D01*
X220508Y669151D01*
X220561Y669173D01*
X220614Y669191D01*
X220669Y669205D01*
X220725Y669216D01*
X220781Y669223D01*
X220838Y669226D01*
X220894Y669225D01*
X220951Y669221D01*
X221007Y669212D01*
X221062Y669200D01*
X221117Y669185D01*
X221170Y669165D01*
X221222Y669143D01*
X221272Y669116D01*
X221320Y669087D01*
X221367Y669054D01*
X221410Y669018D01*
X221452Y668979D01*
X221491Y668938D01*
X221526Y668894D01*
X221559Y668848D01*
X221589Y668800D01*
X221615Y668749D01*
X221638Y668698D01*
X221657Y668644D01*
X221673Y668590D01*
X221685Y668535D01*
X221686Y668535D02*
X221700Y668446D01*
X221711Y668358D01*
X221718Y668268D01*
X221722Y668179D01*
X221722Y668089D01*
X221718Y668000D01*
X221711Y667910D01*
X221700Y667821D01*
X221686Y667733D01*
X221668Y667645D01*
X221647Y667558D01*
X221622Y667472D01*
X221594Y667387D01*
X221562Y667303D01*
X221527Y667221D01*
X221489Y667140D01*
X221448Y667060D01*
X221403Y666983D01*
X218299Y671821D02*
X217170Y673232D01*
X222250Y673232D01*
X222250Y671821D02*
X222250Y674643D01*
D15*
X267670Y677000D02*
X267670Y681900D01*
X263190Y681900D02*
X263190Y677000D01*
D16*
X265382Y683490D03*
X265382Y675362D03*
D15*
X84120Y154850D02*
X84120Y149950D01*
X88600Y149950D02*
X88600Y154850D01*
D16*
X86409Y148360D03*
X86409Y156488D03*
D10*
X8620Y816310D02*
X8620Y826310D01*
X8620Y816310D02*
X159620Y816310D01*
X159620Y956310D01*
X15620Y956310D01*
X15620Y946310D01*
X15814Y946332D01*
X16008Y946349D01*
X16202Y946361D01*
X16397Y946369D01*
X16592Y946372D01*
X16786Y946370D01*
X16981Y946364D01*
X17176Y946353D01*
X17370Y946337D01*
X17564Y946317D01*
X17757Y946291D01*
X17949Y946262D01*
X18141Y946227D01*
X18332Y946188D01*
X18522Y946144D01*
X18711Y946096D01*
X18898Y946043D01*
X19084Y945986D01*
X19269Y945924D01*
X19452Y945858D01*
X19634Y945787D01*
X19814Y945712D01*
X19992Y945633D01*
X20168Y945550D01*
X20341Y945462D01*
X20513Y945370D01*
X20683Y945274D01*
X20850Y945173D01*
X21014Y945069D01*
X21176Y944961D01*
X21336Y944849D01*
X21492Y944733D01*
X21646Y944613D01*
X21797Y944490D01*
X21945Y944363D01*
X22090Y944233D01*
X22231Y944099D01*
X22369Y943962D01*
X22504Y943821D01*
X22636Y943677D01*
X22764Y943530D01*
X22888Y943380D01*
X23009Y943227D01*
X23126Y943072D01*
X23239Y942913D01*
X23348Y942752D01*
X23453Y942588D01*
X23555Y942422D01*
X23652Y942253D01*
X23745Y942082D01*
X23834Y941908D01*
X23919Y941733D01*
X24000Y941556D01*
X24076Y941376D01*
X24148Y941195D01*
X24216Y941013D01*
X24279Y940828D01*
X24337Y940643D01*
X24391Y940455D01*
X24441Y940267D01*
X24486Y940077D01*
X24526Y939887D01*
X24562Y939695D01*
X24593Y939503D01*
X24620Y939310D01*
X24620Y842310D01*
X24615Y841923D01*
X24601Y841537D01*
X24578Y841151D01*
X24545Y840766D01*
X24503Y840381D01*
X24452Y839998D01*
X24392Y839616D01*
X24322Y839236D01*
X24243Y838857D01*
X24155Y838481D01*
X24058Y838107D01*
X23952Y837735D01*
X23837Y837366D01*
X23713Y836999D01*
X23580Y836636D01*
X23439Y836276D01*
X23289Y835920D01*
X23130Y835568D01*
X22963Y835219D01*
X22787Y834874D01*
X22603Y834534D01*
X22412Y834199D01*
X22211Y833868D01*
X22004Y833542D01*
X21788Y833221D01*
X21564Y832905D01*
X21333Y832595D01*
X21095Y832291D01*
X20849Y831993D01*
X20596Y831700D01*
X20336Y831414D01*
X20070Y831134D01*
X19796Y830860D01*
X19516Y830594D01*
X19230Y830334D01*
X18937Y830081D01*
X18639Y829835D01*
X18335Y829597D01*
X18025Y829366D01*
X17709Y829142D01*
X17388Y828926D01*
X17062Y828719D01*
X16731Y828518D01*
X16396Y828327D01*
X16056Y828143D01*
X15711Y827967D01*
X15362Y827800D01*
X15010Y827641D01*
X14654Y827491D01*
X14294Y827350D01*
X13931Y827217D01*
X13564Y827093D01*
X13195Y826978D01*
X12823Y826872D01*
X12449Y826775D01*
X12073Y826687D01*
X11694Y826608D01*
X11314Y826538D01*
X10932Y826478D01*
X10549Y826427D01*
X10164Y826385D01*
X9779Y826352D01*
X9393Y826329D01*
X9007Y826315D01*
X8620Y826310D01*
X1020Y940310D02*
X1024Y940600D01*
X1034Y940890D01*
X1052Y941179D01*
X1076Y941468D01*
X1107Y941756D01*
X1146Y942044D01*
X1191Y942330D01*
X1244Y942616D01*
X1303Y942899D01*
X1369Y943182D01*
X1441Y943462D01*
X1521Y943741D01*
X1607Y944018D01*
X1700Y944293D01*
X1800Y944565D01*
X1906Y944835D01*
X2018Y945102D01*
X2138Y945367D01*
X2263Y945628D01*
X2395Y945887D01*
X2532Y946142D01*
X2676Y946394D01*
X2826Y946642D01*
X2982Y946886D01*
X3144Y947127D01*
X3312Y947363D01*
X3485Y947596D01*
X3664Y947824D01*
X3848Y948048D01*
X4038Y948267D01*
X4233Y948482D01*
X4433Y948692D01*
X4638Y948897D01*
X4848Y949097D01*
X5063Y949292D01*
X5282Y949482D01*
X5506Y949666D01*
X5734Y949845D01*
X5967Y950018D01*
X6203Y950186D01*
X6444Y950348D01*
X6688Y950504D01*
X6936Y950654D01*
X7188Y950798D01*
X7443Y950935D01*
X7702Y951067D01*
X7963Y951192D01*
X8228Y951312D01*
X8495Y951424D01*
X8765Y951530D01*
X9037Y951630D01*
X9312Y951723D01*
X9589Y951809D01*
X9868Y951889D01*
X10148Y951961D01*
X10431Y952027D01*
X10714Y952086D01*
X11000Y952139D01*
X11286Y952184D01*
X11574Y952223D01*
X11862Y952254D01*
X12151Y952278D01*
X12440Y952296D01*
X12730Y952306D01*
X13020Y952310D01*
X1020Y940310D02*
X1020Y848310D01*
X999Y848020D01*
X985Y847729D01*
X979Y847438D01*
X979Y847147D01*
X987Y846856D01*
X1001Y846566D01*
X1023Y846275D01*
X1051Y845986D01*
X1087Y845697D01*
X1129Y845409D01*
X1178Y845122D01*
X1235Y844837D01*
X1298Y844553D01*
X1368Y844270D01*
X1445Y843990D01*
X1528Y843711D01*
X1619Y843434D01*
X1716Y843160D01*
X1819Y842888D01*
X1929Y842619D01*
X2046Y842352D01*
X2169Y842088D01*
X2298Y841828D01*
X2434Y841570D01*
X2576Y841316D01*
X2724Y841065D01*
X2878Y840818D01*
X3037Y840575D01*
X3203Y840336D01*
X3374Y840101D01*
X3551Y839870D01*
X3734Y839643D01*
X3922Y839421D01*
X4115Y839204D01*
X4314Y838991D01*
X4517Y838783D01*
X4726Y838580D01*
X4939Y838382D01*
X5157Y838189D01*
X5380Y838002D01*
X5607Y837820D01*
X5839Y837644D01*
X6074Y837473D01*
X6314Y837308D01*
X6558Y837149D01*
X6805Y836996D01*
X7056Y836849D01*
X7311Y836708D01*
X7569Y836573D01*
X7830Y836444D01*
X8094Y836322D01*
X8361Y836206D01*
X8630Y836097D01*
X8902Y835994D01*
X9177Y835898D01*
X9454Y835808D01*
X9733Y835725D01*
X10014Y835649D01*
X10297Y835580D01*
X10581Y835518D01*
X10866Y835462D01*
X11153Y835414D01*
X11441Y835372D01*
X11730Y835337D01*
X12020Y835310D01*
X-7980Y940310D02*
X-7976Y940600D01*
X-7966Y940890D01*
X-7948Y941179D01*
X-7924Y941468D01*
X-7893Y941756D01*
X-7854Y942044D01*
X-7809Y942330D01*
X-7756Y942616D01*
X-7697Y942899D01*
X-7631Y943182D01*
X-7559Y943462D01*
X-7479Y943741D01*
X-7393Y944018D01*
X-7300Y944293D01*
X-7200Y944565D01*
X-7094Y944835D01*
X-6982Y945102D01*
X-6862Y945367D01*
X-6737Y945628D01*
X-6605Y945887D01*
X-6468Y946142D01*
X-6324Y946394D01*
X-6174Y946642D01*
X-6018Y946886D01*
X-5856Y947127D01*
X-5688Y947363D01*
X-5515Y947596D01*
X-5336Y947824D01*
X-5152Y948048D01*
X-4962Y948267D01*
X-4767Y948482D01*
X-4567Y948692D01*
X-4362Y948897D01*
X-4152Y949097D01*
X-3937Y949292D01*
X-3718Y949482D01*
X-3494Y949666D01*
X-3266Y949845D01*
X-3033Y950018D01*
X-2797Y950186D01*
X-2556Y950348D01*
X-2312Y950504D01*
X-2064Y950654D01*
X-1812Y950798D01*
X-1557Y950935D01*
X-1298Y951067D01*
X-1037Y951192D01*
X-772Y951312D01*
X-505Y951424D01*
X-235Y951530D01*
X37Y951630D01*
X312Y951723D01*
X589Y951809D01*
X868Y951889D01*
X1148Y951961D01*
X1431Y952027D01*
X1714Y952086D01*
X2000Y952139D01*
X2286Y952184D01*
X2574Y952223D01*
X2862Y952254D01*
X3151Y952278D01*
X3440Y952296D01*
X3730Y952306D01*
X4020Y952310D01*
X-7980Y940310D02*
X-7980Y848310D01*
X-8001Y848020D01*
X-8015Y847729D01*
X-8021Y847438D01*
X-8021Y847147D01*
X-8013Y846856D01*
X-7999Y846566D01*
X-7977Y846275D01*
X-7949Y845986D01*
X-7913Y845697D01*
X-7871Y845409D01*
X-7822Y845122D01*
X-7765Y844837D01*
X-7702Y844553D01*
X-7632Y844270D01*
X-7555Y843990D01*
X-7472Y843711D01*
X-7381Y843434D01*
X-7284Y843160D01*
X-7181Y842888D01*
X-7071Y842619D01*
X-6954Y842352D01*
X-6831Y842088D01*
X-6702Y841828D01*
X-6566Y841570D01*
X-6424Y841316D01*
X-6276Y841065D01*
X-6122Y840818D01*
X-5963Y840575D01*
X-5797Y840336D01*
X-5626Y840101D01*
X-5449Y839870D01*
X-5266Y839643D01*
X-5078Y839421D01*
X-4885Y839204D01*
X-4686Y838991D01*
X-4483Y838783D01*
X-4274Y838580D01*
X-4061Y838382D01*
X-3843Y838189D01*
X-3620Y838002D01*
X-3393Y837820D01*
X-3161Y837644D01*
X-2926Y837473D01*
X-2686Y837308D01*
X-2442Y837149D01*
X-2195Y836996D01*
X-1944Y836849D01*
X-1689Y836708D01*
X-1431Y836573D01*
X-1170Y836444D01*
X-906Y836322D01*
X-639Y836206D01*
X-370Y836097D01*
X-98Y835994D01*
X177Y835898D01*
X454Y835808D01*
X733Y835725D01*
X1014Y835649D01*
X1297Y835580D01*
X1581Y835518D01*
X1866Y835462D01*
X2153Y835414D01*
X2441Y835372D01*
X2730Y835337D01*
X3020Y835310D01*
X-45980Y940310D02*
X-45976Y940600D01*
X-45966Y940890D01*
X-45948Y941179D01*
X-45924Y941468D01*
X-45893Y941756D01*
X-45854Y942044D01*
X-45809Y942330D01*
X-45756Y942616D01*
X-45697Y942899D01*
X-45631Y943182D01*
X-45559Y943462D01*
X-45479Y943741D01*
X-45393Y944018D01*
X-45300Y944293D01*
X-45200Y944565D01*
X-45094Y944835D01*
X-44982Y945102D01*
X-44862Y945367D01*
X-44737Y945628D01*
X-44605Y945887D01*
X-44468Y946142D01*
X-44324Y946394D01*
X-44174Y946642D01*
X-44018Y946886D01*
X-43856Y947127D01*
X-43688Y947363D01*
X-43515Y947596D01*
X-43336Y947824D01*
X-43152Y948048D01*
X-42962Y948267D01*
X-42767Y948482D01*
X-42567Y948692D01*
X-42362Y948897D01*
X-42152Y949097D01*
X-41937Y949292D01*
X-41718Y949482D01*
X-41494Y949666D01*
X-41266Y949845D01*
X-41033Y950018D01*
X-40797Y950186D01*
X-40556Y950348D01*
X-40312Y950504D01*
X-40064Y950654D01*
X-39812Y950798D01*
X-39557Y950935D01*
X-39298Y951067D01*
X-39037Y951192D01*
X-38772Y951312D01*
X-38505Y951424D01*
X-38235Y951530D01*
X-37963Y951630D01*
X-37688Y951723D01*
X-37411Y951809D01*
X-37132Y951889D01*
X-36852Y951961D01*
X-36569Y952027D01*
X-36286Y952086D01*
X-36000Y952139D01*
X-35714Y952184D01*
X-35426Y952223D01*
X-35138Y952254D01*
X-34849Y952278D01*
X-34560Y952296D01*
X-34270Y952306D01*
X-33980Y952310D01*
X-45980Y940310D02*
X-45980Y848310D01*
X-46001Y848020D01*
X-46015Y847729D01*
X-46021Y847438D01*
X-46021Y847147D01*
X-46013Y846856D01*
X-45999Y846566D01*
X-45977Y846275D01*
X-45949Y845986D01*
X-45913Y845697D01*
X-45871Y845409D01*
X-45822Y845122D01*
X-45765Y844837D01*
X-45702Y844553D01*
X-45632Y844270D01*
X-45555Y843990D01*
X-45472Y843711D01*
X-45381Y843434D01*
X-45284Y843160D01*
X-45181Y842888D01*
X-45071Y842619D01*
X-44954Y842352D01*
X-44831Y842088D01*
X-44702Y841828D01*
X-44566Y841570D01*
X-44424Y841316D01*
X-44276Y841065D01*
X-44122Y840818D01*
X-43963Y840575D01*
X-43797Y840336D01*
X-43626Y840101D01*
X-43449Y839870D01*
X-43266Y839643D01*
X-43078Y839421D01*
X-42885Y839204D01*
X-42686Y838991D01*
X-42483Y838783D01*
X-42274Y838580D01*
X-42061Y838382D01*
X-41843Y838189D01*
X-41620Y838002D01*
X-41393Y837820D01*
X-41161Y837644D01*
X-40926Y837473D01*
X-40686Y837308D01*
X-40442Y837149D01*
X-40195Y836996D01*
X-39944Y836849D01*
X-39689Y836708D01*
X-39431Y836573D01*
X-39170Y836444D01*
X-38906Y836322D01*
X-38639Y836206D01*
X-38370Y836097D01*
X-38098Y835994D01*
X-37823Y835898D01*
X-37546Y835808D01*
X-37267Y835725D01*
X-36986Y835649D01*
X-36703Y835580D01*
X-36419Y835518D01*
X-36134Y835462D01*
X-35847Y835414D01*
X-35559Y835372D01*
X-35270Y835337D01*
X-34980Y835310D01*
D15*
X178770Y908140D02*
X178770Y913040D01*
X174290Y913040D02*
X174290Y908140D01*
D16*
X176482Y914630D03*
X176482Y906502D03*
D10*
X280140Y893190D02*
X309140Y893190D01*
X309140Y877190D01*
X280140Y877190D01*
X280140Y893190D01*
X275064Y873760D02*
X275066Y873844D01*
X275072Y873928D01*
X275082Y874012D01*
X275095Y874095D01*
X275113Y874177D01*
X275135Y874259D01*
X275160Y874339D01*
X275189Y874418D01*
X275222Y874496D01*
X275258Y874572D01*
X275298Y874646D01*
X275341Y874718D01*
X275387Y874788D01*
X275437Y874856D01*
X275490Y874922D01*
X275546Y874985D01*
X275605Y875045D01*
X275667Y875102D01*
X275731Y875157D01*
X275798Y875208D01*
X275867Y875256D01*
X275938Y875301D01*
X276011Y875343D01*
X276086Y875381D01*
X276163Y875415D01*
X276241Y875446D01*
X276321Y875473D01*
X276402Y875497D01*
X276484Y875516D01*
X276567Y875532D01*
X276650Y875544D01*
X276734Y875552D01*
X276818Y875556D01*
X276902Y875556D01*
X276986Y875552D01*
X277070Y875544D01*
X277153Y875532D01*
X277236Y875516D01*
X277318Y875497D01*
X277399Y875473D01*
X277479Y875446D01*
X277557Y875415D01*
X277634Y875381D01*
X277709Y875343D01*
X277782Y875301D01*
X277853Y875256D01*
X277922Y875208D01*
X277989Y875157D01*
X278053Y875102D01*
X278115Y875045D01*
X278174Y874985D01*
X278230Y874922D01*
X278283Y874856D01*
X278333Y874788D01*
X278379Y874718D01*
X278422Y874646D01*
X278462Y874572D01*
X278498Y874496D01*
X278531Y874418D01*
X278560Y874339D01*
X278585Y874259D01*
X278607Y874177D01*
X278625Y874095D01*
X278638Y874012D01*
X278648Y873928D01*
X278654Y873844D01*
X278656Y873760D01*
X278654Y873676D01*
X278648Y873592D01*
X278638Y873508D01*
X278625Y873425D01*
X278607Y873343D01*
X278585Y873261D01*
X278560Y873181D01*
X278531Y873102D01*
X278498Y873024D01*
X278462Y872948D01*
X278422Y872874D01*
X278379Y872802D01*
X278333Y872732D01*
X278283Y872664D01*
X278230Y872598D01*
X278174Y872535D01*
X278115Y872475D01*
X278053Y872418D01*
X277989Y872363D01*
X277922Y872312D01*
X277853Y872264D01*
X277782Y872219D01*
X277709Y872177D01*
X277634Y872139D01*
X277557Y872105D01*
X277479Y872074D01*
X277399Y872047D01*
X277318Y872023D01*
X277236Y872004D01*
X277153Y871988D01*
X277070Y871976D01*
X276986Y871968D01*
X276902Y871964D01*
X276818Y871964D01*
X276734Y871968D01*
X276650Y871976D01*
X276567Y871988D01*
X276484Y872004D01*
X276402Y872023D01*
X276321Y872047D01*
X276241Y872074D01*
X276163Y872105D01*
X276086Y872139D01*
X276011Y872177D01*
X275938Y872219D01*
X275867Y872264D01*
X275798Y872312D01*
X275731Y872363D01*
X275667Y872418D01*
X275605Y872475D01*
X275546Y872535D01*
X275490Y872598D01*
X275437Y872664D01*
X275387Y872732D01*
X275341Y872802D01*
X275298Y872874D01*
X275258Y872948D01*
X275222Y873024D01*
X275189Y873102D01*
X275160Y873181D01*
X275135Y873261D01*
X275113Y873343D01*
X275095Y873425D01*
X275082Y873508D01*
X275072Y873592D01*
X275066Y873676D01*
X275064Y873760D01*
D20*
X272600Y880430D02*
X272600Y892490D01*
X272600Y880430D02*
X245560Y880430D01*
X245560Y892490D01*
X272600Y892490D01*
D38*
X249830Y876943D03*
X268330Y876943D03*
D39*
X258955Y895977D03*
D15*
X256630Y858220D02*
X261530Y858220D01*
X261530Y853740D02*
X256630Y853740D01*
D19*
X255040Y855932D03*
X263168Y855932D03*
D15*
X295400Y849880D02*
X304040Y849880D01*
X304040Y857000D02*
X295400Y857000D01*
D18*
X306070Y853440D03*
X293370Y853440D03*
D10*
X299480Y940180D02*
X269480Y940180D01*
X299480Y940180D02*
X299480Y924180D01*
X269480Y924180D01*
X269480Y940180D01*
X265430Y922020D02*
X265432Y922091D01*
X265438Y922162D01*
X265448Y922233D01*
X265462Y922303D01*
X265480Y922372D01*
X265501Y922439D01*
X265527Y922506D01*
X265556Y922571D01*
X265588Y922634D01*
X265625Y922696D01*
X265664Y922755D01*
X265707Y922812D01*
X265753Y922866D01*
X265802Y922918D01*
X265854Y922967D01*
X265908Y923013D01*
X265965Y923056D01*
X266024Y923095D01*
X266086Y923132D01*
X266149Y923164D01*
X266214Y923193D01*
X266281Y923219D01*
X266348Y923240D01*
X266417Y923258D01*
X266487Y923272D01*
X266558Y923282D01*
X266629Y923288D01*
X266700Y923290D01*
X266771Y923288D01*
X266842Y923282D01*
X266913Y923272D01*
X266983Y923258D01*
X267052Y923240D01*
X267119Y923219D01*
X267186Y923193D01*
X267251Y923164D01*
X267314Y923132D01*
X267376Y923095D01*
X267435Y923056D01*
X267492Y923013D01*
X267546Y922967D01*
X267598Y922918D01*
X267647Y922866D01*
X267693Y922812D01*
X267736Y922755D01*
X267775Y922696D01*
X267812Y922634D01*
X267844Y922571D01*
X267873Y922506D01*
X267899Y922439D01*
X267920Y922372D01*
X267938Y922303D01*
X267952Y922233D01*
X267962Y922162D01*
X267968Y922091D01*
X267970Y922020D01*
X267968Y921949D01*
X267962Y921878D01*
X267952Y921807D01*
X267938Y921737D01*
X267920Y921668D01*
X267899Y921601D01*
X267873Y921534D01*
X267844Y921469D01*
X267812Y921406D01*
X267775Y921344D01*
X267736Y921285D01*
X267693Y921228D01*
X267647Y921174D01*
X267598Y921122D01*
X267546Y921073D01*
X267492Y921027D01*
X267435Y920984D01*
X267376Y920945D01*
X267314Y920908D01*
X267251Y920876D01*
X267186Y920847D01*
X267119Y920821D01*
X267052Y920800D01*
X266983Y920782D01*
X266913Y920768D01*
X266842Y920758D01*
X266771Y920752D01*
X266700Y920750D01*
X266629Y920752D01*
X266558Y920758D01*
X266487Y920768D01*
X266417Y920782D01*
X266348Y920800D01*
X266281Y920821D01*
X266214Y920847D01*
X266149Y920876D01*
X266086Y920908D01*
X266024Y920945D01*
X265965Y920984D01*
X265908Y921027D01*
X265854Y921073D01*
X265802Y921122D01*
X265753Y921174D01*
X265707Y921228D01*
X265664Y921285D01*
X265625Y921344D01*
X265588Y921406D01*
X265556Y921469D01*
X265527Y921534D01*
X265501Y921601D01*
X265480Y921668D01*
X265462Y921737D01*
X265448Y921807D01*
X265438Y921878D01*
X265432Y921949D01*
X265430Y922020D01*
X80290Y324760D02*
X80290Y279760D01*
X80290Y324760D02*
X115290Y324760D01*
X115290Y279760D01*
X80290Y279760D01*
X110490Y275590D02*
X110492Y275661D01*
X110498Y275732D01*
X110508Y275803D01*
X110522Y275873D01*
X110540Y275942D01*
X110561Y276009D01*
X110587Y276076D01*
X110616Y276141D01*
X110648Y276204D01*
X110685Y276266D01*
X110724Y276325D01*
X110767Y276382D01*
X110813Y276436D01*
X110862Y276488D01*
X110914Y276537D01*
X110968Y276583D01*
X111025Y276626D01*
X111084Y276665D01*
X111146Y276702D01*
X111209Y276734D01*
X111274Y276763D01*
X111341Y276789D01*
X111408Y276810D01*
X111477Y276828D01*
X111547Y276842D01*
X111618Y276852D01*
X111689Y276858D01*
X111760Y276860D01*
X111831Y276858D01*
X111902Y276852D01*
X111973Y276842D01*
X112043Y276828D01*
X112112Y276810D01*
X112179Y276789D01*
X112246Y276763D01*
X112311Y276734D01*
X112374Y276702D01*
X112436Y276665D01*
X112495Y276626D01*
X112552Y276583D01*
X112606Y276537D01*
X112658Y276488D01*
X112707Y276436D01*
X112753Y276382D01*
X112796Y276325D01*
X112835Y276266D01*
X112872Y276204D01*
X112904Y276141D01*
X112933Y276076D01*
X112959Y276009D01*
X112980Y275942D01*
X112998Y275873D01*
X113012Y275803D01*
X113022Y275732D01*
X113028Y275661D01*
X113030Y275590D01*
X113028Y275519D01*
X113022Y275448D01*
X113012Y275377D01*
X112998Y275307D01*
X112980Y275238D01*
X112959Y275171D01*
X112933Y275104D01*
X112904Y275039D01*
X112872Y274976D01*
X112835Y274914D01*
X112796Y274855D01*
X112753Y274798D01*
X112707Y274744D01*
X112658Y274692D01*
X112606Y274643D01*
X112552Y274597D01*
X112495Y274554D01*
X112436Y274515D01*
X112374Y274478D01*
X112311Y274446D01*
X112246Y274417D01*
X112179Y274391D01*
X112112Y274370D01*
X112043Y274352D01*
X111973Y274338D01*
X111902Y274328D01*
X111831Y274322D01*
X111760Y274320D01*
X111689Y274322D01*
X111618Y274328D01*
X111547Y274338D01*
X111477Y274352D01*
X111408Y274370D01*
X111341Y274391D01*
X111274Y274417D01*
X111209Y274446D01*
X111146Y274478D01*
X111084Y274515D01*
X111025Y274554D01*
X110968Y274597D01*
X110914Y274643D01*
X110862Y274692D01*
X110813Y274744D01*
X110767Y274798D01*
X110724Y274855D01*
X110685Y274914D01*
X110648Y274976D01*
X110616Y275039D01*
X110587Y275104D01*
X110561Y275171D01*
X110540Y275238D01*
X110522Y275307D01*
X110508Y275377D01*
X110498Y275448D01*
X110492Y275519D01*
X110490Y275590D01*
D15*
X101510Y517860D02*
X96610Y517860D01*
X96610Y513380D02*
X101510Y513380D01*
D19*
X95020Y515572D03*
X103148Y515572D03*
D10*
X554710Y378100D02*
X554710Y333100D01*
X519710Y333100D01*
X519710Y378100D01*
X554710Y378100D01*
X521970Y382270D02*
X521972Y382341D01*
X521978Y382412D01*
X521988Y382483D01*
X522002Y382553D01*
X522020Y382622D01*
X522041Y382689D01*
X522067Y382756D01*
X522096Y382821D01*
X522128Y382884D01*
X522165Y382946D01*
X522204Y383005D01*
X522247Y383062D01*
X522293Y383116D01*
X522342Y383168D01*
X522394Y383217D01*
X522448Y383263D01*
X522505Y383306D01*
X522564Y383345D01*
X522626Y383382D01*
X522689Y383414D01*
X522754Y383443D01*
X522821Y383469D01*
X522888Y383490D01*
X522957Y383508D01*
X523027Y383522D01*
X523098Y383532D01*
X523169Y383538D01*
X523240Y383540D01*
X523311Y383538D01*
X523382Y383532D01*
X523453Y383522D01*
X523523Y383508D01*
X523592Y383490D01*
X523659Y383469D01*
X523726Y383443D01*
X523791Y383414D01*
X523854Y383382D01*
X523916Y383345D01*
X523975Y383306D01*
X524032Y383263D01*
X524086Y383217D01*
X524138Y383168D01*
X524187Y383116D01*
X524233Y383062D01*
X524276Y383005D01*
X524315Y382946D01*
X524352Y382884D01*
X524384Y382821D01*
X524413Y382756D01*
X524439Y382689D01*
X524460Y382622D01*
X524478Y382553D01*
X524492Y382483D01*
X524502Y382412D01*
X524508Y382341D01*
X524510Y382270D01*
X524508Y382199D01*
X524502Y382128D01*
X524492Y382057D01*
X524478Y381987D01*
X524460Y381918D01*
X524439Y381851D01*
X524413Y381784D01*
X524384Y381719D01*
X524352Y381656D01*
X524315Y381594D01*
X524276Y381535D01*
X524233Y381478D01*
X524187Y381424D01*
X524138Y381372D01*
X524086Y381323D01*
X524032Y381277D01*
X523975Y381234D01*
X523916Y381195D01*
X523854Y381158D01*
X523791Y381126D01*
X523726Y381097D01*
X523659Y381071D01*
X523592Y381050D01*
X523523Y381032D01*
X523453Y381018D01*
X523382Y381008D01*
X523311Y381002D01*
X523240Y381000D01*
X523169Y381002D01*
X523098Y381008D01*
X523027Y381018D01*
X522957Y381032D01*
X522888Y381050D01*
X522821Y381071D01*
X522754Y381097D01*
X522689Y381126D01*
X522626Y381158D01*
X522564Y381195D01*
X522505Y381234D01*
X522448Y381277D01*
X522394Y381323D01*
X522342Y381372D01*
X522293Y381424D01*
X522247Y381478D01*
X522204Y381535D01*
X522165Y381594D01*
X522128Y381656D01*
X522096Y381719D01*
X522067Y381784D01*
X522041Y381851D01*
X522020Y381918D01*
X522002Y381987D01*
X521988Y382057D01*
X521978Y382128D01*
X521972Y382199D01*
X521970Y382270D01*
D15*
X520790Y319070D02*
X525690Y319070D01*
X525690Y323550D02*
X520790Y323550D01*
D19*
X527280Y321359D03*
X519152Y321359D03*
D10*
X85370Y470180D02*
X85370Y505180D01*
X120370Y505180D01*
X120370Y470180D01*
X85370Y470180D01*
X115570Y466090D02*
X115572Y466161D01*
X115578Y466232D01*
X115588Y466303D01*
X115602Y466373D01*
X115620Y466442D01*
X115641Y466509D01*
X115667Y466576D01*
X115696Y466641D01*
X115728Y466704D01*
X115765Y466766D01*
X115804Y466825D01*
X115847Y466882D01*
X115893Y466936D01*
X115942Y466988D01*
X115994Y467037D01*
X116048Y467083D01*
X116105Y467126D01*
X116164Y467165D01*
X116226Y467202D01*
X116289Y467234D01*
X116354Y467263D01*
X116421Y467289D01*
X116488Y467310D01*
X116557Y467328D01*
X116627Y467342D01*
X116698Y467352D01*
X116769Y467358D01*
X116840Y467360D01*
X116911Y467358D01*
X116982Y467352D01*
X117053Y467342D01*
X117123Y467328D01*
X117192Y467310D01*
X117259Y467289D01*
X117326Y467263D01*
X117391Y467234D01*
X117454Y467202D01*
X117516Y467165D01*
X117575Y467126D01*
X117632Y467083D01*
X117686Y467037D01*
X117738Y466988D01*
X117787Y466936D01*
X117833Y466882D01*
X117876Y466825D01*
X117915Y466766D01*
X117952Y466704D01*
X117984Y466641D01*
X118013Y466576D01*
X118039Y466509D01*
X118060Y466442D01*
X118078Y466373D01*
X118092Y466303D01*
X118102Y466232D01*
X118108Y466161D01*
X118110Y466090D01*
X118108Y466019D01*
X118102Y465948D01*
X118092Y465877D01*
X118078Y465807D01*
X118060Y465738D01*
X118039Y465671D01*
X118013Y465604D01*
X117984Y465539D01*
X117952Y465476D01*
X117915Y465414D01*
X117876Y465355D01*
X117833Y465298D01*
X117787Y465244D01*
X117738Y465192D01*
X117686Y465143D01*
X117632Y465097D01*
X117575Y465054D01*
X117516Y465015D01*
X117454Y464978D01*
X117391Y464946D01*
X117326Y464917D01*
X117259Y464891D01*
X117192Y464870D01*
X117123Y464852D01*
X117053Y464838D01*
X116982Y464828D01*
X116911Y464822D01*
X116840Y464820D01*
X116769Y464822D01*
X116698Y464828D01*
X116627Y464838D01*
X116557Y464852D01*
X116488Y464870D01*
X116421Y464891D01*
X116354Y464917D01*
X116289Y464946D01*
X116226Y464978D01*
X116164Y465015D01*
X116105Y465054D01*
X116048Y465097D01*
X115994Y465143D01*
X115942Y465192D01*
X115893Y465244D01*
X115847Y465298D01*
X115804Y465355D01*
X115765Y465414D01*
X115728Y465476D01*
X115696Y465539D01*
X115667Y465604D01*
X115641Y465671D01*
X115620Y465738D01*
X115602Y465807D01*
X115588Y465877D01*
X115578Y465948D01*
X115572Y466019D01*
X115570Y466090D01*
D15*
X115820Y432280D02*
X115820Y416080D01*
X87380Y416080D01*
X87380Y432280D01*
X115820Y432280D01*
X97320Y416080D02*
X96380Y416080D01*
X105880Y416080D02*
X106820Y416080D01*
X88320Y416080D02*
X87380Y416080D01*
X114880Y416080D02*
X115820Y416080D01*
X115820Y432280D02*
X114880Y432280D01*
X88320Y432280D02*
X87380Y432280D01*
X105880Y432280D02*
X106820Y432280D01*
X97320Y432280D02*
X96380Y432280D01*
X90600Y419680D02*
X90602Y419743D01*
X90608Y419805D01*
X90618Y419867D01*
X90631Y419929D01*
X90649Y419989D01*
X90670Y420048D01*
X90695Y420106D01*
X90724Y420162D01*
X90756Y420216D01*
X90791Y420268D01*
X90829Y420317D01*
X90871Y420365D01*
X90915Y420409D01*
X90963Y420451D01*
X91012Y420489D01*
X91064Y420524D01*
X91118Y420556D01*
X91174Y420585D01*
X91232Y420610D01*
X91291Y420631D01*
X91351Y420649D01*
X91413Y420662D01*
X91475Y420672D01*
X91537Y420678D01*
X91600Y420680D01*
X91663Y420678D01*
X91725Y420672D01*
X91787Y420662D01*
X91849Y420649D01*
X91909Y420631D01*
X91968Y420610D01*
X92026Y420585D01*
X92082Y420556D01*
X92136Y420524D01*
X92188Y420489D01*
X92237Y420451D01*
X92285Y420409D01*
X92329Y420365D01*
X92371Y420317D01*
X92409Y420268D01*
X92444Y420216D01*
X92476Y420162D01*
X92505Y420106D01*
X92530Y420048D01*
X92551Y419989D01*
X92569Y419929D01*
X92582Y419867D01*
X92592Y419805D01*
X92598Y419743D01*
X92600Y419680D01*
X92598Y419617D01*
X92592Y419555D01*
X92582Y419493D01*
X92569Y419431D01*
X92551Y419371D01*
X92530Y419312D01*
X92505Y419254D01*
X92476Y419198D01*
X92444Y419144D01*
X92409Y419092D01*
X92371Y419043D01*
X92329Y418995D01*
X92285Y418951D01*
X92237Y418909D01*
X92188Y418871D01*
X92136Y418836D01*
X92082Y418804D01*
X92026Y418775D01*
X91968Y418750D01*
X91909Y418729D01*
X91849Y418711D01*
X91787Y418698D01*
X91725Y418688D01*
X91663Y418682D01*
X91600Y418680D01*
X91537Y418682D01*
X91475Y418688D01*
X91413Y418698D01*
X91351Y418711D01*
X91291Y418729D01*
X91232Y418750D01*
X91174Y418775D01*
X91118Y418804D01*
X91064Y418836D01*
X91012Y418871D01*
X90963Y418909D01*
X90915Y418951D01*
X90871Y418995D01*
X90829Y419043D01*
X90791Y419092D01*
X90756Y419144D01*
X90724Y419198D01*
X90695Y419254D01*
X90670Y419312D01*
X90649Y419371D01*
X90631Y419431D01*
X90618Y419493D01*
X90608Y419555D01*
X90602Y419617D01*
X90600Y419680D01*
D31*
X92100Y412430D03*
X101600Y412430D03*
X111100Y412430D03*
X111100Y435930D03*
X101600Y435930D03*
X92100Y435930D03*
D15*
X96774Y368554D02*
X83566Y368554D01*
X96774Y368554D02*
X96774Y340106D01*
X83566Y340106D01*
X83566Y368554D01*
D20*
X83170Y346330D02*
X83170Y340330D01*
X91170Y340330D01*
X83170Y362330D02*
X83170Y368330D01*
X91170Y368330D01*
D15*
X131830Y357380D02*
X131830Y348740D01*
X124710Y348740D02*
X124710Y357380D01*
D17*
X128270Y359410D03*
X128270Y346710D03*
D15*
X145080Y420460D02*
X145080Y425360D01*
X149560Y425360D02*
X149560Y420460D01*
D16*
X147369Y418870D03*
X147369Y426998D03*
D11*
X124210Y426720D02*
X124210Y419100D01*
X137410Y419350D02*
X137410Y426720D01*
D14*
X130799Y415739D03*
X130799Y430217D03*
D15*
X77770Y420280D02*
X77770Y415380D01*
X82250Y415380D02*
X82250Y420280D01*
D16*
X80059Y413790D03*
X80059Y421918D03*
D15*
X109520Y355510D02*
X109520Y350610D01*
X114000Y350610D02*
X114000Y355510D01*
D16*
X111809Y349020D03*
X111809Y357148D03*
D10*
X356630Y248680D02*
X356630Y218680D01*
X326630Y218680D01*
X326630Y248680D01*
X356630Y248680D01*
X328930Y245110D02*
X328932Y245181D01*
X328938Y245252D01*
X328948Y245323D01*
X328962Y245393D01*
X328980Y245462D01*
X329001Y245529D01*
X329027Y245596D01*
X329056Y245661D01*
X329088Y245724D01*
X329125Y245786D01*
X329164Y245845D01*
X329207Y245902D01*
X329253Y245956D01*
X329302Y246008D01*
X329354Y246057D01*
X329408Y246103D01*
X329465Y246146D01*
X329524Y246185D01*
X329586Y246222D01*
X329649Y246254D01*
X329714Y246283D01*
X329781Y246309D01*
X329848Y246330D01*
X329917Y246348D01*
X329987Y246362D01*
X330058Y246372D01*
X330129Y246378D01*
X330200Y246380D01*
X330271Y246378D01*
X330342Y246372D01*
X330413Y246362D01*
X330483Y246348D01*
X330552Y246330D01*
X330619Y246309D01*
X330686Y246283D01*
X330751Y246254D01*
X330814Y246222D01*
X330876Y246185D01*
X330935Y246146D01*
X330992Y246103D01*
X331046Y246057D01*
X331098Y246008D01*
X331147Y245956D01*
X331193Y245902D01*
X331236Y245845D01*
X331275Y245786D01*
X331312Y245724D01*
X331344Y245661D01*
X331373Y245596D01*
X331399Y245529D01*
X331420Y245462D01*
X331438Y245393D01*
X331452Y245323D01*
X331462Y245252D01*
X331468Y245181D01*
X331470Y245110D01*
X331468Y245039D01*
X331462Y244968D01*
X331452Y244897D01*
X331438Y244827D01*
X331420Y244758D01*
X331399Y244691D01*
X331373Y244624D01*
X331344Y244559D01*
X331312Y244496D01*
X331275Y244434D01*
X331236Y244375D01*
X331193Y244318D01*
X331147Y244264D01*
X331098Y244212D01*
X331046Y244163D01*
X330992Y244117D01*
X330935Y244074D01*
X330876Y244035D01*
X330814Y243998D01*
X330751Y243966D01*
X330686Y243937D01*
X330619Y243911D01*
X330552Y243890D01*
X330483Y243872D01*
X330413Y243858D01*
X330342Y243848D01*
X330271Y243842D01*
X330200Y243840D01*
X330129Y243842D01*
X330058Y243848D01*
X329987Y243858D01*
X329917Y243872D01*
X329848Y243890D01*
X329781Y243911D01*
X329714Y243937D01*
X329649Y243966D01*
X329586Y243998D01*
X329524Y244035D01*
X329465Y244074D01*
X329408Y244117D01*
X329354Y244163D01*
X329302Y244212D01*
X329253Y244264D01*
X329207Y244318D01*
X329164Y244375D01*
X329125Y244434D01*
X329088Y244496D01*
X329056Y244559D01*
X329027Y244624D01*
X329001Y244691D01*
X328980Y244758D01*
X328962Y244827D01*
X328948Y244897D01*
X328938Y244968D01*
X328932Y245039D01*
X328930Y245110D01*
X583550Y75610D02*
X597550Y75610D01*
X597550Y97110D01*
X583550Y97110D01*
X583550Y75610D01*
X599440Y72390D02*
X599442Y72461D01*
X599448Y72532D01*
X599458Y72603D01*
X599472Y72673D01*
X599490Y72742D01*
X599511Y72809D01*
X599537Y72876D01*
X599566Y72941D01*
X599598Y73004D01*
X599635Y73066D01*
X599674Y73125D01*
X599717Y73182D01*
X599763Y73236D01*
X599812Y73288D01*
X599864Y73337D01*
X599918Y73383D01*
X599975Y73426D01*
X600034Y73465D01*
X600096Y73502D01*
X600159Y73534D01*
X600224Y73563D01*
X600291Y73589D01*
X600358Y73610D01*
X600427Y73628D01*
X600497Y73642D01*
X600568Y73652D01*
X600639Y73658D01*
X600710Y73660D01*
X600781Y73658D01*
X600852Y73652D01*
X600923Y73642D01*
X600993Y73628D01*
X601062Y73610D01*
X601129Y73589D01*
X601196Y73563D01*
X601261Y73534D01*
X601324Y73502D01*
X601386Y73465D01*
X601445Y73426D01*
X601502Y73383D01*
X601556Y73337D01*
X601608Y73288D01*
X601657Y73236D01*
X601703Y73182D01*
X601746Y73125D01*
X601785Y73066D01*
X601822Y73004D01*
X601854Y72941D01*
X601883Y72876D01*
X601909Y72809D01*
X601930Y72742D01*
X601948Y72673D01*
X601962Y72603D01*
X601972Y72532D01*
X601978Y72461D01*
X601980Y72390D01*
X601978Y72319D01*
X601972Y72248D01*
X601962Y72177D01*
X601948Y72107D01*
X601930Y72038D01*
X601909Y71971D01*
X601883Y71904D01*
X601854Y71839D01*
X601822Y71776D01*
X601785Y71714D01*
X601746Y71655D01*
X601703Y71598D01*
X601657Y71544D01*
X601608Y71492D01*
X601556Y71443D01*
X601502Y71397D01*
X601445Y71354D01*
X601386Y71315D01*
X601324Y71278D01*
X601261Y71246D01*
X601196Y71217D01*
X601129Y71191D01*
X601062Y71170D01*
X600993Y71152D01*
X600923Y71138D01*
X600852Y71128D01*
X600781Y71122D01*
X600710Y71120D01*
X600639Y71122D01*
X600568Y71128D01*
X600497Y71138D01*
X600427Y71152D01*
X600358Y71170D01*
X600291Y71191D01*
X600224Y71217D01*
X600159Y71246D01*
X600096Y71278D01*
X600034Y71315D01*
X599975Y71354D01*
X599918Y71397D01*
X599864Y71443D01*
X599812Y71492D01*
X599763Y71544D01*
X599717Y71598D01*
X599674Y71655D01*
X599635Y71714D01*
X599598Y71776D01*
X599566Y71839D01*
X599537Y71904D01*
X599511Y71971D01*
X599490Y72038D01*
X599472Y72107D01*
X599458Y72177D01*
X599448Y72248D01*
X599442Y72319D01*
X599440Y72390D01*
D15*
X575056Y120396D02*
X575056Y133604D01*
X603504Y133604D01*
X603504Y120396D01*
X575056Y120396D01*
D20*
X597280Y120000D02*
X603280Y120000D01*
X603280Y128000D01*
X581280Y120000D02*
X575280Y120000D01*
X575280Y128000D01*
D15*
X612390Y131320D02*
X612390Y122680D01*
X619510Y122680D02*
X619510Y131320D01*
D17*
X615950Y120650D03*
X615950Y133350D03*
D15*
X591730Y101900D02*
X586830Y101900D01*
X586830Y106380D02*
X591730Y106380D01*
D19*
X593320Y104189D03*
X585192Y104189D03*
D10*
X381590Y107300D02*
X381590Y121300D01*
X360090Y121300D01*
X360090Y107300D01*
X381590Y107300D01*
X383540Y124460D02*
X383542Y124531D01*
X383548Y124602D01*
X383558Y124673D01*
X383572Y124743D01*
X383590Y124812D01*
X383611Y124879D01*
X383637Y124946D01*
X383666Y125011D01*
X383698Y125074D01*
X383735Y125136D01*
X383774Y125195D01*
X383817Y125252D01*
X383863Y125306D01*
X383912Y125358D01*
X383964Y125407D01*
X384018Y125453D01*
X384075Y125496D01*
X384134Y125535D01*
X384196Y125572D01*
X384259Y125604D01*
X384324Y125633D01*
X384391Y125659D01*
X384458Y125680D01*
X384527Y125698D01*
X384597Y125712D01*
X384668Y125722D01*
X384739Y125728D01*
X384810Y125730D01*
X384881Y125728D01*
X384952Y125722D01*
X385023Y125712D01*
X385093Y125698D01*
X385162Y125680D01*
X385229Y125659D01*
X385296Y125633D01*
X385361Y125604D01*
X385424Y125572D01*
X385486Y125535D01*
X385545Y125496D01*
X385602Y125453D01*
X385656Y125407D01*
X385708Y125358D01*
X385757Y125306D01*
X385803Y125252D01*
X385846Y125195D01*
X385885Y125136D01*
X385922Y125074D01*
X385954Y125011D01*
X385983Y124946D01*
X386009Y124879D01*
X386030Y124812D01*
X386048Y124743D01*
X386062Y124673D01*
X386072Y124602D01*
X386078Y124531D01*
X386080Y124460D01*
X386078Y124389D01*
X386072Y124318D01*
X386062Y124247D01*
X386048Y124177D01*
X386030Y124108D01*
X386009Y124041D01*
X385983Y123974D01*
X385954Y123909D01*
X385922Y123846D01*
X385885Y123784D01*
X385846Y123725D01*
X385803Y123668D01*
X385757Y123614D01*
X385708Y123562D01*
X385656Y123513D01*
X385602Y123467D01*
X385545Y123424D01*
X385486Y123385D01*
X385424Y123348D01*
X385361Y123316D01*
X385296Y123287D01*
X385229Y123261D01*
X385162Y123240D01*
X385093Y123222D01*
X385023Y123208D01*
X384952Y123198D01*
X384881Y123192D01*
X384810Y123190D01*
X384739Y123192D01*
X384668Y123198D01*
X384597Y123208D01*
X384527Y123222D01*
X384458Y123240D01*
X384391Y123261D01*
X384324Y123287D01*
X384259Y123316D01*
X384196Y123348D01*
X384134Y123385D01*
X384075Y123424D01*
X384018Y123467D01*
X383964Y123513D01*
X383912Y123562D01*
X383863Y123614D01*
X383817Y123668D01*
X383774Y123725D01*
X383735Y123784D01*
X383698Y123846D01*
X383666Y123909D01*
X383637Y123974D01*
X383611Y124041D01*
X383590Y124108D01*
X383572Y124177D01*
X383558Y124247D01*
X383548Y124318D01*
X383542Y124389D01*
X383540Y124460D01*
D15*
X387650Y116750D02*
X387650Y111850D01*
X392130Y111850D02*
X392130Y116750D01*
D16*
X389939Y110260D03*
X389939Y118388D03*
D15*
X344080Y253030D02*
X339180Y253030D01*
X339180Y257510D02*
X344080Y257510D01*
D19*
X345670Y255319D03*
X337542Y255319D03*
D10*
X295670Y452360D02*
X295670Y482360D01*
X295670Y452360D02*
X265670Y452360D01*
X265670Y482360D01*
X295670Y482360D01*
X267970Y478790D02*
X267972Y478861D01*
X267978Y478932D01*
X267988Y479003D01*
X268002Y479073D01*
X268020Y479142D01*
X268041Y479209D01*
X268067Y479276D01*
X268096Y479341D01*
X268128Y479404D01*
X268165Y479466D01*
X268204Y479525D01*
X268247Y479582D01*
X268293Y479636D01*
X268342Y479688D01*
X268394Y479737D01*
X268448Y479783D01*
X268505Y479826D01*
X268564Y479865D01*
X268626Y479902D01*
X268689Y479934D01*
X268754Y479963D01*
X268821Y479989D01*
X268888Y480010D01*
X268957Y480028D01*
X269027Y480042D01*
X269098Y480052D01*
X269169Y480058D01*
X269240Y480060D01*
X269311Y480058D01*
X269382Y480052D01*
X269453Y480042D01*
X269523Y480028D01*
X269592Y480010D01*
X269659Y479989D01*
X269726Y479963D01*
X269791Y479934D01*
X269854Y479902D01*
X269916Y479865D01*
X269975Y479826D01*
X270032Y479783D01*
X270086Y479737D01*
X270138Y479688D01*
X270187Y479636D01*
X270233Y479582D01*
X270276Y479525D01*
X270315Y479466D01*
X270352Y479404D01*
X270384Y479341D01*
X270413Y479276D01*
X270439Y479209D01*
X270460Y479142D01*
X270478Y479073D01*
X270492Y479003D01*
X270502Y478932D01*
X270508Y478861D01*
X270510Y478790D01*
X270508Y478719D01*
X270502Y478648D01*
X270492Y478577D01*
X270478Y478507D01*
X270460Y478438D01*
X270439Y478371D01*
X270413Y478304D01*
X270384Y478239D01*
X270352Y478176D01*
X270315Y478114D01*
X270276Y478055D01*
X270233Y477998D01*
X270187Y477944D01*
X270138Y477892D01*
X270086Y477843D01*
X270032Y477797D01*
X269975Y477754D01*
X269916Y477715D01*
X269854Y477678D01*
X269791Y477646D01*
X269726Y477617D01*
X269659Y477591D01*
X269592Y477570D01*
X269523Y477552D01*
X269453Y477538D01*
X269382Y477528D01*
X269311Y477522D01*
X269240Y477520D01*
X269169Y477522D01*
X269098Y477528D01*
X269027Y477538D01*
X268957Y477552D01*
X268888Y477570D01*
X268821Y477591D01*
X268754Y477617D01*
X268689Y477646D01*
X268626Y477678D01*
X268564Y477715D01*
X268505Y477754D01*
X268448Y477797D01*
X268394Y477843D01*
X268342Y477892D01*
X268293Y477944D01*
X268247Y477998D01*
X268204Y478055D01*
X268165Y478114D01*
X268128Y478176D01*
X268096Y478239D01*
X268067Y478304D01*
X268041Y478371D01*
X268020Y478438D01*
X268002Y478507D01*
X267988Y478577D01*
X267978Y478648D01*
X267972Y478719D01*
X267970Y478790D01*
D15*
X268060Y495000D02*
X272960Y495000D01*
X272960Y490520D02*
X268060Y490520D01*
D19*
X266470Y492712D03*
X274598Y492712D03*
D15*
X548130Y301240D02*
X556770Y301240D01*
X556770Y308360D02*
X548130Y308360D01*
D18*
X558800Y304800D03*
X546100Y304800D03*
D15*
X100840Y384560D02*
X92200Y384560D01*
X92200Y377440D02*
X100840Y377440D01*
D18*
X90170Y381000D03*
X102870Y381000D03*
D15*
X619506Y74676D02*
X632714Y74676D01*
X619506Y74676D02*
X619506Y103124D01*
X632714Y103124D01*
X632714Y74676D01*
D20*
X633110Y96900D02*
X633110Y102900D01*
X625110Y102900D01*
X633110Y80900D02*
X633110Y74900D01*
X625110Y74900D01*
X636900Y70600D02*
X581900Y70600D01*
X636900Y70600D02*
X636900Y63100D01*
X636900Y5600D01*
X581900Y5600D01*
X581900Y63100D01*
X581900Y70600D01*
X581900Y63100D02*
X636900Y63100D01*
X573400Y70600D02*
X518400Y70600D01*
X573400Y70600D02*
X573400Y63100D01*
X573400Y5600D01*
X518400Y5600D01*
X518400Y63100D01*
X518400Y70600D01*
X518400Y63100D02*
X573400Y63100D01*
X409570Y69330D02*
X354570Y69330D01*
X409570Y69330D02*
X409570Y61830D01*
X409570Y4330D01*
X354570Y4330D01*
X354570Y61830D01*
X354570Y69330D01*
X354570Y61830D02*
X409570Y61830D01*
D26*
X285890Y105570D02*
X239890Y105570D01*
X239890Y125070D01*
X285890Y125070D01*
X285890Y105570D01*
X270890Y115570D02*
X260390Y108070D01*
X260390Y122570D01*
X270890Y115570D01*
D40*
X288140Y115820D03*
X237640Y115820D03*
D41*
X271390Y115570D03*
D26*
X316390Y62370D02*
X316390Y16370D01*
X316390Y62370D02*
X335890Y62370D01*
X335890Y16370D01*
X316390Y16370D01*
X326390Y31370D02*
X318890Y41870D01*
X333390Y41870D01*
X326390Y31370D01*
D42*
X326640Y14120D03*
X326640Y64620D03*
D43*
X326390Y30870D03*
D20*
X509900Y48100D02*
X509900Y83100D01*
X501900Y83100D01*
X501900Y58100D01*
X489900Y58100D01*
X449900Y58100D02*
X437900Y58100D01*
X437900Y83100D01*
X429900Y83100D01*
X429900Y48100D01*
X449900Y8100D02*
X489900Y8100D01*
D10*
X102620Y43690D02*
X102620Y62990D01*
X118360Y62990D02*
X118360Y43690D01*
D44*
X110499Y40073D03*
X110481Y66608D03*
D10*
X259400Y505780D02*
X259400Y545780D01*
X259400Y505780D02*
X299400Y505780D01*
X299400Y545780D01*
X259400Y545780D01*
X255270Y548640D02*
X255272Y548711D01*
X255278Y548782D01*
X255288Y548853D01*
X255302Y548923D01*
X255320Y548992D01*
X255341Y549059D01*
X255367Y549126D01*
X255396Y549191D01*
X255428Y549254D01*
X255465Y549316D01*
X255504Y549375D01*
X255547Y549432D01*
X255593Y549486D01*
X255642Y549538D01*
X255694Y549587D01*
X255748Y549633D01*
X255805Y549676D01*
X255864Y549715D01*
X255926Y549752D01*
X255989Y549784D01*
X256054Y549813D01*
X256121Y549839D01*
X256188Y549860D01*
X256257Y549878D01*
X256327Y549892D01*
X256398Y549902D01*
X256469Y549908D01*
X256540Y549910D01*
X256611Y549908D01*
X256682Y549902D01*
X256753Y549892D01*
X256823Y549878D01*
X256892Y549860D01*
X256959Y549839D01*
X257026Y549813D01*
X257091Y549784D01*
X257154Y549752D01*
X257216Y549715D01*
X257275Y549676D01*
X257332Y549633D01*
X257386Y549587D01*
X257438Y549538D01*
X257487Y549486D01*
X257533Y549432D01*
X257576Y549375D01*
X257615Y549316D01*
X257652Y549254D01*
X257684Y549191D01*
X257713Y549126D01*
X257739Y549059D01*
X257760Y548992D01*
X257778Y548923D01*
X257792Y548853D01*
X257802Y548782D01*
X257808Y548711D01*
X257810Y548640D01*
X257808Y548569D01*
X257802Y548498D01*
X257792Y548427D01*
X257778Y548357D01*
X257760Y548288D01*
X257739Y548221D01*
X257713Y548154D01*
X257684Y548089D01*
X257652Y548026D01*
X257615Y547964D01*
X257576Y547905D01*
X257533Y547848D01*
X257487Y547794D01*
X257438Y547742D01*
X257386Y547693D01*
X257332Y547647D01*
X257275Y547604D01*
X257216Y547565D01*
X257154Y547528D01*
X257091Y547496D01*
X257026Y547467D01*
X256959Y547441D01*
X256892Y547420D01*
X256823Y547402D01*
X256753Y547388D01*
X256682Y547378D01*
X256611Y547372D01*
X256540Y547370D01*
X256469Y547372D01*
X256398Y547378D01*
X256327Y547388D01*
X256257Y547402D01*
X256188Y547420D01*
X256121Y547441D01*
X256054Y547467D01*
X255989Y547496D01*
X255926Y547528D01*
X255864Y547565D01*
X255805Y547604D01*
X255748Y547647D01*
X255694Y547693D01*
X255642Y547742D01*
X255593Y547794D01*
X255547Y547848D01*
X255504Y547905D01*
X255465Y547964D01*
X255428Y548026D01*
X255396Y548089D01*
X255367Y548154D01*
X255341Y548221D01*
X255320Y548288D01*
X255302Y548357D01*
X255288Y548427D01*
X255278Y548498D01*
X255272Y548569D01*
X255270Y548640D01*
D15*
X105320Y456230D02*
X100420Y456230D01*
X100420Y460710D02*
X105320Y460710D01*
D19*
X106910Y458519D03*
X98782Y458519D03*
D15*
X102960Y267000D02*
X107860Y267000D01*
X107860Y271480D02*
X102960Y271480D01*
D19*
X109450Y269289D03*
X101322Y269289D03*
D15*
X527140Y390860D02*
X532040Y390860D01*
X532040Y386380D02*
X527140Y386380D01*
D19*
X525550Y388572D03*
X533678Y388572D03*
D15*
X600800Y671530D02*
X605700Y671530D01*
X605700Y667050D02*
X600800Y667050D01*
D19*
X599210Y669242D03*
X607338Y669242D03*
D10*
X589250Y868580D02*
X589258Y869230D01*
X589282Y869880D01*
X589322Y870529D01*
X589378Y871177D01*
X589449Y871824D01*
X589537Y872468D01*
X589640Y873110D01*
X589759Y873750D01*
X589894Y874386D01*
X590044Y875019D01*
X590210Y875648D01*
X590391Y876273D01*
X590588Y876893D01*
X590799Y877508D01*
X591026Y878117D01*
X591267Y878721D01*
X591523Y879319D01*
X591794Y879910D01*
X592080Y880495D01*
X592379Y881072D01*
X592693Y881642D01*
X593020Y882204D01*
X593361Y882757D01*
X593716Y883303D01*
X594084Y883839D01*
X594465Y884366D01*
X594859Y884884D01*
X595265Y885391D01*
X595684Y885889D01*
X596115Y886376D01*
X596557Y886853D01*
X597012Y887318D01*
X597477Y887773D01*
X597954Y888215D01*
X598441Y888646D01*
X598939Y889065D01*
X599446Y889471D01*
X599964Y889865D01*
X600491Y890246D01*
X601027Y890614D01*
X601573Y890969D01*
X602126Y891310D01*
X602688Y891637D01*
X603258Y891951D01*
X603835Y892250D01*
X604420Y892536D01*
X605011Y892807D01*
X605609Y893063D01*
X606213Y893304D01*
X606822Y893531D01*
X607437Y893742D01*
X608057Y893939D01*
X608682Y894120D01*
X609311Y894286D01*
X609944Y894436D01*
X610580Y894571D01*
X611220Y894690D01*
X611862Y894793D01*
X612506Y894881D01*
X613153Y894952D01*
X613801Y895008D01*
X614450Y895048D01*
X615100Y895072D01*
X615750Y895080D01*
X616400Y895072D01*
X617050Y895048D01*
X617699Y895008D01*
X618347Y894952D01*
X618994Y894881D01*
X619638Y894793D01*
X620280Y894690D01*
X620920Y894571D01*
X621556Y894436D01*
X622189Y894286D01*
X622818Y894120D01*
X623443Y893939D01*
X624063Y893742D01*
X624678Y893531D01*
X625287Y893304D01*
X625891Y893063D01*
X626489Y892807D01*
X627080Y892536D01*
X627665Y892250D01*
X628242Y891951D01*
X628812Y891637D01*
X629374Y891310D01*
X629927Y890969D01*
X630473Y890614D01*
X631009Y890246D01*
X631536Y889865D01*
X632054Y889471D01*
X632561Y889065D01*
X633059Y888646D01*
X633546Y888215D01*
X634023Y887773D01*
X634488Y887318D01*
X634943Y886853D01*
X635385Y886376D01*
X635816Y885889D01*
X636235Y885391D01*
X636641Y884884D01*
X637035Y884366D01*
X637416Y883839D01*
X637784Y883303D01*
X638139Y882757D01*
X638480Y882204D01*
X638807Y881642D01*
X639121Y881072D01*
X639420Y880495D01*
X639706Y879910D01*
X639977Y879319D01*
X640233Y878721D01*
X640474Y878117D01*
X640701Y877508D01*
X640912Y876893D01*
X641109Y876273D01*
X641290Y875648D01*
X641456Y875019D01*
X641606Y874386D01*
X641741Y873750D01*
X641860Y873110D01*
X641963Y872468D01*
X642051Y871824D01*
X642122Y871177D01*
X642178Y870529D01*
X642218Y869880D01*
X642242Y869230D01*
X642250Y868580D01*
X642242Y867930D01*
X642218Y867280D01*
X642178Y866631D01*
X642122Y865983D01*
X642051Y865336D01*
X641963Y864692D01*
X641860Y864050D01*
X641741Y863410D01*
X641606Y862774D01*
X641456Y862141D01*
X641290Y861512D01*
X641109Y860887D01*
X640912Y860267D01*
X640701Y859652D01*
X640474Y859043D01*
X640233Y858439D01*
X639977Y857841D01*
X639706Y857250D01*
X639420Y856665D01*
X639121Y856088D01*
X638807Y855518D01*
X638480Y854956D01*
X638139Y854403D01*
X637784Y853857D01*
X637416Y853321D01*
X637035Y852794D01*
X636641Y852276D01*
X636235Y851769D01*
X635816Y851271D01*
X635385Y850784D01*
X634943Y850307D01*
X634488Y849842D01*
X634023Y849387D01*
X633546Y848945D01*
X633059Y848514D01*
X632561Y848095D01*
X632054Y847689D01*
X631536Y847295D01*
X631009Y846914D01*
X630473Y846546D01*
X629927Y846191D01*
X629374Y845850D01*
X628812Y845523D01*
X628242Y845209D01*
X627665Y844910D01*
X627080Y844624D01*
X626489Y844353D01*
X625891Y844097D01*
X625287Y843856D01*
X624678Y843629D01*
X624063Y843418D01*
X623443Y843221D01*
X622818Y843040D01*
X622189Y842874D01*
X621556Y842724D01*
X620920Y842589D01*
X620280Y842470D01*
X619638Y842367D01*
X618994Y842279D01*
X618347Y842208D01*
X617699Y842152D01*
X617050Y842112D01*
X616400Y842088D01*
X615750Y842080D01*
X615100Y842088D01*
X614450Y842112D01*
X613801Y842152D01*
X613153Y842208D01*
X612506Y842279D01*
X611862Y842367D01*
X611220Y842470D01*
X610580Y842589D01*
X609944Y842724D01*
X609311Y842874D01*
X608682Y843040D01*
X608057Y843221D01*
X607437Y843418D01*
X606822Y843629D01*
X606213Y843856D01*
X605609Y844097D01*
X605011Y844353D01*
X604420Y844624D01*
X603835Y844910D01*
X603258Y845209D01*
X602688Y845523D01*
X602126Y845850D01*
X601573Y846191D01*
X601027Y846546D01*
X600491Y846914D01*
X599964Y847295D01*
X599446Y847689D01*
X598939Y848095D01*
X598441Y848514D01*
X597954Y848945D01*
X597477Y849387D01*
X597012Y849842D01*
X596557Y850307D01*
X596115Y850784D01*
X595684Y851271D01*
X595265Y851769D01*
X594859Y852276D01*
X594465Y852794D01*
X594084Y853321D01*
X593716Y853857D01*
X593361Y854403D01*
X593020Y854956D01*
X592693Y855518D01*
X592379Y856088D01*
X592080Y856665D01*
X591794Y857250D01*
X591523Y857841D01*
X591267Y858439D01*
X591026Y859043D01*
X590799Y859652D01*
X590588Y860267D01*
X590391Y860887D01*
X590210Y861512D01*
X590044Y862141D01*
X589894Y862774D01*
X589759Y863410D01*
X589640Y864050D01*
X589537Y864692D01*
X589449Y865336D01*
X589378Y865983D01*
X589322Y866631D01*
X589282Y867280D01*
X589258Y867930D01*
X589250Y868580D01*
X171620Y68580D02*
X171628Y69230D01*
X171652Y69880D01*
X171692Y70529D01*
X171748Y71177D01*
X171819Y71824D01*
X171907Y72468D01*
X172010Y73110D01*
X172129Y73750D01*
X172264Y74386D01*
X172414Y75019D01*
X172580Y75648D01*
X172761Y76273D01*
X172958Y76893D01*
X173169Y77508D01*
X173396Y78117D01*
X173637Y78721D01*
X173893Y79319D01*
X174164Y79910D01*
X174450Y80495D01*
X174749Y81072D01*
X175063Y81642D01*
X175390Y82204D01*
X175731Y82757D01*
X176086Y83303D01*
X176454Y83839D01*
X176835Y84366D01*
X177229Y84884D01*
X177635Y85391D01*
X178054Y85889D01*
X178485Y86376D01*
X178927Y86853D01*
X179382Y87318D01*
X179847Y87773D01*
X180324Y88215D01*
X180811Y88646D01*
X181309Y89065D01*
X181816Y89471D01*
X182334Y89865D01*
X182861Y90246D01*
X183397Y90614D01*
X183943Y90969D01*
X184496Y91310D01*
X185058Y91637D01*
X185628Y91951D01*
X186205Y92250D01*
X186790Y92536D01*
X187381Y92807D01*
X187979Y93063D01*
X188583Y93304D01*
X189192Y93531D01*
X189807Y93742D01*
X190427Y93939D01*
X191052Y94120D01*
X191681Y94286D01*
X192314Y94436D01*
X192950Y94571D01*
X193590Y94690D01*
X194232Y94793D01*
X194876Y94881D01*
X195523Y94952D01*
X196171Y95008D01*
X196820Y95048D01*
X197470Y95072D01*
X198120Y95080D01*
X198770Y95072D01*
X199420Y95048D01*
X200069Y95008D01*
X200717Y94952D01*
X201364Y94881D01*
X202008Y94793D01*
X202650Y94690D01*
X203290Y94571D01*
X203926Y94436D01*
X204559Y94286D01*
X205188Y94120D01*
X205813Y93939D01*
X206433Y93742D01*
X207048Y93531D01*
X207657Y93304D01*
X208261Y93063D01*
X208859Y92807D01*
X209450Y92536D01*
X210035Y92250D01*
X210612Y91951D01*
X211182Y91637D01*
X211744Y91310D01*
X212297Y90969D01*
X212843Y90614D01*
X213379Y90246D01*
X213906Y89865D01*
X214424Y89471D01*
X214931Y89065D01*
X215429Y88646D01*
X215916Y88215D01*
X216393Y87773D01*
X216858Y87318D01*
X217313Y86853D01*
X217755Y86376D01*
X218186Y85889D01*
X218605Y85391D01*
X219011Y84884D01*
X219405Y84366D01*
X219786Y83839D01*
X220154Y83303D01*
X220509Y82757D01*
X220850Y82204D01*
X221177Y81642D01*
X221491Y81072D01*
X221790Y80495D01*
X222076Y79910D01*
X222347Y79319D01*
X222603Y78721D01*
X222844Y78117D01*
X223071Y77508D01*
X223282Y76893D01*
X223479Y76273D01*
X223660Y75648D01*
X223826Y75019D01*
X223976Y74386D01*
X224111Y73750D01*
X224230Y73110D01*
X224333Y72468D01*
X224421Y71824D01*
X224492Y71177D01*
X224548Y70529D01*
X224588Y69880D01*
X224612Y69230D01*
X224620Y68580D01*
X224612Y67930D01*
X224588Y67280D01*
X224548Y66631D01*
X224492Y65983D01*
X224421Y65336D01*
X224333Y64692D01*
X224230Y64050D01*
X224111Y63410D01*
X223976Y62774D01*
X223826Y62141D01*
X223660Y61512D01*
X223479Y60887D01*
X223282Y60267D01*
X223071Y59652D01*
X222844Y59043D01*
X222603Y58439D01*
X222347Y57841D01*
X222076Y57250D01*
X221790Y56665D01*
X221491Y56088D01*
X221177Y55518D01*
X220850Y54956D01*
X220509Y54403D01*
X220154Y53857D01*
X219786Y53321D01*
X219405Y52794D01*
X219011Y52276D01*
X218605Y51769D01*
X218186Y51271D01*
X217755Y50784D01*
X217313Y50307D01*
X216858Y49842D01*
X216393Y49387D01*
X215916Y48945D01*
X215429Y48514D01*
X214931Y48095D01*
X214424Y47689D01*
X213906Y47295D01*
X213379Y46914D01*
X212843Y46546D01*
X212297Y46191D01*
X211744Y45850D01*
X211182Y45523D01*
X210612Y45209D01*
X210035Y44910D01*
X209450Y44624D01*
X208859Y44353D01*
X208261Y44097D01*
X207657Y43856D01*
X207048Y43629D01*
X206433Y43418D01*
X205813Y43221D01*
X205188Y43040D01*
X204559Y42874D01*
X203926Y42724D01*
X203290Y42589D01*
X202650Y42470D01*
X202008Y42367D01*
X201364Y42279D01*
X200717Y42208D01*
X200069Y42152D01*
X199420Y42112D01*
X198770Y42088D01*
X198120Y42080D01*
X197470Y42088D01*
X196820Y42112D01*
X196171Y42152D01*
X195523Y42208D01*
X194876Y42279D01*
X194232Y42367D01*
X193590Y42470D01*
X192950Y42589D01*
X192314Y42724D01*
X191681Y42874D01*
X191052Y43040D01*
X190427Y43221D01*
X189807Y43418D01*
X189192Y43629D01*
X188583Y43856D01*
X187979Y44097D01*
X187381Y44353D01*
X186790Y44624D01*
X186205Y44910D01*
X185628Y45209D01*
X185058Y45523D01*
X184496Y45850D01*
X183943Y46191D01*
X183397Y46546D01*
X182861Y46914D01*
X182334Y47295D01*
X181816Y47689D01*
X181309Y48095D01*
X180811Y48514D01*
X180324Y48945D01*
X179847Y49387D01*
X179382Y49842D01*
X178927Y50307D01*
X178485Y50784D01*
X178054Y51271D01*
X177635Y51769D01*
X177229Y52276D01*
X176835Y52794D01*
X176454Y53321D01*
X176086Y53857D01*
X175731Y54403D01*
X175390Y54956D01*
X175063Y55518D01*
X174749Y56088D01*
X174450Y56665D01*
X174164Y57250D01*
X173893Y57841D01*
X173637Y58439D01*
X173396Y59043D01*
X173169Y59652D01*
X172958Y60267D01*
X172761Y60887D01*
X172580Y61512D01*
X172414Y62141D01*
X172264Y62774D01*
X172129Y63410D01*
X172010Y64050D01*
X171907Y64692D01*
X171819Y65336D01*
X171748Y65983D01*
X171692Y66631D01*
X171652Y67280D01*
X171628Y67930D01*
X171620Y68580D01*
X171620Y868580D02*
X171628Y869230D01*
X171652Y869880D01*
X171692Y870529D01*
X171748Y871177D01*
X171819Y871824D01*
X171907Y872468D01*
X172010Y873110D01*
X172129Y873750D01*
X172264Y874386D01*
X172414Y875019D01*
X172580Y875648D01*
X172761Y876273D01*
X172958Y876893D01*
X173169Y877508D01*
X173396Y878117D01*
X173637Y878721D01*
X173893Y879319D01*
X174164Y879910D01*
X174450Y880495D01*
X174749Y881072D01*
X175063Y881642D01*
X175390Y882204D01*
X175731Y882757D01*
X176086Y883303D01*
X176454Y883839D01*
X176835Y884366D01*
X177229Y884884D01*
X177635Y885391D01*
X178054Y885889D01*
X178485Y886376D01*
X178927Y886853D01*
X179382Y887318D01*
X179847Y887773D01*
X180324Y888215D01*
X180811Y888646D01*
X181309Y889065D01*
X181816Y889471D01*
X182334Y889865D01*
X182861Y890246D01*
X183397Y890614D01*
X183943Y890969D01*
X184496Y891310D01*
X185058Y891637D01*
X185628Y891951D01*
X186205Y892250D01*
X186790Y892536D01*
X187381Y892807D01*
X187979Y893063D01*
X188583Y893304D01*
X189192Y893531D01*
X189807Y893742D01*
X190427Y893939D01*
X191052Y894120D01*
X191681Y894286D01*
X192314Y894436D01*
X192950Y894571D01*
X193590Y894690D01*
X194232Y894793D01*
X194876Y894881D01*
X195523Y894952D01*
X196171Y895008D01*
X196820Y895048D01*
X197470Y895072D01*
X198120Y895080D01*
X198770Y895072D01*
X199420Y895048D01*
X200069Y895008D01*
X200717Y894952D01*
X201364Y894881D01*
X202008Y894793D01*
X202650Y894690D01*
X203290Y894571D01*
X203926Y894436D01*
X204559Y894286D01*
X205188Y894120D01*
X205813Y893939D01*
X206433Y893742D01*
X207048Y893531D01*
X207657Y893304D01*
X208261Y893063D01*
X208859Y892807D01*
X209450Y892536D01*
X210035Y892250D01*
X210612Y891951D01*
X211182Y891637D01*
X211744Y891310D01*
X212297Y890969D01*
X212843Y890614D01*
X213379Y890246D01*
X213906Y889865D01*
X214424Y889471D01*
X214931Y889065D01*
X215429Y888646D01*
X215916Y888215D01*
X216393Y887773D01*
X216858Y887318D01*
X217313Y886853D01*
X217755Y886376D01*
X218186Y885889D01*
X218605Y885391D01*
X219011Y884884D01*
X219405Y884366D01*
X219786Y883839D01*
X220154Y883303D01*
X220509Y882757D01*
X220850Y882204D01*
X221177Y881642D01*
X221491Y881072D01*
X221790Y880495D01*
X222076Y879910D01*
X222347Y879319D01*
X222603Y878721D01*
X222844Y878117D01*
X223071Y877508D01*
X223282Y876893D01*
X223479Y876273D01*
X223660Y875648D01*
X223826Y875019D01*
X223976Y874386D01*
X224111Y873750D01*
X224230Y873110D01*
X224333Y872468D01*
X224421Y871824D01*
X224492Y871177D01*
X224548Y870529D01*
X224588Y869880D01*
X224612Y869230D01*
X224620Y868580D01*
X224612Y867930D01*
X224588Y867280D01*
X224548Y866631D01*
X224492Y865983D01*
X224421Y865336D01*
X224333Y864692D01*
X224230Y864050D01*
X224111Y863410D01*
X223976Y862774D01*
X223826Y862141D01*
X223660Y861512D01*
X223479Y860887D01*
X223282Y860267D01*
X223071Y859652D01*
X222844Y859043D01*
X222603Y858439D01*
X222347Y857841D01*
X222076Y857250D01*
X221790Y856665D01*
X221491Y856088D01*
X221177Y855518D01*
X220850Y854956D01*
X220509Y854403D01*
X220154Y853857D01*
X219786Y853321D01*
X219405Y852794D01*
X219011Y852276D01*
X218605Y851769D01*
X218186Y851271D01*
X217755Y850784D01*
X217313Y850307D01*
X216858Y849842D01*
X216393Y849387D01*
X215916Y848945D01*
X215429Y848514D01*
X214931Y848095D01*
X214424Y847689D01*
X213906Y847295D01*
X213379Y846914D01*
X212843Y846546D01*
X212297Y846191D01*
X211744Y845850D01*
X211182Y845523D01*
X210612Y845209D01*
X210035Y844910D01*
X209450Y844624D01*
X208859Y844353D01*
X208261Y844097D01*
X207657Y843856D01*
X207048Y843629D01*
X206433Y843418D01*
X205813Y843221D01*
X205188Y843040D01*
X204559Y842874D01*
X203926Y842724D01*
X203290Y842589D01*
X202650Y842470D01*
X202008Y842367D01*
X201364Y842279D01*
X200717Y842208D01*
X200069Y842152D01*
X199420Y842112D01*
X198770Y842088D01*
X198120Y842080D01*
X197470Y842088D01*
X196820Y842112D01*
X196171Y842152D01*
X195523Y842208D01*
X194876Y842279D01*
X194232Y842367D01*
X193590Y842470D01*
X192950Y842589D01*
X192314Y842724D01*
X191681Y842874D01*
X191052Y843040D01*
X190427Y843221D01*
X189807Y843418D01*
X189192Y843629D01*
X188583Y843856D01*
X187979Y844097D01*
X187381Y844353D01*
X186790Y844624D01*
X186205Y844910D01*
X185628Y845209D01*
X185058Y845523D01*
X184496Y845850D01*
X183943Y846191D01*
X183397Y846546D01*
X182861Y846914D01*
X182334Y847295D01*
X181816Y847689D01*
X181309Y848095D01*
X180811Y848514D01*
X180324Y848945D01*
X179847Y849387D01*
X179382Y849842D01*
X178927Y850307D01*
X178485Y850784D01*
X178054Y851271D01*
X177635Y851769D01*
X177229Y852276D01*
X176835Y852794D01*
X176454Y853321D01*
X176086Y853857D01*
X175731Y854403D01*
X175390Y854956D01*
X175063Y855518D01*
X174749Y856088D01*
X174450Y856665D01*
X174164Y857250D01*
X173893Y857841D01*
X173637Y858439D01*
X173396Y859043D01*
X173169Y859652D01*
X172958Y860267D01*
X172761Y860887D01*
X172580Y861512D01*
X172414Y862141D01*
X172264Y862774D01*
X172129Y863410D01*
X172010Y864050D01*
X171907Y864692D01*
X171819Y865336D01*
X171748Y865983D01*
X171692Y866631D01*
X171652Y867280D01*
X171628Y867930D01*
X171620Y868580D01*
D15*
X269330Y566120D02*
X274230Y566120D01*
X274230Y561640D02*
X269330Y561640D01*
D19*
X267740Y563832D03*
X275868Y563832D03*
M02*
