G04 EAGLE Gerber X2 export*
%TF.Part,Single*%
%TF.FileFunction,Paste,Top*%
%TF.FilePolarity,Positive*%
%TF.GenerationSoftware,Autodesk,EAGLE,9.2.1*%
%TF.CreationDate,2018-11-01T02:04:35Z*%
G75*
%MOMM*%
%FSLAX34Y34*%
%LPD*%
%INSolderpaste Top*%
%IPPOS*%
%AMOC8*
5,1,8,0,0,1.08239X$1,22.5*%
G01*
%ADD10R,1.300000X1.500000*%
%ADD11R,2.000000X3.000000*%
%ADD12R,1.500000X1.300000*%
%ADD13R,0.900000X0.700000*%
%ADD14R,5.500000X1.450000*%
%ADD15R,2.700000X1.000000*%
%ADD16R,1.000000X1.000000*%
%ADD17R,0.850000X0.350000*%
%ADD18R,0.350000X0.850000*%
%ADD19R,0.550000X0.250000*%
%ADD20R,1.050000X0.600000*%
%ADD21R,2.300000X0.850000*%
%ADD22R,0.600000X0.300000*%
%ADD23R,0.250000X0.550000*%
%ADD24R,0.200000X0.550000*%
%ADD25R,0.700000X0.900000*%
%ADD26R,0.800000X0.900000*%
%ADD27R,0.250000X0.700000*%
%ADD28R,2.380000X1.650000*%
%ADD29R,0.600000X0.600000*%
%ADD30R,0.980000X3.700000*%
%ADD31R,0.600000X1.050000*%
%ADD32R,0.190000X0.510000*%
%ADD33R,0.250000X0.950000*%
%ADD34R,0.300000X0.950000*%
%ADD35R,0.300000X1.000000*%
%ADD36R,0.400000X0.260000*%
%ADD37R,0.800000X1.300000*%
%ADD38R,0.250000X0.250000*%
%ADD39R,1.000000X0.800000*%
%ADD40R,0.700000X1.600000*%
%ADD41R,0.200000X0.700000*%
%ADD42R,0.600000X1.200000*%
%ADD43R,5.080000X2.540000*%
%ADD44R,0.350000X0.500000*%
%ADD45R,1.000000X0.550000*%
%ADD46R,0.800000X0.350000*%
%ADD47R,0.550000X1.200000*%
%ADD48R,1.100000X1.000000*%
%ADD49R,0.250000X0.750000*%
%ADD50R,0.700000X0.250000*%
%ADD51R,2.450000X2.450000*%
%ADD52R,0.450000X2.350000*%
%ADD53R,1.500000X1.550000*%
%ADD54R,1.400000X1.100000*%
%ADD55R,0.450000X0.300000*%
%ADD56R,1.050000X0.650000*%
%ADD57C,0.150000*%
%ADD58C,0.500000*%
%ADD59R,2.400000X1.700000*%
%ADD60R,1.900000X1.400000*%
%ADD61R,1.400000X1.800000*%
%ADD62R,1.500000X0.700000*%
%ADD63R,0.600000X1.100000*%
%ADD64R,1.000000X1.400000*%
%ADD65R,1.000000X1.100000*%
%ADD66R,0.850000X0.280000*%
%ADD67R,0.280000X0.850000*%
%ADD68R,0.820000X1.320000*%
%ADD69R,0.820000X0.820000*%
%ADD70R,0.900000X0.800000*%
%ADD71R,1.450000X0.300000*%
%ADD72R,1.800000X1.700000*%
%ADD73R,1.700000X1.800000*%
%ADD74R,1.000000X4.600000*%
%ADD75R,1.600000X3.400000*%
%ADD76R,1.800000X1.600000*%
%ADD77R,0.600000X0.240000*%
%ADD78R,0.240000X0.600000*%

G36*
X291205Y526779D02*
X291205Y526779D01*
X291205Y526780D01*
X291205Y537580D01*
X291201Y537585D01*
X291200Y537585D01*
X280400Y537585D01*
X280395Y537581D01*
X280395Y537580D01*
X280395Y526780D01*
X280399Y526775D01*
X280400Y526775D01*
X291200Y526775D01*
X291205Y526779D01*
G37*
G36*
X278405Y526779D02*
X278405Y526779D01*
X278405Y526780D01*
X278405Y537580D01*
X278401Y537585D01*
X278400Y537585D01*
X267600Y537585D01*
X267595Y537581D01*
X267595Y537580D01*
X267595Y526780D01*
X267599Y526775D01*
X267600Y526775D01*
X278400Y526775D01*
X278405Y526779D01*
G37*
G36*
X291205Y513979D02*
X291205Y513979D01*
X291205Y513980D01*
X291205Y524780D01*
X291201Y524785D01*
X291200Y524785D01*
X280400Y524785D01*
X280395Y524781D01*
X280395Y524780D01*
X280395Y513980D01*
X280399Y513975D01*
X280400Y513975D01*
X291200Y513975D01*
X291205Y513979D01*
G37*
G36*
X278405Y513979D02*
X278405Y513979D01*
X278405Y513980D01*
X278405Y524780D01*
X278401Y524785D01*
X278400Y524785D01*
X267600Y524785D01*
X267595Y524781D01*
X267595Y524780D01*
X267595Y513980D01*
X267599Y513975D01*
X267600Y513975D01*
X278400Y513975D01*
X278405Y513979D01*
G37*
G36*
X252505Y254199D02*
X252505Y254199D01*
X252505Y254200D01*
X252505Y265200D01*
X252501Y265205D01*
X252500Y265205D01*
X241500Y265205D01*
X241495Y265201D01*
X241495Y265200D01*
X241495Y259420D01*
X241497Y259418D01*
X241496Y259416D01*
X246716Y254196D01*
X246719Y254196D01*
X246720Y254195D01*
X252500Y254195D01*
X252505Y254199D01*
G37*
G36*
X261282Y254197D02*
X261282Y254197D01*
X261284Y254196D01*
X266504Y259416D01*
X266504Y259419D01*
X266505Y259420D01*
X266505Y265200D01*
X266501Y265205D01*
X266500Y265205D01*
X255500Y265205D01*
X255495Y265201D01*
X255495Y265200D01*
X255495Y254200D01*
X255499Y254195D01*
X255500Y254195D01*
X261280Y254195D01*
X261282Y254197D01*
G37*
G36*
X252505Y268199D02*
X252505Y268199D01*
X252505Y268200D01*
X252505Y279200D01*
X252501Y279205D01*
X252500Y279205D01*
X246720Y279205D01*
X246718Y279203D01*
X246716Y279204D01*
X241496Y273984D01*
X241496Y273981D01*
X241495Y273980D01*
X241495Y268200D01*
X241499Y268195D01*
X241500Y268195D01*
X252500Y268195D01*
X252505Y268199D01*
G37*
G36*
X266505Y268199D02*
X266505Y268199D01*
X266505Y268200D01*
X266505Y273980D01*
X266503Y273982D01*
X266504Y273984D01*
X261284Y279204D01*
X261281Y279204D01*
X261280Y279205D01*
X255500Y279205D01*
X255495Y279201D01*
X255495Y279200D01*
X255495Y268200D01*
X255499Y268195D01*
X255500Y268195D01*
X266500Y268195D01*
X266505Y268199D01*
G37*
D10*
X258420Y227330D03*
X239420Y227330D03*
D11*
X249400Y317500D03*
X309400Y317500D03*
D10*
X269900Y355600D03*
X288900Y355600D03*
D12*
X264160Y376580D03*
X264160Y395580D03*
D13*
X349250Y391310D03*
X349250Y378310D03*
D10*
X286410Y431800D03*
X305410Y431800D03*
X286410Y410210D03*
X305410Y410210D03*
D14*
X182880Y227650D03*
X182880Y267650D03*
D15*
X237490Y385510D03*
X237490Y409510D03*
D16*
X293370Y234560D03*
X293370Y217560D03*
X293370Y265040D03*
X293370Y248040D03*
X288680Y281940D03*
X305680Y281940D03*
X241300Y370450D03*
X241300Y353450D03*
X334010Y376310D03*
X334010Y393310D03*
X313690Y393310D03*
X313690Y376310D03*
D17*
X273750Y276450D03*
X273750Y269950D03*
X273750Y263450D03*
X273750Y256950D03*
D18*
X244250Y246950D03*
X250750Y246950D03*
X257250Y246950D03*
X263750Y246950D03*
X263750Y286450D03*
X257250Y286450D03*
X250750Y286450D03*
X244250Y286450D03*
D17*
X234250Y276450D03*
X234250Y269950D03*
X234250Y263450D03*
X234250Y256950D03*
D19*
X296310Y376040D03*
X296310Y381040D03*
X296310Y386040D03*
X296310Y391040D03*
X282810Y376040D03*
X282810Y381040D03*
X282810Y386040D03*
X282810Y391040D03*
D20*
X484340Y206400D03*
X484340Y215900D03*
X484340Y225400D03*
X511340Y225400D03*
X511340Y215900D03*
X511340Y206400D03*
D21*
X532130Y225650D03*
X532130Y206150D03*
D10*
X480720Y189230D03*
X499720Y189230D03*
D16*
X502530Y243840D03*
X485530Y243840D03*
X534280Y243840D03*
X517280Y243840D03*
D12*
X467360Y224180D03*
X467360Y243180D03*
D22*
X534520Y105410D03*
X547520Y105410D03*
D23*
X536020Y98660D03*
X546020Y98660D03*
X546020Y112160D03*
X536020Y112160D03*
D24*
X541020Y98660D03*
X541020Y112160D03*
D13*
X521970Y114150D03*
X521970Y127150D03*
D25*
X519580Y99060D03*
X506580Y99060D03*
X561490Y138430D03*
X548490Y138430D03*
X561490Y149860D03*
X548490Y149860D03*
D16*
X480450Y152400D03*
X497450Y152400D03*
D26*
X490880Y115730D03*
X509880Y115730D03*
X500380Y136730D03*
X479400Y135730D03*
X460400Y135730D03*
X469900Y114730D03*
D12*
X563880Y83210D03*
X563880Y102210D03*
D25*
X548490Y127000D03*
X561490Y127000D03*
D16*
X528710Y82550D03*
X545710Y82550D03*
D27*
X240210Y69880D03*
X244710Y69880D03*
X253710Y69880D03*
X249210Y69880D03*
X258210Y69880D03*
X262710Y69880D03*
X262710Y41880D03*
X258210Y41880D03*
X249210Y41880D03*
X253710Y41880D03*
X244710Y41880D03*
X240210Y41880D03*
D28*
X251460Y55880D03*
D10*
X240690Y20320D03*
X259690Y20320D03*
D16*
X296790Y63500D03*
X279790Y63500D03*
X296790Y43180D03*
X279790Y43180D03*
X279790Y22860D03*
X296790Y22860D03*
D29*
X262050Y87630D03*
X284050Y87630D03*
D10*
X360070Y86360D03*
X379070Y86360D03*
D30*
X309460Y97790D03*
X333160Y97790D03*
D12*
X408940Y102210D03*
X408940Y83210D03*
D16*
X234070Y92710D03*
X251070Y92710D03*
D31*
X229260Y204000D03*
X238760Y204000D03*
X248260Y204000D03*
X248260Y177000D03*
X238760Y177000D03*
X229260Y177000D03*
X271170Y204000D03*
X280670Y204000D03*
X290170Y204000D03*
X290170Y177000D03*
X280670Y177000D03*
X271170Y177000D03*
D32*
X303360Y193850D03*
X306860Y193850D03*
X310360Y193850D03*
X313860Y193850D03*
X313860Y187150D03*
X310360Y187150D03*
X306860Y187150D03*
X303360Y187150D03*
D33*
X342860Y182980D03*
X337860Y182980D03*
D34*
X347860Y182980D03*
X332860Y182980D03*
D35*
X347860Y195480D03*
D33*
X342860Y195480D03*
X337860Y195480D03*
D34*
X332860Y195480D03*
D36*
X125840Y578000D03*
X125840Y571500D03*
X125840Y565000D03*
X107840Y565000D03*
X107840Y571500D03*
X107840Y578000D03*
D37*
X116840Y571500D03*
D36*
X125840Y604670D03*
X125840Y598170D03*
X125840Y591670D03*
X107840Y591670D03*
X107840Y598170D03*
X107840Y604670D03*
D37*
X116840Y598170D03*
D32*
X149690Y587550D03*
X153190Y587550D03*
X156690Y587550D03*
X160190Y587550D03*
X160190Y580850D03*
X156690Y580850D03*
X153190Y580850D03*
X149690Y580850D03*
D38*
X168180Y582200D03*
X168180Y586200D03*
X168180Y582200D03*
X172180Y582200D03*
X172180Y586200D03*
D25*
X152250Y604520D03*
X165250Y604520D03*
X82400Y586740D03*
X95400Y586740D03*
X82400Y598170D03*
X95400Y598170D03*
X95400Y571500D03*
X82400Y571500D03*
X95400Y560070D03*
X82400Y560070D03*
D36*
X523130Y451970D03*
X523130Y458470D03*
X523130Y464970D03*
X541130Y464970D03*
X541130Y458470D03*
X541130Y451970D03*
D37*
X532130Y458470D03*
D36*
X523130Y425300D03*
X523130Y431800D03*
X523130Y438300D03*
X541130Y438300D03*
X541130Y431800D03*
X541130Y425300D03*
D37*
X532130Y431800D03*
D32*
X478960Y434800D03*
X475460Y434800D03*
X471960Y434800D03*
X468460Y434800D03*
X468460Y441500D03*
X471960Y441500D03*
X475460Y441500D03*
X478960Y441500D03*
D38*
X460470Y440150D03*
X460470Y436150D03*
X460470Y440150D03*
X456470Y440150D03*
X456470Y436150D03*
D25*
X469750Y421640D03*
X482750Y421640D03*
X566570Y443230D03*
X553570Y443230D03*
X566570Y431800D03*
X553570Y431800D03*
X553570Y458470D03*
X566570Y458470D03*
X553570Y469900D03*
X566570Y469900D03*
D10*
X555600Y406400D03*
X536600Y406400D03*
X84480Y539750D03*
X103480Y539750D03*
D39*
X119710Y536320D03*
X119710Y517020D03*
X192710Y517020D03*
X192710Y536320D03*
D40*
X133710Y544670D03*
X163710Y544670D03*
X178710Y544670D03*
D25*
X162710Y565150D03*
X149710Y565150D03*
D39*
X540690Y490350D03*
X540690Y509650D03*
X467690Y509650D03*
X467690Y490350D03*
D40*
X526690Y482000D03*
X496690Y482000D03*
X481690Y482000D03*
D25*
X465940Y452120D03*
X478940Y452120D03*
D41*
X360330Y580970D03*
X356330Y580970D03*
X352330Y580970D03*
X348330Y580970D03*
X348330Y589970D03*
X352330Y589970D03*
X356330Y589970D03*
X360330Y589970D03*
D42*
X577850Y683200D03*
X590550Y683200D03*
X603250Y683200D03*
X615950Y683200D03*
X615950Y739200D03*
X603250Y739200D03*
X590550Y739200D03*
X577850Y739200D03*
D43*
X584200Y495300D03*
X584200Y647700D03*
D13*
X554990Y690730D03*
X554990Y703730D03*
D44*
X533810Y718730D03*
X540310Y718730D03*
X546810Y718730D03*
X553310Y718730D03*
X553310Y739230D03*
X546810Y739230D03*
X540310Y739230D03*
X533810Y739230D03*
D45*
X449110Y215240D03*
X449110Y196240D03*
X422110Y196240D03*
X422110Y205740D03*
X422110Y215240D03*
D25*
X435760Y227330D03*
X422760Y227330D03*
X429110Y184150D03*
X442110Y184150D03*
D46*
X404470Y199240D03*
X404470Y212240D03*
X385470Y212240D03*
X385470Y205740D03*
X385470Y199240D03*
D25*
X401470Y189230D03*
X388470Y189230D03*
D16*
X402200Y227330D03*
X385200Y227330D03*
D47*
X310540Y138130D03*
X320040Y138130D03*
X329540Y138130D03*
X329540Y164130D03*
X320040Y164130D03*
X310540Y164130D03*
D26*
X290170Y157320D03*
X271170Y157320D03*
X280670Y136320D03*
X248260Y157320D03*
X229260Y157320D03*
X238760Y136320D03*
D48*
X346710Y164710D03*
X346710Y147710D03*
D49*
X125850Y769360D03*
X130850Y769360D03*
X135850Y769360D03*
X140850Y769360D03*
X140850Y800360D03*
X135850Y800360D03*
X130850Y800360D03*
X125850Y800360D03*
D25*
X26820Y85090D03*
X13820Y85090D03*
D10*
X29820Y68580D03*
X10820Y68580D03*
D50*
X53340Y121440D03*
X53340Y116440D03*
X53340Y111440D03*
X53340Y106440D03*
X53340Y101440D03*
D27*
X63340Y91440D03*
X68340Y91440D03*
X73340Y91440D03*
X78340Y91440D03*
X83340Y91440D03*
D50*
X93340Y101440D03*
X93340Y106440D03*
X93340Y111440D03*
X93340Y116440D03*
X93340Y121440D03*
D27*
X83340Y131440D03*
X78340Y131440D03*
X73340Y131440D03*
X68340Y131440D03*
X63340Y131440D03*
D51*
X73340Y111440D03*
D25*
X63650Y64770D03*
X50650Y64770D03*
X63650Y76200D03*
X50650Y76200D03*
D13*
X104140Y98910D03*
X104140Y111910D03*
D25*
X13820Y96520D03*
X26820Y96520D03*
X13820Y107950D03*
X26820Y107950D03*
D52*
X44150Y45720D03*
X50650Y45720D03*
X57150Y45720D03*
X63650Y45720D03*
X70150Y45720D03*
D53*
X47150Y13970D03*
X67150Y13970D03*
X26650Y13970D03*
X87650Y13970D03*
D13*
X121920Y153820D03*
X121920Y140820D03*
X133350Y153820D03*
X133350Y140820D03*
X97790Y158900D03*
X97790Y145900D03*
X110490Y158900D03*
X110490Y145900D03*
D54*
X124220Y209170D03*
X94220Y209170D03*
X94220Y225170D03*
X124220Y225170D03*
D25*
X102720Y241300D03*
X115720Y241300D03*
D55*
X346310Y612220D03*
X346310Y617220D03*
X346310Y622220D03*
X359810Y622220D03*
X359810Y617220D03*
X359810Y612220D03*
D54*
X298690Y589660D03*
X328690Y589660D03*
X328690Y573660D03*
X298690Y573660D03*
D13*
X313690Y619910D03*
X313690Y606910D03*
X325120Y619910D03*
X325120Y606910D03*
X302260Y619910D03*
X302260Y606910D03*
D56*
X30050Y671150D03*
X71550Y671150D03*
X71550Y649650D03*
X30050Y649650D03*
D13*
X86360Y665330D03*
X86360Y678330D03*
D57*
X294200Y699890D02*
X299700Y699890D01*
X294200Y699890D02*
X294200Y701390D01*
X299700Y701390D01*
X299700Y699890D01*
X299700Y701315D02*
X294200Y701315D01*
X294200Y694890D02*
X299700Y694890D01*
X294200Y694890D02*
X294200Y696390D01*
X299700Y696390D01*
X299700Y694890D01*
X299700Y696315D02*
X294200Y696315D01*
X294200Y689890D02*
X299700Y689890D01*
X294200Y689890D02*
X294200Y691390D01*
X299700Y691390D01*
X299700Y689890D01*
X299700Y691315D02*
X294200Y691315D01*
X294200Y684890D02*
X299700Y684890D01*
X294200Y684890D02*
X294200Y686390D01*
X299700Y686390D01*
X299700Y684890D01*
X299700Y686315D02*
X294200Y686315D01*
X294200Y679890D02*
X299700Y679890D01*
X294200Y679890D02*
X294200Y681390D01*
X299700Y681390D01*
X299700Y679890D01*
X299700Y681315D02*
X294200Y681315D01*
X294200Y674890D02*
X299700Y674890D01*
X294200Y674890D02*
X294200Y676390D01*
X299700Y676390D01*
X299700Y674890D01*
X299700Y676315D02*
X294200Y676315D01*
X294200Y669890D02*
X299700Y669890D01*
X294200Y669890D02*
X294200Y671390D01*
X299700Y671390D01*
X299700Y669890D01*
X299700Y671315D02*
X294200Y671315D01*
X294200Y664890D02*
X299700Y664890D01*
X294200Y664890D02*
X294200Y666390D01*
X299700Y666390D01*
X299700Y664890D01*
X299700Y666315D02*
X294200Y666315D01*
X294200Y659890D02*
X299700Y659890D01*
X294200Y659890D02*
X294200Y661390D01*
X299700Y661390D01*
X299700Y659890D01*
X299700Y661315D02*
X294200Y661315D01*
X294200Y654890D02*
X299700Y654890D01*
X294200Y654890D02*
X294200Y656390D01*
X299700Y656390D01*
X299700Y654890D01*
X299700Y656315D02*
X294200Y656315D01*
X294200Y649890D02*
X299700Y649890D01*
X294200Y649890D02*
X294200Y651390D01*
X299700Y651390D01*
X299700Y649890D01*
X299700Y651315D02*
X294200Y651315D01*
X304450Y639640D02*
X305950Y639640D01*
X304450Y639640D02*
X304450Y645140D01*
X305950Y645140D01*
X305950Y639640D01*
X305950Y641065D02*
X304450Y641065D01*
X304450Y642490D02*
X305950Y642490D01*
X305950Y643915D02*
X304450Y643915D01*
X309450Y639640D02*
X310950Y639640D01*
X309450Y639640D02*
X309450Y645140D01*
X310950Y645140D01*
X310950Y639640D01*
X310950Y641065D02*
X309450Y641065D01*
X309450Y642490D02*
X310950Y642490D01*
X310950Y643915D02*
X309450Y643915D01*
X314450Y639640D02*
X315950Y639640D01*
X314450Y639640D02*
X314450Y645140D01*
X315950Y645140D01*
X315950Y639640D01*
X315950Y641065D02*
X314450Y641065D01*
X314450Y642490D02*
X315950Y642490D01*
X315950Y643915D02*
X314450Y643915D01*
X319450Y639640D02*
X320950Y639640D01*
X319450Y639640D02*
X319450Y645140D01*
X320950Y645140D01*
X320950Y639640D01*
X320950Y641065D02*
X319450Y641065D01*
X319450Y642490D02*
X320950Y642490D01*
X320950Y643915D02*
X319450Y643915D01*
X324450Y639640D02*
X325950Y639640D01*
X324450Y639640D02*
X324450Y645140D01*
X325950Y645140D01*
X325950Y639640D01*
X325950Y641065D02*
X324450Y641065D01*
X324450Y642490D02*
X325950Y642490D01*
X325950Y643915D02*
X324450Y643915D01*
X329450Y639640D02*
X330950Y639640D01*
X329450Y639640D02*
X329450Y645140D01*
X330950Y645140D01*
X330950Y639640D01*
X330950Y641065D02*
X329450Y641065D01*
X329450Y642490D02*
X330950Y642490D01*
X330950Y643915D02*
X329450Y643915D01*
X334450Y639640D02*
X335950Y639640D01*
X334450Y639640D02*
X334450Y645140D01*
X335950Y645140D01*
X335950Y639640D01*
X335950Y641065D02*
X334450Y641065D01*
X334450Y642490D02*
X335950Y642490D01*
X335950Y643915D02*
X334450Y643915D01*
X339450Y639640D02*
X340950Y639640D01*
X339450Y639640D02*
X339450Y645140D01*
X340950Y645140D01*
X340950Y639640D01*
X340950Y641065D02*
X339450Y641065D01*
X339450Y642490D02*
X340950Y642490D01*
X340950Y643915D02*
X339450Y643915D01*
X344450Y639640D02*
X345950Y639640D01*
X344450Y639640D02*
X344450Y645140D01*
X345950Y645140D01*
X345950Y639640D01*
X345950Y641065D02*
X344450Y641065D01*
X344450Y642490D02*
X345950Y642490D01*
X345950Y643915D02*
X344450Y643915D01*
X349450Y639640D02*
X350950Y639640D01*
X349450Y639640D02*
X349450Y645140D01*
X350950Y645140D01*
X350950Y639640D01*
X350950Y641065D02*
X349450Y641065D01*
X349450Y642490D02*
X350950Y642490D01*
X350950Y643915D02*
X349450Y643915D01*
X354450Y639640D02*
X355950Y639640D01*
X354450Y639640D02*
X354450Y645140D01*
X355950Y645140D01*
X355950Y639640D01*
X355950Y641065D02*
X354450Y641065D01*
X354450Y642490D02*
X355950Y642490D01*
X355950Y643915D02*
X354450Y643915D01*
X360700Y649890D02*
X366200Y649890D01*
X360700Y649890D02*
X360700Y651390D01*
X366200Y651390D01*
X366200Y649890D01*
X366200Y651315D02*
X360700Y651315D01*
X360700Y654890D02*
X366200Y654890D01*
X360700Y654890D02*
X360700Y656390D01*
X366200Y656390D01*
X366200Y654890D01*
X366200Y656315D02*
X360700Y656315D01*
X360700Y659890D02*
X366200Y659890D01*
X360700Y659890D02*
X360700Y661390D01*
X366200Y661390D01*
X366200Y659890D01*
X366200Y661315D02*
X360700Y661315D01*
X360700Y664890D02*
X366200Y664890D01*
X360700Y664890D02*
X360700Y666390D01*
X366200Y666390D01*
X366200Y664890D01*
X366200Y666315D02*
X360700Y666315D01*
X360700Y669890D02*
X366200Y669890D01*
X360700Y669890D02*
X360700Y671390D01*
X366200Y671390D01*
X366200Y669890D01*
X366200Y671315D02*
X360700Y671315D01*
X360700Y674890D02*
X366200Y674890D01*
X360700Y674890D02*
X360700Y676390D01*
X366200Y676390D01*
X366200Y674890D01*
X366200Y676315D02*
X360700Y676315D01*
X360700Y679890D02*
X366200Y679890D01*
X360700Y679890D02*
X360700Y681390D01*
X366200Y681390D01*
X366200Y679890D01*
X366200Y681315D02*
X360700Y681315D01*
X360700Y684890D02*
X366200Y684890D01*
X360700Y684890D02*
X360700Y686390D01*
X366200Y686390D01*
X366200Y684890D01*
X366200Y686315D02*
X360700Y686315D01*
X360700Y689890D02*
X366200Y689890D01*
X360700Y689890D02*
X360700Y691390D01*
X366200Y691390D01*
X366200Y689890D01*
X366200Y691315D02*
X360700Y691315D01*
X360700Y694890D02*
X366200Y694890D01*
X360700Y694890D02*
X360700Y696390D01*
X366200Y696390D01*
X366200Y694890D01*
X366200Y696315D02*
X360700Y696315D01*
X360700Y699890D02*
X366200Y699890D01*
X360700Y699890D02*
X360700Y701390D01*
X366200Y701390D01*
X366200Y699890D01*
X366200Y701315D02*
X360700Y701315D01*
X355950Y706140D02*
X354450Y706140D01*
X354450Y711640D01*
X355950Y711640D01*
X355950Y706140D01*
X355950Y707565D02*
X354450Y707565D01*
X354450Y708990D02*
X355950Y708990D01*
X355950Y710415D02*
X354450Y710415D01*
X350950Y706140D02*
X349450Y706140D01*
X349450Y711640D01*
X350950Y711640D01*
X350950Y706140D01*
X350950Y707565D02*
X349450Y707565D01*
X349450Y708990D02*
X350950Y708990D01*
X350950Y710415D02*
X349450Y710415D01*
X345950Y706140D02*
X344450Y706140D01*
X344450Y711640D01*
X345950Y711640D01*
X345950Y706140D01*
X345950Y707565D02*
X344450Y707565D01*
X344450Y708990D02*
X345950Y708990D01*
X345950Y710415D02*
X344450Y710415D01*
X340950Y706140D02*
X339450Y706140D01*
X339450Y711640D01*
X340950Y711640D01*
X340950Y706140D01*
X340950Y707565D02*
X339450Y707565D01*
X339450Y708990D02*
X340950Y708990D01*
X340950Y710415D02*
X339450Y710415D01*
X335950Y706140D02*
X334450Y706140D01*
X334450Y711640D01*
X335950Y711640D01*
X335950Y706140D01*
X335950Y707565D02*
X334450Y707565D01*
X334450Y708990D02*
X335950Y708990D01*
X335950Y710415D02*
X334450Y710415D01*
X330950Y706140D02*
X329450Y706140D01*
X329450Y711640D01*
X330950Y711640D01*
X330950Y706140D01*
X330950Y707565D02*
X329450Y707565D01*
X329450Y708990D02*
X330950Y708990D01*
X330950Y710415D02*
X329450Y710415D01*
X325950Y706140D02*
X324450Y706140D01*
X324450Y711640D01*
X325950Y711640D01*
X325950Y706140D01*
X325950Y707565D02*
X324450Y707565D01*
X324450Y708990D02*
X325950Y708990D01*
X325950Y710415D02*
X324450Y710415D01*
X320950Y706140D02*
X319450Y706140D01*
X319450Y711640D01*
X320950Y711640D01*
X320950Y706140D01*
X320950Y707565D02*
X319450Y707565D01*
X319450Y708990D02*
X320950Y708990D01*
X320950Y710415D02*
X319450Y710415D01*
X315950Y706140D02*
X314450Y706140D01*
X314450Y711640D01*
X315950Y711640D01*
X315950Y706140D01*
X315950Y707565D02*
X314450Y707565D01*
X314450Y708990D02*
X315950Y708990D01*
X315950Y710415D02*
X314450Y710415D01*
X310950Y706140D02*
X309450Y706140D01*
X309450Y711640D01*
X310950Y711640D01*
X310950Y706140D01*
X310950Y707565D02*
X309450Y707565D01*
X309450Y708990D02*
X310950Y708990D01*
X310950Y710415D02*
X309450Y710415D01*
X305950Y706140D02*
X304450Y706140D01*
X304450Y711640D01*
X305950Y711640D01*
X305950Y706140D01*
X305950Y707565D02*
X304450Y707565D01*
X304450Y708990D02*
X305950Y708990D01*
X305950Y710415D02*
X304450Y710415D01*
D58*
X307700Y653140D02*
X352700Y653140D01*
X307700Y653140D02*
X307700Y698140D01*
X352700Y698140D01*
X352700Y653140D01*
X352700Y657890D02*
X307700Y657890D01*
X307700Y662640D02*
X352700Y662640D01*
X352700Y667390D02*
X307700Y667390D01*
X307700Y672140D02*
X352700Y672140D01*
X352700Y676890D02*
X307700Y676890D01*
X307700Y681640D02*
X352700Y681640D01*
X352700Y686390D02*
X307700Y686390D01*
X307700Y691140D02*
X352700Y691140D01*
X352700Y695890D02*
X307700Y695890D01*
D25*
X391310Y675640D03*
X378310Y675640D03*
D13*
X86360Y720240D03*
X86360Y707240D03*
D56*
X71550Y714420D03*
X30050Y714420D03*
X30050Y735920D03*
X71550Y735920D03*
D13*
X276860Y677060D03*
X276860Y664060D03*
D59*
X241300Y649520D03*
X241300Y686520D03*
D13*
X265430Y685950D03*
X265430Y672950D03*
X86360Y145900D03*
X86360Y158900D03*
D60*
X24620Y952310D03*
X15620Y820310D03*
D61*
X155620Y936310D03*
X155620Y876310D03*
D62*
X53620Y943310D03*
X53620Y932310D03*
X49620Y921310D03*
X53620Y910310D03*
X49620Y899310D03*
X53620Y888310D03*
X57620Y877310D03*
X53620Y866310D03*
D13*
X176530Y917090D03*
X176530Y904090D03*
D63*
X285140Y898690D03*
X294640Y898690D03*
X304140Y898690D03*
X304140Y871690D03*
X294640Y871690D03*
X285140Y871690D03*
D64*
X249580Y875460D03*
X268580Y875460D03*
X259080Y897460D03*
D25*
X252580Y855980D03*
X265580Y855980D03*
D65*
X291220Y853440D03*
X308220Y853440D03*
D31*
X274980Y945680D03*
X284480Y945680D03*
X293980Y945680D03*
X293980Y918680D03*
X284480Y918680D03*
X274980Y918680D03*
D66*
X80540Y289760D03*
X80540Y294760D03*
X80540Y299760D03*
X80540Y304760D03*
X80540Y309760D03*
X114840Y309560D03*
X114840Y304560D03*
X114840Y299560D03*
X114840Y294560D03*
X114840Y289560D03*
D67*
X90290Y280010D03*
X105290Y280010D03*
X105290Y324510D03*
X90290Y324510D03*
D68*
X92190Y294160D03*
D66*
X114840Y284560D03*
X114840Y314560D03*
X80540Y284760D03*
X80540Y314760D03*
X114840Y319560D03*
X80540Y319760D03*
D68*
X103390Y310360D03*
X92190Y310360D03*
X103390Y294160D03*
D25*
X92560Y515620D03*
X105560Y515620D03*
D66*
X554460Y368100D03*
X554460Y363100D03*
X554460Y358100D03*
X554460Y353100D03*
X554460Y348100D03*
X520160Y348300D03*
X520160Y353300D03*
X520160Y358300D03*
X520160Y363300D03*
X520160Y368300D03*
D67*
X544710Y377850D03*
X529710Y377850D03*
X529710Y333350D03*
X544710Y333350D03*
D68*
X542810Y363700D03*
D66*
X520160Y373300D03*
X520160Y343300D03*
X554460Y373100D03*
X554460Y343100D03*
X520160Y338300D03*
X554460Y338100D03*
D68*
X531610Y347500D03*
X542810Y347500D03*
X531610Y363700D03*
D25*
X529740Y321310D03*
X516740Y321310D03*
D66*
X85620Y477680D03*
X85620Y482680D03*
X85620Y487680D03*
X85620Y492680D03*
X85620Y497680D03*
X120120Y497680D03*
X120120Y492680D03*
X120120Y487680D03*
X120120Y482680D03*
X120120Y477680D03*
D67*
X95370Y470430D03*
X110370Y470430D03*
X110370Y504930D03*
X95370Y504930D03*
D69*
X97270Y482080D03*
X108470Y482080D03*
X108470Y493280D03*
X97270Y493280D03*
D47*
X92100Y411180D03*
X101600Y411180D03*
X111100Y411180D03*
X111100Y437180D03*
X101600Y437180D03*
X92100Y437180D03*
D70*
X100170Y344830D03*
X100170Y363830D03*
X79170Y354330D03*
D48*
X128270Y344560D03*
X128270Y361560D03*
D13*
X147320Y416410D03*
X147320Y429410D03*
D12*
X130810Y413410D03*
X130810Y432410D03*
D13*
X80010Y411330D03*
X80010Y424330D03*
X111760Y346560D03*
X111760Y359560D03*
D71*
X363630Y243680D03*
X363630Y233680D03*
X363630Y238680D03*
X363630Y228680D03*
X363630Y223680D03*
X319630Y223680D03*
X319630Y228680D03*
X319630Y233680D03*
X319630Y238680D03*
X319630Y243680D03*
D17*
X601550Y79860D03*
X601550Y86360D03*
X601550Y92860D03*
X579550Y92860D03*
X579550Y86360D03*
X579550Y79860D03*
D26*
X598780Y137000D03*
X579780Y137000D03*
X589280Y116000D03*
D48*
X615950Y135500D03*
X615950Y118500D03*
D25*
X595780Y104140D03*
X582780Y104140D03*
D18*
X377340Y125300D03*
X370840Y125300D03*
X364340Y125300D03*
X364340Y103300D03*
X370840Y103300D03*
X377340Y103300D03*
D13*
X389890Y107800D03*
X389890Y120800D03*
D25*
X348130Y255270D03*
X335130Y255270D03*
D71*
X302670Y477360D03*
X302670Y467360D03*
X302670Y472360D03*
X302670Y462360D03*
X302670Y457360D03*
X258670Y457360D03*
X258670Y462360D03*
X258670Y467360D03*
X258670Y472360D03*
X258670Y477360D03*
D25*
X264010Y492760D03*
X277010Y492760D03*
D16*
X543950Y304800D03*
X560950Y304800D03*
X105020Y381000D03*
X88020Y381000D03*
D70*
X616110Y98400D03*
X616110Y79400D03*
X637110Y88900D03*
D72*
X283390Y115570D03*
X242390Y115570D03*
D73*
X326390Y18870D03*
X326390Y59870D03*
D74*
X479900Y75100D03*
X459900Y75100D03*
D75*
X503900Y23100D03*
X435900Y23100D03*
D76*
X110490Y39340D03*
X110490Y67340D03*
D77*
X260400Y538280D03*
X260400Y533280D03*
X260400Y528280D03*
X260400Y523280D03*
X260400Y518280D03*
X260400Y513280D03*
D78*
X266900Y544780D03*
X271900Y544780D03*
X276900Y544780D03*
X281900Y544780D03*
X286900Y544780D03*
X291900Y544780D03*
X291900Y506780D03*
X286900Y506780D03*
X281900Y506780D03*
X276900Y506780D03*
X271900Y506780D03*
X266900Y506780D03*
D77*
X298400Y513280D03*
X298400Y518280D03*
X298400Y523280D03*
X298400Y528280D03*
X298400Y533280D03*
X298400Y538280D03*
D25*
X109370Y458470D03*
X96370Y458470D03*
X111910Y269240D03*
X98910Y269240D03*
X523090Y388620D03*
X536090Y388620D03*
X596750Y669290D03*
X609750Y669290D03*
X265280Y563880D03*
X278280Y563880D03*
M02*
