G04 EAGLE Gerber X2 export*
%TF.Part,Single*%
%TF.FileFunction,Soldermask,Top,1*%
%TF.FilePolarity,Negative*%
%TF.GenerationSoftware,Autodesk,EAGLE,9.2.1*%
%TF.CreationDate,2018-11-01T02:04:35Z*%
G75*
%MOMM*%
%FSLAX34Y34*%
%LPD*%
%INSoldermask Top*%
%IPNEG*%
%AMOC8*
5,1,8,0,0,1.08239X$1,22.5*%
G01*
%ADD10R,1.427000X1.627000*%
%ADD11R,2.127000X3.127000*%
%ADD12R,1.627000X1.427000*%
%ADD13R,1.027000X0.827000*%
%ADD14R,5.627000X1.577000*%
%ADD15R,2.827000X1.127000*%
%ADD16R,1.127000X1.127000*%
%ADD17R,0.977000X0.477000*%
%ADD18R,0.477000X0.977000*%
%ADD19R,2.827000X2.827000*%
%ADD20C,0.635000*%
%ADD21R,0.677000X0.377000*%
%ADD22R,1.177000X0.727000*%
%ADD23R,2.427000X0.977000*%
%ADD24R,0.727000X0.427000*%
%ADD25R,0.377000X0.677000*%
%ADD26R,0.327000X0.677000*%
%ADD27R,0.827000X1.027000*%
%ADD28R,0.927000X1.027000*%
%ADD29R,0.377000X0.827000*%
%ADD30R,2.507000X1.777000*%
%ADD31R,0.727000X0.727000*%
%ADD32R,1.107000X3.827000*%
%ADD33R,0.727000X1.177000*%
%ADD34R,0.317000X0.637000*%
%ADD35R,0.377000X1.077000*%
%ADD36R,0.427000X1.077000*%
%ADD37R,0.427000X1.127000*%
%ADD38R,0.527000X0.387000*%
%ADD39R,0.927000X1.427000*%
%ADD40C,0.357000*%
%ADD41R,1.127000X0.927000*%
%ADD42R,0.827000X1.727000*%
%ADD43C,1.027000*%
%ADD44C,1.651000*%
%ADD45C,1.905000*%
%ADD46R,0.327000X0.827000*%
%ADD47R,0.727000X1.327000*%
%ADD48C,10.287000*%
%ADD49R,5.207000X2.667000*%
%ADD50R,0.477000X0.627000*%
%ADD51R,1.127000X0.677000*%
%ADD52R,0.927000X0.477000*%
%ADD53R,0.677000X1.327000*%
%ADD54R,1.227000X1.127000*%
%ADD55R,0.400000X0.900000*%
%ADD56R,0.827000X0.377000*%
%ADD57R,2.577000X2.577000*%
%ADD58R,0.577000X2.477000*%
%ADD59C,1.477000*%
%ADD60C,1.927000*%
%ADD61R,1.627000X1.677000*%
%ADD62R,1.527000X1.227000*%
%ADD63R,0.577000X0.427000*%
%ADD64C,1.752600*%
%ADD65R,1.177000X0.777000*%
%ADD66C,0.277550*%
%ADD67C,0.615237*%
%ADD68R,2.527000X1.827000*%
%ADD69R,2.027000X1.527000*%
%ADD70R,1.527000X1.927000*%
%ADD71R,1.627000X0.827000*%
%ADD72R,0.727000X1.227000*%
%ADD73R,1.127000X1.527000*%
%ADD74R,1.127000X1.227000*%
%ADD75R,0.977000X0.407000*%
%ADD76R,0.407000X0.977000*%
%ADD77R,2.177000X3.177000*%
%ADD78R,2.177000X2.177000*%
%ADD79R,1.027000X0.927000*%
%ADD80R,1.577000X0.427000*%
%ADD81R,1.651000X1.651000*%
%ADD82R,1.927000X1.827000*%
%ADD83R,1.827000X1.927000*%
%ADD84R,1.127000X4.727000*%
%ADD85R,1.727000X3.527000*%
%ADD86R,1.927000X1.727000*%
%ADD87R,0.727000X0.367000*%
%ADD88R,0.367000X0.727000*%
%ADD89C,3.302000*%
%ADD90C,0.681000*%


D10*
X258420Y227330D03*
X239420Y227330D03*
D11*
X249400Y317500D03*
X309400Y317500D03*
D10*
X269900Y355600D03*
X288900Y355600D03*
D12*
X264160Y376580D03*
X264160Y395580D03*
D13*
X349250Y391310D03*
X349250Y378310D03*
D10*
X286410Y431800D03*
X305410Y431800D03*
X286410Y410210D03*
X305410Y410210D03*
D14*
X182880Y227650D03*
X182880Y267650D03*
D15*
X237490Y385510D03*
X237490Y409510D03*
D16*
X293370Y234560D03*
X293370Y217560D03*
X293370Y265040D03*
X293370Y248040D03*
X288680Y281940D03*
X305680Y281940D03*
X241300Y370450D03*
X241300Y353450D03*
X334010Y376310D03*
X334010Y393310D03*
X313690Y393310D03*
X313690Y376310D03*
D17*
X273750Y276450D03*
X273750Y269950D03*
X273750Y263450D03*
X273750Y256950D03*
D18*
X244250Y246950D03*
X250750Y246950D03*
X257250Y246950D03*
X263750Y246950D03*
X263750Y286450D03*
X257250Y286450D03*
X250750Y286450D03*
X244250Y286450D03*
D17*
X234250Y276450D03*
X234250Y269950D03*
X234250Y263450D03*
X234250Y256950D03*
D19*
X254000Y266700D03*
D20*
X254000Y266700D03*
X254000Y277700D03*
X265000Y266700D03*
X265000Y277700D03*
X243000Y277700D03*
X243000Y255700D03*
X243000Y266700D03*
X254000Y255700D03*
X265000Y255700D03*
D21*
X296310Y376040D03*
X296310Y381040D03*
X296310Y386040D03*
X296310Y391040D03*
X282810Y376040D03*
X282810Y381040D03*
X282810Y386040D03*
X282810Y391040D03*
D22*
X484340Y206400D03*
X484340Y215900D03*
X484340Y225400D03*
X511340Y225400D03*
X511340Y215900D03*
X511340Y206400D03*
D23*
X532130Y225650D03*
X532130Y206150D03*
D10*
X480720Y189230D03*
X499720Y189230D03*
D16*
X502530Y243840D03*
X485530Y243840D03*
X534280Y243840D03*
X517280Y243840D03*
D12*
X467360Y224180D03*
X467360Y243180D03*
D24*
X534520Y105410D03*
X547520Y105410D03*
D25*
X536020Y98660D03*
X546020Y98660D03*
X546020Y112160D03*
X536020Y112160D03*
D26*
X541020Y98660D03*
X541020Y112160D03*
D13*
X521970Y114150D03*
X521970Y127150D03*
D27*
X519580Y99060D03*
X506580Y99060D03*
X561490Y138430D03*
X548490Y138430D03*
X561490Y149860D03*
X548490Y149860D03*
D16*
X480450Y152400D03*
X497450Y152400D03*
D28*
X490880Y115730D03*
X509880Y115730D03*
X500380Y136730D03*
X479400Y135730D03*
X460400Y135730D03*
X469900Y114730D03*
D12*
X563880Y83210D03*
X563880Y102210D03*
D27*
X548490Y127000D03*
X561490Y127000D03*
D16*
X528710Y82550D03*
X545710Y82550D03*
D29*
X240210Y69880D03*
X244710Y69880D03*
X253710Y69880D03*
X249210Y69880D03*
X258210Y69880D03*
X262710Y69880D03*
X262710Y41880D03*
X258210Y41880D03*
X249210Y41880D03*
X253710Y41880D03*
X244710Y41880D03*
X240210Y41880D03*
D30*
X251460Y55880D03*
D10*
X240690Y20320D03*
X259690Y20320D03*
D16*
X296790Y63500D03*
X279790Y63500D03*
X296790Y43180D03*
X279790Y43180D03*
X279790Y22860D03*
X296790Y22860D03*
D31*
X262050Y87630D03*
X284050Y87630D03*
D10*
X360070Y86360D03*
X379070Y86360D03*
D32*
X309460Y97790D03*
X333160Y97790D03*
D12*
X408940Y102210D03*
X408940Y83210D03*
D16*
X234070Y92710D03*
X251070Y92710D03*
D33*
X229260Y204000D03*
X238760Y204000D03*
X248260Y204000D03*
X248260Y177000D03*
X238760Y177000D03*
X229260Y177000D03*
X271170Y204000D03*
X280670Y204000D03*
X290170Y204000D03*
X290170Y177000D03*
X280670Y177000D03*
X271170Y177000D03*
D34*
X303360Y193850D03*
X306860Y193850D03*
X310360Y193850D03*
X313860Y193850D03*
X313860Y187150D03*
X310360Y187150D03*
X306860Y187150D03*
X303360Y187150D03*
D35*
X342860Y182980D03*
X337860Y182980D03*
D36*
X347860Y182980D03*
X332860Y182980D03*
D37*
X347860Y195480D03*
D35*
X342860Y195480D03*
X337860Y195480D03*
D36*
X332860Y195480D03*
D38*
X125840Y578000D03*
X125840Y571500D03*
X125840Y565000D03*
X107840Y565000D03*
X107840Y571500D03*
X107840Y578000D03*
D39*
X116840Y571500D03*
D20*
X116840Y571500D03*
D38*
X125840Y604670D03*
X125840Y598170D03*
X125840Y591670D03*
X107840Y591670D03*
X107840Y598170D03*
X107840Y604670D03*
D39*
X116840Y598170D03*
D20*
X116840Y598170D03*
D34*
X149690Y587550D03*
X153190Y587550D03*
X156690Y587550D03*
X160190Y587550D03*
X160190Y580850D03*
X156690Y580850D03*
X153190Y580850D03*
X149690Y580850D03*
D40*
X168180Y582200D03*
X168180Y586200D03*
X172180Y586200D03*
X172180Y582200D03*
D27*
X152250Y604520D03*
X165250Y604520D03*
X82400Y586740D03*
X95400Y586740D03*
X82400Y598170D03*
X95400Y598170D03*
X95400Y571500D03*
X82400Y571500D03*
X95400Y560070D03*
X82400Y560070D03*
D38*
X523130Y451970D03*
X523130Y458470D03*
X523130Y464970D03*
X541130Y464970D03*
X541130Y458470D03*
X541130Y451970D03*
D39*
X532130Y458470D03*
D20*
X532130Y458470D03*
D38*
X523130Y425300D03*
X523130Y431800D03*
X523130Y438300D03*
X541130Y438300D03*
X541130Y431800D03*
X541130Y425300D03*
D39*
X532130Y431800D03*
D20*
X532130Y431800D03*
D34*
X478960Y434800D03*
X475460Y434800D03*
X471960Y434800D03*
X468460Y434800D03*
X468460Y441500D03*
X471960Y441500D03*
X475460Y441500D03*
X478960Y441500D03*
D40*
X460470Y440150D03*
X460470Y436150D03*
X456470Y436150D03*
X456470Y440150D03*
D27*
X469750Y421640D03*
X482750Y421640D03*
X566570Y443230D03*
X553570Y443230D03*
X566570Y431800D03*
X553570Y431800D03*
X553570Y458470D03*
X566570Y458470D03*
X553570Y469900D03*
X566570Y469900D03*
D10*
X555600Y406400D03*
X536600Y406400D03*
X84480Y539750D03*
X103480Y539750D03*
D41*
X119710Y536320D03*
X119710Y517020D03*
X192710Y517020D03*
X192710Y536320D03*
D42*
X133710Y544670D03*
X163710Y544670D03*
X178710Y544670D03*
D43*
X141210Y526670D03*
X171210Y526670D03*
D27*
X162710Y565150D03*
X149710Y565150D03*
D41*
X540690Y490350D03*
X540690Y509650D03*
X467690Y509650D03*
X467690Y490350D03*
D42*
X526690Y482000D03*
X496690Y482000D03*
X481690Y482000D03*
D43*
X519190Y500000D03*
X489190Y500000D03*
D27*
X465940Y452120D03*
X478940Y452120D03*
D44*
X38100Y584200D03*
X38100Y558800D03*
X38100Y533400D03*
X38100Y508000D03*
X38100Y482600D03*
X38100Y457200D03*
X38100Y431800D03*
X38100Y406400D03*
X38100Y381000D03*
X38100Y355600D03*
X38100Y330200D03*
X38100Y304800D03*
X38100Y279400D03*
X38100Y254000D03*
X38100Y228600D03*
X38100Y203200D03*
X38100Y177800D03*
X38100Y152400D03*
X609600Y457200D03*
X609600Y431800D03*
X609600Y406400D03*
X609600Y381000D03*
X609600Y177800D03*
X609600Y203200D03*
X609600Y228600D03*
X609600Y254000D03*
X609600Y279400D03*
X609600Y304800D03*
X609600Y330200D03*
X609600Y355600D03*
D45*
X279400Y977900D03*
X304800Y977900D03*
X330200Y977900D03*
X355600Y977900D03*
X381000Y977900D03*
X406400Y977900D03*
X431800Y977900D03*
X457200Y977900D03*
X482600Y977900D03*
X508000Y977900D03*
X533400Y977900D03*
X558800Y977900D03*
X279400Y774700D03*
X304800Y774700D03*
X330200Y774700D03*
X355600Y774700D03*
X381000Y774700D03*
X406400Y774700D03*
X431800Y774700D03*
X457200Y774700D03*
X482600Y774700D03*
X508000Y774700D03*
X533400Y774700D03*
X558800Y774700D03*
X254000Y774700D03*
X228600Y774700D03*
X203200Y774700D03*
X177800Y774700D03*
D46*
X360330Y580970D03*
X356330Y580970D03*
X352330Y580970D03*
X348330Y580970D03*
X348330Y589970D03*
X352330Y589970D03*
X356330Y589970D03*
X360330Y589970D03*
D47*
X577850Y683200D03*
X590550Y683200D03*
X603250Y683200D03*
X615950Y683200D03*
X615950Y739200D03*
X603250Y739200D03*
X590550Y739200D03*
X577850Y739200D03*
D48*
X584200Y571500D03*
D49*
X584200Y495300D03*
X584200Y647700D03*
D13*
X554990Y690730D03*
X554990Y703730D03*
D50*
X533810Y718730D03*
X540310Y718730D03*
X546810Y718730D03*
X553310Y718730D03*
X553310Y739230D03*
X546810Y739230D03*
X540310Y739230D03*
X533810Y739230D03*
D51*
X449110Y215240D03*
X449110Y196240D03*
X422110Y196240D03*
X422110Y205740D03*
X422110Y215240D03*
D27*
X435760Y227330D03*
X422760Y227330D03*
X429110Y184150D03*
X442110Y184150D03*
D52*
X404470Y199240D03*
X404470Y212240D03*
X385470Y212240D03*
X385470Y205740D03*
X385470Y199240D03*
D27*
X401470Y189230D03*
X388470Y189230D03*
D16*
X402200Y227330D03*
X385200Y227330D03*
D53*
X310540Y138130D03*
X320040Y138130D03*
X329540Y138130D03*
X329540Y164130D03*
X320040Y164130D03*
X310540Y164130D03*
D28*
X290170Y157320D03*
X271170Y157320D03*
X280670Y136320D03*
X248260Y157320D03*
X229260Y157320D03*
X238760Y136320D03*
D54*
X346710Y164710D03*
X346710Y147710D03*
D55*
X125850Y769360D03*
X130850Y769360D03*
X135850Y769360D03*
X140850Y769360D03*
X140850Y800360D03*
X135850Y800360D03*
X130850Y800360D03*
X125850Y800360D03*
D27*
X26820Y85090D03*
X13820Y85090D03*
D10*
X29820Y68580D03*
X10820Y68580D03*
D56*
X53340Y121440D03*
X53340Y116440D03*
X53340Y111440D03*
X53340Y106440D03*
X53340Y101440D03*
D29*
X63340Y91440D03*
X68340Y91440D03*
X73340Y91440D03*
X78340Y91440D03*
X83340Y91440D03*
D56*
X93340Y101440D03*
X93340Y106440D03*
X93340Y111440D03*
X93340Y116440D03*
X93340Y121440D03*
D29*
X83340Y131440D03*
X78340Y131440D03*
X73340Y131440D03*
X68340Y131440D03*
X63340Y131440D03*
D57*
X73340Y111440D03*
D27*
X63650Y64770D03*
X50650Y64770D03*
X63650Y76200D03*
X50650Y76200D03*
D13*
X104140Y98910D03*
X104140Y111910D03*
D27*
X13820Y96520D03*
X26820Y96520D03*
X13820Y107950D03*
X26820Y107950D03*
D58*
X44150Y45720D03*
X50650Y45720D03*
X57150Y45720D03*
X63650Y45720D03*
X70150Y45720D03*
D59*
X32150Y40970D03*
X82150Y40970D03*
D60*
X22150Y13970D03*
X92150Y13970D03*
D61*
X47150Y13970D03*
X67150Y13970D03*
X26650Y13970D03*
X87650Y13970D03*
D13*
X121920Y153820D03*
X121920Y140820D03*
X133350Y153820D03*
X133350Y140820D03*
X97790Y158900D03*
X97790Y145900D03*
X110490Y158900D03*
X110490Y145900D03*
D62*
X124220Y209170D03*
X94220Y209170D03*
X94220Y225170D03*
X124220Y225170D03*
D27*
X102720Y241300D03*
X115720Y241300D03*
D63*
X346310Y612220D03*
X346310Y617220D03*
X346310Y622220D03*
X359810Y622220D03*
X359810Y617220D03*
X359810Y612220D03*
D62*
X298690Y589660D03*
X328690Y589660D03*
X328690Y573660D03*
X298690Y573660D03*
D13*
X313690Y619910D03*
X313690Y606910D03*
X325120Y619910D03*
X325120Y606910D03*
X302260Y619910D03*
X302260Y606910D03*
D64*
X63500Y797560D03*
X63500Y772160D03*
X88900Y772160D03*
X88900Y797560D03*
X38100Y797560D03*
X38100Y772160D03*
D65*
X30050Y671150D03*
X71550Y671150D03*
X71550Y649650D03*
X30050Y649650D03*
D13*
X86360Y665330D03*
X86360Y678330D03*
D66*
X294203Y699893D02*
X299697Y699893D01*
X294203Y699893D02*
X294203Y701387D01*
X299697Y701387D01*
X299697Y699893D01*
X299697Y694893D02*
X294203Y694893D01*
X294203Y696387D01*
X299697Y696387D01*
X299697Y694893D01*
X299697Y689893D02*
X294203Y689893D01*
X294203Y691387D01*
X299697Y691387D01*
X299697Y689893D01*
X299697Y684893D02*
X294203Y684893D01*
X294203Y686387D01*
X299697Y686387D01*
X299697Y684893D01*
X299697Y679893D02*
X294203Y679893D01*
X294203Y681387D01*
X299697Y681387D01*
X299697Y679893D01*
X299697Y674893D02*
X294203Y674893D01*
X294203Y676387D01*
X299697Y676387D01*
X299697Y674893D01*
X299697Y669893D02*
X294203Y669893D01*
X294203Y671387D01*
X299697Y671387D01*
X299697Y669893D01*
X299697Y664893D02*
X294203Y664893D01*
X294203Y666387D01*
X299697Y666387D01*
X299697Y664893D01*
X299697Y659893D02*
X294203Y659893D01*
X294203Y661387D01*
X299697Y661387D01*
X299697Y659893D01*
X299697Y654893D02*
X294203Y654893D01*
X294203Y656387D01*
X299697Y656387D01*
X299697Y654893D01*
X299697Y649893D02*
X294203Y649893D01*
X294203Y651387D01*
X299697Y651387D01*
X299697Y649893D01*
X304453Y639643D02*
X305947Y639643D01*
X304453Y639643D02*
X304453Y645137D01*
X305947Y645137D01*
X305947Y639643D01*
X305947Y642280D02*
X304453Y642280D01*
X304453Y644917D02*
X305947Y644917D01*
X309453Y639643D02*
X310947Y639643D01*
X309453Y639643D02*
X309453Y645137D01*
X310947Y645137D01*
X310947Y639643D01*
X310947Y642280D02*
X309453Y642280D01*
X309453Y644917D02*
X310947Y644917D01*
X314453Y639643D02*
X315947Y639643D01*
X314453Y639643D02*
X314453Y645137D01*
X315947Y645137D01*
X315947Y639643D01*
X315947Y642280D02*
X314453Y642280D01*
X314453Y644917D02*
X315947Y644917D01*
X319453Y639643D02*
X320947Y639643D01*
X319453Y639643D02*
X319453Y645137D01*
X320947Y645137D01*
X320947Y639643D01*
X320947Y642280D02*
X319453Y642280D01*
X319453Y644917D02*
X320947Y644917D01*
X324453Y639643D02*
X325947Y639643D01*
X324453Y639643D02*
X324453Y645137D01*
X325947Y645137D01*
X325947Y639643D01*
X325947Y642280D02*
X324453Y642280D01*
X324453Y644917D02*
X325947Y644917D01*
X329453Y639643D02*
X330947Y639643D01*
X329453Y639643D02*
X329453Y645137D01*
X330947Y645137D01*
X330947Y639643D01*
X330947Y642280D02*
X329453Y642280D01*
X329453Y644917D02*
X330947Y644917D01*
X334453Y639643D02*
X335947Y639643D01*
X334453Y639643D02*
X334453Y645137D01*
X335947Y645137D01*
X335947Y639643D01*
X335947Y642280D02*
X334453Y642280D01*
X334453Y644917D02*
X335947Y644917D01*
X339453Y639643D02*
X340947Y639643D01*
X339453Y639643D02*
X339453Y645137D01*
X340947Y645137D01*
X340947Y639643D01*
X340947Y642280D02*
X339453Y642280D01*
X339453Y644917D02*
X340947Y644917D01*
X344453Y639643D02*
X345947Y639643D01*
X344453Y639643D02*
X344453Y645137D01*
X345947Y645137D01*
X345947Y639643D01*
X345947Y642280D02*
X344453Y642280D01*
X344453Y644917D02*
X345947Y644917D01*
X349453Y639643D02*
X350947Y639643D01*
X349453Y639643D02*
X349453Y645137D01*
X350947Y645137D01*
X350947Y639643D01*
X350947Y642280D02*
X349453Y642280D01*
X349453Y644917D02*
X350947Y644917D01*
X354453Y639643D02*
X355947Y639643D01*
X354453Y639643D02*
X354453Y645137D01*
X355947Y645137D01*
X355947Y639643D01*
X355947Y642280D02*
X354453Y642280D01*
X354453Y644917D02*
X355947Y644917D01*
X360703Y649893D02*
X366197Y649893D01*
X360703Y649893D02*
X360703Y651387D01*
X366197Y651387D01*
X366197Y649893D01*
X366197Y654893D02*
X360703Y654893D01*
X360703Y656387D01*
X366197Y656387D01*
X366197Y654893D01*
X366197Y659893D02*
X360703Y659893D01*
X360703Y661387D01*
X366197Y661387D01*
X366197Y659893D01*
X366197Y664893D02*
X360703Y664893D01*
X360703Y666387D01*
X366197Y666387D01*
X366197Y664893D01*
X366197Y669893D02*
X360703Y669893D01*
X360703Y671387D01*
X366197Y671387D01*
X366197Y669893D01*
X366197Y674893D02*
X360703Y674893D01*
X360703Y676387D01*
X366197Y676387D01*
X366197Y674893D01*
X366197Y679893D02*
X360703Y679893D01*
X360703Y681387D01*
X366197Y681387D01*
X366197Y679893D01*
X366197Y684893D02*
X360703Y684893D01*
X360703Y686387D01*
X366197Y686387D01*
X366197Y684893D01*
X366197Y689893D02*
X360703Y689893D01*
X360703Y691387D01*
X366197Y691387D01*
X366197Y689893D01*
X366197Y694893D02*
X360703Y694893D01*
X360703Y696387D01*
X366197Y696387D01*
X366197Y694893D01*
X366197Y699893D02*
X360703Y699893D01*
X360703Y701387D01*
X366197Y701387D01*
X366197Y699893D01*
X355947Y706143D02*
X354453Y706143D01*
X354453Y711637D01*
X355947Y711637D01*
X355947Y706143D01*
X355947Y708780D02*
X354453Y708780D01*
X354453Y711417D02*
X355947Y711417D01*
X350947Y706143D02*
X349453Y706143D01*
X349453Y711637D01*
X350947Y711637D01*
X350947Y706143D01*
X350947Y708780D02*
X349453Y708780D01*
X349453Y711417D02*
X350947Y711417D01*
X345947Y706143D02*
X344453Y706143D01*
X344453Y711637D01*
X345947Y711637D01*
X345947Y706143D01*
X345947Y708780D02*
X344453Y708780D01*
X344453Y711417D02*
X345947Y711417D01*
X340947Y706143D02*
X339453Y706143D01*
X339453Y711637D01*
X340947Y711637D01*
X340947Y706143D01*
X340947Y708780D02*
X339453Y708780D01*
X339453Y711417D02*
X340947Y711417D01*
X335947Y706143D02*
X334453Y706143D01*
X334453Y711637D01*
X335947Y711637D01*
X335947Y706143D01*
X335947Y708780D02*
X334453Y708780D01*
X334453Y711417D02*
X335947Y711417D01*
X330947Y706143D02*
X329453Y706143D01*
X329453Y711637D01*
X330947Y711637D01*
X330947Y706143D01*
X330947Y708780D02*
X329453Y708780D01*
X329453Y711417D02*
X330947Y711417D01*
X325947Y706143D02*
X324453Y706143D01*
X324453Y711637D01*
X325947Y711637D01*
X325947Y706143D01*
X325947Y708780D02*
X324453Y708780D01*
X324453Y711417D02*
X325947Y711417D01*
X320947Y706143D02*
X319453Y706143D01*
X319453Y711637D01*
X320947Y711637D01*
X320947Y706143D01*
X320947Y708780D02*
X319453Y708780D01*
X319453Y711417D02*
X320947Y711417D01*
X315947Y706143D02*
X314453Y706143D01*
X314453Y711637D01*
X315947Y711637D01*
X315947Y706143D01*
X315947Y708780D02*
X314453Y708780D01*
X314453Y711417D02*
X315947Y711417D01*
X310947Y706143D02*
X309453Y706143D01*
X309453Y711637D01*
X310947Y711637D01*
X310947Y706143D01*
X310947Y708780D02*
X309453Y708780D01*
X309453Y711417D02*
X310947Y711417D01*
X305947Y706143D02*
X304453Y706143D01*
X304453Y711637D01*
X305947Y711637D01*
X305947Y706143D01*
X305947Y708780D02*
X304453Y708780D01*
X304453Y711417D02*
X305947Y711417D01*
D67*
X307641Y653081D02*
X352759Y653081D01*
X307641Y653081D02*
X307641Y698199D01*
X352759Y698199D01*
X352759Y653081D01*
X352759Y658925D02*
X307641Y658925D01*
X307641Y664769D02*
X352759Y664769D01*
X352759Y670613D02*
X307641Y670613D01*
X307641Y676457D02*
X352759Y676457D01*
X352759Y682301D02*
X307641Y682301D01*
X307641Y688145D02*
X352759Y688145D01*
X352759Y693989D02*
X307641Y693989D01*
D27*
X391310Y675640D03*
X378310Y675640D03*
D13*
X86360Y720240D03*
X86360Y707240D03*
D65*
X71550Y714420D03*
X30050Y714420D03*
X30050Y735920D03*
X71550Y735920D03*
D13*
X276860Y677060D03*
X276860Y664060D03*
D68*
X241300Y649520D03*
X241300Y686520D03*
D13*
X265430Y685950D03*
X265430Y672950D03*
X86360Y145900D03*
X86360Y158900D03*
D69*
X24620Y952310D03*
X15620Y820310D03*
D70*
X155620Y936310D03*
X155620Y876310D03*
D71*
X53620Y943310D03*
X53620Y932310D03*
X49620Y921310D03*
X53620Y910310D03*
X49620Y899310D03*
X53620Y888310D03*
X57620Y877310D03*
X53620Y866310D03*
D13*
X176530Y917090D03*
X176530Y904090D03*
D72*
X285140Y898690D03*
X294640Y898690D03*
X304140Y898690D03*
X304140Y871690D03*
X294640Y871690D03*
X285140Y871690D03*
D73*
X249580Y875460D03*
X268580Y875460D03*
X259080Y897460D03*
D27*
X252580Y855980D03*
X265580Y855980D03*
D74*
X291220Y853440D03*
X308220Y853440D03*
D33*
X274980Y945680D03*
X284480Y945680D03*
X293980Y945680D03*
X293980Y918680D03*
X284480Y918680D03*
X274980Y918680D03*
D75*
X80540Y289760D03*
X80540Y294760D03*
X80540Y299760D03*
X80540Y304760D03*
X80540Y309760D03*
X114840Y309560D03*
X114840Y304560D03*
X114840Y299560D03*
X114840Y294560D03*
X114840Y289560D03*
D76*
X90290Y280010D03*
X105290Y280010D03*
X105290Y324510D03*
X90290Y324510D03*
D77*
X97790Y302260D03*
D75*
X114840Y284560D03*
X114840Y314560D03*
X80540Y284760D03*
X80540Y314760D03*
X114840Y319560D03*
X80540Y319760D03*
D27*
X92560Y515620D03*
X105560Y515620D03*
D75*
X554460Y368100D03*
X554460Y363100D03*
X554460Y358100D03*
X554460Y353100D03*
X554460Y348100D03*
X520160Y348300D03*
X520160Y353300D03*
X520160Y358300D03*
X520160Y363300D03*
X520160Y368300D03*
D76*
X544710Y377850D03*
X529710Y377850D03*
X529710Y333350D03*
X544710Y333350D03*
D77*
X537210Y355600D03*
D75*
X520160Y373300D03*
X520160Y343300D03*
X554460Y373100D03*
X554460Y343100D03*
X520160Y338300D03*
X554460Y338100D03*
D27*
X529740Y321310D03*
X516740Y321310D03*
D75*
X85620Y477680D03*
X85620Y482680D03*
X85620Y487680D03*
X85620Y492680D03*
X85620Y497680D03*
X120120Y497680D03*
X120120Y492680D03*
X120120Y487680D03*
X120120Y482680D03*
X120120Y477680D03*
D76*
X95370Y470430D03*
X110370Y470430D03*
X110370Y504930D03*
X95370Y504930D03*
D78*
X102870Y487680D03*
D53*
X92100Y411180D03*
X101600Y411180D03*
X111100Y411180D03*
X111100Y437180D03*
X101600Y437180D03*
X92100Y437180D03*
D79*
X100170Y344830D03*
X100170Y363830D03*
X79170Y354330D03*
D54*
X128270Y344560D03*
X128270Y361560D03*
D13*
X147320Y416410D03*
X147320Y429410D03*
D12*
X130810Y413410D03*
X130810Y432410D03*
D13*
X80010Y411330D03*
X80010Y424330D03*
X111760Y346560D03*
X111760Y359560D03*
D80*
X363630Y243680D03*
X363630Y233680D03*
X363630Y238680D03*
X363630Y228680D03*
X363630Y223680D03*
X319630Y223680D03*
X319630Y228680D03*
X319630Y233680D03*
X319630Y238680D03*
X319630Y243680D03*
D17*
X601550Y79860D03*
X601550Y86360D03*
X601550Y92860D03*
X579550Y92860D03*
X579550Y86360D03*
X579550Y79860D03*
D28*
X598780Y137000D03*
X579780Y137000D03*
X589280Y116000D03*
D54*
X615950Y135500D03*
X615950Y118500D03*
D27*
X595780Y104140D03*
X582780Y104140D03*
D18*
X377340Y125300D03*
X370840Y125300D03*
X364340Y125300D03*
X364340Y103300D03*
X370840Y103300D03*
X377340Y103300D03*
D13*
X389890Y107800D03*
X389890Y120800D03*
D27*
X348130Y255270D03*
X335130Y255270D03*
D80*
X302670Y477360D03*
X302670Y467360D03*
X302670Y472360D03*
X302670Y462360D03*
X302670Y457360D03*
X258670Y457360D03*
X258670Y462360D03*
X258670Y467360D03*
X258670Y472360D03*
X258670Y477360D03*
D27*
X264010Y492760D03*
X277010Y492760D03*
D16*
X543950Y304800D03*
X560950Y304800D03*
X105020Y381000D03*
X88020Y381000D03*
D79*
X616110Y98400D03*
X616110Y79400D03*
X637110Y88900D03*
D81*
X596900Y38100D03*
D44*
X622300Y38100D03*
D81*
X533400Y38100D03*
D44*
X558800Y38100D03*
D81*
X369570Y36830D03*
D44*
X394970Y36830D03*
D82*
X283390Y115570D03*
X242390Y115570D03*
D83*
X326390Y18870D03*
X326390Y59870D03*
D84*
X479900Y75100D03*
X459900Y75100D03*
D85*
X503900Y23100D03*
X435900Y23100D03*
D86*
X110490Y39340D03*
X110490Y67340D03*
D87*
X260400Y538280D03*
X260400Y533280D03*
X260400Y528280D03*
X260400Y523280D03*
X260400Y518280D03*
X260400Y513280D03*
D88*
X266900Y544780D03*
X271900Y544780D03*
X276900Y544780D03*
X281900Y544780D03*
X286900Y544780D03*
X291900Y544780D03*
X291900Y506780D03*
X286900Y506780D03*
X281900Y506780D03*
X276900Y506780D03*
X271900Y506780D03*
X266900Y506780D03*
D87*
X298400Y513280D03*
X298400Y518280D03*
X298400Y523280D03*
X298400Y528280D03*
X298400Y533280D03*
X298400Y538280D03*
D57*
X279400Y525780D03*
D27*
X109370Y458470D03*
X96370Y458470D03*
X111910Y269240D03*
X98910Y269240D03*
X523090Y388620D03*
X536090Y388620D03*
X596750Y669290D03*
X609750Y669290D03*
D89*
X615750Y868580D03*
X198120Y68580D03*
X198120Y868580D03*
D27*
X265280Y563880D03*
X278280Y563880D03*
D20*
X304396Y375476D03*
D90*
X259080Y365760D03*
D43*
X135890Y604520D03*
X127000Y381000D03*
D90*
X288223Y459807D03*
X347980Y560070D03*
D20*
X604520Y114300D03*
D90*
X636270Y182880D03*
X344170Y16280D03*
X344170Y31980D03*
X367665Y116205D03*
D43*
X254000Y353060D03*
X355600Y355600D03*
X406400Y368300D03*
X430530Y379730D03*
D20*
X264160Y483870D03*
X283210Y270510D03*
X275590Y240030D03*
D43*
X563880Y115570D03*
X261620Y193040D03*
D90*
X71120Y586740D03*
D43*
X88900Y63500D03*
X254000Y129540D03*
D20*
X321310Y189230D03*
D90*
X500380Y212090D03*
X497840Y255270D03*
D20*
X280670Y452120D03*
X276860Y471170D03*
X306070Y491490D03*
D90*
X333707Y625396D03*
D20*
X354126Y601726D03*
X336026Y599224D03*
X580390Y458470D03*
X544830Y314960D03*
X298450Y141732D03*
X596900Y749611D03*
D90*
X307340Y226060D03*
X401598Y118879D03*
D20*
X135890Y779526D03*
X57150Y819150D03*
D90*
X195580Y746760D03*
X580390Y443230D03*
X71120Y571500D03*
D43*
X28630Y543226D03*
D20*
X289560Y393700D03*
X289560Y383540D03*
X289560Y373380D03*
X279400Y283210D03*
X311150Y518160D03*
X278130Y370840D03*
X251460Y370840D03*
X306070Y513080D03*
D90*
X330200Y403860D03*
D43*
X135890Y577850D03*
D20*
X166370Y591820D03*
X173990Y604520D03*
D43*
X150224Y441960D03*
D90*
X125730Y547370D03*
X368300Y571500D03*
D20*
X342900Y580390D03*
X339074Y614680D03*
D90*
X170180Y393700D03*
D20*
X124460Y279400D03*
X118110Y458470D03*
D43*
X271780Y420370D03*
X355600Y454660D03*
D20*
X459740Y430530D03*
X492719Y434800D03*
X508000Y325120D03*
X510540Y373380D03*
D90*
X165100Y904240D03*
X66040Y899160D03*
D20*
X82512Y868642D03*
D90*
X253837Y166207D03*
X356870Y147320D03*
D43*
X77470Y184150D03*
X50800Y977900D03*
D90*
X449580Y105410D03*
X419404Y130506D03*
X574040Y149860D03*
X182802Y121920D03*
X175260Y138430D03*
X200412Y479038D03*
X246670Y33017D03*
X190500Y122198D03*
X184150Y138430D03*
X203596Y472231D03*
X253734Y33020D03*
X197564Y122198D03*
X193040Y138430D03*
X207120Y466090D03*
X260798Y33020D03*
X204628Y122198D03*
X201419Y137919D03*
X210644Y459624D03*
D20*
X262890Y184150D03*
X312420Y180539D03*
D43*
X260747Y175544D03*
X554990Y165896D03*
D20*
X416560Y185420D03*
D90*
X388620Y166654D03*
D20*
X327263Y180539D03*
X342860Y204510D03*
X358138Y633270D03*
X320040Y180539D03*
X347570Y210410D03*
X350264Y633730D03*
D90*
X406400Y241300D03*
X400050Y176530D03*
X419100Y139700D03*
X158750Y120650D03*
X157480Y138430D03*
D20*
X298450Y175260D03*
X347980Y174004D03*
D90*
X397510Y546100D03*
X308610Y554990D03*
X281940Y553506D03*
X330200Y632460D03*
D20*
X286843Y680974D03*
X334866Y718352D03*
X400050Y674370D03*
D90*
X208280Y754380D03*
X86360Y692150D03*
X109578Y224790D03*
D20*
X143510Y586740D03*
X156690Y594360D03*
X398018Y682981D03*
X148590Y574040D03*
X166370Y576580D03*
D90*
X154940Y548640D03*
D20*
X107950Y558800D03*
X107950Y585470D03*
D90*
X146050Y548640D03*
X170966Y476608D03*
X71120Y598170D03*
X71120Y560070D03*
X64882Y546212D03*
X78740Y471170D03*
D20*
X80010Y269240D03*
X458376Y447040D03*
X487680Y452120D03*
X505460Y481330D03*
X472440Y459740D03*
X513080Y471170D03*
X580390Y431800D03*
X580390Y469900D03*
D90*
X222250Y556260D03*
X215900Y308610D03*
D20*
X408940Y533400D03*
X499915Y353044D03*
X535940Y697230D03*
X553110Y731520D03*
D90*
X321310Y468630D03*
X363220Y251460D03*
D20*
X355266Y571500D03*
D90*
X330200Y468630D03*
X370840Y251460D03*
D20*
X347980Y571500D03*
X313690Y742862D03*
X603250Y695960D03*
X367394Y622300D03*
X286836Y560578D03*
X535940Y704850D03*
X546506Y731926D03*
D90*
X35560Y85090D03*
X85090Y82550D03*
X278130Y725328D03*
X130326Y306070D03*
D20*
X165100Y754380D03*
D90*
X278130Y709930D03*
X142240Y317500D03*
D20*
X135890Y748030D03*
D90*
X130850Y825500D03*
X140850Y812800D03*
X262131Y642109D03*
X210820Y138430D03*
D20*
X407868Y662178D03*
D90*
X269240Y641350D03*
X220980Y137160D03*
D20*
X407868Y655574D03*
D90*
X133350Y163830D03*
X124460Y198120D03*
X121920Y163830D03*
X93980Y198120D03*
X363220Y642620D03*
X244599Y602491D03*
X219638Y601206D03*
X215900Y292100D03*
X54610Y130810D03*
X92710Y92710D03*
X110490Y128270D03*
X56214Y88900D03*
D20*
X353060Y608330D03*
D90*
X254000Y596900D03*
X222782Y594360D03*
X215900Y300990D03*
D20*
X377190Y601980D03*
X399542Y592056D03*
X504190Y347980D03*
D90*
X278130Y716994D03*
X135890Y311150D03*
X143510Y759460D03*
X284480Y690880D03*
X205740Y153670D03*
D20*
X149860Y679450D03*
X368300Y749300D03*
D90*
X252730Y747712D03*
X212344Y786125D03*
X83820Y435586D03*
D20*
X276860Y641350D03*
X407868Y641604D03*
X429228Y613876D03*
X482600Y379730D03*
X284480Y641350D03*
X407868Y635000D03*
X424164Y609600D03*
X486410Y368236D03*
D90*
X438364Y530662D03*
X374650Y736600D03*
X270510Y899160D03*
X312420Y872490D03*
X304370Y909320D03*
X330200Y889000D03*
X83820Y515620D03*
X170966Y468630D03*
D20*
X105410Y335280D03*
X357161Y738161D03*
X491025Y363172D03*
X307340Y238760D03*
X316230Y523240D03*
D90*
X636270Y109220D03*
X603250Y71120D03*
X384810Y99060D03*
X388898Y148868D03*
D20*
X589280Y81280D03*
X589280Y127000D03*
D90*
X166370Y449580D03*
X160020Y457200D03*
X77470Y381000D03*
X571500Y304800D03*
X167640Y138430D03*
X196548Y485164D03*
D20*
X459740Y417830D03*
X485140Y441960D03*
X433070Y619760D03*
X307340Y740410D03*
X495300Y358108D03*
X300990Y549402D03*
X274320Y553720D03*
X395667Y706817D03*
X438134Y541020D03*
D90*
X339636Y724686D03*
D20*
X127000Y294640D03*
D90*
X346710Y728980D03*
D20*
X209764Y615950D03*
X393700Y241300D03*
X390858Y501142D03*
X541020Y444500D03*
X541020Y471170D03*
D90*
X440690Y499110D03*
D20*
X283210Y262890D03*
X320265Y517935D03*
M02*
