<svg width="10.027807942424836in" height="6.397913385826771in" viewBox="0 0 10.027807942424836 6.397913385826771" xmlns="http://www.w3.org/2000/svg" xmlnsXlink="http://www.w3.org/1999/xlink">
        <g transform="translate(0 6.397913385826771)">
          <g data-reactroot="" transform="scale(1, -1)"><g fill="none" stroke="rgb(0,0,0)"><g transform="matrix(1,0,0,1,5.028851446361843,3.1989566929133857)"><path class="outline" d="M -4.790623169291338 -3.1989566929133857 C -4.790623169291338 -3.1989566929133857 4.790623169291338 -3.1989566929133857 4.790623169291338 -3.1989566929133857 C 4.905682488542423 -3.1989566929133857 4.998956496062992 -3.1056826853928166 4.998956496062992 -2.9906233661417323 C 4.998956496062992 -2.9906233661417323 4.998956496062992 2.9906233661417323 4.998956496062992 2.9906233661417323 C 4.998956496062992 3.1056826853928166 4.905682488542423 3.1989566929133857 4.790623169291338 3.1989566929133857 C 4.790623169291338 3.1989566929133857 -4.790623169291338 3.1989566929133857 -4.790623169291338 3.1989566929133857 C -4.905682488542423 3.1989566929133857 -4.998956496062992 3.1056826853928166 -4.998956496062992 2.9906233661417323 C -4.998956496062992 2.9906233661417323 -4.998956496062992 -2.9906233661417323 -4.998956496062992 -2.9906233661417323 C -4.998956496062992 -3.1056826853928166 -4.905682488542423 -3.1989566929133857 -4.790623169291338 -3.1989566929133857" stroke-width="0.01"></path></g></g><g fill="none" stroke="rgb(0,0,0)"><g transform="matrix(1,0,0,1,0.8667583464566939,5.566573267716534)"><path class="outline" d="M 0 0.1351911062992126 C 0.07466398631764583 0.1351911062992126 0.1351911062992126 0.07466398631764583 0.1351911062992126 0 C 0.1351911062992126 -0.07466398631764583 0.07466398631764583 -0.1351911062992126 0 -0.1351911062992126 C -0.07466398631764583 -0.1351911062992126 -0.1351911062992126 -0.07466398631764583 -0.1351911062992126 0 C -0.1351911062992126 0.07466398631764583 -0.07466398631764583 0.1351911062992126 0 0.1351911062992126" stroke-width="0.01"></path></g></g><g fill="none" stroke="rgb(0,0,0)"><g transform="matrix(1,0,0,1,0.8667583464566945,0.8411230314960616)"><path class="outline" d="M 0 0.1351911062992126 C 0.07466398631764583 0.1351911062992126 0.1351911062992126 0.07466398631764583 0.1351911062992126 0 C 0.1351911062992126 -0.07466398631764583 0.07466398631764583 -0.1351911062992126 0 -0.1351911062992126 C -0.07466398631764583 -0.1351911062992126 -0.1351911062992126 -0.07466398631764583 -0.1351911062992126 0 C -0.1351911062992126 0.07466398631764583 -0.07466398631764583 0.1351911062992126 0 0.1351911062992126" stroke-width="0.01"></path></g></g><g fill="none" stroke="rgb(0,0,0)"><g transform="matrix(1,0,0,1,9.136279763779529,5.566573267716534)"><path class="outline" d="M 0 0.1351911062992126 C 0.07466398631764583 0.1351911062992126 0.1351911062992126 0.07466398631764583 0.1351911062992126 0 C 0.1351911062992126 -0.07466398631764583 0.07466398631764583 -0.1351911062992126 0 -0.1351911062992126 C -0.07466398631764583 -0.1351911062992126 -0.1351911062992126 -0.07466398631764583 -0.1351911062992126 0 C -0.1351911062992126 0.07466398631764583 -0.07466398631764583 0.1351911062992126 0 0.1351911062992126" stroke-width="0.01"></path></g></g><g fill="none" stroke="rgb(0,0,0)"><g transform="matrix(1,0,0,1,9.136279763779529,0.8411230314960616)"><path class="outline" d="M 0 0.1351911062992126 C 0.07466398631764583 0.1351911062992126 0.1351911062992126 0.07466398631764583 0.1351911062992126 0 C 0.1351911062992126 -0.07466398631764583 0.07466398631764583 -0.1351911062992126 0 -0.1351911062992126 C -0.07466398631764583 -0.1351911062992126 -0.1351911062992126 -0.07466398631764583 -0.1351911062992126 0 C -0.1351911062992126 0.07466398631764583 -0.07466398631764583 0.1351911062992126 0 0.1351911062992126" stroke-width="0.01"></path></g></g><g fill="rgb(0,0,0)" stroke="none"><g transform="matrix(1,0,0,-1,9.334668611716177,1.5243920442433112)"><path class="fill" d="M -0.00051447144376568 -0.0629798789328741 C 0.0345366822928063 -0.06328289114207492 0.06298216986880487 -0.03506249835005403 0.06299212598425073 -0.000010045989727916601 C 0.06299212598425073 0.03484761280754035 0.034857442359975295 0.06298229643181578 2.1643729173969253e-7 0.06298229643181578 C -0.03485744235997652 0.06298229643181578 -0.06299212598425197 0.03484761280754035 -0.06299212598425197 -0.000010045989727916601 C -0.06298216986880734 -0.03465862636264784 -0.035161753192930245 -0.0626980775783179 -0.0005144714437644497 -0.0629798789328741 C -0.0005144714437644497 -0.0629798789328741 -0.00051447144376568 -0.0629798789328741 -0.00051447144376568 -0.0629798789328741"></path></g></g><g fill="rgb(0,0,0)" stroke="none"><g transform="matrix(1,0,0,-1,6.917757784944522,1.5243920445595638)"><path class="fill" d="M -0.0005367626405849279 -0.06298970741247827 C 0.034522495251517175 -0.06329276691066643 0.06298216990301463 -0.0350761958608065 0.06299212598425197 -0.000010047209760014287 C 0.06299212598425197 0.034853051577501314 0.03485753902878568 0.06299212598425197 0 0.06299212598425197 C -0.03485753902878568 0.06299212598425197 -0.06299212598425197 0.034853051577501314 -0.06299212598425197 -0.000010047209760014287 C -0.06298173702991847 -0.034656241984746886 -0.03517613362835734 -0.06269660558351697 -0.0005367626405836975 -0.06298970741247827 C -0.0005367626405836975 -0.06298970741247827 -0.0005367626405849279 -0.06298970741247827 -0.0005367626405849279 -0.06298970741247827"></path></g></g><g fill="rgb(0,0,0)" stroke="none"><g transform="matrix(1,0,0,-1,4.555894685073734,2.193693618812005)"><path class="fill" d="M -0.0005369809212564649 -0.06299113388490163 C 0.034530622024501224 -0.06329414609388619 0.06299342456356938 -0.0350676930778258 0.06299212593981618 0.0000012084916844756559 C 0.06299212593981618 0.03485843438949045 0.034857442335619826 0.06299355086827059 -2.1643676993650965e-7 0.06299355086827059 C -0.03485744233457591 0.06299355086827059 -0.06299212593877226 0.03485843438949045 -0.06299212593877226 0.0000012084916844756559 C -0.06299342456252485 -0.03464737185650678 -0.03518426264569513 -0.06269807779135583 -0.0005369809212564649 -0.06299113388490163 C -0.0005369809212564649 -0.06299113388490163 -0.0005369809212564649 -0.06299113388490163 -0.0005369809212564649 -0.06299113388490163"></path></g></g><g fill="rgb(0,0,0)" stroke="none"><g transform="matrix(1,0,0,-1,3.4929048937259664,1.8787329888907447)"><path class="fill" d="M -0.0005368066633169855 -0.06299100402629416 C 0.0345304642650351 -0.06329401561060759 0.06299338127643503 -0.03506762078444824 0.06299212594272868 0.0000012084891943546173 C 0.06299212594272868 0.03485836252751006 0.0348574570518782 0.06299342100468287 1.9783240547230417e-12 0.06299342100468287 C -0.03485745704792154 0.06299342100468287 -0.06299212593877204 0.03485836252751006 -0.06299212593877204 0.0000012084891943546173 C -0.06299342455984747 -0.034647300429637325 -0.0351841035358114 -0.06269794853689459 -0.0005368066633169855 -0.06299100402629416 C -0.0005368066633169855 -0.06299100402629416 -0.0005368066633169855 -0.06299100402629416 -0.0005368066633169855 -0.06299100402629416"></path></g></g><g fill="rgb(0,0,0)" stroke="none"><g transform="matrix(1,0,0,-1,0.8157400334942904,1.8787329888907447)"><path class="fill" d="M -0.0005365730713735305 -0.06299076812021434 C 0.03453044099449331 -0.06329377856972644 0.06299338127173507 -0.03506748945355305 0.06299212594272996 0.0000012084846684710761 C 0.06299212594272996 0.03485823198030288 0.03485756241834493 0.06299318508955128 2.359122610046421e-7 0.06299318508955128 C -0.034856506216527375 0.06299318508955128 -0.06299212594876502 0.03485823198030288 -0.06299212594876502 0.0000012084846684710761 C -0.06299327305975248 -0.034647170672873685 -0.03518406484117047 -0.06269771372832976 -0.0005365730713735305 -0.06299076812021434 C -0.0005365730713735305 -0.06299076812021434 -0.0005365730713735305 -0.06299076812021434 -0.0005365730713735305 -0.06299076812021434"></path></g></g><g fill="rgb(0,0,0)" stroke="none"><g transform="matrix(1,0,0,-1,2.7448580236486855,3.20746842162905)"><path class="fill" d="M -0.0005144918494079753 -0.06299098275838617 C 0.0345447588749316 -0.06329399423863365 0.06299325142207111 -0.03505895163565112 0.06299212595085885 0.0000012081231290510116 C 0.06299212595085885 0.03485878306368706 0.03485742343519259 0.06299339900464428 -2.1643302171763367e-8 0.06299339900464428 C -0.034857423434442716 0.06299339900464428 -0.06299212595010897 0.03485878306368644 -0.06299212595010897 0.0000012081231290510116 C -0.06299325142132124 -0.03465508061983622 -0.03516974169586909 -0.06270874920821325 -0.0005144918494076677 -0.06299098275838617 C -0.0005144918494076677 -0.06299098275838617 -0.0005144918494079753 -0.06299098275838617 -0.0005144918494079753 -0.06299098275838617"></path></g></g><g fill="rgb(0,0,0)" stroke="none"><g transform="matrix(1,0,0,-1,1.5637667834924267,3.20746842194498)"><path class="fill" d="M -0.0005369365283717014 -0.0629897090921248 C 0.03453033439999981 -0.06329271444720595 0.0629934245608923 -0.035066467027038396 0.06299212593981657 0.000001208446063733768 C 0.06299212593981657 0.034858078764988275 0.03485745704895062 0.06299212598425227 -9.684006974967225e-13 0.06299212598425227 C -0.03485745705088757 0.06299212598425227 -0.06299212594175337 0.03485807876498766 -0.06299212594175337 0.000001208446063733768 C -0.06299338127545986 -0.03464658817785503 -0.03518419011351561 -0.06269622676248962 -0.0005369365283717014 -0.0629897090921248 C -0.0005369365283717014 -0.0629897090921248 -0.0005369365283717014 -0.0629897090921248 -0.0005369365283717014 -0.0629897090921248"></path></g></g><g fill="rgb(0,0,0)" stroke="none"><g transform="matrix(1,0,0,-1,3.4929048937259672,4.555897702096538)"><path class="fill" d="M -0.0005368066633169855 -0.06299097305733507 C 0.0345304642650351 -0.0632896559047296 0.06299338127643503 -0.035067243516535895 0.06299212594272868 0.0000011961707843860706 C 0.06299212594272868 0.03485873979542304 0.0348574570518782 0.06299332211153476 1.9783240547230417e-12 0.06299332211153476 C -0.03485745704792154 0.06299332211153476 -0.06299212593877204 0.03485873979542242 -0.06299212593877204 0.0000011961707843860706 C -0.06299342455984747 -0.034647226173308524 -0.0351841035358114 -0.06269765784371979 -0.0005368066633169855 -0.06299097305733507 C -0.0005368066633169855 -0.06299097305733507 -0.0005368066633169855 -0.06299097305733507 -0.0005368066633169855 -0.06299097305733507"></path></g></g><g fill="rgb(0,0,0)" stroke="none"><g transform="matrix(1,0,0,-1,0.8157400334942911,4.555897688346504)"><path class="fill" d="M -0.062992125948765 0.0000011810304905403666 C -0.062992125948765 0.03485807114002913 -0.03485650621652739 0.06299212598425197 2.3591226092774816e-7 0.06299212598425197 C 0.034857562418344715 0.06299212598425197 0.06299212594272977 0.034858071140028514 0.06299212594272977 0.0000011810304905403666 C 0.06299338127173487 -0.035066687760929804 0.03453044099449317 -0.06328653656237329 -0.0005365730713736064 -0.06298980720982841 C -0.03518406484117048 -0.06269545861795325 -0.06299327305975239 -0.034646591719143305 -0.062992125948765 0.0000011810304905403666 C -0.062992125948765 0.0000011810304905403666 -0.062992125948765 0.0000011810304905403666 -0.062992125948765 0.0000011810304905403666"></path></g></g><g fill="rgb(0,0,0)" stroke="none"><g transform="matrix(1,0,0,-1,6.130706299246964,5.343290713912418)"><path class="fill" d="M -0.0005367626396801924 -0.06299086483385258 C 0.03453028694314492 -0.06328954727073882 0.062993424559106 -0.03506730353322185 0.06299212593981601 0.0000011745308226210422 C 0.06299212593981601 0.03485858367280104 0.034857539004429436 0.06299321389549782 5.216469193700016e-13 0.06299321389549782 C -0.034857539003386145 0.06299321389549782 -0.06299212593877272 0.03485858367280104 -0.06299212593877272 0.0000011745308226210422 C -0.06299342455806395 -0.0346473300545745 -0.03518392531847527 -0.06269767988529769 -0.000536762639678962 -0.06299086483385258 C -0.000536762639678962 -0.06299086483385258 -0.0005367626396801924 -0.06299086483385258 -0.0005367626396801924 -0.06299086483385258"></path></g></g><g fill="rgb(0,0,0)" stroke="none"><g transform="matrix(1,0,0,-1,4.555897637818413,5.343290713912418)"><path class="fill" d="M -0.0005906349985288706 -0.0629897769631757 C 0.03796531424544505 -0.06328845424172883 0.06925945122238729 -0.035066697910623536 0.06925849935290644 0.0000011745105381298803 C 0.06925849935290644 0.034857981654855826 0.03832464497434898 0.06299212598425197 -4.759205946869842e-7 0.06299212598425197 C -0.038325120880797925 0.06299212598425197 -0.06925849932461565 0.034857981654855826 -0.06925849932461565 0.0000011745105381298803 C -0.06925992712883625 -0.034646731685041114 -0.038684451609701846 -0.06269659707801072 -0.0005906349985288706 -0.0629897769631757 C -0.0005906349985288706 -0.0629897769631757 -0.0005906349985288706 -0.0629897769631757 -0.0005906349985288706 -0.0629897769631757"></path></g></g><g fill="rgb(0,0,0)" stroke="none"><g transform="matrix(1,0,0,-1,9.334671564460393,4.973600682651799)"><path class="fill" d="M -0.0005146860995088816 -0.06298997556097784 C 0.03454457177444481 -0.06327566722310023 0.06299299171068767 -0.03505872420099068 0.06299212596449336 0.0000010535683293853108 C 0.06299212596449336 0.03485790368431172 0.034857539023590935 0.06299212598425197 1.2849246290019823e-11 0.06299212598425197 C -0.034857538997892436 0.06299212598425197 -0.06299212593879487 0.03485790368431172 -0.06299212593879487 0.0000010535683293853108 C -0.06299342455808635 -0.03465477350539615 -0.0351700733739414 -0.06270787668793987 -0.0005146860995088816 -0.06298997556097784 C -0.0005146860995088816 -0.06298997556097784 -0.0005146860995088816 -0.06298997556097784 -0.0005146860995088816 -0.06298997556097784"></path></g></g><g fill="rgb(0,0,0)" stroke="none"><g transform="matrix(1,0,0,-1,6.917760737699952,4.973600772967535)"><path class="fill" d="M -0.0005369809212570774 -0.06298977696398281 C 0.03453062202450105 -0.06328845413991431 0.06299342456356784 -0.035066707505436695 0.06299212593981586 0.0000011528668610197903 C 0.06299212593981586 0.03485794803483404 0.03485744233562027 0.06299212598425197 -2.164367699365086e-7 0.06299212598425197 C -0.03485744233457574 0.06299212598425197 -0.06299212593877133 0.03485794803483404 -0.06299212593877133 0.0000011528668610197903 C -0.06299342456252453 -0.0346467414241492 -0.03518426264569373 -0.0626964673199086 -0.000536980921255847 -0.06298977696398281 C -0.000536980921255847 -0.06298977696398281 -0.0005369809212570774 -0.06298977696398281 -0.0005369809212570774 -0.06298977696398281"></path></g></g><g fill="rgb(0,0,0)" stroke="none"><g transform="matrix(6.123233995736766e-17,1,1,-6.123233995736766e-17,2.1535434023542024,3.799207047250197)"><path class="fill" d="M -0.0005110123234000355 -0.06299000687840858 C -0.03504425906912359 -0.06269698939868701 -0.06299318815927964 -0.03453288179153331 -0.062992125953976 0.000001059552921435713 C -0.062992125953976 0.03473278769618816 -0.034732117220908215 0.06299212598425145 -1.8316775683924067e-8 0.06299212598425145 C 0.034732227098433106 0.06299212598425145 0.06299212594819363 0.03473278769618816 0.06299212594819363 0.000001059552921435713 C 0.06299329803680453 -0.03493028674840558 0.03441975560029594 -0.06327423383373831 -0.0005110123234000355 -0.06299000687840858 C -0.0005110123234000355 -0.06299000687840858 -0.0005110123234000355 -0.06299000687840858 -0.0005110123234000355 -0.06299000687840858"></path></g></g><g fill="rgb(0,0,0)" stroke="none"><g transform="matrix(6.123233995736766e-17,1,1,-6.123233995736766e-17,2.1535433070866143,2.618115807089104)"><path class="fill" d="M -0.000530003664156364 -0.06298982962095456 C -0.0350552921419675 -0.06269681255350996 -0.06299337128640714 -0.034525052875367536 -0.0629921259426202 0.0000011481816483155964 C -0.0629921259426202 0.03473282745720996 -0.034732198684767984 0.06299212598425119 4.708028812530714e-13 0.06299212598425119 C 0.03473219868570959 0.06299212598425119 0.06299212594356181 0.03473282745720996 0.06299212594356181 0.0000011481816483155964 C 0.06299337128734875 -0.03493820694046462 0.03440862906765038 -0.0632857768590735 -0.0005300036641564942 -0.06298982962095456 C -0.0005300036641564942 -0.06298982962095456 -0.000530003664156364 -0.06298982962095456 -0.000530003664156364 -0.06298982962095456"></path></g></g></g>
        </g>
      </svg>