G04 EAGLE Gerber RS-274X export*
G75*
%MOMM*%
%FSLAX34Y34*%
%LPD*%
%IN*%
%IPPOS*%
%AMOC8*
5,1,8,0,0,1.08239X$1,22.5*%
G01*
%ADD10C,0.254000*%


D10*
X0Y20000D02*
X76Y18257D01*
X304Y16527D01*
X681Y14824D01*
X1206Y13160D01*
X1874Y11548D01*
X2680Y10000D01*
X3617Y8528D01*
X4679Y7144D01*
X5858Y5858D01*
X7144Y4679D01*
X8528Y3617D01*
X10000Y2680D01*
X11548Y1874D01*
X13160Y1206D01*
X14824Y681D01*
X16527Y304D01*
X18257Y76D01*
X20000Y0D01*
X627500Y0D01*
X629243Y76D01*
X630973Y304D01*
X632676Y681D01*
X634340Y1206D01*
X635952Y1874D01*
X637500Y2680D01*
X638972Y3617D01*
X640356Y4679D01*
X641642Y5858D01*
X642821Y7144D01*
X643883Y8528D01*
X644821Y10000D01*
X645626Y11548D01*
X646294Y13160D01*
X646819Y14824D01*
X647196Y16527D01*
X647424Y18257D01*
X647500Y20000D01*
X647500Y1330000D01*
X647424Y1331743D01*
X647196Y1333473D01*
X646819Y1335176D01*
X646294Y1336840D01*
X645626Y1338452D01*
X644821Y1340000D01*
X643883Y1341472D01*
X642821Y1342856D01*
X641642Y1344142D01*
X640356Y1345321D01*
X638972Y1346383D01*
X637500Y1347321D01*
X635952Y1348126D01*
X634340Y1348794D01*
X632676Y1349319D01*
X630973Y1349696D01*
X629243Y1349924D01*
X627500Y1350000D01*
X270000Y1350000D01*
X268257Y1349924D01*
X266527Y1349696D01*
X264824Y1349319D01*
X263160Y1348794D01*
X261548Y1348126D01*
X260000Y1347321D01*
X258528Y1346383D01*
X257144Y1345321D01*
X255858Y1344142D01*
X254679Y1342856D01*
X253617Y1341472D01*
X252680Y1340000D01*
X251874Y1338452D01*
X251206Y1336840D01*
X250681Y1335176D01*
X250304Y1333473D01*
X250076Y1331743D01*
X250000Y1330000D01*
X250000Y1020000D01*
X249924Y1018257D01*
X249696Y1016527D01*
X249319Y1014824D01*
X248794Y1013160D01*
X248126Y1011548D01*
X247321Y1010000D01*
X246383Y1008528D01*
X245321Y1007144D01*
X244142Y1005858D01*
X242856Y1004679D01*
X241472Y1003617D01*
X240000Y1002680D01*
X238452Y1001874D01*
X236840Y1001206D01*
X235176Y1000681D01*
X233473Y1000304D01*
X231743Y1000076D01*
X230000Y1000000D01*
X20000Y1000000D01*
X18257Y999924D01*
X16527Y999696D01*
X14824Y999319D01*
X13160Y998794D01*
X11548Y998126D01*
X10000Y997321D01*
X8528Y996383D01*
X7144Y995321D01*
X5858Y994142D01*
X4679Y992856D01*
X3617Y991472D01*
X2680Y990000D01*
X1874Y988452D01*
X1206Y986840D01*
X681Y985176D01*
X304Y983473D01*
X76Y981743D01*
X0Y980000D01*
X0Y20000D01*
X609800Y1065900D02*
X609810Y1065682D01*
X609838Y1065466D01*
X609885Y1065253D01*
X609951Y1065045D01*
X610034Y1064843D01*
X610135Y1064650D01*
X610252Y1064466D01*
X610385Y1064293D01*
X610532Y1064132D01*
X610693Y1063985D01*
X610866Y1063852D01*
X611050Y1063735D01*
X611243Y1063634D01*
X611445Y1063551D01*
X611653Y1063485D01*
X611866Y1063438D01*
X612082Y1063410D01*
X612300Y1063400D01*
X612518Y1063410D01*
X612734Y1063438D01*
X612947Y1063485D01*
X613155Y1063551D01*
X613357Y1063634D01*
X613550Y1063735D01*
X613734Y1063852D01*
X613907Y1063985D01*
X614068Y1064132D01*
X614215Y1064293D01*
X614348Y1064466D01*
X614465Y1064650D01*
X614566Y1064843D01*
X614649Y1065045D01*
X614715Y1065253D01*
X614762Y1065466D01*
X614791Y1065682D01*
X614800Y1065900D01*
X614800Y1072900D01*
X614791Y1073118D01*
X614762Y1073334D01*
X614715Y1073547D01*
X614649Y1073755D01*
X614566Y1073957D01*
X614465Y1074150D01*
X614348Y1074334D01*
X614215Y1074507D01*
X614068Y1074668D01*
X613907Y1074815D01*
X613734Y1074948D01*
X613550Y1075065D01*
X613357Y1075166D01*
X613155Y1075249D01*
X612947Y1075315D01*
X612734Y1075362D01*
X612518Y1075391D01*
X612300Y1075400D01*
X612082Y1075391D01*
X611866Y1075362D01*
X611653Y1075315D01*
X611445Y1075249D01*
X611243Y1075166D01*
X611050Y1075065D01*
X610866Y1074948D01*
X610693Y1074815D01*
X610532Y1074668D01*
X610385Y1074507D01*
X610252Y1074334D01*
X610135Y1074150D01*
X610034Y1073957D01*
X609951Y1073755D01*
X609885Y1073547D01*
X609838Y1073334D01*
X609810Y1073118D01*
X609800Y1072900D01*
X609800Y1065900D01*
X631300Y1035900D02*
X631310Y1035682D01*
X631338Y1035466D01*
X631385Y1035253D01*
X631451Y1035045D01*
X631534Y1034843D01*
X631635Y1034650D01*
X631752Y1034466D01*
X631885Y1034293D01*
X632032Y1034132D01*
X632193Y1033985D01*
X632366Y1033852D01*
X632550Y1033735D01*
X632743Y1033634D01*
X632945Y1033551D01*
X633153Y1033485D01*
X633366Y1033438D01*
X633582Y1033410D01*
X633800Y1033400D01*
X634018Y1033410D01*
X634234Y1033438D01*
X634447Y1033485D01*
X634655Y1033551D01*
X634857Y1033634D01*
X635050Y1033735D01*
X635234Y1033852D01*
X635407Y1033985D01*
X635568Y1034132D01*
X635715Y1034293D01*
X635848Y1034466D01*
X635965Y1034650D01*
X636066Y1034843D01*
X636149Y1035045D01*
X636215Y1035253D01*
X636262Y1035466D01*
X636291Y1035682D01*
X636300Y1035900D01*
X636300Y1046900D01*
X636291Y1047118D01*
X636262Y1047334D01*
X636215Y1047547D01*
X636149Y1047755D01*
X636066Y1047957D01*
X635965Y1048150D01*
X635848Y1048334D01*
X635715Y1048507D01*
X635568Y1048668D01*
X635407Y1048815D01*
X635234Y1048948D01*
X635050Y1049065D01*
X634857Y1049166D01*
X634655Y1049249D01*
X634447Y1049315D01*
X634234Y1049362D01*
X634018Y1049391D01*
X633800Y1049400D01*
X633582Y1049391D01*
X633366Y1049362D01*
X633153Y1049315D01*
X632945Y1049249D01*
X632743Y1049166D01*
X632550Y1049065D01*
X632366Y1048948D01*
X632193Y1048815D01*
X632032Y1048668D01*
X631885Y1048507D01*
X631752Y1048334D01*
X631635Y1048150D01*
X631534Y1047957D01*
X631451Y1047755D01*
X631385Y1047547D01*
X631338Y1047334D01*
X631310Y1047118D01*
X631300Y1046900D01*
X631300Y1035900D01*
X609800Y1009900D02*
X609810Y1009682D01*
X609838Y1009466D01*
X609885Y1009253D01*
X609951Y1009045D01*
X610034Y1008843D01*
X610135Y1008650D01*
X610252Y1008466D01*
X610385Y1008293D01*
X610532Y1008132D01*
X610693Y1007985D01*
X610866Y1007852D01*
X611050Y1007735D01*
X611243Y1007634D01*
X611445Y1007551D01*
X611653Y1007485D01*
X611866Y1007438D01*
X612082Y1007410D01*
X612300Y1007400D01*
X612518Y1007410D01*
X612734Y1007438D01*
X612947Y1007485D01*
X613155Y1007551D01*
X613357Y1007634D01*
X613550Y1007735D01*
X613734Y1007852D01*
X613907Y1007985D01*
X614068Y1008132D01*
X614215Y1008293D01*
X614348Y1008466D01*
X614465Y1008650D01*
X614566Y1008843D01*
X614649Y1009045D01*
X614715Y1009253D01*
X614762Y1009466D01*
X614791Y1009682D01*
X614800Y1009900D01*
X614800Y1016900D01*
X614791Y1017118D01*
X614762Y1017334D01*
X614715Y1017547D01*
X614649Y1017755D01*
X614566Y1017957D01*
X614465Y1018150D01*
X614348Y1018334D01*
X614215Y1018507D01*
X614068Y1018668D01*
X613907Y1018815D01*
X613734Y1018948D01*
X613550Y1019065D01*
X613357Y1019166D01*
X613155Y1019249D01*
X612947Y1019315D01*
X612734Y1019362D01*
X612518Y1019391D01*
X612300Y1019400D01*
X612082Y1019391D01*
X611866Y1019362D01*
X611653Y1019315D01*
X611445Y1019249D01*
X611243Y1019166D01*
X611050Y1019065D01*
X610866Y1018948D01*
X610693Y1018815D01*
X610532Y1018668D01*
X610385Y1018507D01*
X610252Y1018334D01*
X610135Y1018150D01*
X610034Y1017957D01*
X609951Y1017755D01*
X609885Y1017547D01*
X609838Y1017334D01*
X609810Y1017118D01*
X609800Y1016900D01*
X609800Y1009900D01*
X17300Y50870D02*
X17311Y50609D01*
X17346Y50349D01*
X17402Y50094D01*
X17481Y49844D01*
X17581Y49602D01*
X17702Y49370D01*
X17843Y49149D01*
X18002Y48942D01*
X18179Y48749D01*
X18372Y48572D01*
X18579Y48413D01*
X18800Y48272D01*
X19032Y48151D01*
X19274Y48051D01*
X19524Y47972D01*
X19779Y47916D01*
X20039Y47881D01*
X20300Y47870D01*
X20561Y47881D01*
X20821Y47916D01*
X21076Y47972D01*
X21326Y48051D01*
X21568Y48151D01*
X21800Y48272D01*
X22021Y48413D01*
X22228Y48572D01*
X22421Y48749D01*
X22598Y48942D01*
X22757Y49149D01*
X22898Y49370D01*
X23019Y49602D01*
X23119Y49844D01*
X23198Y50094D01*
X23254Y50349D01*
X23289Y50609D01*
X23300Y50870D01*
X23300Y61870D01*
X23289Y62131D01*
X23254Y62391D01*
X23198Y62646D01*
X23119Y62896D01*
X23019Y63138D01*
X22898Y63370D01*
X22757Y63591D01*
X22598Y63798D01*
X22421Y63991D01*
X22228Y64168D01*
X22021Y64327D01*
X21800Y64468D01*
X21568Y64589D01*
X21326Y64689D01*
X21076Y64768D01*
X20821Y64824D01*
X20561Y64859D01*
X20300Y64870D01*
X20039Y64859D01*
X19779Y64824D01*
X19524Y64768D01*
X19274Y64689D01*
X19032Y64589D01*
X18800Y64468D01*
X18579Y64327D01*
X18372Y64168D01*
X18179Y63991D01*
X18002Y63798D01*
X17843Y63591D01*
X17702Y63370D01*
X17581Y63138D01*
X17481Y62896D01*
X17402Y62646D01*
X17346Y62391D01*
X17311Y62131D01*
X17300Y61870D01*
X17300Y50870D01*
X103700Y50870D02*
X103711Y50609D01*
X103746Y50349D01*
X103802Y50094D01*
X103881Y49844D01*
X103981Y49602D01*
X104102Y49370D01*
X104243Y49149D01*
X104402Y48942D01*
X104579Y48749D01*
X104772Y48572D01*
X104979Y48413D01*
X105200Y48272D01*
X105432Y48151D01*
X105674Y48051D01*
X105924Y47972D01*
X106179Y47916D01*
X106439Y47881D01*
X106700Y47870D01*
X106961Y47881D01*
X107221Y47916D01*
X107476Y47972D01*
X107726Y48051D01*
X107968Y48151D01*
X108200Y48272D01*
X108421Y48413D01*
X108628Y48572D01*
X108821Y48749D01*
X108998Y48942D01*
X109157Y49149D01*
X109298Y49370D01*
X109419Y49602D01*
X109519Y49844D01*
X109598Y50094D01*
X109654Y50349D01*
X109689Y50609D01*
X109700Y50870D01*
X109700Y61870D01*
X109689Y62131D01*
X109654Y62391D01*
X109598Y62646D01*
X109519Y62896D01*
X109419Y63138D01*
X109298Y63370D01*
X109157Y63591D01*
X108998Y63798D01*
X108821Y63991D01*
X108628Y64168D01*
X108421Y64327D01*
X108200Y64468D01*
X107968Y64589D01*
X107726Y64689D01*
X107476Y64768D01*
X107221Y64824D01*
X106961Y64859D01*
X106700Y64870D01*
X106439Y64859D01*
X106179Y64824D01*
X105924Y64768D01*
X105674Y64689D01*
X105432Y64589D01*
X105200Y64468D01*
X104979Y64327D01*
X104772Y64168D01*
X104579Y63991D01*
X104402Y63798D01*
X104243Y63591D01*
X104102Y63370D01*
X103981Y63138D01*
X103881Y62896D01*
X103802Y62646D01*
X103746Y62391D01*
X103711Y62131D01*
X103700Y61870D01*
X103700Y50870D01*
X103700Y11570D02*
X103711Y11309D01*
X103746Y11049D01*
X103802Y10794D01*
X103881Y10544D01*
X103981Y10302D01*
X104102Y10070D01*
X104243Y9849D01*
X104402Y9642D01*
X104579Y9449D01*
X104772Y9272D01*
X104979Y9113D01*
X105200Y8972D01*
X105432Y8851D01*
X105674Y8751D01*
X105924Y8672D01*
X106179Y8616D01*
X106439Y8581D01*
X106700Y8570D01*
X106961Y8581D01*
X107221Y8616D01*
X107476Y8672D01*
X107726Y8751D01*
X107968Y8851D01*
X108200Y8972D01*
X108421Y9113D01*
X108628Y9272D01*
X108821Y9449D01*
X108998Y9642D01*
X109157Y9849D01*
X109298Y10070D01*
X109419Y10302D01*
X109519Y10544D01*
X109598Y10794D01*
X109654Y11049D01*
X109689Y11309D01*
X109700Y11570D01*
X109700Y17570D01*
X109689Y17831D01*
X109654Y18091D01*
X109598Y18346D01*
X109519Y18596D01*
X109419Y18838D01*
X109298Y19070D01*
X109157Y19291D01*
X108998Y19498D01*
X108821Y19691D01*
X108628Y19868D01*
X108421Y20027D01*
X108200Y20168D01*
X107968Y20289D01*
X107726Y20389D01*
X107476Y20468D01*
X107221Y20524D01*
X106961Y20559D01*
X106700Y20570D01*
X106439Y20559D01*
X106179Y20524D01*
X105924Y20468D01*
X105674Y20389D01*
X105432Y20289D01*
X105200Y20168D01*
X104979Y20027D01*
X104772Y19868D01*
X104579Y19691D01*
X104402Y19498D01*
X104243Y19291D01*
X104102Y19070D01*
X103981Y18838D01*
X103881Y18596D01*
X103802Y18346D01*
X103746Y18091D01*
X103711Y17831D01*
X103700Y17570D01*
X103700Y11570D01*
X17300Y11570D02*
X17311Y11309D01*
X17346Y11049D01*
X17402Y10794D01*
X17481Y10544D01*
X17581Y10302D01*
X17702Y10070D01*
X17843Y9849D01*
X18002Y9642D01*
X18179Y9449D01*
X18372Y9272D01*
X18579Y9113D01*
X18800Y8972D01*
X19032Y8851D01*
X19274Y8751D01*
X19524Y8672D01*
X19779Y8616D01*
X20039Y8581D01*
X20300Y8570D01*
X20561Y8581D01*
X20821Y8616D01*
X21076Y8672D01*
X21326Y8751D01*
X21568Y8851D01*
X21800Y8972D01*
X22021Y9113D01*
X22228Y9272D01*
X22421Y9449D01*
X22598Y9642D01*
X22757Y9849D01*
X22898Y10070D01*
X23019Y10302D01*
X23119Y10544D01*
X23198Y10794D01*
X23254Y11049D01*
X23289Y11309D01*
X23300Y11570D01*
X23300Y17570D01*
X23289Y17831D01*
X23254Y18091D01*
X23198Y18346D01*
X23119Y18596D01*
X23019Y18838D01*
X22898Y19070D01*
X22757Y19291D01*
X22598Y19498D01*
X22421Y19691D01*
X22228Y19868D01*
X22021Y20027D01*
X21800Y20168D01*
X21568Y20289D01*
X21326Y20389D01*
X21076Y20468D01*
X20821Y20524D01*
X20561Y20559D01*
X20300Y20570D01*
X20039Y20559D01*
X19779Y20524D01*
X19524Y20468D01*
X19274Y20389D01*
X19032Y20289D01*
X18800Y20168D01*
X18579Y20027D01*
X18372Y19868D01*
X18179Y19691D01*
X18002Y19498D01*
X17843Y19291D01*
X17702Y19070D01*
X17581Y18838D01*
X17481Y18596D01*
X17402Y18346D01*
X17346Y18091D01*
X17311Y17831D01*
X17300Y17570D01*
X17300Y11570D01*
X145710Y528915D02*
X145633Y528330D01*
X145480Y527760D01*
X145255Y527215D01*
X144960Y526705D01*
X144601Y526237D01*
X144183Y525819D01*
X143715Y525460D01*
X143205Y525165D01*
X142660Y524940D01*
X142090Y524787D01*
X141505Y524710D01*
X140915Y524710D01*
X140330Y524787D01*
X139760Y524940D01*
X139215Y525165D01*
X138705Y525460D01*
X138237Y525819D01*
X137819Y526237D01*
X137460Y526705D01*
X137165Y527215D01*
X136940Y527760D01*
X136787Y528330D01*
X136710Y528915D01*
X136710Y529505D01*
X136787Y530090D01*
X136940Y530660D01*
X137165Y531205D01*
X137460Y531715D01*
X137819Y532183D01*
X138237Y532601D01*
X138705Y532960D01*
X139215Y533255D01*
X139760Y533480D01*
X140330Y533633D01*
X140915Y533710D01*
X141505Y533710D01*
X142090Y533633D01*
X142660Y533480D01*
X143205Y533255D01*
X143715Y532960D01*
X144183Y532601D01*
X144601Y532183D01*
X144960Y531715D01*
X145255Y531205D01*
X145480Y530660D01*
X145633Y530090D01*
X145710Y529505D01*
X145710Y528915D01*
X175710Y528915D02*
X175633Y528330D01*
X175480Y527760D01*
X175255Y527215D01*
X174960Y526705D01*
X174601Y526237D01*
X174183Y525819D01*
X173715Y525460D01*
X173205Y525165D01*
X172660Y524940D01*
X172090Y524787D01*
X171505Y524710D01*
X170915Y524710D01*
X170330Y524787D01*
X169760Y524940D01*
X169215Y525165D01*
X168705Y525460D01*
X168237Y525819D01*
X167819Y526237D01*
X167460Y526705D01*
X167165Y527215D01*
X166940Y527760D01*
X166787Y528330D01*
X166710Y528915D01*
X166710Y529505D01*
X166787Y530090D01*
X166940Y530660D01*
X167165Y531205D01*
X167460Y531715D01*
X167819Y532183D01*
X168237Y532601D01*
X168705Y532960D01*
X169215Y533255D01*
X169760Y533480D01*
X170330Y533633D01*
X170915Y533710D01*
X171505Y533710D01*
X172090Y533633D01*
X172660Y533480D01*
X173205Y533255D01*
X173715Y532960D01*
X174183Y532601D01*
X174601Y532183D01*
X174960Y531715D01*
X175255Y531205D01*
X175480Y530660D01*
X175633Y530090D01*
X175710Y529505D01*
X175710Y528915D01*
X495640Y526965D02*
X495717Y527550D01*
X495870Y528120D01*
X496095Y528665D01*
X496390Y529175D01*
X496749Y529643D01*
X497167Y530061D01*
X497635Y530420D01*
X498145Y530715D01*
X498690Y530940D01*
X499260Y531093D01*
X499845Y531170D01*
X500435Y531170D01*
X501020Y531093D01*
X501590Y530940D01*
X502135Y530715D01*
X502645Y530420D01*
X503113Y530061D01*
X503531Y529643D01*
X503890Y529175D01*
X504185Y528665D01*
X504410Y528120D01*
X504563Y527550D01*
X504640Y526965D01*
X504640Y526375D01*
X504563Y525790D01*
X504410Y525220D01*
X504185Y524675D01*
X503890Y524165D01*
X503531Y523697D01*
X503113Y523279D01*
X502645Y522920D01*
X502135Y522625D01*
X501590Y522400D01*
X501020Y522247D01*
X500435Y522170D01*
X499845Y522170D01*
X499260Y522247D01*
X498690Y522400D01*
X498145Y522625D01*
X497635Y522920D01*
X497167Y523279D01*
X496749Y523697D01*
X496390Y524165D01*
X496095Y524675D01*
X495870Y525220D01*
X495717Y525790D01*
X495640Y526375D01*
X495640Y526965D01*
X465640Y526965D02*
X465717Y527550D01*
X465870Y528120D01*
X466095Y528665D01*
X466390Y529175D01*
X466749Y529643D01*
X467167Y530061D01*
X467635Y530420D01*
X468145Y530715D01*
X468690Y530940D01*
X469260Y531093D01*
X469845Y531170D01*
X470435Y531170D01*
X471020Y531093D01*
X471590Y530940D01*
X472135Y530715D01*
X472645Y530420D01*
X473113Y530061D01*
X473531Y529643D01*
X473890Y529175D01*
X474185Y528665D01*
X474410Y528120D01*
X474563Y527550D01*
X474640Y526965D01*
X474640Y526375D01*
X474563Y525790D01*
X474410Y525220D01*
X474185Y524675D01*
X473890Y524165D01*
X473531Y523697D01*
X473113Y523279D01*
X472645Y522920D01*
X472135Y522625D01*
X471590Y522400D01*
X471020Y522247D01*
X470435Y522170D01*
X469845Y522170D01*
X469260Y522247D01*
X468690Y522400D01*
X468145Y522625D01*
X467635Y522920D01*
X467167Y523279D01*
X466749Y523697D01*
X466390Y524165D01*
X466095Y524675D01*
X465870Y525220D01*
X465717Y525790D01*
X465640Y526375D01*
X465640Y526965D01*
X613995Y868060D02*
X613927Y867023D01*
X613791Y865993D01*
X613589Y864973D01*
X613320Y863969D01*
X612985Y862985D01*
X612588Y862025D01*
X612128Y861093D01*
X611608Y860192D01*
X611031Y859328D01*
X610398Y858504D01*
X609713Y857722D01*
X608978Y856987D01*
X608196Y856302D01*
X607372Y855669D01*
X606508Y855092D01*
X605607Y854572D01*
X604675Y854112D01*
X603715Y853715D01*
X602731Y853380D01*
X601727Y853111D01*
X600707Y852909D01*
X599677Y852773D01*
X598640Y852705D01*
X597600Y852705D01*
X596563Y852773D01*
X595533Y852909D01*
X594513Y853111D01*
X593509Y853380D01*
X592525Y853715D01*
X591565Y854112D01*
X590633Y854572D01*
X589732Y855092D01*
X588868Y855669D01*
X588044Y856302D01*
X587262Y856987D01*
X586527Y857722D01*
X585842Y858504D01*
X585209Y859328D01*
X584632Y860192D01*
X584112Y861093D01*
X583652Y862025D01*
X583255Y862985D01*
X582920Y863969D01*
X582651Y864973D01*
X582449Y865993D01*
X582313Y867023D01*
X582245Y868060D01*
X582245Y869100D01*
X582313Y870137D01*
X582449Y871167D01*
X582651Y872187D01*
X582920Y873191D01*
X583255Y874175D01*
X583652Y875135D01*
X584112Y876067D01*
X584632Y876968D01*
X585209Y877832D01*
X585842Y878656D01*
X586527Y879438D01*
X587262Y880173D01*
X588044Y880858D01*
X588868Y881491D01*
X589732Y882068D01*
X590633Y882588D01*
X591565Y883048D01*
X592525Y883445D01*
X593509Y883780D01*
X594513Y884049D01*
X595533Y884251D01*
X596563Y884387D01*
X597600Y884455D01*
X598640Y884455D01*
X599677Y884387D01*
X600707Y884251D01*
X601727Y884049D01*
X602731Y883780D01*
X603715Y883445D01*
X604675Y883048D01*
X605607Y882588D01*
X606508Y882068D01*
X607372Y881491D01*
X608196Y880858D01*
X608978Y880173D01*
X609713Y879438D01*
X610398Y878656D01*
X611031Y877832D01*
X611608Y876968D01*
X612128Y876067D01*
X612588Y875135D01*
X612985Y874175D01*
X613320Y873191D01*
X613589Y872187D01*
X613791Y871167D01*
X613927Y870137D01*
X613995Y869100D01*
X613995Y868060D01*
X213995Y68060D02*
X213927Y67023D01*
X213791Y65993D01*
X213589Y64973D01*
X213320Y63969D01*
X212985Y62985D01*
X212588Y62025D01*
X212128Y61093D01*
X211608Y60192D01*
X211031Y59328D01*
X210398Y58504D01*
X209713Y57722D01*
X208978Y56987D01*
X208196Y56302D01*
X207372Y55669D01*
X206508Y55092D01*
X205607Y54572D01*
X204675Y54112D01*
X203715Y53715D01*
X202731Y53380D01*
X201727Y53111D01*
X200707Y52909D01*
X199677Y52773D01*
X198640Y52705D01*
X197600Y52705D01*
X196563Y52773D01*
X195533Y52909D01*
X194513Y53111D01*
X193509Y53380D01*
X192525Y53715D01*
X191565Y54112D01*
X190633Y54572D01*
X189732Y55092D01*
X188868Y55669D01*
X188044Y56302D01*
X187262Y56987D01*
X186527Y57722D01*
X185842Y58504D01*
X185209Y59328D01*
X184632Y60192D01*
X184112Y61093D01*
X183652Y62025D01*
X183255Y62985D01*
X182920Y63969D01*
X182651Y64973D01*
X182449Y65993D01*
X182313Y67023D01*
X182245Y68060D01*
X182245Y69100D01*
X182313Y70137D01*
X182449Y71167D01*
X182651Y72187D01*
X182920Y73191D01*
X183255Y74175D01*
X183652Y75135D01*
X184112Y76067D01*
X184632Y76968D01*
X185209Y77832D01*
X185842Y78656D01*
X186527Y79438D01*
X187262Y80173D01*
X188044Y80858D01*
X188868Y81491D01*
X189732Y82068D01*
X190633Y82588D01*
X191565Y83048D01*
X192525Y83445D01*
X193509Y83780D01*
X194513Y84049D01*
X195533Y84251D01*
X196563Y84387D01*
X197600Y84455D01*
X198640Y84455D01*
X199677Y84387D01*
X200707Y84251D01*
X201727Y84049D01*
X202731Y83780D01*
X203715Y83445D01*
X204675Y83048D01*
X205607Y82588D01*
X206508Y82068D01*
X207372Y81491D01*
X208196Y80858D01*
X208978Y80173D01*
X209713Y79438D01*
X210398Y78656D01*
X211031Y77832D01*
X211608Y76968D01*
X212128Y76067D01*
X212588Y75135D01*
X212985Y74175D01*
X213320Y73191D01*
X213589Y72187D01*
X213791Y71167D01*
X213927Y70137D01*
X213995Y69100D01*
X213995Y68060D01*
X213995Y868060D02*
X213927Y867023D01*
X213791Y865993D01*
X213589Y864973D01*
X213320Y863969D01*
X212985Y862985D01*
X212588Y862025D01*
X212128Y861093D01*
X211608Y860192D01*
X211031Y859328D01*
X210398Y858504D01*
X209713Y857722D01*
X208978Y856987D01*
X208196Y856302D01*
X207372Y855669D01*
X206508Y855092D01*
X205607Y854572D01*
X204675Y854112D01*
X203715Y853715D01*
X202731Y853380D01*
X201727Y853111D01*
X200707Y852909D01*
X199677Y852773D01*
X198640Y852705D01*
X197600Y852705D01*
X196563Y852773D01*
X195533Y852909D01*
X194513Y853111D01*
X193509Y853380D01*
X192525Y853715D01*
X191565Y854112D01*
X190633Y854572D01*
X189732Y855092D01*
X188868Y855669D01*
X188044Y856302D01*
X187262Y856987D01*
X186527Y857722D01*
X185842Y858504D01*
X185209Y859328D01*
X184632Y860192D01*
X184112Y861093D01*
X183652Y862025D01*
X183255Y862985D01*
X182920Y863969D01*
X182651Y864973D01*
X182449Y865993D01*
X182313Y867023D01*
X182245Y868060D01*
X182245Y869100D01*
X182313Y870137D01*
X182449Y871167D01*
X182651Y872187D01*
X182920Y873191D01*
X183255Y874175D01*
X183652Y875135D01*
X184112Y876067D01*
X184632Y876968D01*
X185209Y877832D01*
X185842Y878656D01*
X186527Y879438D01*
X187262Y880173D01*
X188044Y880858D01*
X188868Y881491D01*
X189732Y882068D01*
X190633Y882588D01*
X191565Y883048D01*
X192525Y883445D01*
X193509Y883780D01*
X194513Y884049D01*
X195533Y884251D01*
X196563Y884387D01*
X197600Y884455D01*
X198640Y884455D01*
X199677Y884387D01*
X200707Y884251D01*
X201727Y884049D01*
X202731Y883780D01*
X203715Y883445D01*
X204675Y883048D01*
X205607Y882588D01*
X206508Y882068D01*
X207372Y881491D01*
X208196Y880858D01*
X208978Y880173D01*
X209713Y879438D01*
X210398Y878656D01*
X211031Y877832D01*
X211608Y876968D01*
X212128Y876067D01*
X212588Y875135D01*
X212985Y874175D01*
X213320Y873191D01*
X213589Y872187D01*
X213791Y871167D01*
X213927Y870137D01*
X213995Y869100D01*
X213995Y868060D01*
X543970Y879309D02*
X544039Y879923D01*
X544177Y880525D01*
X544381Y881108D01*
X544649Y881665D01*
X544977Y882188D01*
X545363Y882671D01*
X545799Y883108D01*
X546282Y883493D01*
X546805Y883821D01*
X547362Y884089D01*
X547945Y884293D01*
X548547Y884431D01*
X549161Y884500D01*
X549779Y884500D01*
X550393Y884431D01*
X550995Y884293D01*
X551578Y884089D01*
X552135Y883821D01*
X552658Y883493D01*
X553141Y883108D01*
X553578Y882671D01*
X553963Y882188D01*
X554291Y881665D01*
X554559Y881108D01*
X554763Y880525D01*
X554901Y879923D01*
X554970Y879309D01*
X554970Y878691D01*
X554901Y878077D01*
X554763Y877475D01*
X554559Y876892D01*
X554291Y876335D01*
X553963Y875812D01*
X553578Y875329D01*
X553141Y874893D01*
X552658Y874507D01*
X552135Y874179D01*
X551578Y873911D01*
X550995Y873707D01*
X550393Y873569D01*
X549779Y873500D01*
X549161Y873500D01*
X548547Y873569D01*
X547945Y873707D01*
X547362Y873911D01*
X546805Y874179D01*
X546282Y874507D01*
X545799Y874893D01*
X545363Y875329D01*
X544977Y875812D01*
X544649Y876335D01*
X544381Y876892D01*
X544177Y877475D01*
X544039Y878077D01*
X543970Y878691D01*
X543970Y879309D01*
X341720Y879381D02*
X341795Y880139D01*
X341943Y880885D01*
X342164Y881614D01*
X342456Y882318D01*
X342815Y882989D01*
X343238Y883622D01*
X343721Y884211D01*
X344259Y884749D01*
X344848Y885232D01*
X345481Y885655D01*
X346152Y886014D01*
X346856Y886306D01*
X347585Y886527D01*
X348331Y886675D01*
X349089Y886750D01*
X349851Y886750D01*
X350609Y886675D01*
X351355Y886527D01*
X352084Y886306D01*
X352788Y886014D01*
X353459Y885655D01*
X354092Y885232D01*
X354681Y884749D01*
X355219Y884211D01*
X355702Y883622D01*
X356125Y882989D01*
X356484Y882318D01*
X356776Y881614D01*
X356997Y880885D01*
X357145Y880139D01*
X357220Y879381D01*
X357220Y878619D01*
X357145Y877861D01*
X356997Y877115D01*
X356776Y876386D01*
X356484Y875682D01*
X356125Y875011D01*
X355702Y874378D01*
X355219Y873789D01*
X354681Y873251D01*
X354092Y872768D01*
X353459Y872345D01*
X352788Y871986D01*
X352084Y871694D01*
X351355Y871473D01*
X350609Y871325D01*
X349851Y871250D01*
X349089Y871250D01*
X348331Y871325D01*
X347585Y871473D01*
X346856Y871694D01*
X346152Y871986D01*
X345481Y872345D01*
X344848Y872768D01*
X344259Y873251D01*
X343721Y873789D01*
X343238Y874378D01*
X342815Y875011D01*
X342456Y875682D01*
X342164Y876386D01*
X341943Y877115D01*
X341795Y877861D01*
X341720Y878619D01*
X341720Y879381D01*
X95650Y51157D02*
X95594Y50735D01*
X95484Y50323D01*
X95321Y49929D01*
X95108Y49561D01*
X94849Y49223D01*
X94547Y48921D01*
X94209Y48662D01*
X93841Y48449D01*
X93447Y48286D01*
X93035Y48176D01*
X92613Y48120D01*
X92187Y48120D01*
X91765Y48176D01*
X91353Y48286D01*
X90959Y48449D01*
X90591Y48662D01*
X90253Y48921D01*
X89951Y49223D01*
X89692Y49561D01*
X89479Y49929D01*
X89316Y50323D01*
X89206Y50735D01*
X89150Y51157D01*
X89150Y51583D01*
X89206Y52005D01*
X89316Y52417D01*
X89479Y52811D01*
X89692Y53179D01*
X89951Y53517D01*
X90253Y53819D01*
X90591Y54078D01*
X90959Y54291D01*
X91353Y54454D01*
X91765Y54564D01*
X92187Y54620D01*
X92613Y54620D01*
X93035Y54564D01*
X93447Y54454D01*
X93841Y54291D01*
X94209Y54078D01*
X94547Y53819D01*
X94849Y53517D01*
X95108Y53179D01*
X95321Y52811D01*
X95484Y52417D01*
X95594Y52005D01*
X95650Y51583D01*
X95650Y51157D01*
X37850Y51157D02*
X37794Y50735D01*
X37684Y50323D01*
X37521Y49929D01*
X37308Y49561D01*
X37049Y49223D01*
X36747Y48921D01*
X36409Y48662D01*
X36041Y48449D01*
X35647Y48286D01*
X35235Y48176D01*
X34813Y48120D01*
X34387Y48120D01*
X33965Y48176D01*
X33553Y48286D01*
X33159Y48449D01*
X32791Y48662D01*
X32453Y48921D01*
X32151Y49223D01*
X31892Y49561D01*
X31679Y49929D01*
X31516Y50323D01*
X31406Y50735D01*
X31350Y51157D01*
X31350Y51583D01*
X31406Y52005D01*
X31516Y52417D01*
X31679Y52811D01*
X31892Y53179D01*
X32151Y53517D01*
X32453Y53819D01*
X32791Y54078D01*
X33159Y54291D01*
X33553Y54454D01*
X33965Y54564D01*
X34387Y54620D01*
X34813Y54620D01*
X35235Y54564D01*
X35647Y54454D01*
X36041Y54291D01*
X36409Y54078D01*
X36747Y53819D01*
X37049Y53517D01*
X37308Y53179D01*
X37521Y52811D01*
X37684Y52417D01*
X37794Y52005D01*
X37850Y51583D01*
X37850Y51157D01*
M02*
