G04 EAGLE Gerber RS-274X export*
G75*
%MOMM*%
%FSLAX34Y34*%
%LPD*%
%INSoldermask Bottom*%
%IPPOS*%
%AMOC8*
5,1,8,0,0,1.08239X$1,22.5*%
G01*
%ADD10C,0.635000*%
%ADD11R,1.397000X0.762000*%
%ADD12C,1.027000*%
%ADD13C,1.651000*%
%ADD14C,1.905000*%
%ADD15C,1.752600*%
%ADD16R,0.762000X1.397000*%
%ADD17R,1.651000X1.651000*%
%ADD18C,3.302000*%
%ADD19C,1.227000*%
%ADD20C,1.677000*%
%ADD21C,6.627000*%
%ADD22C,1.127000*%
%ADD23C,0.777000*%
%ADD24C,0.681000*%
%ADD25C,1.127000*%
%ADD26C,0.731000*%


D10*
X254000Y266700D03*
X254000Y277700D03*
X265000Y266700D03*
X265000Y277700D03*
X243000Y277700D03*
X243000Y255700D03*
X243000Y266700D03*
X254000Y255700D03*
X265000Y255700D03*
D11*
X92710Y627126D03*
X92710Y635254D03*
X124460Y627126D03*
X124460Y635254D03*
X473710Y406146D03*
X473710Y414274D03*
X473710Y438404D03*
X473710Y430276D03*
D12*
X141210Y529210D03*
X171210Y529210D03*
X500140Y526670D03*
X470140Y526670D03*
D13*
X38100Y584200D03*
X38100Y558800D03*
X38100Y533400D03*
X38100Y508000D03*
X38100Y482600D03*
X38100Y457200D03*
X38100Y431800D03*
X38100Y406400D03*
X38100Y381000D03*
X38100Y355600D03*
X38100Y330200D03*
X38100Y304800D03*
X38100Y279400D03*
X38100Y254000D03*
X38100Y228600D03*
X38100Y203200D03*
X38100Y177800D03*
X38100Y152400D03*
X609600Y457200D03*
X609600Y431800D03*
X609600Y406400D03*
X609600Y381000D03*
X609600Y177800D03*
X609600Y203200D03*
X609600Y228600D03*
X609600Y254000D03*
X609600Y279400D03*
X609600Y304800D03*
X609600Y330200D03*
X609600Y355600D03*
D14*
X279400Y977900D03*
X304800Y977900D03*
X330200Y977900D03*
X355600Y977900D03*
X381000Y977900D03*
X406400Y977900D03*
X431800Y977900D03*
X457200Y977900D03*
X482600Y977900D03*
X508000Y977900D03*
X533400Y977900D03*
X558800Y977900D03*
X279400Y774700D03*
X304800Y774700D03*
X330200Y774700D03*
X355600Y774700D03*
X381000Y774700D03*
X406400Y774700D03*
X431800Y774700D03*
X457200Y774700D03*
X482600Y774700D03*
X508000Y774700D03*
X533400Y774700D03*
X558800Y774700D03*
X254000Y774700D03*
X228600Y774700D03*
X203200Y774700D03*
X177800Y774700D03*
D15*
X58420Y797560D03*
X58420Y772160D03*
X83820Y772160D03*
X83820Y797560D03*
X33020Y797560D03*
X33020Y772160D03*
D11*
X378460Y621284D03*
X378460Y613156D03*
D16*
X589534Y304800D03*
X581406Y304800D03*
X59436Y381000D03*
X67564Y381000D03*
D17*
X596900Y38100D03*
D13*
X622300Y38100D03*
D17*
X533400Y38100D03*
D13*
X558800Y38100D03*
D17*
X369570Y36830D03*
D13*
X394970Y36830D03*
D18*
X598120Y868580D03*
X198120Y68580D03*
X198120Y868580D03*
D19*
X549470Y879000D03*
D20*
X349470Y879000D03*
D21*
X449280Y1283600D03*
D22*
X20300Y19570D02*
X20300Y9570D01*
X106700Y9570D02*
X106700Y19570D01*
X106700Y51370D02*
X106700Y61370D01*
X20300Y61370D02*
X20300Y51370D01*
D23*
X92400Y51370D03*
X34600Y51370D03*
D19*
X612300Y1009900D03*
X612300Y1016900D03*
X633800Y1035900D03*
X633800Y1046900D03*
X612300Y1065900D03*
X612300Y1072900D03*
D24*
X259080Y365760D03*
D25*
X102870Y608330D03*
X127000Y381000D03*
D24*
X288223Y459807D03*
X360680Y558800D03*
D25*
X254000Y353060D03*
X355600Y355600D03*
X453390Y326390D03*
D10*
X264160Y488950D03*
D25*
X547370Y422910D03*
X563880Y115570D03*
X260350Y195580D03*
X129540Y41910D03*
X262890Y121920D03*
D10*
X280670Y452120D03*
X276860Y471170D03*
X306070Y491490D03*
D24*
X333707Y625396D03*
D10*
X354126Y601726D03*
X334756Y599224D03*
X459740Y439420D03*
X571500Y316230D03*
X298450Y141732D03*
X596900Y749611D03*
D24*
X307340Y238760D03*
D10*
X135890Y779526D03*
X57150Y819150D03*
D24*
X195580Y746760D03*
X459740Y405130D03*
D25*
X29900Y545766D03*
D10*
X289560Y393700D03*
X289560Y383540D03*
X289560Y373380D03*
D25*
X109220Y588010D03*
D24*
X77470Y623570D03*
X138890Y623570D03*
D25*
X553720Y388620D03*
D24*
X527685Y418465D03*
X525780Y499110D03*
X509270Y223520D03*
X515620Y223520D03*
X518160Y193040D03*
X518160Y186690D03*
X322580Y554990D03*
D10*
X344170Y181610D03*
X319156Y185826D03*
D24*
X149860Y129540D03*
D10*
X74930Y223520D03*
X99060Y290830D03*
D26*
X626110Y81280D03*
D10*
X330200Y228600D03*
X364522Y431800D03*
X481330Y668020D03*
X485140Y650240D03*
X519836Y627786D03*
D26*
X31750Y77316D03*
X532130Y839470D03*
D10*
X279400Y283210D03*
X313505Y520886D03*
X278130Y370840D03*
X251460Y370840D03*
X314960Y514350D03*
D24*
X330200Y403860D03*
D25*
X100330Y565150D03*
D10*
X166370Y579120D03*
X173990Y591820D03*
D25*
X150224Y441960D03*
D24*
X125730Y547370D03*
D10*
X339074Y614680D03*
D25*
X271780Y420370D03*
D10*
X462280Y471170D03*
X492719Y475440D03*
D24*
X66040Y899160D03*
D10*
X114262Y836892D03*
X144780Y580136D03*
X165100Y611564D03*
X144708Y612140D03*
D25*
X443230Y450850D03*
X547370Y455930D03*
D24*
X362797Y565864D03*
X171450Y814070D03*
D12*
X330970Y489223D03*
D10*
X520700Y609600D03*
X487680Y614680D03*
X527066Y653890D03*
X518160Y668020D03*
X459740Y215240D03*
X458470Y267970D03*
D24*
X356870Y147320D03*
X484283Y231140D03*
X529590Y189230D03*
D26*
X472324Y163830D03*
D24*
X245110Y140104D03*
X275265Y147320D03*
D10*
X360680Y152938D03*
D25*
X77470Y184150D03*
X50800Y977900D03*
D24*
X574040Y149860D03*
X200412Y479038D03*
X173990Y122198D03*
X164468Y137798D03*
D10*
X228585Y27686D03*
X156210Y12700D03*
X255004Y33020D03*
D24*
X182324Y122198D03*
X166370Y144780D03*
X207120Y466090D03*
D10*
X263338Y33020D03*
D24*
X190658Y122198D03*
X168399Y151889D03*
X210644Y459624D03*
D10*
X262890Y185420D03*
X312420Y180539D03*
D25*
X260747Y175544D03*
X554990Y165896D03*
D10*
X416560Y185420D03*
X425450Y255270D03*
X577850Y96520D03*
X414276Y139954D03*
X331430Y190540D03*
X358138Y633270D03*
X345440Y193080D03*
X319630Y193900D03*
X350264Y633730D03*
D24*
X406400Y241300D03*
X394970Y176530D03*
X158750Y120650D03*
X149860Y138430D03*
D10*
X298450Y175260D03*
D24*
X397510Y580390D03*
X298450Y562610D03*
X289560Y556046D03*
X330200Y632460D03*
D10*
X286843Y680974D03*
X333596Y724702D03*
X400050Y674370D03*
D24*
X208280Y754380D03*
X86360Y692150D03*
X108308Y219710D03*
D10*
X331470Y200266D03*
X347570Y200266D03*
X350520Y173990D03*
X331470Y337516D03*
X356870Y336550D03*
X393700Y321310D03*
D26*
X452120Y144046D03*
D10*
X393700Y279400D03*
X396240Y546100D03*
D26*
X501876Y756384D03*
X612676Y791210D03*
D10*
X143510Y590550D03*
X405638Y680441D03*
X144305Y568165D03*
X148590Y561340D03*
X166370Y563880D03*
D24*
X154940Y548640D03*
X170966Y476608D03*
D10*
X120650Y565150D03*
X121586Y578467D03*
D24*
X77470Y635000D03*
X138890Y635000D03*
X64882Y546212D03*
X78740Y471170D03*
D10*
X80010Y279400D03*
X460916Y487680D03*
X487680Y490220D03*
X476250Y492760D03*
X500380Y474980D03*
X459740Y416560D03*
X459740Y427990D03*
D24*
X500380Y427990D03*
X547370Y441960D03*
X222250Y556260D03*
X215900Y308610D03*
D10*
X403860Y571500D03*
X535940Y697230D03*
X553110Y731520D03*
X515620Y300990D03*
X405622Y300186D03*
X411480Y369570D03*
X600710Y797560D03*
D24*
X316230Y468630D03*
D10*
X357806Y571500D03*
X350520Y571500D03*
X321294Y474152D03*
X308610Y742862D03*
X603250Y695960D03*
X489023Y722659D03*
X600906Y754945D03*
X367394Y622300D03*
X281756Y564388D03*
X535940Y704850D03*
X546506Y731926D03*
X403098Y585452D03*
X399288Y303530D03*
X399288Y369570D03*
X595630Y810260D03*
D24*
X278130Y725328D03*
D10*
X165100Y754380D03*
X130326Y308674D03*
D24*
X278130Y709930D03*
D10*
X143510Y318770D03*
X135890Y748030D03*
D24*
X130850Y825500D03*
D10*
X457200Y800100D03*
X416814Y887730D03*
D24*
X140850Y812800D03*
D10*
X431800Y800100D03*
X410210Y887730D03*
D24*
X266700Y641350D03*
X170180Y185420D03*
D10*
X402788Y662178D03*
D24*
X274320Y641350D03*
D10*
X402788Y655574D03*
D24*
X171450Y177586D03*
X133350Y163830D03*
X107950Y203200D03*
X121920Y163830D03*
X78740Y199390D03*
X363220Y642620D03*
X248409Y602491D03*
X219638Y601206D03*
X215900Y292100D03*
X72390Y130810D03*
X110490Y92710D03*
X121920Y128270D03*
X72724Y92710D03*
D10*
X353060Y608330D03*
D24*
X254000Y596900D03*
X222782Y594360D03*
X215900Y300990D03*
D10*
X377190Y601980D03*
X404622Y592056D03*
X515620Y331470D03*
D24*
X278130Y716994D03*
D10*
X137160Y313690D03*
D24*
X143510Y759460D03*
D10*
X423418Y887730D03*
D24*
X280670Y690880D03*
X166370Y191770D03*
D10*
X228477Y579120D03*
X226060Y948690D03*
X149860Y679450D03*
X368300Y749300D03*
D24*
X252730Y747712D03*
X190754Y786125D03*
X83820Y435586D03*
D10*
X281940Y641350D03*
X402788Y641604D03*
X429228Y613876D03*
X481330Y373380D03*
X289560Y641350D03*
X402788Y635000D03*
X424164Y609600D03*
X486410Y368236D03*
D24*
X377190Y736600D03*
D10*
X439404Y595948D03*
D24*
X304370Y909320D03*
X344170Y810260D03*
D10*
X449564Y785384D03*
D26*
X533400Y927100D03*
D10*
X539750Y312420D03*
X546100Y380470D03*
D24*
X83820Y515620D03*
D10*
X160806Y466090D03*
X99060Y326390D03*
X88900Y254000D03*
X357161Y739431D03*
X491025Y363172D03*
X547370Y299720D03*
X545387Y345997D03*
X529590Y311150D03*
D24*
X162560Y453390D03*
X156210Y459740D03*
X77470Y381000D03*
X571500Y293370D03*
D10*
X330200Y35560D03*
X380674Y143286D03*
D24*
X153670Y144780D03*
X196548Y485164D03*
D10*
X462280Y461010D03*
X487680Y482600D03*
X433070Y619760D03*
X302260Y740410D03*
X495300Y358108D03*
X469900Y805180D03*
X475615Y936625D03*
X444500Y812800D03*
X482600Y937260D03*
X363220Y708660D03*
X233541Y571500D03*
X339636Y728496D03*
X129540Y297180D03*
X346710Y728496D03*
X209764Y615950D03*
X392430Y241300D03*
X389890Y218440D03*
X388112Y520889D03*
X527050Y458470D03*
D24*
X454660Y497840D03*
D10*
X488950Y562610D03*
X283210Y262890D03*
X311022Y532002D03*
D26*
X40640Y72390D03*
X81280Y72414D03*
D24*
X109083Y525566D03*
X121920Y458470D03*
X121190Y281060D03*
D10*
X343868Y575310D03*
X365760Y590550D03*
D24*
X315264Y559766D03*
X243744Y541116D03*
X323850Y524510D03*
D10*
X120650Y252730D03*
X283210Y271116D03*
X326390Y331470D03*
X315625Y213550D03*
X228092Y34290D03*
X196850Y13090D03*
X450850Y288290D03*
X453428Y237528D03*
X577850Y88900D03*
X409844Y135047D03*
X335280Y43180D03*
X387278Y144810D03*
D24*
X237490Y140104D03*
D10*
X361950Y159542D03*
X363220Y287020D03*
X378476Y535940D03*
D26*
X203200Y812800D03*
X256258Y825500D03*
D10*
X553720Y787654D03*
X554355Y812165D03*
D26*
X519430Y915670D03*
X266700Y996470D03*
D10*
X393240Y487680D03*
X324344Y718044D03*
X387350Y373380D03*
D26*
X613410Y998220D03*
X274320Y1056640D03*
X571500Y998220D03*
D10*
X487680Y963930D03*
X262890Y1153160D03*
X495300Y963930D03*
X262890Y1191260D03*
M02*
