<?xml version="1.0" encoding="UTF-8" standalone="no"?>
<svg
   xmlns:dc="http://purl.org/dc/elements/1.1/"
   xmlns:cc="http://creativecommons.org/ns#"
   xmlns:rdf="http://www.w3.org/1999/02/22-rdf-syntax-ns#"
   xmlns:svg="http://www.w3.org/2000/svg"
   xmlns="http://www.w3.org/2000/svg"
   xmlns:sodipodi="http://sodipodi.sourceforge.net/DTD/sodipodi-0.dtd"
   xmlns:inkscape="http://www.inkscape.org/namespaces/inkscape"
   inkscape:version="1.0 (1.0+r73+1)"
   sodipodi:docname="MountingPlateResnik_KMW_ADW_20201026.svg"
   id="svg1197"
   version="1.1"
   height="653.80072"
   width="1009"
   viewBox="0 0 1009 653.80074">
  <metadata
     id="metadata1201">
    <rdf:RDF>
      <cc:Work
         rdf:about="">
        <dc:format>image/svg+xml</dc:format>
        <dc:type
           rdf:resource="http://purl.org/dc/dcmitype/StillImage" />
        <dc:title></dc:title>
      </cc:Work>
    </rdf:RDF>
  </metadata>
  <sodipodi:namedview
     fit-margin-bottom="0"
     fit-margin-right="0"
     fit-margin-left="0"
     fit-margin-top="0"
     inkscape:current-layer="g1175"
     inkscape:window-maximized="1"
     inkscape:window-y="27"
     inkscape:window-x="72"
     inkscape:cy="740.82466"
     inkscape:cx="-813.77111"
     inkscape:zoom="0.22299458"
     showgrid="false"
     id="namedview1199"
     inkscape:window-height="836"
     inkscape:window-width="1528"
     inkscape:pageshadow="2"
     inkscape:pageopacity="0"
     guidetolerance="10"
     gridtolerance="10"
     objecttolerance="10"
     borderopacity="1"
     bordercolor="#666666"
     pagecolor="#ffffff" />
  <defs
     id="defs1051">
    <marker
       style="overflow:visible"
       refY="0"
       refX="0"
       orient="auto"
       id="DistanceX">
      <path
         id="path1039"
         style="stroke:#000000;stroke-width:0.5"
         d="M 3,-3 -3,3 M 0,-5 V 5" />
    </marker>
    <pattern
       y="0"
       x="0"
       height="8"
       width="8"
       patternUnits="userSpaceOnUse"
       id="Hatch">
      <path
         id="path1042"
         linecap="square"
         stroke-width="0.25"
         stroke="#000000"
         d="M8 4 l-4,4" />
      <path
         id="path1044"
         linecap="square"
         stroke-width="0.25"
         stroke="#000000"
         d="M6 2 l-4,4" />
      <path
         id="path1046"
         linecap="square"
         stroke-width="0.25"
         stroke="#000000"
         d="M4 0 l-4,4" />
    </pattern>
    <symbol
       id="*MODEL_SPACE" />
    <symbol
       id="*PAPER_SPACE" />
  </defs>
  <g
     transform="translate(0.5,-469.21875)"
     id="g1053"
     inkscape:label="0"
     inkscape:groupmode="layer" />
  <g
     transform="translate(0.5,-469.21875)"
     id="g1055"
     inkscape:label="SECTION_CUTTING_LINE"
     inkscape:groupmode="layer" />
  <g
     transform="translate(0.5,-469.21875)"
     id="g1057"
     inkscape:label="DETAIL_VIEW_BORDER"
     inkscape:groupmode="layer" />
  <g
     transform="translate(0.5,-469.21875)"
     id="g1059"
     inkscape:label="DETAIL_VIEW_PARENT_BORDER"
     inkscape:groupmode="layer" />
  <g
     transform="translate(0.5,-469.21875)"
     id="g1061"
     inkscape:label="TEXT"
     inkscape:groupmode="layer" />
  <g
     transform="translate(0.5,-469.21875)"
     id="g1063"
     inkscape:label="SKETCHED_GEOMETRY"
     inkscape:groupmode="layer" />
  <g
     transform="translate(0.5,-469.21875)"
     id="g1065"
     inkscape:label="VIRTUAL_SHARPS"
     inkscape:groupmode="layer" />
  <g
     transform="translate(0.5,-469.21875)"
     id="g1067"
     inkscape:label="CENTERLINES"
     inkscape:groupmode="layer" />
  <g
     transform="translate(0.5,-469.21875)"
     id="g1069"
     inkscape:label="CENTERMARKS"
     inkscape:groupmode="layer" />
  <g
     transform="translate(0.5,-469.21875)"
     id="g1071"
     inkscape:label="TABLES"
     inkscape:groupmode="layer" />
  <g
     transform="translate(0.5,-469.21875)"
     id="g1073"
     inkscape:label="IMAGES"
     inkscape:groupmode="layer" />
  <g
     transform="translate(0.5,-469.21875)"
     id="g1075"
     inkscape:label="ANNOTATION_LINES"
     inkscape:groupmode="layer" />
  <g
     transform="translate(0.5,-469.21875)"
     id="g1077"
     inkscape:label="ANNOTATION_TEXT"
     inkscape:groupmode="layer" />
  <g
     transform="translate(0.5,-469.21875)"
     id="g1079"
     inkscape:label="SIDE_THREAD_SYMBOLS"
     inkscape:groupmode="layer" />
  <g
     transform="translate(0.5,-469.21875)"
     id="g1081"
     inkscape:label="SIDE_THREAD_SYMBOLS_HIDDEN"
     inkscape:groupmode="layer" />
  <g
     transform="translate(0.5,-469.21875)"
     id="g1083"
     inkscape:label="SURFACE_THREAD_SYMBOLS"
     inkscape:groupmode="layer" />
  <g
     transform="translate(0.5,-469.21875)"
     id="g1085"
     inkscape:label="SURFACE_THREAD_SYMBOLS_ON_"
     inkscape:groupmode="layer" />
  <g
     transform="translate(0.5,-469.21875)"
     id="g1087"
     inkscape:label="SURFACE_THREAD_SYMBOLS_HID"
     inkscape:groupmode="layer" />
  <g
     transform="translate(0.5,-469.21875)"
     id="g1089"
     inkscape:label="BLIND_THREAD_SYMBOLS"
     inkscape:groupmode="layer" />
  <g
     transform="translate(0.5,-469.21875)"
     id="g1091"
     inkscape:label="BLIND_THREAD_SYMBOLS_HIDDE"
     inkscape:groupmode="layer" />
  <g
     transform="translate(0.5,-469.21875)"
     id="g1093"
     inkscape:label="EXPLODE_LINES"
     inkscape:groupmode="layer" />
  <g
     transform="translate(0.5,-469.21875)"
     id="g1095"
     inkscape:label="HIDDEN_EXPLODE_LINES"
     inkscape:groupmode="layer" />
  <g
     transform="translate(0.5,-469.21875)"
     id="g1097"
     inkscape:label="BREAK_LINES"
     inkscape:groupmode="layer" />
  <g
     transform="translate(0.5,-469.21875)"
     id="g1099"
     inkscape:label="SHEETMETAL_BEND_LINES_UP"
     inkscape:groupmode="layer" />
  <g
     transform="translate(0.5,-469.21875)"
     id="g1101"
     inkscape:label="SHEETMETAL_BEND_LINES_DOWN"
     inkscape:groupmode="layer" />
  <g
     transform="translate(0.5,-469.21875)"
     id="g1103"
     inkscape:label="SHEETMETAL_BEND_TANGENT_LI"
     inkscape:groupmode="layer" />
  <g
     transform="translate(0.5,-469.21875)"
     id="g1105"
     inkscape:label="SHEETMETAL_CUT_LINES"
     inkscape:groupmode="layer" />
  <g
     transform="translate(0.5,-469.21875)"
     id="g1107"
     inkscape:label="HIDDEN"
     inkscape:groupmode="layer" />
  <g
     transform="translate(0.5,-469.21875)"
     id="g1175"
     inkscape:label="VISIBLE"
     inkscape:groupmode="layer">
    <path
       d="m 85.865234,469.71875 c -4.889165,0 -8.997774,3.67627 -9.541015,8.53516 C 72.337478,513.9124 44.191697,542.05818 8.5332031,546.04492 3.6743123,546.58816 3.3955816e-7,550.69482 0,555.58398 v 481.07032 c 3.3955827e-7,4.8891 3.6743123,8.9978 8.5332031,9.541 35.6584939,3.9868 63.8042749,32.1325 67.7910159,67.791 0.543241,4.8588 4.65185,8.5332 9.541015,8.5332 H 922.13477 c 4.88916,0 8.99777,-3.6744 9.54101,-8.5332 3.98674,-35.6585 32.13252,-63.8042 67.79102,-67.791 4.8589,-0.5432 8.5332,-4.6519 8.5332,-9.541 V 555.58398 c 0,-4.88916 -3.6743,-8.99582 -8.5332,-9.53906 -35.6585,-3.98674 -63.80428,-32.13252 -67.79102,-67.79101 -0.54324,-4.85889 -4.65185,-8.53516 -9.54101,-8.53516 z m -7.667968,75.07227 a 10.368,10.368 0 0 1 0.08203,0 10.368,10.368 0 0 1 10.328125,10.36914 10.368164,10.368164 0 0 1 -20.736328,0 10.368,10.368 0 0 1 10.326173,-10.36914 z m 851.521484,0 a 10.368,10.368 0 0 1 0.082,0 10.368,10.368 0 0 1 10.32813,10.36914 10.368165,10.368165 0 0 1 -20.73633,0 10.368,10.368 0 0 1 10.32617,-10.36914 z m -229.3125,79.6914 a 6,6 0 0 1 6.05078,6 6,6 0 0 1 -12,0 6,6 0 0 1 5.94922,-6 z m 232.02539,0 a 6,6 0 0 1 6.04883,6 6,6 0 0 1 -12,0 6,6 0 0 1 5.95117,-6 z m -475.5,26.32422 a 6,6 0 0 1 6.05078,6 6,6 0 0 1 -12,0 6,6 0 0 1 5.94922,-6 z m 151.18164,0 a 6,6 0 0 1 6.05078,6 6,6 0 0 1 -12,0 6,6 0 0 1 5.94922,-6 z M 62.005859,661.61523 a 6,6 0 0 1 6.050782,6 6,6 0 0 1 -12,0 6,6 0 0 1 5.949218,-6 z m 257.007811,0 a 6,6 0 0 1 6.05078,6 6,6 0 0 1 -12,0 6,6 0 0 1 5.94922,-6 z M 133.81641,791.06445 a 6,6 0 0 1 6.05078,6 6,6 0 0 1 -12,0 6,6 0 0 1 5.94922,-6 z m 113.38671,0 a 6,6 0 0 1 6.04883,6 6,6 0 0 1 -12,0 6,6 0 0 1 5.95117,-6 z M 62.005859,918.62305 a 6,6 0 0 1 6.050782,6 6,6 0 0 1 -12,0 6,6 0 0 1 5.949218,-6 z m 257.007811,0 a 6,6 0 0 1 6.05078,6 6,6 0 0 1 -12,0 6,6 0 0 1 5.94922,-6 z m 137.91797,34.54492 a 6,6 0 0 1 6.05078,6 6,6 0 0 1 -12,0 6,6 0 0 1 5.94922,-6 z m 243.47461,2.43945 a 6,6 0 0 1 6.05078,5.99805 6,6 0 0 1 -12,0 6,6 0 0 1 5.94922,-5.99805 z m 232.02539,0 a 6,6 0 0 1 6.04883,5.99805 6,6 0 0 1 -12,0 6,6 0 0 1 5.95117,-5.99805 z M 78.197266,1026.7109 a 10.368,10.368 0 0 1 0.08203,0 10.368,10.368 0 0 1 10.328125,10.3692 10.368164,10.368164 0 0 1 -20.736328,0 10.368,10.368 0 0 1 10.326173,-10.3692 z m 851.521484,0 a 10.368,10.368 0 0 1 0.082,0 10.368,10.368 0 0 1 10.32813,10.3692 10.368165,10.368165 0 0 1 -20.73633,0 10.368,10.368 0 0 1 10.32617,-10.3692 z"
       style="fill:#cccccc;stroke:#000000"
       id="path1143" />
  </g>
  <g
     transform="translate(0.5,-469.21875)"
     id="g1177"
     inkscape:label="MODELSKETCH_VISIBLE"
     inkscape:groupmode="layer" />
  <g
     transform="translate(0.5,-469.21875)"
     id="g1179"
     inkscape:label="MODELSKETCH_POINT"
     inkscape:groupmode="layer" />
  <g
     transform="translate(0.5,-469.21875)"
     id="g1181"
     inkscape:label="MODELSKETCH_CONSTRUCTION"
     inkscape:groupmode="layer" />
  <g
     transform="translate(0.5,-469.21875)"
     id="g1183"
     inkscape:label="HIDDEN_BASE_VIEW"
     inkscape:groupmode="layer" />
  <g
     transform="translate(0.5,-469.21875)"
     id="g1185"
     inkscape:label="TANGENT_LINES"
     inkscape:groupmode="layer" />
  <g
     transform="translate(0.5,-469.21875)"
     id="g1187"
     inkscape:label="TANGENT_HIDDEN"
     inkscape:groupmode="layer" />
  <g
     transform="translate(0.5,-469.21875)"
     id="g1189"
     inkscape:label="INVISIBLE_LINES"
     inkscape:groupmode="layer" />
  <g
     transform="translate(0.5,-469.21875)"
     id="g1191"
     inkscape:label="VIEW_HATCHES"
     inkscape:groupmode="layer" />
  <g
     transform="translate(0.5,-469.21875)"
     id="g1193"
     inkscape:label="SECTION_JOG_LINES"
     inkscape:groupmode="layer" />
  <desc
     id="desc1195">MountingPlateResnik.dxf - scale = 25.400000, origin = (0.000000, 0.000000), method = file</desc>
</svg>
